<svg id="Layer_1" data-name="Layer 1" xmlns="http://www.w3.org/2000/svg" xmlns:xlink="http://www.w3.org/1999/xlink" viewBox="0 0 3569.97 2242.09"><defs><style>.cls-1{fill:url(#linear-gradient);}.cls-2{fill:url(#linear-gradient-2);}.cls-3{fill:url(#linear-gradient-3);}.cls-4{fill:url(#linear-gradient-4);}.cls-5{fill:url(#linear-gradient-5);}.cls-6{fill:url(#linear-gradient-6);}</style><linearGradient id="linear-gradient" x1="1056.29" y1="644.31" x2="1465.4" y2="534" gradientUnits="userSpaceOnUse"><stop offset="0" stop-color="#3638ae"/><stop offset="0.17" stop-color="#4e42b8"/><stop offset="0.55" stop-color="#8056cc"/><stop offset="0.84" stop-color="#9f63d9"/><stop offset="1" stop-color="#ab68de"/></linearGradient><linearGradient id="linear-gradient-2" x1="364.59" y1="673.02" x2="779.92" y2="554.76" gradientUnits="userSpaceOnUse"><stop offset="0" stop-color="#3638ae"/><stop offset="0.32" stop-color="#5846bc"/><stop offset="1" stop-color="#ab68de"/></linearGradient><linearGradient id="linear-gradient-3" x1="2249.26" y1="2158.28" x2="3914.54" y2="1684.12" gradientUnits="userSpaceOnUse"><stop offset="0" stop-color="#fff"/><stop offset="0.63" stop-color="#e9def4"/><stop offset="1" stop-color="#dbc8ed"/></linearGradient><linearGradient id="linear-gradient-4" x1="2249.26" y1="915.67" x2="3914.54" y2="441.51" xlink:href="#linear-gradient-2"/><linearGradient id="linear-gradient-5" x1="1059.97" y1="1479.1" x2="1590.69" y2="1327.99" xlink:href="#linear-gradient-2"/><linearGradient id="linear-gradient-6" x1="1462.79" y1="1646.23" x2="1879.43" y2="1527.6" xlink:href="#linear-gradient-3"/></defs><path class="cls-1" d="M1464.86,533.39c-5.87-19.92-44.27-22.16-75.44-20.53-10.83.56-22.61,1.65-34.82,3.25a0,0,0,0,0,0,.07c.79,1,1.58,2.05,2.34,3.14a119.56,119.56,0,0,0-214.05,46.1q-1.11,5.4-1.7,10.79v-.07c-59.5,26.47-103.54,57.94-96.7,81.17,4.35,14.75,27.1,21,59.61,21,20.06,0,43.85-2.37,69.31-6.56h0a118.51,118.51,0,0,0,53.47,32.56A119.71,119.71,0,0,0,1376.15,618c.78-3.18,1.35-5.68,1.8-8.34,0-.11,0-.21,0-.31C1432.87,583.82,1471.36,555.46,1464.86,533.39ZM1119.38,667.86c-44.57,2.33-63-5.38-65.33-13.38s8.92-24.45,47.63-46.67c11.45-6.57,24.72-13.3,38.72-19.67,0,0,0,0,0,0,0-.51,0-1.05,0-1.6a120,120,0,0,0,25.31,76.32s0,.06,0,.07C1149.19,665.43,1133.6,667.12,1119.38,667.86Zm247.06-52.3a109.7,109.7,0,0,1-136.78,79.11,108.53,108.53,0,0,1-44.13-25,0,0,0,0,1,0-.08,839.33,839.33,0,0,0,85-20.38,820.76,820.76,0,0,0,96.18-34.82Zm41.2-32.66c-35.74,20.51-85.43,40.65-139.93,56.72A816.24,816.24,0,0,1,1177.23,661l0,0a109.55,109.55,0,1,1,183-116,5.23,5.23,0,0,0,6.21,3,5,5,0,0,0,3.08-6.76,118.38,118.38,0,0,0-8.42-15.77.05.05,0,0,1,0-.07c10.1-1.22,19.75-2.08,28.83-2.56q8.25-.42,15.32-.42c33.55,0,47.94,6.79,50,13.8C1457.62,544.22,1446.35,560.67,1407.64,582.9Z" transform="translate(-349.25 -180.86)"/><path class="cls-2" d="M570.68,739A125.2,125.2,0,0,1,536,734.1a123.9,123.9,0,0,1-53.88-32c-25.69,4.12-48.41,6.21-67.56,6.21-37.93,0-59.6-8.26-64.4-24.54-9.84-33.39,62.43-70.45,96.88-86,.38-2.81.85-5.59,1.41-8.32a124.55,124.55,0,0,1,218.71-53.6c11.21-1.41,22.14-2.4,32.49-2.94,48-2.51,75,5.6,80.5,24.11h0c8.48,28.78-42.15,59.6-87.2,80.75-.41,2.07-.89,4.12-1.46,6.41A125,125,0,0,1,570.68,739Zm-63.52-41.45a104.66,104.66,0,0,0,162.35-49.42A840.24,840.24,0,0,1,582.44,679C557.48,686.37,531.67,692.73,507.16,697.58Zm-61.05-76.7c-11.37,5.36-22.13,10.93-31.45,16.28-40.26,23.11-46.36,37.38-45.32,40.92s13.91,12.23,60.27,9.8h0c11.64-.61,24.33-1.86,37.81-3.74A125.32,125.32,0,0,1,446.11,620.88Zm-86.4,59.88a.83.83,0,0,0,0,.15l.06.21-.06-.21A.83.83,0,0,1,359.71,680.76Zm0,0h0Zm210.64-171A104.53,104.53,0,0,0,489.67,680.6a808,808,0,0,0,87.11-20.77c54.14-16,103.46-35.94,138.86-56.26C755.9,580.46,762,566.2,761,562.65c-.84-2.84-10.59-10.21-45.21-10.21-4.72,0-9.79.14-15.06.41-6.61.35-13.62.91-20.92,1.67,1.74,3.18,3.35,6.43,4.8,9.72a10,10,0,0,1-6.14,13.53,10.17,10.17,0,0,1-12.3-5.76,104.87,104.87,0,0,0-95.79-62.25Z" transform="translate(-349.25 -180.86)"/><path class="cls-3" d="M3075.59,2423a502.61,502.61,0,0,1-139.06-19.76,496.78,496.78,0,0,1-216-128.41c-103,16.52-194.08,24.9-270.88,24.9-152.09,0-239-33.11-258.21-98.41-39.46-133.86,250.31-282.47,388.46-344.81,1.52-11.26,3.41-22.43,5.65-33.35,27.59-134.34,106.65-248.68,222.62-322s253.2-95.71,386.13-63a500.47,500.47,0,0,1,268.18,170c44.93-5.64,88.77-9.61,130.24-11.78,192.27-10.07,300.88,22.47,322.76,96.69h0c34,115.4-169,239-349.61,323.76-1.64,8.29-3.57,16.51-5.83,25.71-32.71,132.93-116.16,244-235,312.82C3247.72,2400.13,3162.22,2422.94,3075.59,2423Zm-254.68-166.19a411.66,411.66,0,0,0,137.81,69.37c110.65,31.81,226.48,17.55,326.15-40.15,89.07-51.56,154.46-131.43,187-227.37-108,45.5-227.83,88-349.11,123.73C3022.67,2211.84,2919.18,2237.34,2820.91,2256.76Zm-244.79-307.53c-45.58,21.51-88.71,43.84-126.08,65.28-161.43,92.67-185.91,149.86-181.72,164.08s55.79,49,241.67,39.29h0c46.66-2.44,97.52-7.48,151.58-15A502.81,502.81,0,0,1,2576.12,1949.23Zm-346.43,240.09.18.61c.08.28.16.56.25.84-.09-.28-.17-.56-.25-.84Zm0,0s0,0,0,0Zm844.57-685.59c-78.23,0-155.08,22.13-223.27,65.22-97.36,61.52-163.74,157.51-186.89,270.29-25.5,124.14,6.1,250.86,86.71,349.48,111.33-19.74,228.68-47.72,349.27-83.27,217.07-64,414.79-144.09,556.75-225.58,161.43-92.67,185.91-149.86,181.72-164.08-3.36-11.39-42.47-41-181.29-41-18.92,0-39.23.56-60.38,1.66-26.49,1.39-54.6,3.63-83.89,6.71,7,12.76,13.45,25.79,19.25,39a40.06,40.06,0,0,1-24.63,54.26c-19.48,6.2-40.66-3.74-49.28-23.12-52.34-117.83-158.21-206.52-283.2-237.27A422,422,0,0,0,3074.25,1503.7Z" transform="translate(-349.25 -180.86)"/><path class="cls-4" d="M3075.59,1180.34a503,503,0,0,1-139.06-19.75,496.9,496.9,0,0,1-216-128.42c-103,16.53-194.08,24.9-270.88,24.9-152.09,0-239-33.11-258.21-98.41C2152,824.8,2441.72,676.19,2579.87,613.85c1.52-11.25,3.41-22.43,5.65-33.34,27.59-134.34,106.65-248.69,222.62-322s253.2-95.71,386.13-63a500.43,500.43,0,0,1,268.18,170c44.93-5.65,88.77-9.62,130.24-11.78,192.27-10.08,300.88,22.46,322.76,96.69h0c34,115.4-169,238.94-349.61,323.75-1.64,8.29-3.57,16.51-5.83,25.71-32.71,132.94-116.16,244-235,312.82C3247.72,1157.53,3162.22,1180.34,3075.59,1180.34Zm-254.68-166.19a411.69,411.69,0,0,0,137.81,69.38c110.65,31.81,226.48,17.55,326.15-40.15,89.07-51.57,154.46-131.44,187-227.38-108,45.5-227.83,88-349.11,123.73C3022.67,969.23,2919.18,994.73,2820.91,1014.15ZM2576.12,706.63c-45.58,21.51-88.71,43.83-126.08,65.27C2288.61,864.57,2264.13,921.77,2268.32,936s55.79,49,241.67,39.29h0c46.66-2.44,97.52-7.48,151.58-15A502.81,502.81,0,0,1,2576.12,706.63ZM2229.69,946.71l.18.62c.08.28.16.55.25.83-.09-.28-.17-.56-.25-.84Zm0,0s0,0,0,0Zm844.57-685.59c-78.23,0-155.08,22.13-223.27,65.22-97.36,61.52-163.74,157.51-186.89,270.29-25.5,124.14,6.1,250.87,86.71,349.49,111.33-19.75,228.68-47.73,349.27-83.28,217.07-64,414.79-144.09,556.75-225.57,161.43-92.67,185.91-149.87,181.72-164.08-3.36-11.39-42.47-41-181.29-41-18.92,0-39.23.56-60.38,1.67-26.49,1.38-54.6,3.63-83.89,6.7,7,12.76,13.45,25.79,19.25,39a40.08,40.08,0,0,1-24.63,54.27c-19.48,6.19-40.66-3.75-49.28-23.13C3406,392.85,3300.11,304.15,3175.12,273.4A422,422,0,0,0,3074.25,261.09Z" transform="translate(-349.25 -180.86)"/><rect class="cls-5" x="1071.27" y="1163.07" width="486.97" height="486.97" rx="61.42"/><path class="cls-6" d="M1669.53,1712.45a126,126,0,0,1-34.79-4.94,124.33,124.33,0,0,1-54-32.13c-25.77,4.13-48.56,6.23-67.77,6.23-38.06,0-59.79-8.29-64.61-24.62-9.87-33.5,62.63-70.68,97.19-86.28.38-2.81.86-5.61,1.42-8.34a124.94,124.94,0,0,1,219.4-53.77c11.24-1.42,22.21-2.41,32.59-2.95,48.1-2.52,75.28,5.62,80.75,24.19h0c8.51,28.87-42.28,59.78-87.47,81-.41,2.08-.89,4.13-1.46,6.43a125.35,125.35,0,0,1-121.2,95.18Zm-63.72-41.58a103,103,0,0,0,34.48,17.36,105.09,105.09,0,0,0,128.39-66.94,838.66,838.66,0,0,1-87.35,31C1656.29,1659.63,1630.4,1666,1605.81,1670.87Zm-61.24-76.94c-11.41,5.38-22.2,11-31.55,16.33-40.39,23.18-46.51,37.49-45.46,41s14,12.27,60.46,9.83h0c11.67-.61,24.4-1.87,37.92-3.75A125.87,125.87,0,0,1,1544.57,1593.93ZM1457.89,1654s0,.1,0,.15a1.72,1.72,0,0,0,.07.21l-.07-.21C1457.92,1654.1,1457.9,1654.05,1457.89,1654Zm0,0Zm211.31-171.53a104.85,104.85,0,0,0-80.93,171.38,814.76,814.76,0,0,0,87.39-20.83c54.31-16,103.78-36.06,139.29-56.44,40.39-23.19,46.52-37.5,45.47-41.06-.84-2.85-10.63-10.24-45.36-10.24-4.73,0-9.81.14-15.11.41-6.62.35-13.66.91-21,1.68,1.76,3.19,3.37,6.45,4.82,9.75a10,10,0,0,1-6.16,13.58,10.21,10.21,0,0,1-12.33-5.79,105.22,105.22,0,0,0-96.09-62.44Z" transform="translate(-349.25 -180.86)"/></svg>