<?xml version="1.0" encoding="utf-8"?>
<!-- Generator: Adobe Illustrator 25.4.1, SVG Export Plug-In . SVG Version: 6.00 Build 0)  -->
<svg version="1.2" baseProfile="tiny" id="Layer_1" xmlns="http://www.w3.org/2000/svg" xmlns:xlink="http://www.w3.org/1999/xlink"
	 x="0px" y="0px" viewBox="0 0 1731.47 999.48" overflow="visible" xml:space="preserve">
<linearGradient id="SVGID_1_" gradientUnits="userSpaceOnUse" x1="61.5102" y1="734.8093" x2="1726.7871" y2="260.6501">
	<stop  offset="9.701765e-04" style="stop-color:#3638AE"/>
	<stop  offset="0.3168" style="stop-color:#5846BC"/>
	<stop  offset="1" style="stop-color:#AB68DE"/>
</linearGradient>
<path fill="url(#SVGID_1_)" d="M887.84,999.48c-46.39,0-93.09-6.54-139.06-19.75c-81.69-23.49-156.16-67.79-216.03-128.41
	c-102.99,16.52-194.08,24.9-270.88,24.9c-152.09,0-238.96-33.11-258.21-98.41C-35.8,643.94,253.97,495.33,392.12,432.99
	c1.52-11.25,3.41-22.42,5.65-33.34c27.59-134.34,106.65-248.68,222.62-321.96c116.07-73.34,253.2-95.71,386.13-63.01
	c105.45,25.95,199.7,85.9,268.18,170.04c44.93-5.65,88.77-9.62,130.24-11.78c192.27-10.07,300.89,22.47,322.77,96.69l0,0
	c34.01,115.4-168.98,238.94-349.61,323.76c-1.64,8.29-3.57,16.51-5.83,25.71c-32.71,132.93-116.15,244.03-234.97,312.82
	C1059.97,976.67,974.47,999.48,887.84,999.48z M633.16,833.29c41.16,31.6,87.35,54.87,137.81,69.37
	c110.65,31.81,226.48,17.55,326.15-40.15c89.06-51.57,154.46-131.44,186.99-227.37c-108.03,45.49-227.83,87.98-349.11,123.73
	C834.92,788.37,731.43,813.87,633.16,833.29z M388.37,525.77c-45.58,21.51-88.72,43.83-126.08,65.28
	C100.86,683.71,76.38,740.91,80.57,755.12c4.19,14.23,55.78,49.02,241.66,39.28l0,0c46.66-2.44,97.52-7.47,151.58-15
	C422.87,703.95,393.25,615.96,388.37,525.77z M41.94,765.85c0.06,0.21,0.12,0.41,0.18,0.62c0.08,0.28,0.17,0.56,0.25,0.83
	c-0.09-0.28-0.17-0.56-0.25-0.84C42.06,766.26,42,766.06,41.94,765.85z M41.93,765.82c0,0.01,0,0.01,0.01,0.02
	C41.94,765.84,41.93,765.83,41.93,765.82z M886.5,80.23c-78.23,0-155.08,22.13-223.27,65.23
	c-97.36,61.52-163.73,157.51-186.89,270.29c-25.49,124.14,6.1,250.87,86.72,349.49c111.32-19.75,228.68-47.73,349.27-83.27
	c217.07-63.98,414.79-144.1,556.74-225.58c161.44-92.67,185.91-149.86,181.72-164.08c-3.36-11.39-42.47-40.95-181.29-40.95
	c-18.91,0-39.23,0.56-60.37,1.66c-26.49,1.38-54.61,3.63-83.89,6.71c7.01,12.76,13.45,25.78,19.26,38.96
	c4.55,10.33,4.49,22.16-0.17,32.48c-4.68,10.38-13.6,18.32-24.46,21.78c-19.48,6.2-40.66-3.74-49.28-23.13
	c-52.35-117.82-158.22-206.52-283.21-237.27C953.87,84.3,920.06,80.23,886.5,80.23z"/>
</svg>
