<svg xmlns="http://www.w3.org/2000/svg" xmlns:xlink="http://www.w3.org/1999/xlink">
    <symbol id="architecture" viewBox="0 0 512 512">
        <path d="M128 6H0m128 500H0M6 0v512M384 506h128M384 6h128m-6 506V0" stroke="#d72516" stroke-width="12" />
        <path
            d="M179.6 322c0-2.1-1.7-3.8-3.7-3.8a40.4 40.4 0 01-16.7-77.1 3.7 3.7 0 10-3.1-6.8 48 48 0 0019.8 91.4c2 0 3.7-1.7 3.7-3.8zM206.5 243.6A63.3 63.3 0 01325 225a3.7 3.7 0 106.6-3.5c-2.1-4-4.6-7.6-7.3-11v-50l9-10.8a11.3 11.3 0 10-5.7-4.8l-10 11.8c-.5.7-.8 1.5-.8 2.4v43.3a70.7 70.7 0 00-22.6-13.9v-26.2a11.3 11.3 0 10-7.5 0v23.8a71.1 71.1 0 00-27-1.6v-34.8a11.3 11.3 0 10-7.4 0V186a70.8 70.8 0 00-27 13v-36.5a11.3 11.3 0 10-7.5 0v43.3a70.5 70.5 0 00-17.4 31c-1.8-1-3.6-2-5.4-2.8v-74.7c0-.9-.4-1.7-1-2.4l-9.9-11.9a11.3 11.3 0 10-5.7 4.8l9 10.9v70.8c-3.7-1-7.6-1.4-11.5-1.4a3.8 3.8 0 000 7.5c9 0 17.5 2.9 24.6 8.4a3.7 3.7 0 006-2.3zm130.8-108.1a3.7 3.7 0 110 7.5 3.7 3.7 0 010-7.5zm-46.8 12.6a3.7 3.7 0 110 7.5 3.7 3.7 0 010-7.5zM256 135.5a3.7 3.7 0 110 7.5 3.7 3.7 0 010-7.5zm-34.5 12.6a3.7 3.7 0 110 7.5 3.7 3.7 0 010-7.5zm-50.8-8.9a3.7 3.7 0 117.5 0 3.7 3.7 0 01-7.5 0zM347.9 253.5c-2.8 0-5.4.3-8 .9-.1-5.2-.7-10.4-1.9-15.5a3.7 3.7 0 00-7.3 1.7 63.7 63.7 0 011.5 18.7 3.7 3.7 0 005.1 3.7 28.6 28.6 0 1110.6 55.2h-12.3a3.8 3.8 0 000 7.5h12.3a36.1 36.1 0 000-72.2zM305.8 318.2H271a3.8 3.8 0 000 7.5h15.7v36.5a11.3 11.3 0 107.5 0v-36.5h11.6a3.8 3.8 0 000-7.5zm-15.3 58.3a3.7 3.7 0 110-7.5 3.7 3.7 0 010 7.5zM241 318.2h-34.2a3.8 3.8 0 000 7.5h11v36.5a11.3 11.3 0 107.5 0v-36.5H241a3.8 3.8 0 000-7.5zm-19.5 58.3a3.7 3.7 0 110-7.5 3.7 3.7 0 010 7.5z"
            fill="#d72516" />
        <path
            d="M191.4 285.8a11.3 11.3 0 00-3.7 21.9v51.2l-15.9 19a3.7 3.7 0 105.8 4.8l16.7-20c.6-.7.9-1.5.9-2.4v-52.6a11.3 11.3 0 00-3.8-21.9zm0 15a3.7 3.7 0 110-7.5 3.7 3.7 0 010 7.5zM256 285.8a11.3 11.3 0 00-3.8 21.9v72.6a3.8 3.8 0 007.6 0v-72.6a11.3 11.3 0 00-3.8-21.9zm0 15a3.7 3.7 0 110-7.5 3.7 3.7 0 010 7.5zM324.3 359v-51.3a11.3 11.3 0 10-7.5 0v52.6c0 .9.3 1.7.9 2.4l16.8 20a3.7 3.7 0 105.7-4.9L324.3 359zm-3.7-65.7a3.7 3.7 0 110 7.5 3.7 3.7 0 010-7.5z"
            fill="#d72516" />
    </symbol>

    <symbol id="blogging" viewBox="0 0 512 512">
        <path d="M128 6H0m128 500H0M6 0v512M384 506h128M384 6h128m-6 506V0" stroke="#0b70ba" stroke-width="12" />
        <path
            d="M378.9 152H133.1a5.1 5.1 0 00-5.1 5v161.4c0 2.8 2.3 5 5.1 5h90v26.4h-18.2a5.1 5.1 0 100 10.2h102.2a5.1 5.1 0 000-10.2H289v-26.3h89.9c2.8 0 5.1-2.3 5.1-5.1V157c0-2.9-2.3-5.1-5.1-5.1zM278.8 349.8h-45.6v-26.3h45.6v26.3zm95-36.5H138.2V162.2h235.6v151z"
            fill="#0b70ba" />
        <path
            d="M247.3 174H156a5.1 5.1 0 00-5.1 5.2V245c0 2.8 2.3 5.1 5 5.1h91.5c2.8 0 5.1-2.3 5.1-5.1v-66c0-2.7-2.3-5-5-5zm-78.9 66l16.2-16.2 16.2 16.2h-32.4zm73.8 0h-27l-.4-.5-8.8-8.7 19.9-19.9 16.3 16.4V240zm0-27.1L229.5 200c-2-2-5.3-2-7.3 0l-23.4 23.4-10.6-10.5c-2-2-5.2-2-7.2 0l-20 20v-48.7h81.2v28.6z"
            fill="#0b70ba" />
        <path
            d="M360.6 183.3l-9.2-9.3a12 12 0 00-17 0l-66.2 66.2a5 5 0 00-1.3 2.1l-7.2 23.8H156a5.1 5.1 0 100 10.2h107.8a5 5 0 002-.5l26.6-8a5 5 0 002.2-1.3l66.1-66.2a12 12 0 000-17zm-89.4 80.2l3-10 7 7-10 3zm19.7-7.8L279 243.8l51.8-51.7 11.8 11.8-51.7 51.8zm62.5-62.6l-3.6 3.6-11.8-11.9 3.6-3.5c.7-.8 1.9-.8 2.6 0l9.2 9.2a1.8 1.8 0 010 2.6zM334 290.6H156a5.1 5.1 0 100 10.2H334a5.1 5.1 0 000-10.2zM356.7 290.6h-2.8a5.1 5.1 0 100 10.2h2.8a5.1 5.1 0 000-10.2z"
            fill="#0b70ba" />
    </symbol>

    <symbol id="money" viewBox="0 0 512 512">
        <path d="M128 6H0m128 500H0M6 0v512M384 506h128M384 6h128m-6 506V0" stroke="#21815b" stroke-width="12" />
        <g clip-path="url(#clip0)">
            <path fill-rule="evenodd" clip-rule="evenodd"
                d="M237.5 172c-4-11.6-7.5-23.4-10.6-35.4 11.2-12.2 54.5-10.6 67-.1l-11.5 27.4c6.2-8.2 8.2-11.5 12-16 1.5 1 3 2.1 4.3 3.3 3.3 3 6.2 6.3 6.8 10.9.4 3-.4 6-3 9L276 202c-3.4-.5-6.8-1.4-10-2.5l4.8-11-9.6 10.4a36 36 0 00-25.6 3.2l-26.8-32.2a9 9 0 01-2.3-5.8c0-7.8 11.6-14.5 17.7-17l13.3 25zm34.3 58.2l-5.2-24c22.4 4.2 58.4 49.8 70 70.6 5.9 10.6 11 22.2 15.3 35.2 8.5 31.6.4 61-33.9 68-21.4 4.3-61.4 4.6-84 3.4-24.1-1.3-61.7-1.2-71.5-26.1-15.8-40.2 13.2-88 39.6-117.3 3.5-3.9 7-7.5 10.8-10.8 9.6-8.4 20-18.5 32.3-22.7l-12 22.3 17.4-23h9.2l12 24.4zM260.7 250v4.2c4.5.5 8.3 1.4 11.5 2.8a26.7 26.7 0 0112.8 12.9c1 2.2 1.5 4.3 1.5 6.2 0 2-.7 3.9-2.3 5.4a7.7 7.7 0 01-5.5 2.3c-4.2 0-6.8-2.2-8-6.7a14.3 14.3 0 00-10-10.4v26.1a140 140 0 0112.4 4 25.3 25.3 0 0116.4 23.8 27.5 27.5 0 01-13.3 23.6 35 35 0 01-15.6 4.7v4.3c0 2.4-.2 4.3-.7 5.4-.5 1.1-1.5 1.7-3.1 1.7s-2.6-.5-3.2-1.4a8 8 0 01-1-4.3v-5.6c-4.8-.5-9.1-1.7-12.8-3.4a30.3 30.3 0 01-14.6-14.8 21.5 21.5 0 01-1.7-8.3c0-2 .8-3.8 2.3-5.4a7.9 7.9 0 015.9-2.4c1.9 0 3.5.4 4.8 1.3a7 7 0 012.7 3.7 81 81 0 003 7.9 15.6 15.6 0 0010.5 8.4v-29.2a76.6 76.6 0 01-14-5.2c-3.8-1.9-7-4.6-9.2-8-2.4-3.6-3.6-8.1-3.6-13.6a24 24 0 017-17.8 30.8 30.8 0 0119.8-8V250c0-3.5 1.3-5.3 4-5.3s4 1.7 4 5.2zm-8 40.5v-24c-3.5 1-6.3 2.4-8.2 4-2 1.8-3 4.4-3 7.9 0 3.3 1 5.8 2.8 7.5 1.8 1.7 4.6 3.2 8.4 4.6zm8 18.6v27.6c4.2-.9 7.5-2.5 9.8-5.1a13 13 0 003.4-9c0-3.6-1-6.4-3.3-8.4s-5.6-3.7-10-5z"
                fill="#21815b" />
        </g>
        <defs>
            <clipPath id="clip0">
                <path fill="#21815b" transform="translate(158 128)" d="M0 0h197v256H0z" />
            </clipPath>
        </defs>
    </symbol>

    <symbol id="shield" viewBox="0 0 512 512">
        <path d="M128 6H0m128 500H0M6 0v512M384 506h128M384 6h128m-6 506V0" stroke="#0b70ba" stroke-width="12" />
        <g clip-path="url(#clip0)">
            <path fill-rule="evenodd" clip-rule="evenodd"
                d="M256 128c44 28 83 41 116 37 6 119-38 190-115 219-76-27-120-95-117-220 40 2 78-7 116-36zm1 41c30 18 56 27 79 25 4 81-26 129-79 149h-1V169h1zm-1-26c39 24 73 36 103 33 5 105-34 167-102 193-67-24-106-83-103-195 35 2 69-5 102-31z"
                fill="#0b70ba" />
        </g>
        <defs>
            <clipPath id="clip0">
                <path fill="#0b70ba" transform="translate(140 128)" d="M0 0h233v256H0z" />
            </clipPath>
        </defs>
    </symbol>

    <symbol id="shopping" viewBox="0 0 512 512">
        <path
            d="M373 128h-47c-5 0-8 4-10 8l-43 137h-93l-26-76h97a11 11 0 100-22H139c-10 0-12 9-10 14l33 98c1 5 6 8 10 8h108c5 0 9-3 10-8l44-137h39c6 0 11-5 11-11s-5-11-11-11zM182 314c-19 0-35 16-35 35s16 35 35 35 35-16 35-35-16-35-35-35zm13 35c0 8-6 14-13 14s-13-6-13-14c0-7 6-13 13-13s13 6 13 13zM267 314c-19 0-35 16-35 35s16 35 35 35 34-16 34-35-15-35-34-35zm13 35c0 8-6 14-13 14s-13-6-13-14c0-7 6-13 13-13s13 6 13 13z"
            fill="#21815b" />
        <path d="M128 6H0m128 500H0M6 0v512M384 506h128M384 6h128m-6 506V0" stroke="#21815b" stroke-width="12" />
    </symbol>

    <symbol id="speedometer" viewBox="0 0 512 512">
        <path d="M128 6H0m128 500H0M6 0v512M384 506h128M384 6h128m-6 506V0" stroke="#d72516" stroke-width="12" />
        <g clip-path="url(#clip0)">
            <path
                d="M248 256l69-44h1l7 7v2l-52 60c-7 8-15 10-22 8-3-1-6-3-8-6l-4-8c-1-7 1-14 9-19zm-93 128a149 149 0 01-36-165 148 148 0 11242 161h-2l-7-8h-1l-20-20v-2l11-11h1l16 16a132 132 0 0027-76h-22l-1-2v-15l1-1h21a129 129 0 00-35-75l-14 15h-1l-11-11v-2l13-14a131 131 0 00-76-28v19l-1 1h-15l-2-1v-19a130 130 0 00-74 33l14 14v2l-11 11h-1l-14-14a130 130 0 00-31 76h22l1 1v16l-1 1h-22a129 129 0 0029 73l18-18h2l10 11v2a1358 1358 0 00-30 30z"
                fill="#d72516" />
        </g>
        <defs>
            <clipPath id="clip0">
                <path fill="#d72516" transform="translate(108 128)" d="M0 0h296v256H0z" />
            </clipPath>
        </defs>
    </symbol>

    <symbol id="11ty" viewBox="0 0 1160 966">
        <path
            d="M361.2 809.1c-9 0-13.5-12-13.5-36.1V177.9c0-11.5-2.3-16.9-7-16.2l-43.1 10.8c-7.9.7-11.8-7.2-11.8-23.7V97.1c0-14.3 4.3-22.4 12.9-24.2l142.2-36.6a19 19 0 014.8-.5c7.9 0 11.8 8.4 11.8 25.3v712c0 24.1-4.7 36.1-14 36.1l-82.3-.1v0zm368.3 1.1c-14.4 0-26.8-1-37.4-3a99.8 99.8 0 01-33.1-13.5 84 84 0 01-28.3-28.8 166.5 166.5 0 01-18-51.2c-4.6-21.9-7-47.9-7-78.1V359.4c0-7.2-2-10.8-5.9-10.8h-33.4c-9 0-13.5-8.6-13.5-25.8v-29.1c0-17.6 4.5-26.4 13.5-26.4h33.4c3.9 0 5.9-4.8 5.9-14.5l9.7-209.5c1.1-19 5.7-28.5 14-28.5h53.9c9 0 13.5 9.5 13.5 28.5v209.5c0 9.7 2.1 14.5 6.5 14.5H772c9 0 13.5 8.8 13.5 26.4v29.1c0 17.2-4.5 25.8-13.5 25.8h-68.9c-2.5 0-4.2.6-5.1 1.9-.9 1.2-1.3 4.2-1.3 8.9v277.9c0 20.8 1.3 38.2 4 52 2.7 13.8 6.6 24 11.8 30.4a41.4 41.4 0 0015.6 12.9 49.2 49.2 0 0019.1 3.2h38.2c9.7 0 14.5 6.7 14.5 19.9V788c0 14.7-5.2 22.1-15.6 22.1l-54.8.1v0zm206.7 64.6c8.2 0 15.4-6.7 21.5-20.2s9.2-32.6 9.2-57.4c0-5.8-3.6-25.7-10.8-59.8L850.5 298.5c-.7-5-1.1-9-1.1-11.9 0-12.9 2.7-19.4 8.1-19.4h65.2c5 0 9.1 1.7 12.4 5.1 3.3 3.4 5.8 10.3 7.5 20.7l70 370.5c1.4 4.3 2.3 6.5 2.7 6.5 1.4 0 2.2-2 2.2-5.9l54.9-369.5a47 47 0 016.7-21.8c3-3.8 6.9-5.7 11.6-5.7h45.2c6.1 0 9.2 7 9.2 21 0 3.2-.4 7.4-1.1 12.4l-95.9 499.3c-7.5 41.3-15.8 72.9-24.8 94.8-9 21.9-19 36.8-30.2 44.7a77.6 77.6 0 01-44.2 12.4h-5.4c-29.1 0-48.8-7.7-59.2-23.2-2.9-3.2-4.3-11.5-4.3-24.8 0-26.6 4.3-39.9 12.9-39.9.7 0 7.2 1.8 19.4 5.4 12.4 3.8 20.3 5.6 23.9 5.6v0zM90.2 810.1c-9 0-13.5-12-13.5-36.1V178.9c0-11.5-2.3-16.9-7-16.2l-43.1 10.8c-7.9.7-11.8-7.2-11.8-23.7V98.1c0-14.3 4.3-22.4 12.9-24.2L170 37.2a19 19 0 014.8-.5c7.9 0 11.8 8.4 11.8 25.3v712c0 24.1-4.7 36.1-14 36.1H90.2v0z"
            fill="var(--color-text-primary)" stroke="var(--color-text-primary)" stroke-width="28"
            stroke-miterlimit="10" />
    </symbol>

    <symbol id="astro" viewBox="0 0 196 79">
        <path fill-rule="evenodd" clip-rule="evenodd"
            d="M50.1666 6.74934C50.7589 7.48456 51.0609 8.47692 51.6648 10.4607L64.8605 53.8086C59.9039 51.2366 54.584 49.4355 49.0844 48.4674L40.4928 19.4338C40.4243 19.2021 40.2827 18.9989 40.0891 18.8545C39.8955 18.71 39.6604 18.6321 39.4188 18.6325C39.1773 18.6328 38.9424 18.7114 38.7492 18.8564C38.556 19.0013 38.415 19.205 38.3472 19.4368L29.8595 48.4528C24.3351 49.4163 18.9908 51.2203 14.0127 53.8022L27.2727 10.451C27.879 8.46991 28.1816 7.47968 28.7739 6.74599C29.2968 6.09797 29.9769 5.59467 30.7495 5.2841C31.6246 4.9325 32.6602 4.9325 34.7318 4.9325H44.203C46.277 4.9325 47.3141 4.9325 48.1901 5.28502C48.9633 5.5962 49.6437 6.10035 50.1666 6.74934Z"
            fill="var(--color-text-primary)" />
        <path fill-rule="evenodd" clip-rule="evenodd"
            d="M51.7456 55.8717C49.5705 57.7318 45.2284 59.0002 40.2272 59.0002C34.0887 59.0002 28.9437 57.0892 27.5787 54.5192C27.0906 55.9923 26.9813 57.6779 26.9813 58.7549C26.9813 58.7549 26.6595 64.0428 30.3374 67.7207C30.3374 65.8109 31.8855 64.2628 33.7953 64.2628C37.0685 64.2628 37.0649 67.1186 37.0618 69.4354V69.6423C37.0618 73.159 39.2111 76.1736 42.2677 77.4442C41.7973 76.4758 41.5536 75.413 41.5551 74.3363C41.5551 70.9823 43.5243 69.7334 45.8128 68.2822C47.6336 67.1274 49.6567 65.8444 51.051 63.2704C51.8018 61.8839 52.1938 60.3316 52.1914 58.7549C52.1914 57.7498 52.0351 56.7809 51.7456 55.8717Z"
            fill="var(--color-text-primary)" />
        <path
            d="M104.556 53.4819L101.532 44.4099H89.004L86.076 53.4819H80.556L91.98 19.9779H98.796L110.22 53.4819H104.556ZM95.388 24.9699H95.148L90.3 39.7539H100.188L95.388 24.9699ZM122.945 54.0579C120.577 54.0579 118.593 53.6419 116.993 52.8099C115.393 51.9779 114.001 50.8259 112.817 49.3539L116.177 46.2819C117.105 47.4019 118.129 48.2819 119.249 48.9219C120.401 49.5299 121.729 49.8339 123.233 49.8339C124.769 49.8339 125.905 49.5459 126.641 48.9699C127.409 48.3619 127.793 47.5299 127.793 46.4739C127.793 45.6739 127.521 45.0019 126.977 44.4579C126.465 43.8819 125.553 43.5139 124.241 43.3539L121.937 43.0659C119.377 42.7459 117.361 42.0099 115.889 40.8579C114.449 39.6739 113.729 37.9299 113.729 35.6259C113.729 34.4099 113.953 33.3379 114.401 32.4099C114.849 31.4499 115.473 30.6499 116.273 30.0099C117.105 29.3379 118.081 28.8259 119.201 28.4739C120.353 28.1219 121.617 27.9459 122.993 27.9459C125.233 27.9459 127.057 28.2979 128.465 29.0019C129.905 29.7059 131.185 30.6819 132.305 31.9299L129.089 35.0019C128.449 34.2339 127.601 33.5779 126.545 33.0339C125.521 32.4579 124.337 32.1699 122.993 32.1699C121.553 32.1699 120.481 32.4579 119.777 33.0339C119.105 33.6099 118.769 34.3619 118.769 35.2899C118.769 36.2499 119.073 36.9699 119.681 37.4499C120.289 37.9299 121.265 38.2819 122.609 38.5059L124.913 38.7939C127.665 39.2099 129.665 40.0259 130.913 41.2419C132.193 42.4259 132.833 44.0259 132.833 46.0419C132.833 47.2579 132.593 48.3619 132.113 49.3539C131.665 50.3139 131.009 51.1459 130.145 51.8499C129.281 52.5539 128.241 53.0979 127.025 53.4819C125.809 53.8659 124.449 54.0579 122.945 54.0579ZM145.328 53.4819C143.504 53.4819 142.128 53.0179 141.2 52.0899C140.272 51.1299 139.808 49.7859 139.808 48.0579V32.7939H135.92V28.5219H138.032C138.896 28.5219 139.488 28.3299 139.808 27.9459C140.16 27.5619 140.336 26.9379 140.336 26.0739V21.7059H145.04V28.5219H150.272V32.7939H145.04V49.2099H149.888V53.4819H145.328ZM155.947 53.4819V28.5219H161.179V33.3219H161.419C161.771 32.0419 162.507 30.9219 163.627 29.9619C164.747 29.0019 166.299 28.5219 168.283 28.5219H169.675V33.5619H167.611C165.531 33.5619 163.931 33.8979 162.811 34.5699C161.723 35.2419 161.179 36.2339 161.179 37.5459V53.4819H155.947ZM183.88 54.0579C182.152 54.0579 180.568 53.7539 179.128 53.1459C177.72 52.5379 176.52 51.6739 175.528 50.5539C174.536 49.4019 173.768 48.0259 173.224 46.4259C172.68 44.7939 172.408 42.9859 172.408 41.0019C172.408 39.0179 172.68 37.2259 173.224 35.6259C173.768 33.9939 174.536 32.6179 175.528 31.4979C176.52 30.3459 177.72 29.4659 179.128 28.8579C180.568 28.2499 182.152 27.9459 183.88 27.9459C185.608 27.9459 187.176 28.2499 188.584 28.8579C190.024 29.4659 191.24 30.3459 192.232 31.4979C193.224 32.6179 193.992 33.9939 194.536 35.6259C195.08 37.2259 195.352 39.0179 195.352 41.0019C195.352 42.9859 195.08 44.7939 194.536 46.4259C193.992 48.0259 193.224 49.4019 192.232 50.5539C191.24 51.6739 190.024 52.5379 188.584 53.1459C187.176 53.7539 185.608 54.0579 183.88 54.0579ZM183.88 49.7379C185.672 49.7379 187.112 49.1939 188.2 48.1059C189.288 46.9859 189.832 45.3219 189.832 43.1139V38.8899C189.832 36.6819 189.288 35.0339 188.2 33.9459C187.112 32.8259 185.672 32.2659 183.88 32.2659C182.088 32.2659 180.648 32.8259 179.56 33.9459C178.472 35.0339 177.928 36.6819 177.928 38.8899V43.1139C177.928 45.3219 178.472 46.9859 179.56 48.1059C180.648 49.1939 182.088 49.7379 183.88 49.7379Z"
            fill="var(--color-text-primary)" />
    </symbol>


    <symbol id="aws" viewBox="0 0 304 182">
        <path
            d="M86.4 66.4c0 3.7.4 6.7 1.1 8.9.8 2.2 1.8 4.6 3.2 7.2.5.8.7 1.6.7 2.3 0 1-.6 2-1.9 3L83.2 92c-.9.6-1.8.9-2.6.9-1 0-2-.5-3-1.4a31 31 0 01-3.6-4.7l-3.1-5.9a37 37 0 01-29.4 13.8c-8.4 0-15.1-2.4-20-7.2a25.7 25.7 0 01-7.4-19.2c0-8.5 3-15.4 9.1-20.6a36.4 36.4 0 0124.5-7.8c3.4 0 6.9.3 10.6.8 3.7.5 7.5 1.3 11.5 2.2v-7.3c0-7.6-1.6-12.9-4.7-16-3.2-3.1-8.6-4.6-16.3-4.6-3.5 0-7.1.4-10.8 1.3A79.7 79.7 0 0023.7 21l-1.6.3c-1.4 0-2.1-1-2.1-3.1v-4.9c0-1.6.2-2.8.7-3.5.5-.7 1.4-1.4 2.8-2.1a60.6 60.6 0 0128.2-6.4c11.9 0 20.6 2.7 26.2 8.1 5.5 5.4 8.3 13.6 8.3 24.6v32.4h.2zM45.8 81.6c3.3 0 6.7-.6 10.3-1.8 3.6-1.2 6.8-3.4 9.5-6.4 1.6-1.9 2.8-4 3.4-6.4.6-2.4 1-5.3 1-8.7v-4.2a83.5 83.5 0 00-18.6-2.3c-6.7 0-11.6 1.3-14.9 4-3.3 2.7-4.9 6.5-4.9 11.5 0 4.7 1.2 8.2 3.7 10.6 2.4 2.5 5.9 3.7 10.5 3.7zm80.3 10.8c-1.8 0-3-.3-3.8-1-.8-.6-1.5-2-2.1-3.9L96.7 10.2c-.6-2-.9-3.3-.9-4 0-1.6.8-2.5 2.4-2.5h9.8c1.9 0 3.2.3 3.9 1 .8.6 1.4 2 2 3.9l16.8 66.2 15.6-66.2c.5-2 1.1-3.3 1.9-3.9.8-.6 2.2-1 4-1h8c1.9 0 3.2.3 4 1 .8.6 1.5 2 1.9 3.9l15.8 67 17.3-67c.6-2 1.3-3.3 2-3.9.8-.6 2.1-1 3.9-1h9.3c1.6 0 2.5.8 2.5 2.5l-.2 1.6-.7 2.5-24.1 77.3c-.6 2-1.3 3.3-2.1 3.9-.8.6-2.1 1-3.8 1h-8.6c-1.9 0-3.2-.3-4-1-.8-.7-1.5-2-1.9-4L156 23l-15.4 64.4c-.5 2-1.1 3.3-1.9 4-.8.7-2.2 1-4 1h-8.6zm128.5 2.7a66.2 66.2 0 01-26.9-5.8c-1.6-.9-2.7-1.9-3.1-2.8a7 7 0 01-.6-2.8v-5.1c0-2.1.8-3.1 2.3-3.1l1.8.3 2.5 1a54.4 54.4 0 0022.9 4.7 27 27 0 0014.6-3.3c3.4-2.2 5.2-5.4 5.2-9.5 0-2.8-.9-5.1-2.7-7a25 25 0 00-10.1-5.2L246 52a30.5 30.5 0 01-16-10.2A23.8 23.8 0 01234.9 8c3-2.3 6.4-4 10.4-5.2a43.6 43.6 0 0119.3-1.3l6.5 1.1 5.7 1.6c1.8.6 3.2 1.2 4.2 1.8 1.4.8 2.4 1.6 3 2.5.6.8.9 1.9.9 3.3v4.7c0 2.1-.8 3.2-2.3 3.2-.8 0-2.1-.4-3.8-1.2a45.7 45.7 0 00-19.2-3.9c-5.7 0-10.2.9-13.3 2.8-3.1 1.9-4.7 4.8-4.7 8.9 0 2.8 1 5.2 3 7.1 2 1.9 5.7 3.8 11 5.5l14.2 4.5a30.4 30.4 0 0115.5 9.6c3.1 4.1 4.6 8.8 4.6 14 0 4.3-.9 8.2-2.6 11.6a26.9 26.9 0 01-7.3 8.8 32.2 32.2 0 01-11.1 5.6 47.6 47.6 0 01-14.3 2.1z"
            fill="var(--color-text-primary)" />
        <path fill-rule="evenodd" clip-rule="evenodd"
            d="M273.5 143.7c-32.9 24.3-80.7 37.2-121.8 37.2A220.3 220.3 0 013 124.2c-3.1-2.8-.3-6.6 3.4-4.4a299.9 299.9 0 00148.8 39.5 297 297 0 00113.5-23.2c5.5-2.5 10.2 3.6 4.8 7.6z"
            fill="var(--color-text-primary)" />
        <path fill-rule="evenodd" clip-rule="evenodd"
            d="M287.2 128.1c-4.2-5.4-27.8-2.6-38.5-1.3-3.2.4-3.7-2.4-.8-4.5 18.8-13.2 49.7-9.4 53.3-5 3.6 4.5-1 35.4-18.6 50.2-2.7 2.3-5.3 1.1-4.1-1.9 4-9.9 12.9-32.2 8.7-37.5z"
            fill="var(--color-text-primary)" />
    </symbol>

    <symbol id="azure" viewBox="0 0 53 16">
        <path
            d="M9.1 14.4l4.6-.8-2.3-2.8L9 7.9l2.5-6.8a1099.8 1099.8 0 018.2 14v.1H4.5l4.6-.8zm29.1-.7c-1.2 0-1.8-.7-2-2V7.4h1v4c0 .6.2 1 .4 1.2l.7.4h.7c.3-.1.6-.2.8-.5.3-.2.4-.6.5-1V7.3h1.1V13.6h-1V13v-.5a2.1 2.1 0 01-2.2 1.1zm11.7 0l-1.2-.3c-.7-.5-1.1-1.3-1.3-2.3V10c.1-.7.4-1.4.8-1.9l.4-.4a2.8 2.8 0 012-.6c.7 0 1.3.4 1.7.8.4.5.6 1.2.6 2v.8h-4.5l.2 1c.1.3.3.6.5.7.3.3.7.4 1.1.5h.8a3.1 3.1 0 001.5-.7v.9l-.1.1c-.5.3-1 .5-1.5.5h-1zm2-4c0-.5-.2-1-.5-1.3-.3-.2-.5-.4-.8-.4h-.7c-.3 0-.6.2-.8.4a2.3 2.3 0 00-.6 1.4h3.4zm-30.4 3.9L23.2 9 25 4.7H26v.1l3.4 8.8h-1.2l-.4-1.2-.5-1.3h-3.7l-.5 1.3-.4 1.2h-1.2zm5.5-3.4a780.8 780.8 0 00-1.7-3.9 246.2 246.2 0 01-1.4 3.9 61.4 61.4 0 003 0zm2.7 3.2v-.1l2-2.6 1.8-2.6H30v-.8H35V7.6L33 10l-1.9 2.6H35v.9h-5.2v-.2zm13.8.2V7.3h1V8.4l.6-.8a1.5 1.5 0 011.2-.5l.4.1v1.1c-.3-.2-.5-.2-.7-.2h-.4l-.7.6a3 3 0 00-.4 1.2v3.7H44a9 9 0 01-.5 0zM0 13.6l2.5-4.4L5 5l3-2.5A1080.9 1080.9 0 0110.7.1L7.6 7l-3 6.7H0z"
            fill="var(--color-text-primary)" />
    </symbol>

    <symbol id="begin" viewBox="0 0 192 57">
        <path
            d="M137.73 38.1a6.56 6.56 0 110-13.13 6.56 6.56 0 010 13.12zm12.1-19.9h-3.9c-.86 0-1.36.58-1.64 1.26a.46.46 0 01-.62.24 13.75 13.75 0 00-5.94-1.42 13.25 13.25 0 105.41 25.32h.01c.54-.26.82-.07.85.32-.09 4.74-2.52 6.85-6.8 6.85a5.87 5.87 0 01-5.19-2.7 1.04 1.04 0 00-.89-.48H126a.83.83 0 00-.82 1.03c1.2 4.46 5.7 8.23 12.22 8.23 9.63 0 13.42-6.4 13.42-13.43V19.2a1 1 0 00-1-1M79.1 38.1a6.57 6.57 0 110-13.14 6.57 6.57 0 010 13.13zm1.94-19.67c-2.64-.4-5.34.02-7.74 1.2-.22.1-.48-.05-.48-.3V7.69a1 1 0 00-1-1h-4.8A1.01 1.01 0 0066 7.69v35.66a1 1 0 001 1h4.25c.6 0 1.12-.36 1.34-.88a.33.33 0 01.46-.17 13.25 13.25 0 108-24.87"
            fill="var(--color-text-primary)" />
        <path fill-rule="evenodd" clip-rule="evenodd"
            d="M190.2 23.02c-1.77-4.6-6.82-6.25-11.4-5.36-1.26.24-2.48.68-3.59 1.3-.08.05-.26.19-.44.3-.18.09-.47 0-.54-.17a1.46 1.46 0 00-1.34-.9h-4.24a1 1 0 00-1 1v24.17c0 .54.43.98.97.98h4.97a.98.98 0 00.98-.98V29.08c0-2.97 1.77-5.3 4.8-5.3 3.32 0 4.73 2.23 4.73 5.1v14.46c0 .56.46 1.02 1.02 1.02H190c.56 0 1.01-.46 1.01-1.02V27.68a13 13 0 00-.8-4.66zm-28.44-4.81h-4.92a1 1 0 00-1 1v24.14a1 1 0 001 1h4.91a1 1 0 001-1V19.21a1 1 0 00-1-1h.01zm-47.8 10.1h-11.3c-.26 0-.46-.21-.42-.46.34-2.1 2.93-4.07 6.07-4.07s5.73 1.98 6.07 4.07c.04.24-.17.46-.43.46zm-5.71-10.1c-7.82 0-13.64 6.8-13.17 14.37a13.16 13.16 0 0012.04 12.1v.02c9.23.67 12.74-4.93 13.73-7.3a.76.76 0 00-.07-.7.75.75 0 00-.63-.32h-5.45c-.32 0-.62.13-.86.34-2.8 2.49-6.64 1.86-7.14 1.76h-.05a7 7 0 01-5-4.4.38.38 0 01.35-.52h18.25c.65 0 1.18-.52 1.18-1.15v-1.3c-.33-6.88-5.36-12.9-13.17-12.9h-.01zM159.3 6.68a3.98 3.98 0 00-3.95 4 3.96 3.96 0 007.9.01c0-2.22-1.73-4-3.95-4M23.63 10.47V.94A.93.93 0 0022.6 0c-4.9.55-9.4 2.48-13.08 5.4a.93.93 0 00-.06 1.38l6.77 6.74c.32.32.82.35 1.2.1a14.33 14.33 0 015.43-2.25.93.93 0 00.78-.91M13.67 33.47a14.18 14.18 0 01-2.25-5.4.94.94 0 00-.92-.78H.94c-.55 0-1 .47-.93 1.02.55 4.9 2.49 9.37 5.42 13.04.34.42.99.45 1.38.06l6.76-6.75a.94.94 0 00.1-1.2M41.48 5.4C37.71 2.42 33.18.55 28.4 0a.93.93 0 00-1.03.94v9.53c0 .45.34.83.78.91 1.95.36 3.8 1.13 5.43 2.24a.94.94 0 001.2-.1l6.76-6.74a.92.92 0 00-.06-1.37M24.84 28.72L9.46 44.05a.92.92 0 00.06 1.38A25.6 25.6 0 0025.5 51a25.6 25.6 0 0015.98-5.57.92.92 0 00.06-1.38L26.16 28.72a.93.93 0 00-1.32 0M13.57 16.17L6.81 9.43a.93.93 0 00-1.38.06C2.43 13.24.55 17.76 0 22.53a.93.93 0 00.93 1.02h9.56c.45 0 .83-.33.9-.78a14.12 14.12 0 012.26-5.4.94.94 0 00-.1-1.2h.01zm26.92 7.38h9.56c.55 0 .99-.48.93-1.02a25.38 25.38 0 00-5.42-13.04.93.93 0 00-1.38-.06l-6.76 6.74a.93.93 0 00-.1 1.2 14.24 14.24 0 012.26 5.4.93.93 0 00.9.78M39.58 28.06a14.12 14.12 0 01-2.25 5.41.93.93 0 00.1 1.2l6.76 6.74a.94.94 0 001.38-.07c3-3.75 4.88-8.27 5.42-13.04a.93.93 0 00-.94-1.02h-9.56a.94.94 0 00-.92.77"
            fill="var(--color-text-primary)" />
    </symbol>

    <symbol id="cloudflare" viewBox="0 0 174 68">
        <path
            d="M76 54V30h9.4c5.4 0 8.6 3.4 8.6 8.1 0 4.8-3.2 8.1-8.7 8.1H81V54h-5zm5-11.9h3.4c3 0 4.4-1.6 4.4-4s-1.5-4-4.4-4H81v8zm19.5 12.2c-3.5 0-6-1.8-6-5.3 0-4 3.2-5.2 6.8-5.6 3-.3 4.3-.4 4.3-1.6 0-1.5-1-2.4-2.6-2.4-1.8 0-3 .9-3.3 2l-4.6-.3c.7-3.3 3.6-5.3 7.9-5.3 4 0 7.6 1.8 7.6 6V54H106v-2.5h-.2c-.8 1.7-2.6 2.8-5.2 2.8zm1.4-3.4c2.2 0 3.8-1.4 3.8-3.3v-2c-.6.5-2.4.7-3.5.9-1.8.2-3 .9-3 2.3s1.2 2 2.7 2zM121.2 61c-4.8 0-7.6-2.1-8.2-5l4.6-.6c.4 1 1.5 2 3.7 2s3.8-1 3.8-3.4v-3.3h-.2c-.7 1.5-2.3 3-5.2 3-4 0-7.3-2.8-7.3-8.8 0-6.2 3.4-9.2 7.3-9.2 3 0 4.5 1.8 5.2 3.2h.2v-3h5v18.2c0 4.6-3.7 7-8.9 7zm.1-11.1c2.4 0 3.8-1.9 3.8-5 0-3.2-1.3-5.3-3.8-5.3-2.4 0-3.8 2.2-3.8 5.2 0 3.1 1.4 5 3.8 5zm19.5 4.4c-5.5 0-8.9-3.6-8.9-9.3 0-5.6 3.4-9.3 8.7-9.3 4.8 0 8.5 3 8.5 9.1v1.4h-12.3c0 2.7 1.6 4.3 4.1 4.3 1.7 0 3-.7 3.5-2l4.6.2c-.7 3.4-3.7 5.6-8.2 5.6zm-4-11.2h7.6a3.6 3.6 0 00-3.7-3.7 3.8 3.8 0 00-3.9 3.7zm29.1-2l-4.5.2c-.3-1.1-1.3-2-3-2-1.6 0-2.8.6-2.8 1.7 0 .9.6 1.4 2.3 1.8l3.3.6c3.5.8 5.2 2.3 5.2 5 0 3.5-3.4 5.9-8 5.9-4.8 0-7.8-2.2-8.2-5.6l4.9-.3c.3 1.5 1.5 2.3 3.3 2.3 1.7 0 2.9-.8 2.9-1.9 0-.9-.8-1.4-2.3-1.8l-3.1-.6c-3.6-.7-5.3-2.4-5.2-5.1 0-3.5 3-5.6 7.6-5.6 4.5 0 7.2 2 7.6 5.3zM84.1 17.9h-2c-.1-1-1-1.7-2-1.7-1.5 0-2.4 1.1-2.4 3 0 2 1 3.2 2.4 3.2 1 0 1.8-.6 2-1.6h2c-.2 1.7-1.6 3.3-4 3.3-2.6 0-4.5-1.7-4.5-4.8 0-3.1 2-4.9 4.4-4.9 2.2 0 3.9 1.3 4.1 3.5zm2.9-3.3V24h-2v-9.4h2zm4.2 9.5c-2.2 0-3.5-1.4-3.5-3.6s1.3-3.7 3.5-3.7c2.1 0 3.5 1.5 3.5 3.7S93.3 24 91.2 24zm0-1.5c1 0 1.5-.9 1.5-2.1 0-1.3-.5-2.2-1.5-2.2s-1.5 1-1.5 2.2c0 1.2.5 2.1 1.5 2.1zM100 21v-4h2v7h-2v-1.3c-.3.8-1.1 1.4-2.2 1.4-1.4 0-2.4-1-2.4-2.7V17h2v4.2c0 .8.5 1.3 1.2 1.3S100 22 100 21zm5.6 3.1c-1.6 0-2.9-1.3-2.9-3.6 0-2.5 1.3-3.7 2.9-3.7a2 2 0 012 1.3v-3.6h2V24h-2v-1.1a2.1 2.1 0 01-2 1.2zm.6-1.6c1 0 1.5-.8 1.5-2 0-1.3-.5-2.1-1.5-2.1s-1.5.8-1.5 2c0 1.3.5 2.2 1.5 2.2zm8.3-5.6v1.5h-1.4V24h-2v-5.6h-1v-1.5h1v-.5c0-1.6 1-2.3 2.3-2.3a5 5 0 011.4.2l-.3 1.5-.6-.1c-.6 0-.8.2-.8.7v.5h1.4zm2.6-2.3V24h-2v-9.4h2zm3 9.5c-1.3 0-2.3-.7-2.3-2 0-1.7 1.3-2.1 2.7-2.3 1.2 0 1.7-.1 1.7-.6 0-.6-.4-1-1-1-.8 0-1.2.4-1.3.9l-1.8-.2c.2-1.3 1.4-2 3-2s3 .6 3 2.3V24h-1.8v-1c-.4.7-1 1.1-2.1 1.1zm.6-1.3c.9 0 1.5-.6 1.5-1.3v-.8c-.2.2-1 .3-1.4.3-.7.1-1.1.4-1.1 1 0 .5.4.8 1 .8zm4.4 1.2v-7.1h2v1.3c.3-1 1-1.4 1.7-1.4h.6v1.8h-.8c-.8 0-1.5.5-1.5 1.4v4h-2zm7.7.1c-2.2 0-3.5-1.4-3.5-3.6s1.3-3.7 3.4-3.7c2 0 3.4 1.2 3.4 3.6v.6h-4.9c0 1 .7 1.7 1.6 1.7.7 0 1.2-.3 1.4-.8h1.8c-.3 1.4-1.4 2.2-3.2 2.2zm-1.6-4.4h3c0-.8-.6-1.4-1.4-1.4a1.5 1.5 0 00-1.6 1.4zM46 10h14l2 2v44l-2 2H40.8l1-1.5h17.6l1.1-1.1V12.6l-1.1-1.1H47.3l-1.5 7.4h-1.5l1.4-7.5.3-1.4zM12 58l-2-2V12l2-2h19.9l-1 1.5H12.6l-1.1 1.1v42.8l1.1 1.1h14.5l-.2 1.5H12zm3-5h8.5l-.3 1.5H14l-.5-.5v-9l1.5 3v5zm34 0l1.5 1.5H43l1-1.5h5z"
            fill="var(--color-text-primary)" />
        <path
            d="M32.7 40H19l-1.7-3.1 23-34L44 4.4 39.4 28H53l1.7 3-22 34-3.7-1.3L32.7 40zM15.5 17a1.5 1.5 0 110-3 1.5 1.5 0 010 3zm4 0a1.5 1.5 0 110-3 1.5 1.5 0 010 3zm4 0a1.5 1.5 0 110-3 1.5 1.5 0 010 3z"
            fill="var(--color-text-primary)" />
    </symbol>

    <symbol id="contentful" viewBox="0 0 656 150">
        <path
            d="M187.9 90.9c3.9-3 4.5-1.3 7.9 2.1 1.7 1.7 6.1 4.6 3.3 7.1a30.4 30.4 0 01-50.1-24 29 29 0 019.8-21c5.7-4.7 13-7.1 20.4-6.9 3.7 0 7.3.7 10.7 2.1 2.3.9 4.5 2 6.5 3.5 4 3 2.2 4.9-1 8l-2.1 2.1c-1.6 1.6-2.7 2.7-4.8 1.3-4-3-9.2-4.1-14.1-3-15.7 4.1-14.8 32 4.4 32 3.4-.2 6.5-1.3 9.1-3.3zM624 106.2a4.8 4.8 0 01-4.8-4.8V39.6c0-2.6 2.1-4.8 4.8-4.8h5.1c2.6 0 4.8 2.1 4.8 4.8v61.9c0 2.6-2.1 4.8-4.8 4.8l-5.1-.1zm-26.9-7a25.2 25.2 0 01-18.8 8c-16 0-23.6-13.2-23.6-28V54.1c0-2.6 2.1-4.8 4.8-4.8h5.1c2.6 0 4.8 2.1 4.8 4.8v25a13 13 0 0013.2 14.7c8-.2 14.3-6.9 14.1-14.8v-9.6-15.3c0-2.6 2.1-4.8 4.8-4.8h5.1c2.6 0 4.8 2.1 4.8 4.8v47.5c0 2.6-2.1 4.7-4.7 4.7h-4.3a4.8 4.8 0 01-4.7-4.7v-2.4h-.6zm-61.4-49.7h10c2.6 0 4.7 2.2 4.7 4.8v3.3c0 2.6-2.1 4.8-4.7 4.8h-10v39.1c0 2.6-2.1 4.8-4.8 4.8h-5.1a4.8 4.8 0 01-4.8-4.8v-54a20.4 20.4 0 0118.5-22.2h8c2.6 0 4.7 2.2 4.7 4.8v3c0 2.6-2.1 4.8-4.7 4.8h-3.8c-5.7 0-8.1 4.4-8.1 9.7l.1 1.9zm-35.6 0H511c2.6 0 4.7 2.1 4.7 4.7v3.2c0 2.6-2.1 4.7-4.7 4.7h-10.9V86c0 4.6 2.2 7.3 6.9 7.3h2.2c2.6 0 4.7 2.1 4.7 4.7v3.2c0 2.6-2.1 4.7-4.7 4.7h-6.6c-11.8-.7-17.1-8.4-17.1-19.9V39.7c0-2.6 2.1-4.7 4.7-4.7h5c2.6 0 4.7 2.1 4.7 4.7l.2 9.8zm-157.8 0h10.9c2.6 0 4.7 2.1 4.7 4.7v3.2c0 2.6-2.1 4.7-4.7 4.7h-10.6V86c0 4.6 2.2 7.3 6.9 7.3h2.2c2.6 0 4.7 2.1 4.7 4.7v3.2c0 2.6-2.1 4.7-4.7 4.7h-3.3c-12.9 0-20.3-5.5-20.3-20V39.7c0-2.6 2.1-4.7 4.7-4.7h5c2.6 0 4.7 2.1 4.7 4.7v9.8h-.2zm-64 6.9c4.7-5 11.3-7.9 18.2-8 15.9 0 24.3 13.1 24.3 28v25.1c0 2.6-2.1 4.8-4.8 4.8h-5.1a4.8 4.8 0 01-4.8-4.8v-25a13 13 0 00-11.3-14.6l-1.9-.1c-8 .2-14.3 6.9-14 14.8v24.8c0 2.6-2.1 4.7-4.7 4.7h-5a4.7 4.7 0 01-4.7-4.7V54c0-2.6 2.1-4.7 4.7-4.7h4.3c2.6.1 4.6 2.1 4.7 4.7l.1 2.4zm157.9 0c4.7-5 11.3-7.9 18.2-8 15.9 0 24.3 13.1 24.3 28v25.1c0 2.6-2.1 4.8-4.8 4.8h-5.1a4.8 4.8 0 01-4.8-4.8v-25a13 13 0 00-11.3-14.6l-1.9-.1c-8 .2-14.3 6.9-14 14.8v24.8c0 2.6-2.1 4.7-4.7 4.7H427a4.7 4.7 0 01-4.7-4.7V54c0-2.6 2.1-4.7 4.7-4.7h4.3c2.6.1 4.6 2.1 4.7 4.7v2.5l.2-.1zm-206.4-8.2a28.5 28.5 0 00-29.5 27.6v2.1a29.6 29.6 0 1059.2 0 28.7 28.7 0 00-27.8-29.7h-1.9zm143.6 35a14.8 14.8 0 0016.3 11.2c3.7-.1 7.4-.9 10.7-2.4l1.6-.8c1.8-1 3.4-1.6 5 0l2.6 2.6 2.3 2.5c2.4 3 .7 3.8-2 5.6-6.1 4-13.2 6.1-20.5 6.1-18.8 0-31.3-11.4-31.3-30.4a28.5 28.5 0 0127.2-29.8h3.2c18.2 0 28.7 10.7 29 29 0 5 .3 6.6-4.9 6.6l-39.2-.2zM230.3 61.5c8.6.2 15.4 7.3 15.2 15.9v.4a15 15 0 01-13.6 16.3 15 15 0 01-16.3-16.3 15 15 0 0113.8-16.2h1.1l-.2-.1zm143.8 9.3h29.2a12.5 12.5 0 00-14.2-10.2 15.2 15.2 0 00-15 10.2z"
            fill="var(--color-text-primary)" />
        <path
            d="M100.6 52.6s9.8 11.3 19.7.9c9.9-10.4-5.8-21.6-5.8-21.6S82.1 3 43.2 32.2c0 0-21.3 16.3-20.3 46.6s26.5 44.6 26.5 44.6 30.9 20.9 63.6-2.5c0 0 15.9-8.4 6.8-22.3 0 0-9-10.1-16.8-1.6a32 32 0 01-46.1.7c-18.1-17-8.3-52.3 20.4-53.4 0 0 12.3-1.6 23.3 8.3z"
            stroke="var(--color-text-primary)" stroke-width="5" stroke-miterlimit="10" />
        <path
            d="M47.7 56.6a12.2 12.2 0 100-24.4 12.2 12.2 0 000 24.4zM48.3 118.8a12.2 12.2 0 100-24.4 12.2 12.2 0 000 24.4z"
            stroke="var(--color-text-primary)" stroke-width="5" stroke-miterlimit="10" />
    </symbol>

    <symbol id="datocms" viewBox="0 0 262 81">
        <path
            d="M39.3.8H0V80h39.3a40.9 40.9 0 0039.4-39.6A40.9 40.9 0 0039.3.8zm0 57.6a18 18 0 110-36 18 18 0 010 36zM119 .9c11.9 0 18 7.1 18 17v8.9c0 9.8-6.1 17-18 17h-18.7V.8H119zm7.4 17c0-5.5-2.9-8.4-9.2-8.4h-6.4v25.7h6.4c6.3 0 9.2-3 9.2-8.4v-9zm43.3 18H154l-2.4 8h-10.5l15.3-43h10.8l15.4 43H172l-2.4-8zm-13-8.5h10.4l-5.2-17-5.2 17zM216 .9v8.9h-11.6v34H194v-34h-11.6v-9H216zm25.6 43.8c-13 0-19.7-8.4-19.7-19.6v-5.5c0-11.3 6.7-19.6 19.7-19.6s19.7 8.3 19.7 19.6V25c0 11.2-6.7 19.6-19.7 19.6zm0-36c-6.2 0-9.2 4.2-9.2 10.3v6.6c0 6.2 3 10.3 9.2 10.3 6.1 0 9.1-4.1 9.1-10.3V19c0-6.1-3-10.2-9.1-10.2zm-132 66.5a4.8 4.8 0 005.3-4.8h6c-.1 5.5-4.2 10.2-11.1 10.2-8.1 0-12-5.1-12-12v-3.4c0-6.8 3.9-11.9 12-11.9 6.9 0 11 4.6 11 10.2h-6a4.8 4.8 0 00-5.1-4.9c-4 0-5.5 2.6-5.5 6.3v4c0 3.8 1.6 6.3 5.5 6.3zm37.1-21.4h6V80h-6.2V66.2l-4.1 8h-5.1l-4.1-8V80H127V53.8h6l6.8 14.3 7-14.3zm22.8 26.8c-6.3 0-10.5-3-10.5-8.3v-.7h6.2v.5c0 2.2 1.4 3.6 4.3 3.6 2.7 0 4.5-1.1 4.5-3.2a2.2 2.2 0 00-1.8-2.3l-6.6-1.6c-4-1-6.2-2.8-6.2-7.1 0-5.2 3.7-8.2 10-8.2 5.8 0 9.6 3.2 9.6 8v.6h-6v-.4c0-1.8-1-3.3-3.6-3.3-2.3 0-3.7.8-3.7 2.7a2 2 0 001.7 2.1l7 2c4.1 1 5.8 3.4 5.8 7 0 5.2-4.6 8.6-10.7 8.6z"
            fill="var(--color-text-primary)" />
    </symbol>

    <symbol id="digitalocean" viewBox="0 0 603 103">
        <path fill="var(--color-text-primary)"
            d="M52.1 102.1V82.5a31.1 31.1 0 0011.4-59.9 31.1 31.1 0 00-42.4 28.9H1.5c0-33.1 32-58.9 66.7-48.1a50.8 50.8 0 01-16.1 98.7z" />
        <path fill="var(--color-text-primary)" class="st0"
            d="M52.1 82.5H32.6V63h19.5zM32.6 97.5h-15v-15h15zM17.6 82.5H5V70h12.6z" />
        <path id="XMLID_2635_"
            d="M181.5 30.2a37 37 0 00-21.4-6.1h-18.3v58.1h18.3a35 35 0 0021.4-6.4c3.2-2.2 5.7-5.4 7.4-9.3s2.6-8.5 2.6-13.7a34 34 0 00-2.6-13.6 20.6 20.6 0 00-7.4-9zm-29 3.8h5.8c6.4 0 11.7 1.3 15.7 3.7 4.4 2.7 6.7 7.8 6.7 15.1 0 7.6-2.3 12.9-6.7 15.8a28.3 28.3 0 01-15.6 3.8h-5.8l-.1-38.4z" />
        <path fill="var(--color-text-primary)"
            d="M204.3 23.4c-1.8 0-3.3.6-4.5 1.8a6.1 6.1 0 00-1.9 4.4c0 1.8.6 3.3 1.9 4.5 1.2 1.2 2.7 1.9 4.5 1.9s3.3-.6 4.5-1.9a6.4 6.4 0 001.9-4.5c0-1.8-.6-3.3-1.9-4.4a6.3 6.3 0 00-4.5-1.8zM199 41.3h10.3v41H199zM246.8 44.7a15.4 15.4 0 00-10.3-4.4 19 19 0 00-14.1 5.8 20.3 20.3 0 00-5.5 14.7c0 5.8 1.8 10.7 5.5 14.7a19 19 0 0014.1 5.8c4 0 7.4-1.1 10.2-3.3v1c0 3.4-.9 6-2.7 7.9a10 10 0 01-7.4 2.7c-4.8 0-7.7-1.9-11.4-6.8l-7 6.7.2.3a25 25 0 006.9 6.2c3.1 2 6.9 3 11.5 3 6.1 0 11.1-1.9 14.7-5.6 3.7-3.7 5.5-8.7 5.5-14.9V41.3h-10.1l-.1 3.4zm-2.7 24.2c-1.8 2-4.1 3-7.1 3s-5.3-1-7-3c-1.8-2-2.7-4.7-2.7-8s.9-6.1 2.7-8.1 4.1-3.1 7-3.1c3 0 5.3 1 7.1 3.1 1.8 2 2.7 4.8 2.7 8.1s-1 6-2.7 8zM265.7 41.3H276v41h-10.3zM271 23.4c-1.8 0-3.3.6-4.5 1.8a6.1 6.1 0 00-1.9 4.4c0 1.8.6 3.3 1.9 4.5 1.2 1.2 2.7 1.9 4.5 1.9s3.3-.6 4.5-1.9a6.4 6.4 0 001.9-4.5c0-1.8-.6-3.3-1.9-4.4a6.3 6.3 0 00-4.5-1.8zM298.6 30.3h-10.1v11.1h-5.9v9.4h5.9v17c0 5.3 1.1 9.1 3.2 11.3 2.1 2.2 5.8 3.3 11.1 3.3l5-.2h.5v-9.4l-3.5.2c-2.5 0-4.1-.4-4.9-1.3s-1.2-2.7-1.2-5.4V50.7h9.6v-9.4h-9.6v-11h-.1zM356.5 24.1h10.3v58.1h-10.3zM470.9 67.6a24.4 24.4 0 01-5.2 4.8 9.7 9.7 0 01-5.3 1.4c-3 0-5.5-1.1-7.5-3.4s-3-5.2-3-8.7 1-6.4 2.9-8.6c2-2.3 4.4-3.4 7.4-3.4 3.3 0 6.8 2.1 9.8 5.6l6.8-6.5a20.2 20.2 0 00-16.9-8.5c-5.7 0-10.6 2.1-14.6 6.1s-6 9.2-6 15.3 2 11.2 6 15.3 8.9 6.1 14.6 6.1c7.5 0 13.5-3.2 17.5-9.1l-6.5-6.4zM513.2 47c-1.5-2-3.5-3.7-5.9-4.9a19.3 19.3 0 00-8.5-1.8c-5.8 0-10.5 2.1-14 6.3a23.7 23.7 0 00-5.2 15.4c0 6.2 1.9 11.3 5.7 15.3 3.7 3.9 8.8 5.9 14.9 5.9 6.9 0 12.7-2.8 16.9-8.4l.2-.3-6.7-6.5c-.6.8-1.5 1.6-2.3 2.4a11 11 0 01-8.2 3.3c-2.9 0-5.2-.8-7-2.5a8.9 8.9 0 01-2.9-6.2h27.3l.1-3.8a22.7 22.7 0 00-4.4-14.2zm-22.5 9.7c.5-2 1.4-3.6 2.7-4.9a7.3 7.3 0 015.4-2.1c2.5 0 4.4.7 5.7 2.1a8.1 8.1 0 012.1 4.8h-15.9v.1zM552.8 44.4c-3.1-2.7-7.4-4-12.8-4-3.4 0-6.6.8-9.5 2.2a17 17 0 00-7 6.6l.1.1 6.6 6.3c2.7-4.3 5.7-5.8 9.7-5.8 2.2 0 3.9.6 5.3 1.7s2 2.6 2 4.4v2c-2.6-.8-5.1-1.2-7.6-1.2-5.1 0-9.3 1.2-12.4 3.6a12.3 12.3 0 00-4.7 10.2c0 3.8 1.3 7 4 9.3 2.7 2.2 6 3.4 9.9 3.4s7.6-1.6 10.9-4.3v3.4h10.1V55.9c.2-4.9-1.4-8.8-4.6-11.5zm-18.3 22.2a8.7 8.7 0 014.9-1.2c2.5 0 5.1.5 7.8 1.5v4a12.4 12.4 0 01-8.9 3.1c-1.8 0-3.2-.4-4.1-1.2-.9-.8-1.4-1.7-1.4-3s.6-2.4 1.7-3.2zM597.2 45.2a15.4 15.4 0 00-12-4.8 14 14 0 00-9.9 3.5v-2.5h-10.1v41h10.3V59.7c0-3.1.7-5.6 2.2-7.3 1.5-1.8 3.4-2.6 6.1-2.6 2.3 0 4.1.8 5.4 2.3 1.3 1.6 2 3.7 2 6.4v23.7h10.3V58.5c0-5.6-1.4-10.1-4.3-13.3zM343.6 44.4c-3.1-2.7-7.4-4-12.8-4-3.4 0-6.6.8-9.5 2.2a17 17 0 00-7 6.6l.1.1 6.6 6.3c2.7-4.3 5.7-5.8 9.7-5.8 2.2 0 3.9.6 5.3 1.7s2 2.6 2 4.4v2c-2.6-.8-5.1-1.2-7.6-1.2-5.1 0-9.3 1.2-12.4 3.6a12.3 12.3 0 00-4.7 10.2c0 3.8 1.3 7 4 9.3 2.7 2.2 6 3.4 9.9 3.4s7.6-1.6 10.9-4.3v3.4h10.1V55.9c.1-4.9-1.5-8.8-4.6-11.5zm-18.3 22.2a8.7 8.7 0 014.9-1.2c2.5 0 5.1.5 7.8 1.5v4a12.4 12.4 0 01-8.9 3.1c-1.8 0-3.2-.4-4.1-1.2a3.7 3.7 0 01-1.4-3c0-1.3.5-2.4 1.7-3.2zM404.2 83.1a30 30 0 110-60 30 30 0 010 60zm0-49.3a19.4 19.4 0 100 38.8 19.4 19.4 0 000-38.8z" />
    </symbol>

    <symbol id="firebase" viewBox="0 0 239 68">
        <path
            d="M72.2 52.7h-4.5V17.6H88v4.3H72.2v11.5h14.2v4.2H72.2v15zm24-30c-1 1-2.7 1.2-4 .4a3.2 3.2 0 01-1-4 3.1 3.1 0 016 1.3 3 3 0 01-1 2.2zm0 30h-4.4v-24h4.5v24zm9.8 0h-4.4v-24h4.2v3.9h.2a6.1 6.1 0 012.8-3.2 7.9 7.9 0 014-1.3c1.2 0 2.3.2 3.4.6l-1.7 4.2c-.8-.3-1.6-.4-2.4-.4-1.6 0-3.2.8-4.2 2a7 7 0 00-2 5l.1 13.2zm22.3.7c-3.5 0-6.4-1.2-8.7-3.6a13 13 0 01-3.3-9.1c0-3.3 1-6.6 3.2-9 2.1-2.5 5.2-3.9 8.4-3.8 3.5 0 6.3 1.1 8.4 3.5 2.1 2.3 3.2 5.4 3.1 9.3v.8h-18.7c.1 2.4 1 4.3 2.4 5.8a7.2 7.2 0 005.1 2c3.2 0 5.4-1.3 6.5-4l4 1.6a10.7 10.7 0 01-10.4 6.5zm6.4-15.6c0-1.4-.7-2.7-1.8-4-1.2-1.2-2.9-1.8-5.1-1.8-1.6 0-3.1.5-4.3 1.6a8 8 0 00-2.5 4.2h13.7zm20.8 15.6a10 10 0 01-4.8-1.1 8.2 8.2 0 01-3.2-3h-.2v3.4H143V17.6h4.5v11l-.2 3.4h.2a8.2 8.2 0 013.2-3 10.3 10.3 0 0112.8 2.5 13 13 0 013.2 9.2 13 13 0 01-3.3 9 10.3 10.3 0 01-8 3.7zm-.7-4c2 0 4-1 5.3-2.4a8.9 8.9 0 002.2-6.3c0-2.7-.7-4.8-2.2-6.3a7.2 7.2 0 00-10.7 0 8.9 8.9 0 00-2.2 6.3c0 2.6.8 4.7 2.3 6.3a7 7 0 005.3 2.4zm23.2 4c-2.5 0-4.6-.7-6.2-2.2a7.4 7.4 0 01-2.6-5.8c0-2.6 1-4.6 3-6.1a12 12 0 017.4-2.3c2.6 0 4.7.5 6.4 1.5v-.7c0-1.6-.6-3.1-1.8-4.2a6.3 6.3 0 00-4.4-1.6c-1.2 0-2.4.3-3.5 1-1 .5-1.7 1.4-2.1 2.5l-4-1.8a9.4 9.4 0 013.2-4c1.6-1.2 3.7-1.8 6.3-1.8 3 0 5.6.9 7.6 2.7 2 1.7 3 4.3 3 7.6v14.5H186v-3.3h-.2a8.7 8.7 0 01-7.8 4zm.8-4c1.8 0 3.6-.8 5-2.1s2.2-3 2.2-5c-1.2-1-3.1-1.5-5.6-1.5-2.2 0-3.8.5-4.9 1.4-1 .8-1.6 2-1.6 3.3 0 1.2.5 2.2 1.5 2.8 1 .7 2.2 1 3.4 1zm24.5 4a10.5 10.5 0 01-10.3-6.8l4-1.7c1.2 3 3.4 4.5 6.4 4.5 1.2 0 2.4-.2 3.4-.9.8-.5 1.3-1.5 1.3-2.4 0-1.6-1-2.7-3.2-3.2l-4.8-1.2c-1.6-.4-3-1.2-4.3-2.2-1.3-1.1-2-2.7-2-4.5a6 6 0 012.8-5.1c1.9-1.4 4.2-2 6.5-2 2 0 4 .5 5.6 1.4 1.6 1 2.9 2.4 3.6 4.2l-3.9 1.6c-.9-2.1-2.7-3.2-5.4-3.2-1.2 0-2.3.2-3.3.8-.9.5-1.4 1.3-1.4 2.3 0 1.4 1 2.3 3.2 2.8l4.6 1.1c2.3.5 3.9 1.4 5 2.7 1 1.2 1.6 2.7 1.5 4.3 0 2.1-.9 4.1-2.6 5.4-1.7 1.4-4 2.1-6.7 2.1zm24 0c-3.6 0-6.5-1.2-8.8-3.6a13 13 0 01-3.3-9.1c-.1-3.4 1-6.6 3.2-9 2-2.5 5.2-3.9 8.4-3.8 3.5 0 6.3 1.1 8.4 3.5 2 2.3 3.1 5.4 3.1 9.3v.8h-18.7c.1 2.4 1 4.3 2.4 5.8a7.2 7.2 0 005.1 2c3.2 0 5.4-1.3 6.5-4l4 1.6a10.7 10.7 0 01-10.4 6.5zm6.3-15.6c-.1-1.4-.7-2.7-1.9-4-1.1-1.2-2.8-1.8-5-1.8-1.6 0-3.1.5-4.3 1.6a8 8 0 00-2.5 4.2h13.7zM2.2 44.3L8.8 1.7c0-.6.6-1.2 1.2-1.3.7 0 1.3.2 1.6.8l7.1 13.4L2.2 44.3zm47 10.3l-6.3-39.2c-.1-.5-.5-1-1-1.2-.6-.1-1.2 0-1.6.4L.5 54.6l22 12.4c1.4.8 3.1.8 4.5 0l22.2-12.4zm-18-34.2l-5-9.7a1.5 1.5 0 00-2.7 0l-22.4 40 30.2-30.3z"
            fill="var(--color-text-primary)" />
    </symbol>

    <symbol id="forestry" viewBox="0 0 484.1 101.9">
        <path
            d="M104.7 16.8l-5.6-5.6-18.7 18.6V0h-8v29.8L53.7 11.2l-5.6 5.6 24.3 24.4v11.2L53.7 33.8 32.3 12.3V0h-8v12.3L0 36.7l5.6 5.6 18.7-18.6v11.2L0 59.3l5.6 5.6 18.7-18.6v55.6h8V46.3L51 64.9l5.6-5.6-24.3-24.4V23.7l15.8 15.7 1.6 1.6 1.3 1.3 21.4 21.5v38.1h8V63.8l24.3-24.4-5.6-5.6-18.7 18.6V41.2zM127.4 76.4h9V55.3h22.5v-8.2h-22.5V33.7h23.8v-8.2h-32.8zM211.6 31.4A24.1 24.1 0 00203 26a29 29 0 00-10.9-1.8c-3.7 0-7.3.6-10.8 1.9A23.7 23.7 0 00167.2 40a28 28 0 00-2 11.1c-.1 3.7.6 7.4 2 10.9a24.3 24.3 0 0014.1 13.8 30.7 30.7 0 0021.7-.1 25.3 25.3 0 0016.2-24.8 28 28 0 00-2-11.1c-1.3-3.2-3.2-6-5.6-8.4zm-3.1 26.8a17.5 17.5 0 01-9.1 10c-2.3 1-4.7 1.4-7.2 1.4a16.3 16.3 0 01-12.7-5.4 17.5 17.5 0 01-3.6-6 21.1 21.1 0 010-14.6 17.6 17.6 0 019.1-9.7c2.3-1 4.7-1.4 7.2-1.4s4.9.4 7.2 1.4a17.6 17.6 0 019.1 9.7 21.1 21.1 0 010 14.6zM259.8 49.4c2.1-2.6 3.2-5.9 3.1-9.3.1-2.5-.5-4.9-1.6-7.1a12 12 0 00-4.2-4.5 18.8 18.8 0 00-6.1-2.3c-2.3-.5-4.7-.7-7.1-.7h-17.7v50.9h9.1V54.9h6.6l11.8 21.6h10.9l-13.5-22.6c3.4-.3 6.5-1.9 8.7-4.5zm-13.6-2.5l-3.9.2h-7V33.3h7.8l3.6.2c1.1.1 2.3.4 3.3.9 1 .4 1.8 1.1 2.4 2 .7 1.1 1 2.3.9 3.6.1 1.4-.3 2.7-1 3.9-.7.9-1.6 1.7-2.6 2.1-1.1.5-2.3.8-3.5.9zM279.9 54.4h23.4v-8.2h-23.4V33.7h24.7v-8.2h-33.7v50.9h35v-8.2h-26zM340 49.8c-1.8-1.1-3.8-2-5.8-2.6l-5.8-1.9c-1.6-.6-3.1-1.4-4.5-2.4a4.9 4.9 0 01-1.8-4c0-1 .2-2.1.7-3 .5-.8 1.1-1.5 1.9-2s1.7-.9 2.7-1.1a12.9 12.9 0 018.2.6c1.5.6 2.9 1.7 3.8 3.1l6.6-7c-1.9-1.8-4.3-3.2-6.8-4a26 26 0 00-14.7-.3c-2.2.6-4.2 1.5-6 2.8a14.9 14.9 0 00-4.2 4.8 13.4 13.4 0 00-1.6 6.8c-.1 2.5.5 5 1.8 7.2 1.2 1.8 2.7 3.2 4.5 4.3s3.8 2 5.8 2.6l5.8 2c1.6.6 3.2 1.5 4.5 2.6a5.5 5.5 0 011.8 4.3 6.3 6.3 0 01-2.9 5.3c-.9.6-1.9 1-2.9 1.3-3 .8-6.2.4-8.9-1-1.7-.9-3.2-2.3-4.3-3.9l-6.9 6.5c2 2.4 4.6 4.2 7.5 5.3a25.7 25.7 0 0016.2.6 15.7 15.7 0 0010-8.1 15 15 0 001.5-7.2c.1-2.6-.5-5.1-1.8-7.3a14 14 0 00-4.4-4.3zM350.1 33.7h15.6v42.7h9V33.7h15.6v-8.2h-40.2zM431.9 49.4c2.1-2.6 3.2-5.9 3.1-9.3.1-2.5-.5-4.9-1.6-7.1a12 12 0 00-4.2-4.5 18.8 18.8 0 00-6.1-2.3c-2.3-.5-4.7-.7-7.1-.7h-17.7v50.9h9.1V54.9h6.6l11.8 21.6h10.9l-13.5-22.6c3.4-.3 6.5-1.9 8.7-4.5zm-13.6-2.5l-3.9.2h-7V33.3h7.8l3.6.2c1.1.1 2.3.4 3.3.9 1 .4 1.8 1.1 2.4 2 .7 1.1 1 2.3.9 3.6.1 1.4-.3 2.7-1 3.9-.7.9-1.6 1.7-2.6 2.1-1.1.5-2.3.8-3.5.9zM473.3 25.5l-12.7 20.3-12.5-20.3h-11.3l19.1 29.1v21.8h9V54.6l19.2-29.1z"
            fill="var(--color-text-primary)" />
    </symbol>

    <symbol id="gatsby" viewBox="0 0 106 28">
        <path
            d="M62.9 12h2.8v10h-2.8v-1.3a3.4 3.4 0 01-3.1 1.6c-3.1 0-5.1-2.4-5.1-5.3 0-3 2-5.3 4.9-5.3.8 0 2.3.1 3.2 1.6V12h.1zm-5.2 5c0 1.6 1.1 2.8 2.8 2.8 1.6 0 2.8-1.2 2.8-2.8 0-1.6-1.1-2.8-2.8-2.8a2.7 2.7 0 00-2.8 2.8zm13.5-2.6V22h-2.8v-7.6h-1.1V12h1.1V8.6h2.8V12h1.9v2.4h-1.9zm8.5 0c-.7-.6-1.3-.7-1.6-.7-.7 0-1.1.3-1.1.8 0 .3.1.6.9.9l.7.2c.8.3 2 .6 2.5 1.4.3.4.5 1 .5 1.7 0 .9-.3 1.8-1.1 2.5s-1.8 1.1-3 1.1c-2.1 0-3.2-1-3.9-1.7l1.5-1.7c.6.6 1.4 1.2 2.2 1.2.8 0 1.4-.4 1.4-1.1 0-.6-.5-.9-.9-1l-.6-.2c-.7-.3-1.5-.6-2.1-1.2-.5-.5-.8-1.1-.8-1.9 0-1 .5-1.8 1-2.3.8-.6 1.8-.7 2.6-.7a5 5 0 013.2 1.1l-1.4 1.6zm6.1-1.1c1-1.4 2.4-1.6 3.2-1.6 2.9 0 4.9 2.3 4.9 5.3s-2 5.3-5 5.3c-.6 0-2.1-.1-3.2-1.6V22H83V5.2h2.8v8.1zm-.3 3.7c0 1.6 1.1 2.8 2.8 2.8 1.6 0 2.8-1.2 2.8-2.8 0-1.6-1.1-2.8-2.8-2.8a2.7 2.7 0 00-2.8 2.8zm13 3.5L93.7 12H97l3.1 5.7 2.8-5.7h3.2l-8 15.3h-3.2l3.6-6.8zM54 13.7h-7v2.8h3.7c-.6 1.9-2 3.2-4.6 3.2-2.9 0-5-2.4-5-5.3S43.1 9 46 9c1.6 0 3.2.8 4.2 2.1l2.3-1.5A8 8 0 0038 14.4a8 8 0 008 8.1 8 8 0 008-8.1v-.7zM14 0A14 14 0 000 14a14 14 0 0014 14 14 14 0 0014-14A14 14 0 0014 0zM6.2 21.8A10.9 10.9 0 013 14.2L13.9 25c-2.8-.1-5.6-1.1-7.7-3.2zm10.2 2.9L3.3 11.6a11 11 0 0119.6-4.1l-1.5 1.3A9.2 9.2 0 0014 5a9.1 9.1 0 00-8.5 6L17 22.5a9 9 0 005.8-6.5H18v-2h7a11 11 0 01-8.6 10.7z"
            fill="var(--color-text-primary)" />
    </symbol>

    <symbol id="gridsome" viewBox="0 0 1289 245">
        <path
            d="M221.5 101.4a22.5 22.5 0 0123.2 20.3c4.4 57-47.8 121-121.3 123A121.5 121.5 0 010 121.6a21.4 21.4 0 1143 0 78.6 78.6 0 0079.2 80.3c48.8-1.4 80.5-43.6 78.9-78.1a21.4 21.4 0 0120.3-22.4z"
            fill="var(--color-text-primary)" />
        <path
            d="M168.2 123.2a22 22 0 0122-21.9h32.2c12.1 0 22.3 9.8 22.3 22 0 12-10.2 21.9-22.3 21.9h-32.2a22 22 0 01-22-22zM100.7 123.3a22 22 0 1143.9 0 22 22 0 01-43.9 0z"
            fill="var(--color-text-primary)" />
        <path fill-rule="evenodd" clip-rule="evenodd"
            d="M143.9 20.7A21.4 21.4 0 01123.5 43c-51 2.1-82 42-80.5 80a21.2 21.2 0 01-20.2 22.3A22 22 0 010 124.4C-2.3 62.5 49.1 1.4 121.7.2a21.4 21.4 0 0122.2 20.5z"
            fill="var(--color-text-primary)" />
        <path
            d="M408.1 137.5h41.2c-2 7.7-5.4 14.7-9.9 21-4.3 6.1-10 11-17 14.7-7.1 3.7-15.7 5.6-25.8 5.6a56 56 0 01-51-29.2 66 66 0 01-7.8-32.4c0-12.4 2.6-23 7.8-32.1a56 56 0 0151-28.7c11.7 0 21.7 2.4 29.8 7.2A52.3 52.3 0 01446 83L469 67.2a77.4 77.4 0 00-29.6-27.5 88.7 88.7 0 00-42.8-9.9 94.8 94.8 0 00-35.4 6.5A84.1 84.1 0 00333 54.2c-7.8 7.7-14 17-18.5 27.8a92.5 92.5 0 00-6.5 35.2c0 12.9 2.2 24.7 6.5 35.5a83 83 0 0018.3 28c8 7.9 17.4 14 28.2 18.4a96 96 0 0035.1 6.2 76.3 76.3 0 0062.1-27.5c7-8.5 12.4-18.3 15.9-29.2 3.5-11.1 5.1-22.9 4.8-35.3h-67.4l-3.4 24.2zM557.2 118.7l12.7-22.3c-2.5-2.9-5.6-5-9.1-6.2-3.6-1.3-7.3-2-11.3-2a25 25 0 00-13.8 4.4 36.1 36.1 0 00-11.5 11.6V90.7h-25.8v111h25.8v-62.5c0-8 1.4-14.5 4.3-19.3 2.9-4.9 7.6-7.3 14-7.3 3.2 0 5.8.6 8 1.7 2 1 4.3 2.4 6.7 4.4zM583 90.7v111h25.5v-111h-25.6zm-3.7-40.8a16.2 16.2 0 0016.4 16c4.7 0 8.6-1.6 11.8-4.6a15 15 0 004.8-11.4 15 15 0 00-4.8-11.3c-3.2-3.1-7.1-4.6-11.8-4.6a16.2 16.2 0 00-16.4 16zM652.1 146.2c0-11.1 3.3-19.7 9.9-25.8a32.7 32.7 0 0123.3-9.5c5 0 10 1.4 14.7 4.1a35.4 35.4 0 0116.9 31.1 33.9 33.9 0 01-16.9 31.1 29.4 29.4 0 01-14.7 4.2c-9 0-16.7-3-23.3-9.1-6.6-6.3-9.9-15-9.9-26.1zm-27 0c0 12.2 2.5 22.7 7.5 31.4a53 53 0 0019.8 19.8c8.1 4.5 17 6.7 26.7 6.7a44 44 0 0021.6-5.3 45 45 0 0016.2-15.4v18.3H743V21.3H717V109a43 43 0 00-16.2-15.2 42.6 42.6 0 00-21.6-5.6 53 53 0 00-46.5 26.8c-5 8.6-7.4 19-7.4 31.2zM772.7 161.6l-15.2 14.8c5.1 8.2 12 15 20.5 20.5a53.4 53.4 0 0029 8.2 46 46 0 0028.7-8.4c7.6-5.8 11.3-14.6 11.3-26.4 0-6.6-1.4-12-4.3-16.1a35.2 35.2 0 00-11.3-10.4 92.5 92.5 0 00-15-7.5c-4.1-1.8-8.4-3.4-12.7-4.8a41.4 41.4 0 01-10.3-5.1c-2.8-2-4.1-4.4-4.1-7.5 0-3.4 1.3-5.8 3.8-7.2 2.7-1.7 6.4-2.5 10.9-2.5 4.4 0 9.1 1.3 14 4 4.9 2.5 9.2 5.8 13 9.8l14.4-15a46.8 46.8 0 00-17.9-14 53.6 53.6 0 00-43.3-2.1 34 34 0 00-14 10.3c-3.5 4.5-5.2 10-5.2 16.5 0 6.9 1.5 12.5 4.5 16.9 3.2 4.1 7.3 7.5 12 10.1 4.9 2.6 9.9 5 15 7 6.4 2.4 12 5 16.8 7.7 5 2.8 7.5 6.6 7.5 11.4 0 3.7-1.4 6.5-4 8.4a19 19 0 01-11 2.7c-4.7 0-10.2-2-16.3-5.8-6-4-11.5-9.2-16.8-15.5zM884.6 146.2c0-10.5 3.2-19 9.4-25.4a32 32 0 0123.6-9.6c9.5 0 17.3 3.2 23.6 9.6a34.8 34.8 0 019.4 25.4c0 10.3-3.1 18.7-9.4 25.3a31.5 31.5 0 01-23.6 9.7 32 32 0 01-23.6-9.7c-6.2-6.6-9.4-15-9.4-25.3zm-26.7 0c0 11.4 2.6 21.5 7.7 30.2a57.1 57.1 0 0021.4 20.5 64.5 64.5 0 0030.6 7.2c11.4 0 21.6-2.4 30.6-7.2a56.8 56.8 0 0029.1-50.7c0-11.4-2.6-21.5-8-30.2a53.6 53.6 0 00-21.1-20.3 62 62 0 00-30.6-7.5 62.8 62.8 0 00-30.6 7.5 55.3 55.3 0 00-21.4 20.3 58.2 58.2 0 00-7.7 30.2zM1151 131.2c0-14-2.9-24.6-8.7-31.9-5.8-7.4-14.7-11-26.7-11-7.4 0-14.1 1.7-20.2 5.2a39 39 0 00-14.7 14.3c-5-13-15.6-19.6-31.8-19.6-7.2 0-13.5 1.7-18.8 5.1a36.9 36.9 0 00-12.2 13.5V90.7h-25.5v111h25.5v-67.6c0-7.4 1.8-13.3 5.5-17.9a20 20 0 0116.4-7c6.7 0 11.5 2.2 14.2 6.6 2.7 4.1 4 10.3 4 18.3v67.6h26.3v-67.6c0-7.4 1.9-13.3 5.5-17.9a20 20 0 0116.4-7c6.8 0 11.5 2.2 14.2 6.6a32.3 32.3 0 014.3 18.3v67.6h26.3v-70.5zM1193.6 152.2h88.4c.2-1.3.2-2.6.2-3.8l.3-3.4c0-17.6-7.4-31.4-17.4-41.6a53.6 53.6 0 00-40.4-15.2 57.5 57.5 0 00-38.8 12.8 54.3 54.3 0 00-18.7 39.2 63.4 63.4 0 006.7 36 51.7 51.7 0 0019.7 20.5 58 58 0 0029.9 7.4c13.8 0 25.1-2.7 34-8.2 9-5.4 18.5-12.7 24-21.7l-25-9.2a36.7 36.7 0 01-12.8 13c-5.1 3.1-11.5 4.6-19 4.6-8.5 0-15.6-2.4-21.2-7.4a34.3 34.3 0 01-9.9-23zm.5-18a28.3 28.3 0 0110.1-19.2c5.6-4.6 12.4-7 20.3-7 8.3 0 14.7 2.4 19.2 7a32 32 0 018.2 19.1h-57.8z"
            fill="var(--color-text-primary)" />
    </symbol>

    <symbol id="hugo" viewBox="0 0 1493 391" fill-rule="evenodd">
        <path fill="var(--color-text-primary)" stroke="var(--color-text-primary)"
            d="M1345.211 24.704l112.262 64.305a43 43 0 0121.627 37.312v142.237a40 40 0 01-20.702 35.037l-120.886 66.584a42 42 0 01-41.216-.389l-106.242-61.155a57 57 0 01-28.564-49.4V138.71a64 64 0 0131.172-54.939l98.01-58.564a54 54 0 0154.54-.503z" />
        <path fill="var(--color-text-primary)" stroke="var(--color-text-primary)"
            d="M958.07 22.82l117.31 66.78a41 41 0 0120.72 35.64v139.5a45 45 0 01-23.1 39.32L955.68 369.4a44 44 0 01-43.54-.41l-105.82-61.6a56 56 0 01-27.83-48.4V140.07a68 68 0 0133.23-58.44l98.06-58.35a48 48 0 0148.3-.46z" />
        <path fill="var(--color-text-primary)" stroke="var(--color-text-primary)"
            d="M575.26 20.97l117.23 68.9a40 40 0 0119.73 34.27l.73 138.67a48 48 0 01-24.64 42.2l-115.13 64.11a45 45 0 01-44.53-.42l-105.83-61.6a55 55 0 01-27.33-47.53V136.52a63 63 0 0129.87-53.59l99.3-61.4a49 49 0 0150.6-.56z" />
        <path fill="var(--color-text-primary)" stroke="var(--color-text-primary)"
            d="M195.81 24.13l114.41 66.54a44 44 0 0121.88 38.04v136.43a48 48 0 01-24.45 41.82L194.1 370.9a49 49 0 01-48.48-.23L41.05 310.48a53 53 0 01-26.56-45.93V135.08a55 55 0 0126.1-46.8l102.8-63.46a51 51 0 0152.42-.69z" />
        <path fill="var(--color-primary)"
            d="M1320.72 89.15c58.79 0 106.52 47.73 106.52 106.51 0 58.8-47.73 106.52-106.52 106.52-58.78 0-106.52-47.73-106.52-106.52 0-58.78 47.74-106.51 106.52-106.51zm0 39.57c36.95 0 66.94 30 66.94 66.94a66.97 66.97 0 01-66.94 66.94c-36.95 0-66.94-29.99-66.94-66.94a66.97 66.97 0 0166.93-66.94h.01zm-283.8 65.31c0 47.18-8.94 60.93-26.81 80.58-17.87 19.65-41.57 27.57-71.1 27.57-27 0-48.75-9.58-67.61-26.23-20.88-18.45-36.08-47.04-36.08-78.95 0-31.37 11.72-58.48 32.49-78.67 18.22-17.67 45.34-29.18 73.3-29.18 33.77 0 68.83 15.98 90.44 47.53l-31.73 26.82c-13.45-25.03-32.94-33.46-60.82-34.26-30.83-.88-64.77 28.53-62.25 67.75 1.4 21.94 11.65 59.65 60.96 66.57 25.9 3.63 55.36-24.02 55.36-39.04H944.4v-37.5h92.5V194l.02.03zm-562.6-94.65h42.29v112.17c0 17.8.49 29.33 1.47 34.61 1.69 8.48 4.81 14.37 11.17 19.5 6.37 5.13 13.8 6.59 24.84 6.59 11.2 0 14.96-1.74 20.66-6.6 5.69-4.85 9.12-9.46 10.28-16.53 1.15-7.07 3.07-18.8 3.07-35.18V99.38h42.28v108.78c0 24.86-1.07 42.43-3.21 52.69-2.14 10.27-6.08 18.93-11.82 26-5.74 7.06-13.42 12.69-23.03 16.88-9.62 4.19-22.16 6.28-37.65 6.28-18.7 0-32.87-2.28-42.52-6.85-9.66-4.57-17.3-10.5-22.9-17.8-5.61-7.3-9.3-14.95-11.08-22.96-2.58-11.86-3.88-29.38-3.88-52.55V99.38h.03zM93.91 299.92V92.7h43.35v75.48h71.92V92.7h43.48v207.22h-43.48v-90.61h-71.92v90.61z" />
    </symbol>

    <symbol id="jekyll" viewBox="0 0 2500 1021">
        <path opacity=".1"
            d="M2243 21v6s6 41-1 60l-300 781c-22 58 7 122 64 143 58 22 122-6 145-63l300-781c6-15 39-45 39-45l4-4v-1l1-1c7-20-43-58-112-85-69-26-132-32-140-11v1z"
            fill="var(--color-text-primary)" />
        <path
            d="M2234 14v6s6 42-1 60l-300 781a112 112 0 00209 80l300-781c6-15 39-45 39-45l4-4v-1l1-1c8-20-43-58-112-84-69-27-132-33-140-12v1z"
            fill="var(--color-text-primary)" />
        <path
            d="M2328 368l-216 563a81 81 0 01-104 45 82 82 0 01-48-103l138-361s17-27 51-47 62-16 100-32c38-17 79-65 79-65zM2434 93c4-11-27-34-70-50-42-17-81-21-85-10-4 12 27 34 70 51 42 16 80 20 85 9z"
            fill="var(--color-text-primary)" />
        <path opacity=".3" d="M2232 20s6 41-1 60l-298 779a111 111 0 0094 150 113 113 0 01-37-129l292-763s-40-38-50-97z"
            fill="var(--color-primary)" />
        <g opacity=".5" fill="var(--color-primary)">
            <path opacity=".5"
                d="M2136 531a9 9 0 100-17 9 9 0 000 17zM2193 598a13 13 0 100-26 13 13 0 000 26zM2106 685a25 25 0 100-50 25 25 0 000 50zM2066 719a13 13 0 100-26 13 13 0 000 26zM2118 812a9 9 0 100-18 9 9 0 000 18z" />
        </g>
        <path opacity=".1"
            d="M588 475c13 10 37 4 53-14 17-18 20-42 7-53-13-10-37-4-53 15-18 18-20 41-7 52zm-39 34c-4 0-10 6-5 9 8 2 11 9 11 17-6 37-52 78-69 92-5 5 2 14 6 11 10-8 30-24 47-45-27 60-81 139-101 167-80 110-202 212-285 212-67 0-123-46-135-112-1-7-11-8-9 1 15 91 85 127 170 127 93 0 202-67 263-136 97-112 160-240 143-312-7-27-26-31-36-31zm599 243c25-7 46-21 46-43 0-3-4-3-4 0 0 13-15 24-32 27-40 6-119-41-156-89 40 15 121-7 160-34 35-26 50-54 52-77 4-38-37-60-95-38-37 15-81 47-128 109 49-80 145-212 239-295 115-102 181-82 78 26a686 686 0 01-177 126c-17 7-9 17 3 12 58-26 136-79 184-123 139-134 23-235-131-93a955 955 0 00-233 327c-20 25-35 45-54 61l-5 6c-51 44-132 103-182 103-36 1-51-25-44-60 9-54 65-117 113-139 62-29 99 26 17 70-31 16-68 25-83 25-18 0-16 7-1 8 25 1 65-10 91-22 83-40 89-114-2-117-98-3-216 80-215 186 1 47 39 73 91 73 87-1 165-67 228-125l27-25c-22 56-33 109-28 148 3 28 19 41 32 52 3 2 8 0 4-6-18-21-13-87 13-151 21 43 104 97 192 78zm-105-185c102-91 142-9 77 40-34 26-101 45-121 33l-5-3-7-13c17-21 36-39 56-57zm566-103c41 4 24-45-17-33-19 6-37 41-50 72-41 60-109 144-157 187-42 37-81 46-34-22 20-27 45-56 59-85 33-73-38-106-96-62-34 26-79 79-115 108-9 8-7 20 3 12 28-23 78-76 121-106 35-27 49-10 29 13-28 32-78 89-91 125-17 54 4 78 39 78 49 0 122-76 170-136 16-20 34-44 49-67-42 82-87 165-142 240-78 106-175 186-268 186-67 0-124-45-136-111-1-7-10-9-9 1 15 91 85 126 170 126 93 0 183-54 246-120 126-134 141-284 180-368 19-38 36-40 49-38zm516-128c18-32 17-57-26-57-33 1-92 24-120 45-6 7-3 10 4 7l18-8c31-17 18 18 12 32a2194 2194 0 01-191 263c-33 32-99 88-149 106-161 61 44-214 61-236 38-47 124-131 150-172 18-32 17-57-26-57-33 1-92 24-120 45-7 7-4 10 4 7l18-8c31-17 18 18 11 32-37 64-102 155-137 200-28 38-63 76-90 97-10 9-4 17 7 10 9-6 24-20 40-37-30 59-53 141 24 150 65 9 143-57 194-107l18-18 4-4c-29 58-53 140 24 150 85 11 189-102 230-144 8-7 5-21-8-7-24 24-105 98-163 120-162 60 44-214 61-236 39-49 124-132 150-173z"
            fill="var(--color-text-primary)" />
        <path
            d="M579 466c14 11 37 5 54-13s19-42 6-53-37-4-53 14c-17 19-20 42-7 52zm-39 35c-3 0-9 6-4 9 7 2 11 8 11 17-7 36-52 78-69 92-5 4 2 14 6 11 10-8 30-24 47-46-28 61-81 140-102 168-80 110-201 211-284 211-67 0-124-45-136-111-1-7-10-9-9 1 16 91 86 126 171 126 93 0 202-67 262-136 98-111 161-239 144-312-7-27-26-31-37-30zm599 242c26-6 47-20 47-42 0-3-5-3-5 0 0 13-15 24-32 26-40 7-119-40-156-88 40 15 122-7 160-35 36-25 50-54 52-76 5-38-37-61-95-38-37 15-81 47-128 108 49-80 145-211 239-295 115-101 181-82 78 26a686 686 0 01-177 127c-17 7-9 17 3 11 59-26 137-78 184-123 139-133 23-234-131-93a951 951 0 00-233 328c-20 25-35 45-54 61l-5 6c-51 43-132 103-182 103-35 1-50-26-44-60 10-54 66-118 113-140 62-28 99 27 17 71-31 16-68 25-83 25-17 0-16 7-1 7 25 1 65-9 91-21 84-40 89-115-2-117-98-3-216 80-215 186 1 47 39 73 91 73 87-1 165-67 229-125l26-25c-22 56-33 109-28 147 4 29 20 42 32 52 3 2 8 0 5-5-19-22-13-87 12-151 22 43 105 97 192 77zm-105-184c102-91 142-10 77 39-34 26-100 46-121 33l-5-2-7-14c17-20 37-39 56-56zm566-103c41 4 24-46-17-33-19 5-37 41-50 71-41 61-109 144-157 188-42 36-81 46-33-22 19-27 44-56 58-85 34-74-38-106-96-62-34 26-79 79-114 108-10 8-8 19 2 11 28-22 78-75 121-105 35-28 50-10 29 13-28 32-78 89-91 125-17 54 4 78 39 78 49 0 122-76 171-136 16-21 33-44 48-67-42 82-87 165-142 240-78 106-175 186-268 186-66 0-124-45-136-111-1-8-10-9-9 1 15 90 85 126 170 126 93 0 183-54 246-120 127-134 142-284 181-368 18-38 35-40 48-38zm516-129c19-32 18-57-26-57-32 1-92 24-120 46-6 6-3 9 5 6l17-8c31-17 19 19 12 32a2195 2195 0 01-191 264c-33 31-99 87-149 106-161 60 45-214 62-237 38-47 123-130 149-172 18-32 17-56-26-56-33 0-92 23-120 45-6 6-3 9 4 6l18-8c31-17 18 19 12 32-37 64-103 155-138 201-28 37-63 75-89 97-11 8-5 17 6 9 10-6 24-20 40-36-29 58-53 140 24 150 66 8 144-58 194-108l18-18 5-4c-30 58-54 140 23 150 85 12 190-101 230-143 8-8 5-22-8-8-24 25-105 98-163 120-161 60 44-214 61-236 39-49 124-132 150-173z"
            fill="var(--color-text-primary)" />
    </symbol>

    <symbol id="netlify-cms" viewBox="0 0 182 47">
        <path fill="var(--color-text-primary)"
            d="M10.7 26.7v.1l-5.4 2.3-4.4-4.3v-.1H1l9.7 2zm.6-1.3L0 23l6.2-6.2a1833.6 1833.6 0 005.5 7.9 3 3 0 00-.5.6zm2.3-15.7v-.1L23 .1l4 4c.1 0 .1 0 0 0l-4.8 7.6a2.4 2.4 0 00-2.3.5l-6.3-2.6zM13 24l-5.6-8.2v-.1l5-5h.1l6.6 2.8a2.3 2.3 0 00.6 2.2L14.5 24h-.1a2.6 2.6 0 00-.7 0h-.6zm1.8 5l10.5 15.2v.1L23 46.6l-13.1-13 2.8-4.5h.1a2.7 2.7 0 002 0zm-3.2-.7L9 32.5l-2.5-2.3V30l5-2.1.2.3zm4.8-2l-.1-.4 14-6h.1l.3.2-1.2 7.6a2 2 0 00-1.7 1v.1l-11.4-2.3v-.1zm12.4 5.3l-1.8 11-.6.6h-.1l-10.4-15V28l.1-.3h.1L27.6 30v.1a2 2 0 001.2 1.4zm8.6.6v.1L29 40.8h-.1l1.4-9.1a2.1 2.1 0 001-.8l6.2 1.3zM29.8 18V18.6l-14 6c-.1 0-.1 0 0 0l5.1-8.2h.5c.8 0 1.5-.4 2-1l6.4 2.6zm15.4 6.5v.1L38.7 31l-7-1.4h-.1a2 2 0 00-.8-1.4l1.3-7.7a2 2 0 001.4-.9l11.7 5zm1.2-1.1l-.1.1-12.1-5.1v-.1l4.9-2.1 7.3 7.2zm-23-10.6c-.1 0-.1 0 0 0L28 5.2l4.3 4.2-1.1 7a2 2 0 00-.7.3h-.1L23.8 14a2.5 2.5 0 00-.5-1.2zm9.3 3.8l.9-5.7h.1l4.2 4.1v.1l-4.5 2a2 2 0 00-.7-.5zM102.4 14.4h3.1v-2.8h-3.1v2.8zm9.3-1.5c-.8.8-1.3 2-1.3 3.7v1.3h-2.1v2.3h2.1v12h3.2v-12h2.8V18h-2.8v-1.3c0-1.6.7-2.4 2.3-2.4l1.2.1v-2.5a7.3 7.3 0 00-1.7-.2c-1.6 0-2.8.4-3.7 1.3zm11.7 14.7l-3-9.7h-3.3l5 14.2-.5 1.2c-.3.7-.6 1.2-1 1.5a3 3 0 01-1.8.5h-.6v2.4a5.6 5.6 0 001.5.3c2 0 3.5-1.2 4.4-3.6l5.6-16.5h-3.4l-2.9 9.7zm-21 4.6h3.1V17.9h-3.1v14.3zm-13.6-2.8c-.2-.2-.3-.6-.3-1.2v-8H91v-2.4h-2.5v-3.4h-3.1v3.4H83v2.4h2.4v8.1c0 2.8 1.2 4.1 3.6 4.1.7 0 1.4 0 2-.3v-2.5l-1 .2c-.6 0-1-.1-1.2-.4zm-10.2-5.7h-6c.1-1.1.5-2 1-2.6.5-.6 1.2-1 2-1 1 0 1.7.4 2.1 1 .5.5.8 1.3.9 2.3v.3zm-3-6.1a6 6 0 00-3.2 1c-1 .6-1.7 1.4-2.3 2.6a8.9 8.9 0 00-.8 3.8v.4c0 2.1.7 3.8 1.9 5.1 1.2 1.3 2.9 2 4.9 2a7 7 0 003.1-.8 5.5 5.5 0 002.3-2l-1.7-1.6c-1 1.2-2.1 1.8-3.5 1.8-1 0-2-.4-2.6-1-.7-.7-1-1.7-1.2-2.9h9.2v-1.2c0-2.3-.5-4-1.5-5.3a5.6 5.6 0 00-4.5-2zm-13.5 0a5 5 0 00-4.1 1.9l-.1-1.7h-3v14.4h3.2V22a3 3 0 012.8-1.8c.9 0 1.5.2 1.9.7.4.4.6 1.1.6 2v9.3h3.1v-9.5c0-3.4-1.5-5.1-4.4-5.1zm32.2 14.6h3.2V11.8h-3.2v20.4z" />
        <path
            d="M139.3 29.7c.8 0 1.4-.3 2-.7.5-.5.8-1.1.8-1.8h3a4.7 4.7 0 01-.8 2.5c-.5.8-1.2 1.4-2.1 1.8a6.3 6.3 0 01-2.9.7c-2 0-3.6-.6-4.8-2a7.7 7.7 0 01-1.7-5.3v-.3c0-2.2.6-4 1.7-5.3a6 6 0 014.8-2c1.7 0 3 .6 4.1 1.6 1.1 1 1.7 2.3 1.7 3.9h-3a3 3 0 00-.8-2c-.6-.6-1.2-.9-2-.9-1 0-1.9.4-2.5 1.2-.5.7-.8 1.9-.8 3.4v.5c0 1.6.3 2.7.8 3.5.6.8 1.4 1.2 2.5 1.2zm11-12l.2 1.4c1-1.1 2.3-1.7 4-1.7 2 0 3.3.7 4 2.2a5 5 0 014.4-2.2c1.6 0 2.8.4 3.5 1.3.8.9 1.2 2.1 1.2 3.8V32h-3.2v-9.4c0-.9-.2-1.5-.6-2-.4-.4-1-.6-2-.6-.7 0-1.3.2-1.8.6a3 3 0 00-1 1.5V32H156v-9.5c0-1.7-1-2.5-2.6-2.5-1.3 0-2.2.5-2.8 1.6V32h-3.2V17.6h3zM178.8 28c0-.6-.2-1-.7-1.3-.5-.3-1.2-.6-2.3-.8-1.1-.3-2-.6-2.8-1-1.6-.7-2.4-1.8-2.4-3.3 0-1.2.5-2.3 1.6-3 1-1 2.3-1.3 4-1.3 1.7 0 3 .4 4.1 1.2a4 4 0 011.6 3.3h-3.2a2 2 0 00-.7-1.5c-.5-.4-1-.6-1.8-.6s-1.3.1-1.8.5c-.4.3-.6.7-.6 1.3 0 .5.2.9.6 1.1.4.3 1.2.6 2.5.9 1.3.2 2.2.6 3 1 .7.3 1.2.8 1.6 1.3.3.6.5 1.2.5 2 0 1.3-.5 2.3-1.6 3.1-1 .8-2.5 1.2-4.2 1.2-1.2 0-2.2-.2-3.1-.6-1-.4-1.7-1-2.2-1.8-.5-.7-.8-1.5-.8-2.4h3.2c0 .8.3 1.4.8 1.8.6.4 1.3.6 2.1.6.9 0 1.5-.2 2-.5.4-.3.6-.7.6-1.2z"
            fill="var(--color-text-primary)" />
    </symbol>

    <symbol id="netlify" viewBox="0 0 168 60">
        <path fill-rule="evenodd" clip-rule="evenodd"
            d="M42.4 21.3l.8.5 5.9-2.4v-.1l-5.5-5.5-1.3 7.4zm-12.2-5l.6 1.5 8.7 3.8c.3-.3.6-.4 1-.5V21l1.5-8.8V12l-5.5-5.4h-.1l-6.2 9.5v.1zM60 30l-9.4-9.3-6.4 2.7v.1L60 30.2V30c.1 0 .1-.1 0-.1zm-1.6 1.5l-15-6.4c-.5.6-1 1-1.8 1v.1l-1.7 9.9c.6.5 1 1.1 1 1.8v.1l9.2 2v-.1l8.3-8.3v-.1zM38.6 23l-8.2-3.5h-.1a3 3 0 01-2.5 1.4h-.5-.1l-6.8 10.5h.1l18-7.6V23.5l.1-.4V23zm9.8 18.3l-8-1.7c-.3.4-.7.7-1.2 1l-2 11.7.1.1h.1l11-11h.1v-.1zm-11-.8c-.8-.3-1.4-1-1.6-1.8L21 35.6h-.1l-.3.4 13.5 19.5 1-.8 2.2-14.2zm-16.1-6.7L36 37c.5-.7 1.3-1.2 2.1-1.3h.1l1.6-9.8-.4-.3-18.2 7.7v.7zM15 36.3L15 36h-.1l-6.3 2.6v.1l3 3.1h.2l3.4-5.4zm4.2 1h-.1a3.4 3.4 0 01-2.5 0l-.1.1-3.7 5.7v.2L29.7 60h.1l3-3-13.5-19.7zm-2.4-6.6h.9l.9.1 7-10.6V20a3 3 0 01-.9-2.8l-8.5-3.7h-.1l-6.5 6.5 7.2 10.6zm.8-18.4l8 3.4h.1a3.1 3.1 0 013-.5V15l6.3-9.8L30 0h-.1L17.7 12v.1zm-3 20.3l.7-1-7-10.1h-.1l-8.1 8 14.5 3zm-.7 1.7L1.3 31.5c-.1.1 0 .2 0 .2l5.5 5.5H7l7-2.9zM122 15.1h4v26.3h-4V15zm-41.7 7.4c-2.2 0-4 .8-5.3 2.5l-.1-2.2H71v18.5h4.1V28.2a4 4 0 013.7-2.3c1 0 2 .3 2.4.9.5.5.8 1.4.8 2.6v12h4V29c0-4.4-2-6.6-5.7-6.6zm17.6 0a7.7 7.7 0 00-7.2 4.6c-.7 1.5-1 3.1-1 5v.5c0 2.7.8 5 2.4 6.6a8.3 8.3 0 006.2 2.5c1.6 0 3-.3 4.1-1a7.1 7.1 0 003-2.5l-2.2-2.1a5.5 5.5 0 01-4.6 2.3c-1.3 0-2.4-.5-3.3-1.3-.9-1-1.4-2.1-1.5-3.7h11.9v-1.6c0-3-.7-5.3-2-6.9a7.2 7.2 0 00-5.8-2.4zm3.7 7.9h-7.8a6 6 0 011.3-3.3c.7-.9 1.6-1.2 2.8-1.2 1 0 2 .3 2.6 1 .7.7 1 1.8 1.1 3.2v.3zm13.2 7.4c-.3-.3-.4-.8-.4-1.5V25.9h3.2v-3h-3.2v-4.5h-4v4.4h-3V26h3v10.5c0 3.5 1.5 5.3 4.7 5.3.8 0 1.7-.1 2.7-.4V38l-1.5.1c-.7 0-1.2 0-1.5-.4zm17.5-15h4.1v18.6h-4V22.9zm27.2 12.6L155.7 23h-4.4l6.4 18.4-.6 1.6c-.3.9-.7 1.5-1.3 1.9a4 4 0 01-2.3.6l-.7-.1v3.2c.7.2 1.3.3 2 .3 2.6 0 4.4-1.5 5.6-4.6l7.2-21.3h-4.4l-3.7 12.5zm-15-19c-1.2 1.1-1.8 2.7-1.8 4.8v1.7H140v3h2.8v15.5h4.1V25.9h3.7v-3h-3.7v-1.7c0-2 1-3 3-3l1.5.1v-3.2c-.7-.3-1.5-.4-2.2-.4-2 0-3.6.6-4.7 1.7zm-8-1.7v3.7h-4.2v-3.7h4.1z"
            fill="var(--color-text-primary)" />
    </symbol>

    <symbol id="nextjs" viewBox="0 0 148 90">
        <path
            d="M35 23.5h27.8v2.2H37.5v16.7h23.8v2.2H37.5V63h25.6v2.2H35V23.5zm30.3 0h3l13.1 18.3 13.4-18.3L113.1.2 83 43.8l15.4 21.4h-3l-14-19.5-14.2 19.5h-3l15.5-21.4-14.5-20.3zm34.3 2.2v-2.2h31.8v2.2h-14.6v39.5h-2.6V25.7H99.6zM.1 23.5h3.2l44 66-18.1-24.3L2.8 26.6l-.1 38.6H.1V23.5zm131 38.8c-.5 0-.9-.4-.9-1 0-.5.4-.9 1-.9.5 0 .8.4.8 1 0 .5-.3.9-.9.9zm2.5-2.4h1.4c0 .7.6 1.2 1.4 1.2.8 0 1.3-.5 1.3-1.5v-6.4h1.4v6.4c0 1.8-1 2.8-2.7 2.8-1.7 0-2.8-1-2.8-2.5zm7.4-.1h1.3c.2.8 1 1.4 2.2 1.4 1.1 0 2-.6 2-1.4 0-.7-.6-1.1-1.8-1.4l-1.1-.3c-1.7-.3-2.4-1.1-2.4-2.5 0-1.6 1.3-2.6 3.3-2.6 1.8 0 3.1 1 3.2 2.6h-1.4c-.1-.9-.8-1.4-1.9-1.4-1 0-1.8.5-1.8 1.4 0 .6.5 1 1.6 1.2l1 .3c1.9.4 2.6 1.2 2.6 2.5 0 1.7-1.3 2.8-3.4 2.8-2 0-3.3-1-3.4-2.6z"
            fill="var(--color-text-primary)" />
    </symbol>

    <symbol id="nuxtjs" viewBox="0 0 556 98">
        <path fill-rule="evenodd" clip-rule="evenodd"
            d="M74.4 3.7c1 1.1 1.7 2.6 1.6 4.2v81.5a7 7 0 01-1.8 4.7 6.2 6.2 0 01-4.6 1.9c-1 0-2-.2-3-.5a5 5 0 01-2.1-1.4L11.7 25.4V90a5.7 5.7 0 01-6 5.9c-1.5 0-3-.6-4-1.7-1-1-1.7-2.6-1.7-4.1V8.4C0 6.7.7 5 2 3.8A6 6 0 016.3 2c1 0 2.1.2 3 .6 1 .3 1.8 1 2.4 1.7l52.5 68.9V7.9a5.7 5.7 0 016-5.9 5 5 0 014 1.7h.2zm108.7.2c1.1 1.3 1.8 3 1.7 4.6v51.6c.1 6.6-1.5 13.2-4.7 19a35.5 35.5 0 01-31.6 18.2 39 39 0 01-18.8-4.8 34 34 0 01-13-13.2 38.6 38.6 0 01-4.7-19.1V8.6a6 6 0 012-4.6 6.7 6.7 0 019.3 0 6.4 6.4 0 011.9 4.6V60c-.1 4.4 1 8.7 3.2 12.6a23.2 23.2 0 0029.4 9.9A24 24 0 00172.6 60V8.6c0-1.7.5-3.4 1.6-4.7 1.2-1.3 2.8-2 4.5-1.9a6 6 0 014.4 1.9zM287 85.7a6.3 6.3 0 011.1 3.8c.1 1.7-.6 3.4-1.9 4.6a6.4 6.4 0 01-4.3 1.7c-2.1.1-4.1-1-5.3-2.7l-26-34.8L225 93.1a6.2 6.2 0 01-5.2 2.8c-1.6 0-3-.6-4.1-1.7-1-1-1.7-2.4-1.7-3.8a7 7 0 011.6-4.4l27.6-37.5-27.7-37.2a6.2 6.2 0 01.5-8.4 6.3 6.3 0 017.4-1.2 6 6 0 012.4 2l25.8 34.6L277 4c1.1-1.7 3-2.8 5.1-3a6 6 0 014.3 2 6 6 0 011.9 4c0 1.5-.5 2.8-1.4 4l-28 37.2 28 37.5h.1zm96.5-82c1.2 1.1 2 2.8 1.9 4.5 0 1.7-.7 3.3-2 4.4a6.3 6.3 0 01-4.6 1.6H355v75.4a6 6 0 01-1.9 4.5 7.4 7.4 0 01-9.8 0 6.2 6.2 0 01-2-4.5V14.2h-23.8c-1.7 0-3.3-.5-4.6-1.7A5.9 5.9 0 01311 8c0-1.6.6-3.2 1.8-4.3 1.3-1.2 3-1.8 4.6-1.7h61.4c1.7 0 3.4.5 4.7 1.7zM412.7 93.6a28 28 0 01-10.5-10.3c-.7-1-1.1-2.3-1.2-3.6 0-1.7.7-3.3 2-4.4a6.7 6.7 0 014.2-2c2.4.3 4.6 1.5 6 3.4 3 5 8.4 8 14.1 7.8A17.2 17.2 0 00445 67.3V8.5a6 6 0 012-4.6 7 7 0 019.5-.1 6.3 6.3 0 011.8 4.6v59a29 29 0 01-15 26 31.2 31.2 0 01-30.5.2h-.1zm92.5.4c-5.3-2-10.2-5-14.4-9a7.2 7.2 0 01-2.8-5.4 6 6 0 012-4.4 6 6 0 014.3-1.9c1.5 0 2.8.5 3.9 1.5 3.2 3 7 5.5 11 7.3 4.2 1.6 8.6 2.4 13 2.4 5 .1 10-1.2 14.3-4 3.5-2 5.8-5.7 5.8-9.8.1-4.3-2.1-8.4-5.8-10.8a52 52 0 00-17.4-6.3c-9.2-2-16.3-5-21.3-9.3-5-4.3-7.4-10.3-7.4-17.9-.1-5 1.3-9.9 4.2-14 2.9-4 6.8-7.2 11.4-9.2a45.5 45.5 0 0132.4-.5 33 33 0 0112 7.1c1.8 1.4 3 3.5 3 5.7a6 6 0 01-1.8 4.3 5.7 5.7 0 01-4.4 2c-1 0-2.2-.4-3-1.1a32.1 32.1 0 00-21.4-8.2c-5-.3-10 1-14.3 3.6a11.9 11.9 0 000 19.8 50 50 0 0015.8 6c5.9 1.1 11.6 3 17.1 5.3a24 24 0 0110.3 8.6 26 26 0 013.6 14.4c.1 5-1.4 9.8-4.3 13.8-3 4.2-7.2 7.4-12 9.4a49.8 49.8 0 01-33.9.6h.1z"
            fill="var(--color-text-primary)" />
    </symbol>

    <symbol id="prismic" viewBox="0 0 140 36">
        <path fill-rule="evenodd" clip-rule="evenodd"
            d="M35.5 18.7L33 16.1c-.2-.2-.3-.5-.3-.8V12c0-3-.4-4-1-5.2-.5-1-1.4-2-2.5-2.5-1-.6-2.2-1-5.2-1h-4.3a.2.2 0 01-.1-.3L22 .3c.2-.2.5-.3.8-.3h1.5c4 0 5.5.4 7 1.2 1.4.8 2.6 2 3.3 3.4.8 1.5 1.2 3 1.2 7v7a.2.2 0 01-.4.1zm-18.3 17L20 33c.2-.3.5-.4.8-.4h3.2c3 0 4.1-.3 5.2-.9 1-.6 2-1.4 2.6-2.5.5-1.1.9-2.2.9-5.2v-4.3a.2.2 0 01.2-.3l.1.1 2.7 2.7c.2.2.3.5.3.8v1.5c0 4-.4 5.4-1.2 6.9-.7 1.4-2 2.6-3.4 3.4-1.4.8-2.9 1.2-6.9 1.2h-7a.2.2 0 01-.2-.4zM.4 17.2L3 19.9c.3.2.4.5.4.8V24c0 3 .3 4 .9 5.2.5 1 1.4 2 2.5 2.5 1.1.6 2.2 1 5.2 1h4.3a.2.2 0 01.2.2v.1l-2.7 2.7c-.2.2-.5.3-.8.3h-1.5c-4 0-5.4-.4-7-1.2-1.4-.8-2.5-2-3.3-3.4-.8-1.5-1.2-3-1.2-7v-7a.2.2 0 01.4-.1zM16 3c-.2.3-.5.4-.7.4H12c-3 0-4 .3-5.2.9-1 .6-2 1.4-2.5 2.5-.6 1.1-1 2.2-1 5.2v4.3a.2.2 0 01-.3.2L.3 13.8c-.2-.2-.3-.5-.3-.8v-1.5c0-4 .4-5.4 1.2-6.9.8-1.4 2-2.6 3.4-3.4C6 .4 7.6 0 11.6 0h7a.2.2 0 01.1.4L16 3zm14 10.1l-3.7-3.4a2.2 2.2 0 00-1.6-.7H14a.2.2 0 01-.1-.4L16.5 6c.2-.3.5-.4.8-.4h8.5c2.5 0 4.5 2 4.5 4.5V13a.2.2 0 01-.4.1zM22.7 30l3.5-3.6a2.2 2.2 0 00.6-1.6V14a.2.2 0 01.4-.1l2.7 2.6c.2.3.3.5.3.8V26c0 2.5-2 4.5-4.5 4.5H23a.2.2 0 01-.2-.4zM6 22.9l3.6 3.4a2.2 2.2 0 001.6.7H22a.2.2 0 01.2.4L19.4 30c-.2.3-.5.4-.8.4h-8.5a4.5 4.5 0 01-4.5-4.5V23A.2.2 0 016 23zM13 6L9.6 9.6l-.5.9-.1.8V22a.2.2 0 01-.4.1l-2.7-2.6c-.2-.3-.3-.5-.3-.8V10c0-2.5 2-4.5 4.5-4.5h2.8a.2.2 0 01.2.4zm33.1 4.4h.9c.6 0 1 .5 1 1v1l.1.1c.5-.8 1.2-1.5 2-1.9a6.6 6.6 0 015.5 0 6.3 6.3 0 013.5 4 9.3 9.3 0 010 5.9c-.3.9-.8 1.7-1.4 2.4a6.3 6.3 0 01-8.7.7 5 5 0 01-.7-.7v7.3a1.3 1.3 0 01-1.4 1.3h-.8a1.3 1.3 0 01-1.3-1.3V11.7c0-.7.6-1.3 1.3-1.3zm10 7.1c0-.5 0-1-.2-1.6a4 4 0 00-2-2.3c-.6-.2-1.1-.4-1.8-.4a3.8 3.8 0 00-3 1.4 4 4 0 00-.7 1.3 4.8 4.8 0 000 3.3 4 4 0 002 2.3c.5.2 1.1.3 1.7.3a3.8 3.8 0 003-1.3l.8-1.3c.2-.6.3-1.1.3-1.7zm8.4-7.1h1c.6 0 1.1.5 1.1 1.1v1.2c.5-.9 1-1.5 1.7-2a4.4 4.4 0 013-.6.8.8 0 01.7.7v2a.7.7 0 01-.9.7h-.8c-.8 0-1.4 0-2 .4A3.6 3.6 0 0067 16l-.2 1v6.3a1.3 1.3 0 01-1.3 1.3h-.8a1.3 1.3 0 01-1.3-1.3V11.7c0-.7.6-1.3 1.3-1.3zm11.6 0h.8c.7 0 1.3.6 1.3 1.3v11.7a1.3 1.3 0 01-1.3 1.3h-.8a1.3 1.3 0 01-1.3-1.3V11.7c0-.7.6-1.3 1.3-1.3zm-1.8-4.9c0-.6.2-1 .6-1.5a2 2 0 011.6-.6c.6 0 1.1.2 1.6.6.4.4.6 1 .6 1.5a2 2 0 01-.6 1.6c-.5.4-1 .6-1.6.6A2 2 0 0175 7a2.1 2.1 0 01-.6-1.5zm14.8 8.2c-.7-.6-1.4-.8-1.9-.8s-.9.1-1.3.3c-.5.3-.7.7-.7 1.2 0 .4.2.8.5 1l1.4.5 1.8.4 1.8.7c.5.3 1 .7 1.4 1.3.3.5.5 1.2.5 2.2 0 .8-.2 1.5-.5 2.1-.4.6-.8 1-1.4 1.4a6 6 0 01-1.9.8 9.6 9.6 0 01-5-.2 5 5 0 01-1.3-.8 1.3 1.3 0 01-.1-2l.3-.3a1.3 1.3 0 011.8 0l.6.4a3.5 3.5 0 002.6.4l.7-.3.6-.5.2-.8c0-.5-.2-.8-.6-1-.3-.3-.8-.5-1.3-.7l-1.8-.4c-.6 0-1.2-.3-1.8-.6-.6-.3-1-.7-1.4-1.2-.3-.5-.5-1.2-.5-2.2 0-.7.1-1.4.5-2 .3-.6.7-1 1.2-1.5.5-.4 1.1-.6 1.8-.8a7.8 7.8 0 014.7.2l1 .7a1.3 1.3 0 01.2 2l-.5.4a1.3 1.3 0 01-1.6 0zm7.7-3.3h.7c.7 0 1.3.6 1.3 1.3v1c.4-.8.9-1.4 1.5-1.9.7-.5 1.6-.8 2.7-.8 2.2 0 3.6 1 4.3 2.7a5 5 0 011.9-2c.7-.5 1.6-.7 2.6-.7s1.7.2 2.3.5a4 4 0 011.6 1.3c.4.6.6 1.2.8 2 .2.7.3 1.5.3 2.4v7.2a1.3 1.3 0 01-1.3 1.3h-.8a1.3 1.3 0 01-1.4-1.3v-6.8-1.3l-.5-1a2 2 0 00-.7-.8c-.4-.2-.8-.3-1.3-.3s-1 .2-1.4.4l-.9.8-.5 1.2a6 6 0 00-.1 1.3v6.5a1.3 1.3 0 01-1.3 1.3h-.8a1.3 1.3 0 01-1.4-1.3v-7.2c0-1-.1-1.6-.5-2.2-.4-.5-1-.8-1.8-.8a2.8 2.8 0 00-2.4 1.1l-.6 1.2-.1 1.4v6.5a1.3 1.3 0 01-1.3 1.3h-.9a1.3 1.3 0 01-1.3-1.3V11.7c0-.7.6-1.3 1.3-1.3zm25.5 0h.8c.7 0 1.3.6 1.3 1.3v11.7a1.3 1.3 0 01-1.3 1.3h-.8a1.3 1.3 0 01-1.3-1.3V11.7c0-.7.6-1.3 1.3-1.3zm-1.8-4.9c0-.6.2-1 .6-1.5a2 2 0 011.6-.6c.6 0 1.1.2 1.6.6.4.4.6 1 .6 1.5a2 2 0 01-.6 1.6c-.5.4-1 .6-1.6.6a2 2 0 01-1.6-.7 2.1 2.1 0 01-.6-1.5zm16.8 8.4l-.4-.3-1.4-.4a3.8 3.8 0 00-3 1.4 4 4 0 00-.7 1.3 4.8 4.8 0 000 3.3 4 4 0 002 2.3 3.8 3.8 0 003.2 0l.3-.2a1.3 1.3 0 011.8.2l.5.6a1.3 1.3 0 01-.3 1.9 8 8 0 01-3.8 1c-1 0-2-.1-2.9-.5a7 7 0 01-4-3.9c-.3-.9-.5-2-.5-3 0-1.2.2-2.2.6-3.1.3-1 .9-1.7 1.6-2.4a7 7 0 012.3-1.5 7.2 7.2 0 015.5 0c.4 0 .8.3 1.3.7a1.3 1.3 0 01.1 2l-.5.5a1.3 1.3 0 01-1.7 0z"
            fill="var(--color-text-primary)" />
    </symbol>

    <symbol id="render" viewBox="0 0 786 171">
        <path
            d="M287 79.1c-10 0-17.8 2.6-25.5 6.7v74.4c0 2-1.7 3.9-3.7 3.9h-17c-2 0-3.7-1.8-3.7-3.9V63.4c0-2 1.7-3.7 3.7-3.7h16.1c2 0 3.7 1.7 3.7 3.7v3.9c9.1-7 19.1-8.9 26.5-8.9 2 0 3.7 1.7 3.7 3.7v13.3a4 4 0 01-3.8 3.7zM384.5 120.3h-60.3v.6c0 10.7 4.4 23.5 22.2 23.5 13.5 0 26.3-1.1 34-1.9h.6c1.9 0 3.3.9 3.3 2.8v12.2c0 3-.6 4.3-3.9 4.8-12 2.2-19.2 3.1-35.9 3.1-18.5 0-44.8-10-44.8-46.4v-13.7c0-28.9 16.1-47 44.4-47 28.5 0 44 19.4 44 47v10.4c.1 3-1 4.6-3.6 4.6zm-20.9-18.1c0-14.4-8-22.8-19.4-22.8-11.4 0-19.8 8.1-19.8 22.8v.7h39.2v-.7zM490.8 164h-17c-2 0-3.7-1.8-3.7-3.9V99.8c0-16.1-1.5-20.7-15.7-20.7-6.3 0-13.1 2.6-20.9 6.7v74.4c0 2-1.7 3.9-3.7 3.9h-17c-2 0-3.7-1.8-3.7-3.9V63.4c0-2 1.7-3.7 3.7-3.7h16.1c2 0 3.7 1.7 3.7 3.7v3.9a48.3 48.3 0 0130-8.9c26.6 0 32 17.9 32 41.4v60.3c-.1 2.1-1.7 3.9-3.8 3.9zM596.3 160.7c-11.5 3-25.3 4.8-37.2 4.8-29.8 0-44.2-17.6-44.2-46.4v-14.2c0-28.9 14.4-46.4 44.2-46.4 4.4 0 10.9.4 17.8 1.3V27.1c0-2 1.7-3.7 3.7-3.7h17c2 0 3.7 1.7 3.7 3.7v128.8c0 2.6-.8 3.7-5 4.8zm-19.4-81.1a164 164 0 00-17.8-1.3c-15.9 0-19.8 11.3-19.8 26.5V119c0 15.2 3.9 26.5 19.8 26.5 6.7 0 14.2-.6 17.8-1.3V79.6zM706.9 120.3h-60.3v.6c0 10.7 4.4 23.5 22.2 23.5 13.5 0 26.3-1.1 34-1.9h.6c1.8 0 3.3.9 3.3 2.8v12.2c0 3-.6 4.3-3.9 4.8-12 2.2-19.2 3.1-35.9 3.1-18.5 0-44.8-10-44.8-46.4v-13.7c0-28.9 16.1-47 44.4-47 28.5 0 44 19.4 44 47v10.4c.1 3-1 4.6-3.6 4.6zM686 102.2c0-14.4-8-22.8-19.4-22.8-11.5 0-19.8 8.1-19.8 22.8v.7H686v-.7zM781.5 79.1c-10 0-17.8 2.6-25.5 6.7v74.4c0 2-1.7 3.9-3.7 3.9h-17c-2 0-3.7-1.8-3.7-3.9V63.4c0-2 1.7-3.7 3.7-3.7h16.1c2 0 3.7 1.7 3.7 3.7v3.9c9.1-7 19.1-8.9 26.5-8.9 2 0 3.7 1.7 3.7 3.7v13.3a4 4 0 01-3.8 3.7zM113.3 0h-2v22.6h22.6V0h-20.6zM53.5 0A53 53 0 004.2 32.7 53 53 0 000 53.5v80.4h22.6V53.2a32 32 0 0131-30.6h43.2V0H53.5zM150.4 74.2h-2v22.6H171V74.2h-20.6zM150.4 37.1h-2v22.6H171V37.1h-20.6zM169 0h-20.6v22.6H171V0h-2zM150.4 111.3h-2v22.6H171v-22.6h-20.6zM150.4 148.4h-2V171H171v-22.6h-20.6zM113.3 148.4h-2V171h22.6v-22.6h-20.6zM76.2 148.4h-2V171h22.6v-22.6H76.2zM39.1 148.4h-2V171h22.6v-22.6H39.1zM2 148.4H0V171h22.6v-22.6H2z"
            fill="var(--color-text-primary)" />
    </symbol>

    <symbol id="sanity" viewBox="0 0 512 104">
        <path d="M381.46 36.99v64.83h-20.88V26.83L381.46 37z" fill="var(--color-text-primary)" />
        <path
            d="M85.87 89.78l15.66 13.64 66-34.38-6.82-16.39-74.84 37.13zm274.7-41.77l53.1-27.56-9-15.52-44.1 21.9v21.18z"
            fill="var(--color-text-primary)" />
        <path
            d="M211.18 31.91v69.91h-20.01V2.18l20.01 29.73zM85.87 89.78l15.66 13.64 30.17-75.43-9.72-25.81-36.11 87.6z"
            fill="var(--color-text-primary)" />
        <path
            d="M121.98 2.18h20.6l38.14 99.64h-21.17L121.98 2.18zm92.25 0l43.95 68.02v31.62L191.17 2.18h23.06zm81.66 0h20.74v99.64h-20.74V2.18zm64.69 18.27h-31.91V2.18h74.4l10.6 18.27h-53.1zM475.01 63.96v37.86h-20.6V63.96M489.23 2.18l-34.81 61.78h20.6l36.11-61.78h-21.9z"
            fill="var(--color-text-primary)" />
        <path
            d="M454.42 63.96L418.45 2.18h22.62l24.23 42.35-10.88 19.43zM8.56 13.78c0 13.78 8.56 22.05 25.67 26.4l18.13 4.2c16.25 3.77 26.1 13.06 26.1 28.14a29.25 29.25 0 01-5.94 18.13c0-15.08-7.83-23.2-26.54-28.14l-17.84-4.06C13.78 55.26 2.76 47.57 2.76 31.18c0-6.23 2.03-12.47 5.8-17.4zM258.18 65.12V2.18h20.01v99.64h-20.01v-36.7z"
            fill="var(--color-text-primary)" />
        <path
            d="M61.35 68.75c7.69 4.93 11.17 11.9 11.17 21.9-6.53 8.27-17.7 12.77-30.9 12.77-22.18 0-38-11.03-41.33-30.03h21.32c2.76 8.7 10 12.77 19.87 12.77 11.75.14 19.73-6.24 19.87-17.41zM8.55 13.63C14.8 5.51 25.54.58 38.59.58c22.77 0 35.83 12.04 39.16 28.86h-20.6c-2.31-6.67-7.97-11.89-18.27-11.89-11.17.15-18.7 6.53-19.14 16.68-7.48-4.12-11.46-12.18-11.17-20.6z"
            fill="var(--color-text-primary)" />
    </symbol>

    <symbol id="sapper" viewBox="0 0 519 139">
        <path id="back"
            d="M110.2 28.4a34.1 34.1 0 00-45.8-9.8l-26 16.6a30 30 0 00-13.5 20c-1.2 6.9-.2 14 3.1 20.2a30.4 30.4 0 00-4.5 11.2C22 95 24 103.7 29 110.7a34.1 34.1 0 0045.8 9.8l26.1-16.6a30 30 0 0013.5-20 32 32 0 00-3.1-20.2c2.2-3.4 3.8-7.2 4.5-11.2 1.4-8.4-.6-17-5.6-24.1"
            fill="var(--color-text-primary)" />
        <path id="front"
            d="M61.9 112.2a20.7 20.7 0 01-22.2-8.2c-3-4.2-4.2-9.4-3.3-14.5l.6-2.4.5-1.5 1.3 1c3.1 2.2 6.5 4 10.2 5.1l1 .3-.1 1c-.1 1.4.3 2.7 1.1 3.8a6.5 6.5 0 006.7 2.5l1.6-.7 26-16.6a5 5 0 002.4-3.6c.3-1.5-.1-3.1-1-4.4a6.5 6.5 0 00-6.7-2.5l-1.6.7-10 6.3a20.7 20.7 0 01-27.5-5.9A18.7 18.7 0 0145.8 46L72 29.3a20.7 20.7 0 0127.5 5.9c3 4.2 4.2 9.4 3.3 14.5l-.6 2.4-.5 1.5-1.3-1c-3.1-2.3-6.5-4-10.2-5.1l-1-.3.1-1a6 6 0 00-1.1-3.9 6.2 6.2 0 00-8.3-1.7L53.8 57.3a5.5 5.5 0 00-1.5 8 6.4 6.4 0 006.7 2.5l1.6-.7 10-6.3a20.7 20.7 0 0127.5 5.9c3 4.2 4.2 9.4 3.3 14.5a18 18 0 01-8.1 12.1l-26.1 16.6c-1.6 1-3.4 1.8-5.3 2.3"
            fill="var(--color-primary" />
        <path class="st2"
            d="M150.8 85.9l8.3-3.1c2.5 5.4 7.3 9 13.7 9 6.5 0 10.8-3.2 10.8-9.2 0-6.5-6.5-8.8-13.5-11.2-8.3-3-17.4-6.2-17.4-17.1 0-8.4 6.9-15.6 19-15.6 10.1 0 16.4 5 18.4 11.8l-8.2 2.7c-1.4-3.4-5.1-6-10.9-6-5.7 0-9.1 2.6-9.1 7.2 0 4.9 5.5 6.8 12 9 8.6 3.2 18.8 6.8 18.8 19.2 0 11.4-8.9 17.8-20.4 17.8-10.4 0-18.5-5.6-21.5-14.5zM241 85.7h-24.1L212 99.4h-9.2l21.5-59.6h9.1L255 99.4h-9.2L241 85.7zm-10-28.1c-.7-1.9-1.6-4.7-2-6.7l-2 6.7-7.3 20.3h18.6L231 57.6zM268.3 39.8h23.9c14.6 0 19.7 9.3 19.7 18.2 0 8.3-5.5 18.2-19.7 18.2h-15.1v23.2h-8.9V39.8zM302.8 58c0-4.2-2.1-9.7-10-9.7h-15.6v19.4h15.6c7.4 0 10-5.1 10-9.7zM326 39.8h23.9c14.6 0 19.7 9.3 19.7 18.2 0 8.3-5.5 18.2-19.7 18.2h-15.1v23.2H326V39.8zM360.4 58c0-4.2-2.1-9.7-10-9.7h-15.6v19.4h15.6c7.5 0 10-5.1 10-9.7zM383.7 39.8h37v8.3h-28.1v16.4h18.1v8.3h-18.1V91h30v8.3h-38.8V39.8zM438.7 39.8h25.1c14.6 0 19.2 8.7 19.2 17.6a17 17 0 01-12.9 16.9l12.3 25.1h-10.1L460.5 75h-12.9v24.4h-8.9V39.8zM464 66.5c7.4 0 9.9-4.5 9.9-9.1 0-4.2-2-9.1-9.9-9.1h-16.4v18.2H464z" />
    </symbol>

    <symbol id="scully" viewBox="0 0 800 400">
        <path fill="var(--color-text-primary)"
            d="M296.3 70.2a21.3 21.3 0 00-17.6-13.3 282.7 282.7 0 00-258 113.9 21.4 21.4 0 00-2.2 21.5 282 282 0 0090.5 111 284.4 284.4 0 00129.5 51.8 21.7 21.7 0 0011-1.5 22.1 22.1 0 008.8-6.7 283.8 283.8 0 0055.3-131.2 281.7 281.7 0 00-17.3-145.5zm-147.1 43a109 109 0 0140.4-6.3c21.2.6 46 5.7 69.9 36.9a10.9 10.9 0 01-11.1 17.2 11 11 0 01-6.2-4c-15-19.6-29.2-27.7-53.2-28.4a90.1 90.1 0 00-31.9 4.8 10.9 10.9 0 01-14-6.2 10.8 10.8 0 016.1-14zm86.3 168.5a112.7 112.7 0 01-40.4 6.2 95.1 95.1 0 01-19.6-2.4 96 96 0 01-55.8-36.7 10.9 10.9 0 0117.3-13.2 73.7 73.7 0 0058.7 30.6 91.5 91.5 0 0031.9-4.7 10.8 10.8 0 017.9 20.2zM262 247a11.5 11.5 0 01-12.5 7.6 9.5 9.5 0 01-2.3-.5 11.6 11.6 0 01-7.1-14.8c3.7-10.2.3-14.9-.8-16.5-9-12.5-39.3-13.7-51.9-13.6-30.9.3-51.7-7.3-61.6-22.5s-6.1-31.4-2.6-39.3a11.6 11.6 0 0121.2 9.3c-.1.4-4 10.2.8 17.4s20.2 12.1 42 12c35.9-.3 59.7 7.6 71 23.3A39.8 39.8 0 01262 247zM629.3 270.3H436.6a8.4 8.4 0 010-16.8h192.7a8.4 8.4 0 010 16.8zM408.2 195.3c-4-3.4-10.4-5.9-19.7-7.8a61.8 61.8 0 01-9.7-2.7c-2.5-1-3.5-1.9-3.9-2.5a5.3 5.3 0 01-.9-3.2c0-1 .2-2.5 2.7-3.8a17.6 17.6 0 018.5-1.7 25.1 25.1 0 017.8 1 16.2 16.2 0 015.9 3.7 10.5 10.5 0 006.9 2.8 7.3 7.3 0 004.5-1.4 6.6 6.6 0 002.7-5.1 7.8 7.8 0 00-1.9-5 27.4 27.4 0 00-10.7-7.6 39.3 39.3 0 00-15-2.7 36.3 36.3 0 00-12.8 2.2 23 23 0 00-10.1 6.7 17.1 17.1 0 00-3.9 11.3c0 10.8 8.4 17.9 24.9 21.1 5.8 1.1 10 2.4 12.3 4s3.1 3 3.1 4.9-1 3.6-3.1 4.9-5.7 2.1-10 2.1a24.1 24.1 0 01-9.3-1.8 19.7 19.7 0 01-6.5-4.1c-3.2-3.3-7-3.8-11.1-.7a7.3 7.3 0 00-3.1 6.1 6.9 6.9 0 002 5 32.1 32.1 0 0012.2 7.2 48.9 48.9 0 0016.3 2.7 37.9 37.9 0 0015-2.8 21.9 21.9 0 009.7-7.9 19.2 19.2 0 003.4-11.2 17.5 17.5 0 00-6.2-13.7zM458.4 173.7a20.3 20.3 0 017.7 1.4 17.8 17.8 0 016.1 4.4 7.5 7.5 0 006 2.8 6.4 6.4 0 003.8-1.2 7 7 0 003.4-5.9 6.2 6.2 0 00-1.6-4.3 32.3 32.3 0 00-25.4-11.6 35.2 35.2 0 00-18 4.6 32.1 32.1 0 00-12.5 12.8 38.5 38.5 0 00-4.4 18.4 37.6 37.6 0 004.5 18.3 34.2 34.2 0 0012.8 12.8 36 36 0 0018.2 4.7c9.3 0 17.1-2.9 23.3-8.8a6.2 6.2 0 002-4.5 7.4 7.4 0 00-3-5.7c-2.8-2.1-6.3-1.9-9.8.6s-7.3 4-12.5 4a20.6 20.6 0 01-10.5-2.8 19 19 0 01-7.1-7.5 23.3 23.3 0 01-2.6-11.1c0-6.5 1.9-11.7 5.5-15.6s8.3-5.8 14.1-5.8zM563.6 161.9a7.8 7.8 0 00-5.8-2.3 8 8 0 00-5.6 2.2 7.8 7.8 0 00-2.3 5.8v34.7a12.3 12.3 0 01-2.1 7 14.3 14.3 0 01-6 5.1 19.2 19.2 0 01-8.7 1.9c-5.5 0-9.7-1.5-13-4.6s-4.8-7.7-4.8-13.9v-30.2a8 8 0 10-15.9 0v30.2c0 6.9 1.3 12.9 4 17.9a28.6 28.6 0 0011.2 11.4 33.3 33.3 0 0016.1 3.9 32.2 32.2 0 0012.1-2.3 26 26 0 007.3-4.1 8.4 8.4 0 002.1 3.5 7.7 7.7 0 005.6 2.3 7.8 7.8 0 005.8-2.3 8.1 8.1 0 002.2-5.7v-54.8a7.9 7.9 0 00-2.2-5.7zM605.3 214.7h-3.1c-.8 0-1.9-.2-3-2.1a12.9 12.9 0 01-1.5-6.6v-67.2a7.6 7.6 0 00-2.2-5.6 7.5 7.5 0 00-5.6-2.2 7.6 7.6 0 00-5.6 2.2 7.5 7.5 0 00-2.2 5.6V206a29.6 29.6 0 002.5 12.4 20.7 20.7 0 007.1 8.8 18.3 18.3 0 0010.5 3.2h.2a11.5 11.5 0 007.1-2.1 7 7 0 003-5.7 8.2 8.2 0 00-2-5.6 6.7 6.7 0 00-5.2-2.3zM642.1 214.7h-3c-.8 0-1.9-.2-3-2.1a12.9 12.9 0 01-1.5-6.6v-67.2a8 8 0 00-2.2-5.6 7.6 7.6 0 00-5.6-2.2 7.3 7.3 0 00-5.6 2.2 7.5 7.5 0 00-2.2 5.6V206a31.2 31.2 0 002.4 12.4 20.9 20.9 0 007.2 8.8 18.3 18.3 0 0010.5 3.2h.2a11.2 11.2 0 007-2.1 6.7 6.7 0 003-5.7 8.1 8.1 0 00-1.9-5.6 6.9 6.9 0 00-5.3-2.3zM712 160.5a8.6 8.6 0 00-3.6-.7c-2 0-4.7.8-6.4 4.5l-18.3 41.4-20.9-41.6a7.2 7.2 0 00-6.7-4.3 8.1 8.1 0 00-3.1.6 9.3 9.3 0 00-3.3 2.6 7 7 0 00-.5 7.3l27.3 51.8-11.9 26.9a8.4 8.4 0 00-.9 3.7c0 2 .8 4.6 4.7 6.3a8.7 8.7 0 003.6.9c2 0 4.8-.8 6.3-4.8l37.6-84.6a9.5 9.5 0 00.9-3.7c0-2-.9-4.7-4.8-6.3z" />
    </symbol>

    <symbol id="storyblok" viewBox="0 0 230 62">
        <path
            d="M28 30.8h-9.5v4.6h9.3c.6 0 1.1-.2 1.5-.6.4-.4.6-1 .6-1.6 0-.6-.1-1.2-.5-1.7-.3-.5-.8-.7-1.3-.7zm.4-5.6c.4-.3.6-.9.6-1.7 0-.7-.2-1.2-.5-1.5-.3-.3-.7-.5-1.2-.5h-8.8v4.2H27c.5 0 1-.2 1.3-.5z"
            fill="var(--color-text-primary)" />
        <path
            d="M42.5 8.1H6.2a2 2 0 00-2 2v36.4c0 1 .9 1.8 2 1.8h5.3v7.2l6.7-7.2h24.3c1.1 0 1.8-.7 1.8-1.8V10.2c0-1-.7-2-1.9-2zm-6.1 29.5c-.5.8-1.2 1.5-2 2a9 9 0 01-3 1.3c-1 .3-2.3.5-3.5.5H11.5V15.5h18.6c1 0 1.7.2 2.5.6.7.4 1.3 1 1.8 1.5a7 7 0 011.6 4.5c0 1.2-.3 2.3-1 3.5-.6 1-1.5 2-2.7 2.4 1.5.5 2.6 1.2 3.5 2.3a7 7 0 011.2 4.3 6 6 0 01-.7 3zM69.3 41.2c-1.6 0-3.2-.2-4.7-.7-1.5-.5-2.9-1.3-4-2.3l2-3.6c1.2.8 2.3 1.4 3.4 1.9s2.2.6 3.2.6c.7 0 1.3-.1 1.7-.4.5-.2.6-.6.6-1.1 0-.5-.2-1-.7-1.2a12 12 0 00-2.8-1l-3.2-1a10 10 0 01-2.1-1.2c-.6-.3-1-.8-1.2-1.4-.3-.5-.4-1.2-.4-1.8a6 6 0 012.2-4.7c.6-.6 1.5-1 2.4-1.3.9-.3 2-.5 3-.5 1.4 0 2.7.2 4 .6 1.2.4 2.4 1 3.6 2.1L74 27.7c-.9-.7-1.8-1.2-2.8-1.6-1-.4-1.7-.5-2.5-.5-.6 0-1.2 0-1.6.3-.5.3-.6.7-.6 1.2 0 .6.2 1 .7 1.2.4.3 1.3.6 2.6.9l3.4 1c1 .4 1.7.8 2.3 1.3A4.1 4.1 0 0177 35c0 1.9-.7 3.3-2.1 4.4a8.8 8.8 0 01-5.7 1.7zM92.2 40l-2.7.9c-1 .3-2 .5-3.1.5-.8 0-1.4-.1-2-.3-.7-.2-1.3-.5-1.8-1-.4-.3-.8-.9-1-1.5a6 6 0 01-.5-2.3v-10h-2.4V22H81v-6h5.7v6h4v4.3h-4v8c0 .6.2 1 .5 1.4.3.2.7.3 1.2.3s1 0 1.3-.2a6 6 0 001.2-.5l1.1 4.7zm10.8 1.3c-1.5 0-3-.2-4.3-.8a9 9 0 01-5.2-5.3c-.9-2.4-.9-5 0-7.5a9 9 0 015.2-5.3c1.2-.5 2.7-.8 4.3-.8a9.7 9.7 0 019.5 6.1 10.3 10.3 0 01-2 10.7c-1 1-2 1.6-3.2 2.1a11 11 0 01-4.3.8zm-4.2-9.8c0 1.5.4 2.7 1.2 3.6a4 4 0 003 1.4 3.8 3.8 0 003-1.4l1-1.6.2-2c0-1.5-.4-2.7-1.2-3.6-.7-1-1.8-1.4-3-1.4a4 4 0 00-3 1.4c-.3.5-.7 1-.9 1.6a6 6 0 00-.3 2zm29.3-4.6c-1.4 0-2.7.3-3.9.7-1 .4-1.8 1-2.4 2v11.4H116v-19h5.3v3.8a7.4 7.4 0 012.6-3c1-.8 2-1.1 3.2-1.2h1v5.3zm2.5 16.9c.8.3 1.7.4 2.5.5.7 0 1.3-.3 1.7-.7a8 8 0 001-2.6l-7.2-19h6l4.3 14 3.9-14h5.4l-7.3 22a7.5 7.5 0 01-10.3 4.7v-4.9zm31.2-2.5a7.2 7.2 0 01-6.3-3.5V41h-5V14.5h5.7V25a6.9 6.9 0 016.2-3.5 8 8 0 016 2.9 12.1 12.1 0 011.7 10.9c-.5 1.2-1.2 2.3-2 3.1a8.5 8.5 0 01-6.3 2.8zm-1.6-4.8a4.4 4.4 0 004.2-3 5.7 5.7 0 00-1-5.5 3.7 3.7 0 00-3-1.5 4 4 0 00-2.4 1c-.8.6-1.4 1.4-1.8 2.4v4a4.5 4.5 0 004 2.5zm13.3-22h5.8v19.7c0 1.5.6 2.2 1.8 2.2a4 4 0 002-.5l.7 4.3c-1.6.7-3.3 1-5.1 1.1-1.7 0-3-.5-3.8-1.3a5 5 0 01-1.4-3.8V14.5zm21.2 26.8c-1.5 0-3-.2-4.3-.8a9.1 9.1 0 01-5.2-5.3 10.6 10.6 0 012-10.6 10 10 0 017.5-3 9.7 9.7 0 0110 11.7c-.4 1.9-1.2 3.6-2.5 5-.9 1-2 1.7-3.2 2.2a11 11 0 01-4.3.8zm-4.2-9.8c0 1.5.4 2.7 1.2 3.6a4 4 0 003 1.4 3.8 3.8 0 003-1.4 5.6 5.6 0 001.2-3.6c0-1.5-.4-2.7-1.2-3.6-.8-1-1.8-1.4-3-1.4a4 4 0 00-3 1.4l-1 1.6-.2 2zm30 9.5l-5-7.7-2 2.1V41h-5.8V14.5h5.8v15.3l6.4-7.9h6.2l-6.9 8.2 7.4 10.8h-6.1z"
            fill="var(--color-text-primary)" />
    </symbol>

    <symbol id="strapi" viewBox="0 0 119 31">
        <path fill-rule="evenodd" clip-rule="evenodd" d="M26 4.7H8.8v8.7h8.4c.3 0 .6.2.6.5v8.4h8.7v-17a.5.5 0 00-.5-.6z"
            fill="var(--color-text-primary)" />
        <path opacity=".4" fill-rule="evenodd" clip-rule="evenodd"
            d="M8.8 4.7v8.7H.7a.3.3 0 01-.2-.5l8.3-8.2zm9.4 25.8a.3.3 0 01-.4-.2v-8h8.7l-8.3 8.1z"
            fill="var(--color-text-primary)" />
        <path opacity=".4" d="M8.8 13.4h8.7c.2 0 .3 0 .3.2v8.7H9.3a.5.5 0 01-.5-.6v-8.3z"
            fill="var(--color-text-primary)" />
        <path fill-rule="evenodd" clip-rule="evenodd"
            d="M114.8 4.2c.5.5 1 .7 1.7.7s1.3-.2 1.8-.7c.5-.5.7-1 .7-1.7s-.2-1.3-.7-1.8a2.4 2.4 0 00-1.8-.7c-.7 0-1.2.2-1.7.7a2.4 2.4 0 000 3.5zm-53 6.3h-3.6V17c0 .5.1 1 .4 1.2.3.2.7.4 1.2.4H61.7v3.6h-.1c-2.7.3-4.6 0-5.7-.8-1.2-.8-1.7-2.3-1.7-4.4v-6.4h-2.7V6.9v-.1h2.7V4.2 4l3.9-1.6v4.4h3.6v3.7zm7.2-1c.4-1 1-1.8 1.9-2.3.8-.5 1.8-.7 2.8-.7v4.2a.1.1 0 01-.1.2c-1.2-.1-2.2.1-3.1.7-1 .7-1.5 1.7-1.5 3.2v7.3h-4V6.9v-.1h4v2.6zm19-2.7v1.8a6.2 6.2 0 00-5.1-2.3c-2.1 0-3.9.8-5.4 2.4a8.1 8.1 0 00-2.2 5.8c0 2.3.7 4.2 2.2 5.8a7.1 7.1 0 005.4 2.3c2.2 0 3.8-.7 5-2.2V22h4V6.9v-.1H88zm-7.5 10.8c.8.8 1.9 1.2 3.1 1.2 1.3 0 2.3-.4 3.1-1.2.8-.8 1.3-1.8 1.3-3.1a4.2 4.2 0 00-4.4-4.4c-1.2 0-2.3.4-3 1.2-.9.9-1.3 1.9-1.3 3.2 0 1.3.4 2.3 1.2 3.1zm29.4-9a7.1 7.1 0 00-5.4-2.3 6 6 0 00-5 2.3V6.9l-.2-.1h-3.8v21.5h3.9v-8a6 6 0 005 2.3c2.2 0 4-.8 5.5-2.3a8.1 8.1 0 002.2-5.8c0-2.3-.7-4.2-2.2-5.8zm-9.2 9c.8.8 1.8 1.2 3 1.2 1.3 0 2.3-.4 3.1-1.2.9-.8 1.3-1.8 1.3-3.1a4.2 4.2 0 00-4.4-4.4 4.2 4.2 0 00-4.3 4.4c0 1.3.4 2.3 1.3 3.1zm13.9 4.6V6.9v-.1h3.9v15.3h-3.9zm-71.8-10c-.5-.3-.8-.6-.8-1s.2-.8.5-1c.3-.2.8-.3 1.3-.3 1 0 1.7.4 2.3 1.1a.1.1 0 00.1 0l3.4-1.4v-.1-.2a6 6 0 00-2.3-2.1c-1-.6-2.2-.9-3.5-.9-1.7 0-3.1.5-4.2 1.3-1.2 1-1.7 2.1-1.7 3.6 0 1 .2 1.9.8 2.6.5.6 1.2 1.1 2 1.4l2.4.8 2 .7c.5.2.8.6.8 1 0 .9-.7 1.3-2.1 1.3-1.4 0-2.3-.5-2.9-1.5a.2.2 0 00-.2 0l-3.4 1.4v.2c1.2 2.4 3.3 3.5 6.5 3.5 1.8 0 3.2-.4 4.4-1.3 1.2-.8 1.8-2 1.8-3.6 0-1-.2-2-.8-2.6a4.6 4.6 0 00-2-1.5 21 21 0 00-2.4-.8 11 11 0 01-2-.7z"
            fill="var(--color-text-primary)" />
    </symbol>

    <symbol id="sveltekit" viewBox="0 0 688.8 139">
        <path
            d="M547.5 99.3l-16.8-31.2L520.2 81v18.4h-8.9V39.7h8.9v28.9l23-29h10.2l-16.7 21L558 99.3zm29.6 0V39.7h8.9v59.6zm55-51.1v51.1h-8.8V48.2h-16.9v-8.5H649v8.5z"
            fill="var(--color-text-primary)" />
        <path data-name="svelte"
            d="M172.4 100.3a24 24 0 01-13.7-3.8 19.9 19.9 0 01-8-10.6l8.4-3.1a15.4 15.4 0 005.4 6.6 14.4 14.4 0 008.3 2.4 12.1 12.1 0 007.9-2.4 8.3 8.3 0 003-6.8 7.5 7.5 0 00-.9-3.4 10.3 10.3 0 00-1.8-2.6 12.3 12.3 0 00-3.2-2.1l-3.5-1.6-4.2-1.5q-3.4-1.2-5-2a38.5 38.5 0 01-4.5-2.2 16.5 16.5 0 01-4.2-3.1 15.3 15.3 0 01-2.5-4.2 14.8 14.8 0 014-16.7q5-4.6 13.9-4.6 7.3 0 12 3.3a15.7 15.7 0 016.4 8.6l-8.2 2.7a9.5 9.5 0 00-4-4.4 13.3 13.3 0 00-7-1.6 10.7 10.7 0 00-6.6 1.8 6.3 6.3 0 00-2.4 5.3 5.5 5.5 0 001.8 4.1 12.9 12.9 0 004 2.6q2 .9 6.2 2.3l3.8 1.5 3.6 1.5a25.1 25.1 0 013.6 2 32 32 0 013 2.5 12.7 12.7 0 012.6 3 17.3 17.3 0 011.6 3.9 17.6 17.6 0 01.6 4.8q0 8.4-5.7 13.1t-14.7 4.7zm54.7-1l-20.5-59.6h9.6l13.5 41.5a64.8 64.8 0 011.9 6.9 63.8 63.8 0 011.9-6.8l13.3-41.6h9.5l-20.4 59.6zm47.3 0V39.7h37V48h-28.2v16.4h18.2v8.3h-18.2V91h30v8.3zm61.4 0V39.7h8.9v51h29.1v8.6zm71.4-51.1v51.1h-8.9V48.2h-16.8v-8.5H424v8.5zm35.2 51.1V39.7h37V48h-28.1v16.4h18.1v8.3h-18.1V91h30v8.3z"
            fill="var(--color-text-primary)" />
        <path
            d="M110.3 28.3a34.2 34.2 0 00-45.8-9.8L38.5 35a30 30 0 00-13.6 20A31.5 31.5 0 0028 75.5a30 30 0 00-4.5 11.2 31.9 31.9 0 005.5 24 34.2 34.2 0 0045.8 10l26-16.7a30 30 0 0013.6-20 31.5 31.5 0 00-3.1-20.3 30 30 0 004.4-11.2 31.9 31.9 0 00-5.4-24"
            fill="var(--color-text-primary)" />
        <path
            d="M62 112a20.7 20.7 0 01-22.3-8.2 19.2 19.2 0 01-3.3-14.5 18.1 18.1 0 01.7-2.4l.4-1.5 1.4 1a33.6 33.6 0 0010.2 5l1 .4-.1 1a5.8 5.8 0 001 3.8 6.2 6.2 0 006.7 2.5 5.7 5.7 0 001.6-.7l26.1-16.6a5.4 5.4 0 002.4-3.6 5.8 5.8 0 00-1-4.4 6.2 6.2 0 00-6.6-2.5 5.7 5.7 0 00-1.6.7l-10 6.3a19 19 0 01-5.3 2.4 20.7 20.7 0 01-22.2-8.3A19.2 19.2 0 0137.8 58a18 18 0 018.1-12L72 29.2a19 19 0 015.3-2.3 20.7 20.7 0 0122.3 8.3 19.2 19.2 0 013.2 14.5 18.5 18.5 0 01-.6 2.4l-.5 1.5-1.3-1a33.6 33.6 0 00-10.2-5l-1-.4v-1a5.9 5.9 0 00-1-3.8 6.2 6.2 0 00-6.7-2.5 5.7 5.7 0 00-1.6.7L54 57.2a5.4 5.4 0 00-2.5 3.6 5.8 5.8 0 001 4.4 6.2 6.2 0 006.7 2.5 5.8 5.8 0 001.6-.7l10-6.3a19 19 0 015.2-2.4 20.7 20.7 0 0122.3 8.3 19.2 19.2 0 013.3 14.5 18 18 0 01-8.2 12l-26 16.7a19 19 0 01-5.4 2.3"
            fill="var(--color-primary)" />
    </symbol>

    <symbol id="vercel" viewBox="0 0 283 64">
        <path
            d="M141 16c-11 0-19 7.2-19 18s9 18 20 18c6.7 0 12.6-2.6 16.2-7l-7.6-4.5c-2 2.2-5.1 3.5-8.6 3.5-4.8 0-8.8-2.5-10.3-6.5h28c.2-1.1.3-2.3.3-3.5 0-10.8-8-18-19-18zm-9.4 14.5c1.2-4 4.6-6.5 9.4-6.5 4.8 0 8.2 2.5 9.5 6.5h-19zM248.7 16c-11 0-19 7.2-19 18s9 18 20 18c6.7 0 12.6-2.6 16.2-7l-7.6-4.5c-2 2.2-5.1 3.5-8.6 3.5-4.8 0-8.8-2.5-10.3-6.5h28c.2-1.1.3-2.3.3-3.5 0-10.8-8-18-19-18zm-9.4 14.5c1.2-4 4.6-6.5 9.4-6.5 4.8 0 8.2 2.5 9.5 6.5h-19zm-39 3.5c0 6 3.9 10 10 10 4 0 7.1-1.9 8.7-5l7.7 4.5a18.5 18.5 0 01-16.5 8.5c-11 0-19-7.2-19-18s8-18 19-18c7.4 0 13.3 3.2 16.5 8.5l-7.7 4.4c-1.5-3-4.6-4.9-8.8-4.9-6 0-10 4-10 10zm82.4-29v46h-9V5h9zM37 0l37 64H0L37 0zm92.4 5l-27.7 48L74 5h10.4l17.3 30L119 5h10.4zm59 12v9.7c-1-.3-2.1-.5-3.3-.5-5.8 0-10 4-10 10V51h-9V17h9v9.2c0-5 6-9.2 13.2-9.2z"
            fill="var(--color-text-primary)" />
    </symbol>

    <symbol id="devto" viewBox="0 0 448 512">
        <path
            d="M120.12 208.29c-3.88-2.9-7.77-4.35-11.65-4.35H91.03v104.47h17.45c3.88 0 7.77-1.45 11.65-4.35 3.88-2.9 5.82-7.25 5.82-13.06v-69.65c-.01-5.8-1.96-10.16-5.83-13.06zM404.1 32H43.9C19.7 32 .06 51.59 0 75.8v360.4C.06 460.41 19.7 480 43.9 480h360.2c24.21 0 43.84-19.59 43.9-43.8V75.8c-.06-24.21-19.7-43.8-43.9-43.8zM154.2 291.19c0 18.81-11.61 47.31-48.36 47.25h-46.4V172.98h47.38c35.44 0 47.36 28.46 47.37 47.28l.01 70.93zm100.68-88.66H201.6v38.42h32.57v29.57H201.6v38.41h53.29v29.57h-62.18c-11.16.29-20.44-8.53-20.72-19.69V193.7c-.27-11.15 8.56-20.41 19.71-20.69h63.19l-.01 29.52zm103.64 115.29c-13.2 30.75-36.85 24.63-47.44 0l-38.53-144.8h32.57l29.71 113.72 29.57-113.72h32.58l-38.46 144.8z">
        </path>
    </symbol>

    <symbol id="email" viewBox="0 0 20 20">
        <path d="M2.003 5.884L10 9.882l7.997-3.998A2 2 0 0016 4H4a2 2 0 00-1.997 1.884z" />
        <path d="M18 8.118l-8 4-8-4V14a2 2 0 002 2h12a2 2 0 002-2V8.118z" />
    </symbol>

    <symbol id="github" viewBox="0 0 496 512">
        <path
            d="M165.9 397.4c0 2-2.3 3.6-5.2 3.6-3.3.3-5.6-1.3-5.6-3.6 0-2 2.3-3.6 5.2-3.6 3-.3 5.6 1.3 5.6 3.6zm-31.1-4.5c-.7 2 1.3 4.3 4.3 4.9 2.6 1 5.6 0 6.2-2s-1.3-4.3-4.3-5.2c-2.6-.7-5.5.3-6.2 2.3zm44.2-1.7c-2.9.7-4.9 2.6-4.6 4.9.3 2 2.9 3.3 5.9 2.6 2.9-.7 4.9-2.6 4.6-4.6-.3-1.9-3-3.2-5.9-2.9zM244.8 8C106.1 8 0 113.3 0 252c0 110.9 69.8 205.8 169.5 239.2 12.8 2.3 17.3-5.6 17.3-12.1 0-6.2-.3-40.4-.3-61.4 0 0-70 15-84.7-29.8 0 0-11.4-29.1-27.8-36.6 0 0-22.9-15.7 1.6-15.4 0 0 24.9 2 38.6 25.8 21.9 38.6 58.6 27.5 72.9 20.9 2.3-16 8.8-27.1 16-33.7-55.9-6.2-112.3-14.3-112.3-110.5 0-27.5 7.6-41.3 23.6-58.9-2.6-6.5-11.1-33.3 2.6-67.9 20.9-6.5 69 27 69 27 20-5.6 41.5-8.5 62.8-8.5s42.8 2.9 62.8 8.5c0 0 48.1-33.6 69-27 13.7 34.7 5.2 61.4 2.6 67.9 16 17.7 25.8 31.5 25.8 58.9 0 96.5-58.9 104.2-114.8 110.5 9.2 7.9 17 22.9 17 46.4 0 33.7-.3 75.4-.3 83.6 0 6.5 4.6 14.4 17.3 12.1C428.2 457.8 496 362.9 496 252 496 113.3 383.5 8 244.8 8zM97.2 352.9c-1.3 1-1 3.3.7 5.2 1.6 1.6 3.9 2.3 5.2 1 1.3-1 1-3.3-.7-5.2-1.6-1.6-3.9-2.3-5.2-1zm-10.8-8.1c-.7 1.3.3 2.9 2.3 3.9 1.6 1 3.6.7 4.3-.7.7-1.3-.3-2.9-2.3-3.9-2-.6-3.6-.3-4.3.7zm32.4 35.6c-1.6 1.3-1 4.3 1.3 6.2 2.3 2.3 5.2 2.6 6.5 1 1.3-1.3.7-4.3-1.3-6.2-2.2-2.3-5.2-2.6-6.5-1zm-11.4-14.7c-1.6 1-1.6 3.6 0 5.9 1.6 2.3 4.3 3.3 5.6 2.3 1.6-1.3 1.6-3.9 0-6.2-1.4-2.3-4-3.3-5.6-2z">
        </path>
    </symbol>

    <symbol id="linkedin" viewBox="0 0 512 512">
        <path
            d="m256 0c-141.363281 0-256 114.636719-256 256s114.636719 256 256 256 256-114.636719 256-256-114.636719-256-256-256zm-74.390625 387h-62.347656v-187.574219h62.347656zm-31.171875-213.1875h-.40625c-20.921875 0-34.453125-14.402344-34.453125-32.402344 0-18.40625 13.945313-32.410156 35.273437-32.410156 21.328126 0 34.453126 14.003906 34.859376 32.410156 0 18-13.53125 32.402344-35.273438 32.402344zm255.984375 213.1875h-62.339844v-100.347656c0-25.21875-9.027343-42.417969-31.585937-42.417969-17.222656 0-27.480469 11.601563-31.988282 22.800781-1.648437 4.007813-2.050781 9.609375-2.050781 15.214844v104.75h-62.34375s.816407-169.976562 0-187.574219h62.34375v26.558594c8.285157-12.78125 23.109375-30.960937 56.1875-30.960937 41.019531 0 71.777344 26.808593 71.777344 84.421874zm0 0" />
    </symbol>

    <symbol id="twitter" viewBox="0 0 512 512">
        <path
            d="M459.37 151.716c.325 4.548.325 9.097.325 13.645 0 138.72-105.583 298.558-298.558 298.558-59.452 0-114.68-17.219-161.137-47.106 8.447.974 16.568 1.299 25.34 1.299 49.055 0 94.213-16.568 130.274-44.832-46.132-.975-84.792-31.188-98.112-72.772 6.498.974 12.995 1.624 19.818 1.624 9.421 0 18.843-1.3 27.614-3.573-48.081-9.747-84.143-51.98-84.143-102.985v-1.299c13.969 7.797 30.214 12.67 47.431 13.319-28.264-18.843-46.781-51.005-46.781-87.391 0-19.492 5.197-37.36 14.294-52.954 51.655 63.675 129.3 105.258 216.365 109.807-1.624-7.797-2.599-15.918-2.599-24.04 0-57.828 46.782-104.934 104.934-104.934 30.213 0 57.502 12.67 76.67 33.137 23.715-4.548 46.456-13.32 66.599-25.34-7.798 24.366-24.366 44.833-46.132 57.827 21.117-2.273 41.584-8.122 60.426-16.243-14.292 20.791-32.161 39.308-52.628 54.253z" />
    </symbol>

    <symbol viewBox="0 0 24 24" id="rss">
        <circle cx="6.18" cy="17.82" r="2.18" />
        <path
            d="M4 4.44v2.83c7.03 0 12.73 5.7 12.73 12.73h2.83c0-8.59-6.97-15.56-15.56-15.56zm0 5.66v2.83c3.9 0 7.07 3.17 7.07 7.07h2.83c0-5.47-4.43-9.9-9.9-9.9z" />
    </symbol>
</svg>
