<?xml version="1.0" encoding="iso-8859-1"?>
<!-- Generator: Adobe Illustrator 19.0.0, SVG Export Plug-In . SVG Version: 6.00 Build 0)  -->
<svg fill="var(--color-text-white, currentColor)" version="1.1" id="Layer_1" xmlns="http://www.w3.org/2000/svg" xmlns:xlink="http://www.w3.org/1999/xlink" x="0px" y="0px"
	 viewBox="0 0 388.046 388.046" style="enable-background:new 0 0 388.046 388.046;" xml:space="preserve">
<g>
	<g>
		<path d="M341.698,217.842c10.595-6.117,17.741-17.567,17.741-30.656c0-9.442-3.676-18.325-10.354-25.016
			c-6.683-6.683-15.567-10.364-25.016-10.364h-92.631c-8.444,0-16.036-4.357-20.308-11.656c-4.229-7.226-4.317-15.88-0.235-23.149
			c14.795-26.328,21.001-56.215,19.484-72.131c-2.6-27.286-20.705-45.718-44.021-44.84L185.7,0.051
			C170,0.65,157.477,13.002,156.569,28.779c-1.982,34.052-29.568,68.786-55.267,98.666c-8.099,9.405-14.864,19.831-20.104,30.981
			c-1.477,3.134-3.801,5.769-6.731,7.627c-2.911,1.853-6.279,2.833-9.739,2.833h-29.62c-3.59,0-6.5,2.91-6.5,6.5v192.57
			c0,3.59,2.91,6.5,6.5,6.5c18.248,0,36.381,2.595,53.896,7.714c13.34,3.899,27.151,5.876,41.05,5.876H293.66
			c8.417,0,16.328-3.276,22.281-9.229c6.076-6.089,9.349-14.177,9.215-22.772c-0.117-7.491-2.944-14.37-7.55-19.734
			c14.165-4.619,24.429-17.954,24.429-33.64c0-9.652-3.886-18.414-10.176-24.803c13.15-5.163,22.484-17.983,22.484-32.942
			C354.343,234.067,349.424,224.336,341.698,217.842z M318.97,267.299h-12.307c-3.59,0-6.5,2.91-6.5,6.5c0,3.59,2.91,6.5,6.5,6.5
			c12.336,0,22.372,10.036,22.372,22.373s-10.036,22.372-22.374,22.372l-13.565,0.003c-3.589,0.001-6.499,2.911-6.499,6.501
			c0,3.59,2.911,6.499,6.5,6.499c10.353,0,18.903,8.165,19.06,18.201c0.078,5.052-1.846,9.806-5.414,13.382
			c-3.493,3.493-8.139,5.416-13.084,5.416H130.052c-12.664,0-25.248-1.801-37.403-5.354c-16.618-4.857-33.758-7.586-51.042-8.134
			V181.887h23.12c5.938,0,11.719-1.683,16.71-4.86c5.007-3.174,8.99-7.69,11.522-13.065c4.742-10.089,10.862-19.521,18.195-28.036
			c27.088-31.496,56.173-68.289,58.391-106.395c0.521-9.058,7.679-16.146,16.611-16.487l0.656-0.021
			c13.62-0.518,28.378,9.511,30.623,33.081c1.031,10.816-2.911,37.899-17.877,64.531c-6.368,11.34-6.237,24.83,0.35,36.083
			c6.63,11.327,18.416,18.089,31.527,18.089h92.631c5.976,0,11.596,2.328,15.819,6.552c4.225,4.232,6.551,9.853,6.551,15.828
			c0,12.334-10.035,22.369-22.369,22.37l-5.069-0.002c-0.005,0-0.01,0-0.014,0h-0.013c-0.001,0-0.002,0-0.003,0
			c-3.589,0-6.499,2.909-6.5,6.499c-0.001,3.589,2.908,6.5,6.497,6.501h0.008c12.334,0.002,22.368,10.038,22.368,22.372
			C341.343,257.263,331.307,267.299,318.97,267.299z"/>
	</g>
</g>
<g>
</g>
<g>
</g>
<g>
</g>
<g>
</g>
<g>
</g>
<g>
</g>
<g>
</g>
<g>
</g>
<g>
</g>
<g>
</g>
<g>
</g>
<g>
</g>
<g>
</g>
<g>
</g>
<g>
</g>
</svg>
