<?xml version="1.0" encoding="utf-8"?>
<!-- Generator: Adobe Illustrator 26.0.1, SVG Export Plug-In . SVG Version: 6.00 Build 0)  -->
<svg version="1.1" id="Layer_1" xmlns="http://www.w3.org/2000/svg" xmlns:xlink="http://www.w3.org/1999/xlink" x="0px" y="0px"
	 viewBox="0 0 577.1 380.2" style="enable-background:new 0 0 577.1 380.2;" xml:space="preserve">
<style type="text/css">
	.st0{fill:#EBEBEB;}
	.st1{fill:#F5F5F5;}
	.st2{fill:#FAFAFA;}
	.st3{fill:#A365DB;}
	.st4{opacity:0.4;enable-background:new    ;}
	.st5{fill:#263238;}
	.st6{fill:#FFBE9D;}
	.st7{fill:#FFFFFF;}
	.st8{fill:#EB996E;}
	.st9{fill:#455A64;}
	.st10{opacity:0.7;}
	.st11{opacity:0.2;enable-background:new    ;}
	.st12{opacity:0.2;}
	.st13{opacity:0.5;fill:#FFFFFF;enable-background:new    ;}
</style>
<g id="freepik--background-complete--inject-38">
	<path class="st0" d="M105.9,85.2l0.6,1c0.6,1.1,1.6,2.1,2.7,2.7l1,0.6l-1,0.6c-1.1,0.6-2.1,1.5-2.7,2.7l-0.6,1l-0.6-1
		c-0.6-1.1-1.6-2.1-2.7-2.7l-1-0.6l1-0.6c1.1-0.6,2.1-1.5,2.7-2.7L105.9,85.2z"/>
	<path class="st0" d="M521.7,213.7l0.6,1c0.6,1.1,1.6,2.1,2.7,2.7l1,0.5l-1,0.5c-1.1,0.6-2.1,1.5-2.7,2.7l-0.6,1l-0.6-1
		c-0.6-1.1-1.6-2.1-2.7-2.7l-1-0.5l1-0.5c1.1-0.6,2.1-1.5,2.7-2.7L521.7,213.7z"/>
	<path class="st0" d="M462.6,344.5l1,1.7c1.1,2,2.7,3.6,4.6,4.6l1.7,1l-1.7,1c-2,1.1-3.6,2.7-4.6,4.6l-1,1.7l-1-1.7
		c-1.1-2-2.7-3.6-4.6-4.6l-1.7-1l1.7-1c2-1.1,3.6-2.7,4.6-4.6L462.6,344.5z"/>
	<path class="st0" d="M199.4,371.3l0.6,1c0.6,1.1,1.6,2.1,2.7,2.7l1,0.5l-1,0.5c-1.1,0.6-2.1,1.6-2.7,2.7l-0.6,1l-0.5-1
		c-0.6-1.1-1.6-2.1-2.7-2.7l-1-0.5l1-0.5c1.1-0.6,2.1-1.5,2.7-2.7L199.4,371.3z"/>
	<circle class="st0" cx="69.9" cy="182.3" r="42.6"/>
	<circle class="st1" cx="57.4" cy="195.6" r="7"/>
	<path class="st1" d="M54.5,175.6c0,2.2-1.8,4-4,3.9c-2.2,0-4-1.8-3.9-4c0-2.2,1.8-3.9,4-3.9C52.7,171.5,54.5,173.3,54.5,175.6
		C54.5,175.5,54.5,175.5,54.5,175.6z"/>
	<path class="st1" d="M28.6,192.7c0.2,0.7-36.5,35.9-27,43.4s49.2-11.7,83.2-39.1s64.9-60.7,56.4-69.5s-50.9,17.3-50.9,17.3l5.1,3.2
		c0,0,25.6-16.4,33.7-10.1s-15,31.3-47.6,55.1s-64.1,40.5-69,34s18.2-28.3,18.2-28.3L28.6,192.7z"/>
	<path class="st2" d="M509.1,6c-5.4-3.2-12.5-0.4-17.3,3.6s-9,9.1-14.8,11.6c-3.7,1.6-7.9,1.9-11.2,4.2c-5.3,3.8-6.3,11.3-5.3,17.8
		s3.2,12.9,2.4,19.3c-0.6,4.7-2.8,9.5-1.6,14.1c1.7,6.5,9.2,9.6,12.8,15.2c2.6,4,3.3,9.5,7.2,12.3c4.5,3.3,10.8,1.4,16.3,1.9
		c6.8,0.6,12.7,5,19.2,7.2c10.7,3.5,22.3,1,30.7-6.4c4.1-3.8,7.2-8.6,11.2-12.4c3.5-3.3,7.7-5.9,10.5-9.7s4-8.3,5.2-12.8
		c1.7-6.5,3.5-13.4,2.2-20c-2-10.6-11.1-18.3-15.8-28.1c-1.8-3.8-3.2-8.1-6.5-10.6c-3.6-2.6-8.5-2.4-12.7-3.8
		c-6.1-2-10.7-7.5-16.8-9C518.9-0.9,512.8,1.3,509.1,6"/>
	<ellipse class="st0" cx="518" cy="57.2" rx="46.2" ry="46.2"/>
	<path class="st1" d="M504.4,64.8c-2.6,3.3-7.3,3.9-10.6,1.3c-3.3-2.6-3.9-7.3-1.3-10.6s7.3-3.9,10.6-1.3l0,0
		C506.4,56.8,507,61.5,504.4,64.8L504.4,64.8z"/>
	<path class="st1" d="M509.4,41.1c-1.5,1.9-4.2,2.3-6.2,0.8c-1.9-1.5-2.3-4.2-0.8-6.2c1.5-1.9,4.2-2.3,6.2-0.8l0,0
		C510.6,36.5,510.9,39.2,509.4,41.1z"/>
	<ellipse class="st1" cx="525.7" cy="275.9" rx="31.3" ry="31.3"/>
	<path class="st0" d="M530,266.3c0.1-2.8,2.4-5.1,5.2-5s5.1,2.4,5,5.2c-0.1,2.8-2.4,5-5.2,5C532.1,271.5,529.9,269.1,530,266.3
		L530,266.3z"/>
	<path class="st0" d="M536.9,281.2c0-1.7,1.3-3,3-3s3,1.3,3,3s-1.3,3-3,3h-0.1C538.1,284.2,536.9,282.8,536.9,281.2z"/>
	<path class="st0" d="M450,186.3l1,1.7c1.1,2,2.7,3.6,4.6,4.6l1.7,0.9l-1.7,1c-2,1.1-3.6,2.7-4.6,4.6l-1,1.7l-1-1.7
		c-1.1-2-2.7-3.6-4.6-4.6l-1.7-1l1.7-0.9c2-1.1,3.6-2.7,4.6-4.6L450,186.3z"/>
</g>
<g id="freepik--Character--inject-38">
	<path class="st3" d="M220.7,156l19.9-9.8c11.8-5.8,26-1,31.8,10.8l33.5,68c5.8,11.8,1,26-10.8,31.8l-19.9,9.8
		c-11.8,5.8-26,1-31.8-10.8l-33.5-68C204.1,176,208.9,161.8,220.7,156z"/>
	<path class="st4" d="M220.7,155.8l19.9-9.8c11.8-5.8,26-1,31.8,10.8l33.5,68c5.8,11.8,1,26-10.8,31.8l-19.9,9.8
		c-11.8,5.8-26,1-31.8-10.8l-33.5-68C204.1,175.8,208.9,161.6,220.7,155.8z"/>
	<path class="st5" d="M318.3,374.3c-0.2,0.2-0.5,0.3-0.8,0.4l-2.3,1c-1,0.4-2.3,0.9-3.8,1.4l-2.5,0.7c-0.9,0.3-1.9,0.5-2.9,0.7
		c-5,1.2-10.1,1.7-15.2,1.6c-6.8-0.1-13.6-1.4-19.9-3.8c-3.7-1.4-7.2-3.2-10.6-5.3c-3.6-2.4-6.8-5.2-9.7-8.4
		c-6.4-7.1-10.8-15.7-12.8-25.1c-1.1-5.1-1.3-10.2-0.7-15.4c0.6-5.4,2.3-10.6,4.9-15.3c2.7-4.9,6.1-9.3,10.3-13
		c4.3-3.8,9.2-6.9,14.6-8.9s11.2-2.8,17-2.4c2.8,0.2,5.6,0.9,8.3,1.9c2.6,1,5,2.7,7,4.8c1.9,2.1,3.2,4.6,3.8,7.4
		c0.6,2.7,0.2,5.6-1,8.1c-0.6,1.2-1.4,2.4-2.3,3.3c-0.9,1-1.9,1.9-3,2.6c-2.1,1.5-4.5,2.6-7,3.4c-17.8,4.7-36.7-2.8-46.3-18.6
		c-1.8-3.1-3.2-6.5-4.1-10c-2.1-8.1-1.7-16.7,1.1-24.6c1.1-3,2.6-5.9,4.4-8.6c0.6-0.9,1.2-1.6,1.5-2c0.2-0.2,0.3-0.5,0.6-0.6
		c-0.1,0.3-0.3,0.5-0.4,0.7c-0.3,0.5-0.8,1.2-1.4,2.1c-4.4,7.1-6.5,15.3-6.2,23.5c0.1,3.1,0.6,6.3,1.4,9.3c0.9,3.4,2.2,6.7,4.1,9.7
		c4.2,6.9,10.5,12.3,17.9,15.6c4.1,1.8,8.5,3,12.9,3.4c4.7,0.4,9.5,0,14-1.3c2.3-0.7,4.5-1.8,6.5-3.2c1-0.7,1.9-1.5,2.8-2.4
		c0.8-0.9,1.5-1.9,2.1-3c1.1-2.2,1.4-4.7,0.9-7.2s-1.7-4.8-3.5-6.7c-1.8-1.9-4-3.4-6.4-4.4c-2.5-1-5.1-1.6-7.8-1.8
		c-5.5-0.4-11.1,0.4-16.3,2.3c-10.3,4-18.9,11.5-24.1,21.2c-2.5,4.6-4.1,9.6-4.7,14.8c-0.6,5-0.4,10,0.6,14.9
		c1.9,9.1,6.1,17.6,12.3,24.5c2.8,3.1,6,5.9,9.4,8.3c3.2,2.1,6.7,3.9,10.3,5.4c3.3,1.3,6.7,2.2,10.2,2.9c8.1,1.5,16.4,1.4,24.5-0.3
		c1-0.2,2-0.4,2.9-0.7l2.5-0.7c1.5-0.5,2.8-0.9,3.9-1.3l2.3-0.9C317.7,374.5,318,374.4,318.3,374.3z"/>
	<path class="st5" d="M255.5,232.1c0,0.1-1.2,0.5-3,1.5c-4.8,2.4-9,5.8-12.4,10c-1.3,1.6-2,2.7-2.1,2.6c0.1-0.3,0.2-0.6,0.4-0.8
		c0.4-0.7,0.9-1.4,1.4-2c3.3-4.4,7.6-7.9,12.6-10.1c0.7-0.3,1.5-0.7,2.3-0.9C254.9,232.2,255.2,232.2,255.5,232.1z"/>
	<path class="st5" d="M246.5,245.6c0,0,0.1-0.3,0.7-0.7c0.8-0.5,1.7-0.7,2.6-0.6c1.4,0.3,2.5,1.3,2.9,2.6c0.4,1.7-0.2,3.5-1.7,4.4
		c-0.7,0.5-1.6,0.7-2.5,0.5c-0.8-0.1-1.6-0.5-2.2-1c-1.1-0.9-1.5-2.4-1.1-3.7c0.2-0.9,0.8-1.7,1.5-2.2c0.3-0.2,0.6-0.3,0.9-0.4
		c0,0-0.3,0.2-0.8,0.5c-0.6,0.6-1.1,1.3-1.3,2.1c-0.3,1.2,0.1,2.5,1.1,3.3c1.1,1,2.8,1.2,4.1,0.4s1.9-2.3,1.5-3.8
		c-0.5-1.8-2.3-2.8-4-2.4c-0.3,0.1-0.6,0.2-0.8,0.4C246.7,245.3,246.5,245.6,246.5,245.6z"/>
	<path class="st3" d="M220.7,156l19.9-9.8c11.8-5.8,26-1,31.8,10.8l33.5,68c5.8,11.8,1,26-10.8,31.8l-19.9,9.8
		c-11.8,5.8-26,1-31.8-10.8l-33.5-68C204.1,176,208.9,161.8,220.7,156z"/>
	<path class="st4" d="M220.7,155.8l19.9-9.8c11.8-5.8,26-1,31.8,10.8l33.5,68c5.8,11.8,1,26-10.8,31.8l-19.9,9.8
		c-11.8,5.8-26,1-31.8-10.8l-33.5-68C204.1,175.8,208.9,161.6,220.7,155.8z"/>
	<path class="st5" d="M318.3,374.3c-0.2,0.2-0.5,0.3-0.8,0.4l-2.3,1c-1,0.4-2.3,0.9-3.8,1.4l-2.5,0.7c-0.9,0.3-1.9,0.5-2.9,0.7
		c-5,1.2-10.1,1.7-15.2,1.6c-6.8-0.1-13.6-1.4-19.9-3.8c-3.7-1.4-7.2-3.2-10.6-5.3c-3.6-2.4-6.8-5.2-9.7-8.4
		c-6.4-7.1-10.8-15.7-12.8-25.1c-1.1-5.1-1.3-10.2-0.7-15.4c0.6-5.4,2.3-10.6,4.9-15.3c2.7-4.9,6.1-9.3,10.3-13
		c4.3-3.8,9.2-6.9,14.6-8.9s11.2-2.8,17-2.4c2.8,0.2,5.6,0.9,8.3,1.9c2.6,1,5,2.7,7,4.8c1.9,2.1,3.2,4.6,3.8,7.4
		c0.6,2.7,0.2,5.6-1,8.1c-0.6,1.2-1.4,2.4-2.3,3.3c-0.9,1-1.9,1.9-3,2.6c-2.1,1.5-4.5,2.6-7,3.4c-17.8,4.7-36.7-2.8-46.3-18.6
		c-1.8-3.1-3.2-6.5-4.1-10c-2.1-8.1-1.7-16.7,1.1-24.6c1.1-3,2.6-5.9,4.4-8.6c0.6-0.9,1.2-1.6,1.5-2c0.2-0.2,0.3-0.5,0.6-0.6
		c-0.1,0.3-0.3,0.5-0.4,0.7c-0.3,0.5-0.8,1.2-1.4,2.1c-4.4,7.1-6.5,15.3-6.2,23.5c0.1,3.1,0.6,6.3,1.4,9.3c0.9,3.4,2.2,6.7,4.1,9.7
		c4.2,6.9,10.5,12.3,17.9,15.6c4.1,1.8,8.5,3,12.9,3.4c4.7,0.4,9.5,0,14-1.3c2.3-0.7,4.5-1.8,6.5-3.2c1-0.7,1.9-1.5,2.8-2.4
		c0.8-0.9,1.5-1.9,2.1-3c1.1-2.2,1.4-4.7,0.9-7.2s-1.7-4.8-3.5-6.7c-1.8-1.9-4-3.4-6.4-4.4c-2.5-1-5.1-1.6-7.8-1.8
		c-5.5-0.4-11.1,0.4-16.3,2.3c-10.3,4-18.9,11.5-24.1,21.2c-2.5,4.6-4.1,9.6-4.7,14.8c-0.6,5-0.4,10,0.6,14.9
		c1.9,9.1,6.1,17.6,12.3,24.5c2.8,3.1,6,5.9,9.4,8.3c3.2,2.1,6.7,3.9,10.3,5.4c3.3,1.3,6.7,2.2,10.2,2.9c8.1,1.5,16.4,1.4,24.5-0.3
		c1-0.2,2-0.4,2.9-0.7l2.5-0.7c1.5-0.5,2.8-0.9,3.9-1.3l2.3-0.9C317.7,374.5,318,374.4,318.3,374.3z"/>
	<path class="st5" d="M255.5,232.1c0,0.1-1.2,0.5-3,1.5c-4.8,2.4-9,5.8-12.4,10c-1.3,1.6-2,2.7-2.1,2.6c0.1-0.3,0.2-0.6,0.4-0.8
		c0.4-0.7,0.9-1.4,1.4-2c3.3-4.4,7.6-7.9,12.6-10.1c0.7-0.3,1.5-0.7,2.3-0.9C254.9,232.2,255.2,232.2,255.5,232.1z"/>
	<path class="st5" d="M246.5,245.6c0,0,0.1-0.3,0.7-0.7c0.8-0.5,1.7-0.7,2.6-0.6c1.4,0.3,2.5,1.3,2.9,2.6c0.4,1.7-0.2,3.5-1.7,4.4
		c-0.7,0.5-1.6,0.7-2.5,0.5c-0.8-0.1-1.6-0.5-2.2-1c-1.1-0.9-1.5-2.4-1.1-3.7c0.2-0.9,0.8-1.7,1.5-2.2c0.3-0.2,0.6-0.3,0.9-0.4
		c0,0-0.3,0.2-0.8,0.5c-0.6,0.6-1.1,1.3-1.3,2.1c-0.3,1.2,0.1,2.5,1.1,3.3c1.1,1,2.8,1.2,4.1,0.4s1.9-2.3,1.5-3.8
		c-0.5-1.8-2.3-2.8-4-2.4c-0.3,0.1-0.6,0.2-0.8,0.4C246.7,245.3,246.5,245.6,246.5,245.6z"/>
	<path class="st6" d="M257.3,150.2c-1.9-3.8-3.6-7.3-3.6-7.3s7.2-4.4,4.1-12.2c-3.1-7.7-11.9-24.9-11.9-24.9l-17-0.2l-9.7,18.8
		l18.1,35.8c2.8,5.4,9.3,7.6,14.8,5l0,0c5.6-2.7,7.9-9.4,5.3-14.9C257.4,150.4,257.4,150.3,257.3,150.2z"/>
	<path class="st5" d="M250.3,119.3c0.3,0.5,0,1.2-0.5,1.4c-0.5,0.3-1.2,0-1.4-0.5s0-1.2,0.5-1.4C249.4,118.6,250,118.8,250.3,119.3
		L250.3,119.3z"/>
	<path class="st5" d="M250.7,117.9c-0.1,0.2-1.1-0.1-2.1,0.4s-1.6,1.3-1.8,1.2s-0.1-0.3,0.2-0.7c0.3-0.5,0.8-0.9,1.4-1.1
		c0.6-0.2,1.2-0.3,1.8-0.1C250.5,117.6,250.8,117.8,250.7,117.9z"/>
	<path class="st5" d="M239.1,124.7c0.2,0.5,0,1.2-0.6,1.4c-0.5,0.2-1.1,0-1.4-0.5c-0.3-0.5-0.1-1.2,0.4-1.4
		C238.2,123.9,238.8,124.1,239.1,124.7C239.1,124.6,239.1,124.6,239.1,124.7z"/>
	<path class="st5" d="M239.2,123.3c-0.1,0.2-1.1-0.1-2.1,0.4s-1.6,1.3-1.8,1.2s-0.1-0.3,0.2-0.7c0.3-0.5,0.8-0.9,1.4-1.1
		c0.6-0.2,1.2-0.3,1.8-0.1C239,123.1,239.3,123.3,239.2,123.3z"/>
	<path class="st5" d="M247.1,130.3c0.5-0.4,1-0.7,1.6-1c0.2-0.1,0.5-0.3,0.5-0.5c-0.1-0.3-0.3-0.6-0.5-0.8l-1.7-1.8
		c-1.2-1.3-2.3-2.5-3.1-3.4c-0.5-0.4-0.8-0.9-1.2-1.5c0.5,0.4,1,0.8,1.4,1.3c0.8,0.8,2,2,3.2,3.3l1.7,1.8c0.3,0.3,0.5,0.6,0.6,1
		c0,0.2-0.1,0.4-0.3,0.6c-0.1,0.1-0.3,0.2-0.4,0.3C248.3,129.9,247.8,130.1,247.1,130.3z"/>
	<path class="st7" d="M244.2,132.9c2,0.3,4,0.1,5.8-0.7c-0.3,1.5-1.5,2.6-3,2.6C244.4,135,244.2,132.9,244.2,132.9z"/>
	<path class="st8" d="M253.7,142.9c-3.6,1.6-7.7,2-11.6,1.4c0,0,5.1,4.4,12.5,0.5L253.7,142.9z"/>
	<path class="st5" d="M211,136.1l0.1-0.1c-0.5-1.4-1-2.9-1.4-4.4c-3.4-17.6,9-27.1,11.7-28.4c2.9-1.4,7.3-5.4,18.4-1.3
		c1.7,0.6,3.3,1.5,4.8,2.6c2.6,1.3,4.9,3.1,6.6,5.5c1.5,2.1,2,3.6,2,3.6s-0.8-1.4-2.5-3.2c-0.9-1.1-2-2.1-3.2-3c2,2.6,3.2,5.7,3.4,9
		l-1.8-0.6l-12.4,2.4c-0.5-3.4-3.6-6.4-5.1-7.8h-0.1c3.2,12.3-8.7,19.4-8.7,19.4l9.6,21.2C216.5,154.9,211,136.1,211,136.1z"/>
	<path class="st6" d="M227.7,142c-0.9,1.4-2.7,1.9-4.2,1.3c-1.5-0.7-2.6-2-2.9-3.6c-0.3-0.9-0.2-1.9,0.2-2.8c0.9-1,2.2-1.5,3.5-1.4
		L227.7,142z"/>
	<path class="st8" d="M225.4,141.5c0-0.1-0.4,0-1-0.1c-1.2-0.2-2-1.3-1.8-2.5c0.1-0.4,0.2-0.7,0.5-1c0.4-0.5,0.8-0.7,0.7-0.8
		s-0.5-0.1-1.1,0.4c-1,0.9-1.1,2.5-0.2,3.6c0.5,0.5,1.1,0.8,1.8,0.8C225.1,141.9,225.5,141.6,225.4,141.5z"/>
	<path class="st5" d="M270.2,114.5c0,0,0-0.2-0.1-0.6s-0.2-1-0.3-1.7c-0.1-0.4-0.1-0.8-0.2-1.2s-0.3-1-0.4-1.5
		c-0.3-1.2-0.7-2.5-1.2-3.6c-1.2-3.3-3-6.3-5.1-9.1c-6.3-8.2-15.9-13.3-26.2-14c-1.5-0.1-3.1-0.1-4.6,0c-0.8,0.1-1.6,0.1-2.4,0.2
		l-2.4,0.4c-0.4,0.1-0.8,0.1-1.2,0.2l-1.2,0.3c-0.8,0.2-1.6,0.4-2.4,0.7c-1.6,0.6-3.1,1.2-4.6,2s-3,1.6-4.4,2.6
		c-0.7,0.5-1.4,1.1-2.1,1.6c-0.7,0.5-1.4,1.1-2,1.7c-2.7,2.4-4.9,5.3-6.7,8.5l-0.7,1.2l-0.6,1.3l-0.6,1.3c-0.2,0.4-0.4,0.9-0.5,1.3
		c-0.3,0.9-0.6,1.8-0.9,2.7s-0.4,1.8-0.7,2.8c-1.6,7.6-0.7,15.5,2.6,22.6c0.4,0.9,0.9,1.7,1.3,2.5s1,1.6,1.5,2.4
		c0.2,0.4,0.5,0.8,0.8,1.1l0.9,1.1l0.9,1.1l1,1c1.2,1.3,2.6,2.6,4,3.7c1.4,1.1,2.9,2.1,4.5,3c0.7,0.5,1.5,0.9,2.3,1.2
		c0.8,0.4,1.6,0.8,2.4,1.1c1.6,0.6,3.2,1.1,4.9,1.5c1.6,0.4,3.3,0.7,4.9,0.8c0.8,0.1,1.6,0.1,2.5,0.1h1.2c0.4,0,0.8,0,1.2-0.1
		l2.4-0.2c0.8-0.1,1.6-0.2,2.3-0.4c1.5-0.2,3-0.6,4.5-1.1c5.4-1.7,10.3-4.6,14.3-8.5c3.3-3.2,6-7,7.9-11.2c1.5-3.2,2.4-6.5,2.9-10
		c0.2-1.3,0.3-2.5,0.3-3.8c0-0.6,0.1-1.1,0.1-1.5l-0.1-1.3c0-0.8-0.1-1.3-0.1-1.7S270.2,114.6,270.2,114.5c0,0.3,0.1,0.5,0.1,0.7
		c0,0.4,0.1,1,0.1,1.7c0,0.4,0.1,0.8,0.1,1.3s0,1,0,1.5c0,1.3-0.1,2.6-0.3,3.8c-0.4,3.5-1.4,6.9-2.8,10.1
		c-4.2,9.6-12.4,16.9-22.4,20c-1.5,0.5-3,0.8-4.5,1.1c-0.8,0.1-1.5,0.3-2.4,0.4l-2.4,0.2c-0.4,0-0.8,0.1-1.2,0.1h-1.2
		c-0.8,0-1.6,0-2.5-0.1c-1.7-0.2-3.4-0.5-5-0.9c-1.7-0.4-3.4-0.9-5-1.5c-0.8-0.3-1.6-0.7-2.4-1.1c-0.8-0.4-1.6-0.8-2.4-1.2
		c-1.6-0.9-3.1-1.9-4.5-3c-1.4-1.2-2.8-2.4-4.1-3.8l-1-1l-0.9-1.1l-0.9-1.1c-0.3-0.4-0.6-0.8-0.8-1.2l-1.5-2.4l-1.3-2.6
		c-3.4-7.1-4.3-15.2-2.7-22.9c0.2-0.9,0.5-1.9,0.7-2.8l0.9-2.7c0.1-0.5,0.3-0.9,0.5-1.3l0.6-1.3l0.6-1.3l0.7-1.2
		c1.8-3.2,4.1-6.1,6.8-8.6c0.6-0.6,1.3-1.2,2-1.8c0.7-0.5,1.4-1.1,2.1-1.6c2.8-1.9,5.9-3.5,9.2-4.6c0.8-0.3,1.6-0.5,2.4-0.7l1.2-0.3
		c0.4-0.1,0.8-0.1,1.2-0.2l2.4-0.4c0.8-0.1,1.6-0.1,2.4-0.2c1.5-0.1,3.1-0.1,4.6,0c10.4,0.7,20.1,5.9,26.4,14.3
		c2.2,2.8,3.9,5.9,5.1,9.2c0.5,1.2,0.9,2.4,1.1,3.7c0.1,0.5,0.3,1,0.4,1.5s0.1,0.9,0.2,1.3c0.1,0.7,0.2,1.3,0.3,1.7
		S270.2,114.5,270.2,114.5z"/>
	<path class="st5" d="M212.7,112.6c2.4-1.3,3.4-4.3,2-6.8c-0.2-0.5-0.6-0.9-0.9-1.2c-2.1-2-5.6-1.8-8-0.1c-2.2,1.9-3.6,4.6-3.9,7.5
		c-0.3,1.7-0.2,3.3,0.4,4.9c0.6,1.6,1.9,2.8,3.6,3.2c1.9,0.2,3.7-0.6,4.9-2.1c1.1-1.5,1.9-3.2,2.4-5"/>
	<path class="st9" d="M254.7,98.7c-0.1,0.1-1.4-1.2-3.8-2.9c-1.4-1-2.9-1.9-4.4-2.6c-1.9-0.9-3.8-1.7-5.9-2.3c-2-0.6-4.1-1-6.2-1.3
		c-1.7-0.2-3.4-0.3-5.1-0.3c-2.9,0.1-4.7,0.4-4.8,0.3c0.4-0.1,0.8-0.2,1.3-0.3c0.5-0.1,1-0.2,1.5-0.2c0.6-0.1,1.2-0.1,2-0.2
		c1.7-0.1,3.5,0,5.2,0.2c2.1,0.2,4.2,0.7,6.3,1.3c2,0.6,4,1.4,5.9,2.4c1.5,0.8,3,1.7,4.4,2.8c0.6,0.4,1.1,0.9,1.6,1.2s0.8,0.7,1.1,1
		C254.2,98,254.5,98.3,254.7,98.7z"/>
	<path class="st9" d="M258,104.1c-0.1,0-0.4-0.8-1-1.7s-1.2-1.5-1.1-1.6c0.1-0.1,0.9,0.4,1.5,1.4S258.1,104.1,258,104.1z"/>
	<path class="st5" d="M203.1,112c0.1,1.2-0.1,2.4-0.6,3.4c-0.5,1.1-0.8,2.3-0.9,3.6c-0.1,0.7,0,1.4,0.3,2.1s0.8,1.2,1.5,1.6
		c0.7,0.3,1.4,0.3,2.1,0.1c0.7-0.2,1.3-0.6,1.9-1c0.9-0.8,1.7-1.8,2.2-2.9c0.5-1,0.8-2.1,1-3.3c0.1,0.3,0.1,0.6,0,0.9
		c-0.1,0.9-0.3,1.7-0.7,2.5c-0.5,1.2-1.3,2.2-2.3,3.1c-0.6,0.5-1.3,0.9-2,1.1c-0.8,0.3-1.7,0.2-2.5-0.1c-0.8-0.4-1.4-1-1.7-1.9
		c-0.3-0.7-0.4-1.5-0.3-2.3c0.2-1.3,0.5-2.5,1.1-3.7c0.3-0.8,0.6-1.6,0.8-2.4C202.9,112.6,203,112.3,203.1,112z"/>
	<path class="st3" d="M219.7,168.8c0,0,44,80.8,51.3,89.7l59.4-26.4l-36-61.8c-6.6-11.4-18.4-18.8-31.5-19.8h-0.4
		C248.4,149.6,217.6,164.9,219.7,168.8z"/>
	<path class="st5" d="M312.5,201.2l-0.2,0.1l-0.6,0.3l-2.4,1.1l-8.9,3.9l-13.6,5.9l-8.2,3.5l-2.2,0.9c-0.8,0.3-1.8,0.3-2.5-0.2
		c-0.7-0.4-1.4-1-1.9-1.7s-0.9-1.4-1.3-2.2l0,0c-2.6-4.2-5.3-8.9-7.8-13.7c-2-3.8-3.9-7.6-5.6-11.3c-0.9-1.8-1.7-3.7-2.5-5.5
		s-1.4-3.7-1.6-5.6c-0.2-1.9,0.3-3.8,1.4-5.3c1-1.4,2.3-2.6,3.7-3.6c6.2-4.5,13.3-7.4,20.9-8.5c1.6-0.2,2.8-0.3,3.6-0.4h1
		c0.1,0,0.2,0,0.3,0h-0.3l-1,0.1c-0.8,0.1-2,0.2-3.6,0.4c-4.4,0.7-8.7,2-12.7,3.9c-2.8,1.3-5.4,2.9-7.9,4.7c-1.4,1-2.6,2.2-3.6,3.5
		c-1,1.5-1.5,3.2-1.3,5c0.2,1.9,0.8,3.7,1.6,5.4c0.8,1.8,1.6,3.6,2.5,5.4c1.7,3.7,3.6,7.4,5.6,11.3c2.6,4.8,5.2,9.4,7.8,13.7l0,0
		l0,0c0.6,1.5,1.7,2.8,3,3.7c0.7,0.4,1.4,0.4,2.1,0.1l2.2-0.9l8.2-3.5l13.6-5.8l9-3.8l2.4-1l0.6-0.2
		C312.4,201.2,312.5,201.2,312.5,201.2z"/>
	<g class="st10">
		<path class="st7" d="M268.5,178.9c0,1.5-1.2,2.8-2.8,2.8c-1.5,0-2.8-1.2-2.8-2.8c0-1.5,1.2-2.8,2.8-2.8l0,0
			C267.2,176.1,268.5,177.4,268.5,178.9z"/>
	</g>
	<g class="st10">
		<path class="st7" d="M274,190.8c0,1.5-1.2,2.8-2.8,2.8c-1.5,0-2.8-1.2-2.8-2.8c0-1.5,1.2-2.8,2.8-2.8l0,0
			C272.8,188,274,189.3,274,190.8z"/>
	</g>
	<g class="st10">
		<circle class="st7" cx="277.9" cy="202.4" r="2.8"/>
	</g>
	<path class="st5" d="M286.1,169.5c-0.6,0.5-1.3,0.9-2,1.2c-1.3,0.7-3,1.5-5,2.4s-3.8,1.6-5.1,2.2c-0.7,0.3-1.4,0.6-2.2,0.7
		c0.6-0.4,1.3-0.8,2-1.1l5-2.3l5-2.3C284.6,169.9,285.4,169.7,286.1,169.5z"/>
	<path class="st5" d="M293.3,181.1c-0.7,0.4-1.5,0.8-2.3,1.1l-5.6,2.4l-5.6,2.4c-0.7,0.4-1.5,0.7-2.3,0.9c0.7-0.5,1.4-0.9,2.2-1.2
		c1.4-0.7,3.3-1.6,5.5-2.6s4.2-1.7,5.7-2.2C291.7,181.5,292.5,181.3,293.3,181.1z"/>
	<path class="st5" d="M297.8,194.2c-2,1.2-4.2,2.2-6.4,3.1c-2.1,1-4.3,1.9-6.6,2.6c2-1.2,4.2-2.2,6.4-3.1
		C293.3,195.8,295.5,194.9,297.8,194.2z"/>
	<path class="st3" d="M233,159.4c-0.4-1.6,0.2-3.4,1.6-4.4c2.4-2,21.7-6.8,21.7-6.8s5.3-0.8,6.6,2.2L233,159.4z"/>
	<polygon class="st11" points="271.1,229.1 316.5,208 314,203.8 	"/>
	<g class="st12">
		<path d="M262.5,151.3c-0.3,0.3-0.6,0.5-0.9,0.7c-0.9,0.6-1.9,1-2.9,1.4c-1.3,0.5-2.8,0.9-4.5,1.4s-3.6,1-5.5,1.6
			c-3.4,0.9-6.8,1.6-10.3,2c-1.3,0.2-2.4,0.2-3.2,0.3c-0.4,0-0.8,0-1.2,0c0.4-0.1,0.8-0.2,1.1-0.2c0.7-0.1,1.8-0.2,3.1-0.4
			c3.4-0.6,6.8-1.3,10.2-2.2l5.5-1.5c1.7-0.5,3.2-0.9,4.5-1.3C259.9,152.6,261.2,152,262.5,151.3z"/>
	</g>
	<g class="st12">
		<path d="M239.9,157.8c-0.7-0.5-1.2-1.4-1.2-2.2c-0.2-0.9,0.1-1.8,0.8-2.4c-0.2,0.8-0.2,1.6-0.2,2.4
			C239.4,156.3,239.6,157.1,239.9,157.8z"/>
	</g>
	<g class="st12">
		<path d="M246.8,157c-1.7-1.2-2.4-3.3-1.7-5.3c0.1,0.9,0.2,1.9,0.4,2.8C245.9,155.3,246.3,156.2,246.8,157z"/>
	</g>
	<g class="st12">
		<path d="M254.2,154.2c-0.1,0-0.4-1.1-1.2-2.4s-1.6-2.1-1.5-2.2s1.2,0.6,2,1.9C254,152.3,254.2,153.3,254.2,154.2z"/>
	</g>
	<path class="st3" d="M319.2,235.6c0,0,92.8,18.2,94.7,28.4c1.9,10.2-2,100.8-2,100.8l-26.8,0.5l-2.9-78.9L271,257.3L319.2,235.6z"
		/>
	<path class="st11" d="M319.2,235.6c0,0,92.8,18.2,94.7,28.4c1.9,10.2-2,100.8-2,100.8l-26.8,0.5l-2.9-78.9L271,257.3L319.2,235.6z"
		/>
	<path class="st3" d="M412.8,343.6l0.1,18.5c0,0,15.9-3.2,14.6,3.2c-0.5,2.7-41.5,14.8-42.1,14.2l-0.7-26.2L412.8,343.6z"/>
	<path class="st4" d="M412.8,343.6l0.1,18.5c0,0,15.9-3.2,14.6,3.2c-0.5,2.7-41.5,14.8-42.1,14.2l-0.7-26.2L412.8,343.6z"/>
	<path class="st5" d="M426.6,366.2c-0.5-1.2-1.4-2.1-2.6-2.6c-0.9-0.3-1.8-0.5-2.7-0.4c-5.3,0.5-10.6,1.6-15.6,3.3
		c-5.1,1.7-10,3.9-14.6,6.7c-1.8,1-3.2,2-4.1,2.6c-0.5,0.4-1,0.7-1.5,1c0.4-0.4,0.9-0.8,1.4-1.1c0.9-0.7,2.3-1.6,4-2.8
		c4.6-2.8,9.5-5.1,14.6-6.8c5.1-1.7,10.4-2.8,15.8-3.1c1,0,1.9,0.2,2.8,0.5c0.7,0.3,1.3,0.7,1.7,1.2c0.3,0.3,0.5,0.7,0.7,1.1
		C426.5,365.9,426.5,366.1,426.6,366.2z"/>
	<path class="st5" d="M412.7,348.7c-0.3,0.2-0.6,0.4-1,0.6c-0.7,0.4-1.7,0.8-2.9,1.4c-2.5,1.1-5.9,2.6-9.8,4.1s-7.4,2.7-10,3.5
		c-1.3,0.4-2.4,0.7-3.1,0.9c-0.4,0.1-0.8,0.2-1.1,0.3c0.3-0.2,0.7-0.3,1.1-0.5l3-1.1c2.6-0.9,6.1-2.2,9.9-3.7s7.3-2.9,9.8-4l3-1.2
		C412,348.9,412.4,348.8,412.7,348.7z"/>
	<path class="st5" d="M396,359.2c0,0,0-0.2,0.2-0.3c0.3-0.2,0.7-0.3,1.1-0.2c0.3,0.1,0.5,0.2,0.7,0.5s0.3,0.6,0.3,0.9
		c0,1.1-0.9,2-2,2c-0.4,0-0.8-0.1-1.1-0.3c-0.3-0.2-0.5-0.5-0.5-0.8c-0.1-0.3,0-0.6,0.1-0.8c0.1-0.4,0.4-0.7,0.8-0.9
		C395.8,359.2,396,359.3,396,359.2c0,0.1-0.1,0.1-0.3,0.3c-0.3,0.2-0.4,0.5-0.5,0.8c-0.1,0.4,0,0.9,0.4,1.1c0.7,0.5,1.6,0.3,2.1-0.4
		c0.2-0.3,0.2-0.5,0.2-0.8c0-0.4-0.3-0.8-0.7-1c-0.3-0.1-0.6-0.1-0.9,0C396.1,359.1,396,359.3,396,359.2z"/>
	<path class="st5" d="M390.3,378.7c0-2,0.3-4,1-5.9C391.3,374.9,390.9,376.8,390.3,378.7z"/>
	<path class="st5" d="M394.3,377.5c0-1.3,0.1-2.5,0.5-3.8c0.2-1.3,0.5-2.5,1-3.7c0,1.3-0.2,2.5-0.5,3.8
		C395.2,375.1,394.8,376.4,394.3,377.5z"/>
	<path class="st5" d="M398.8,376.3c0.1-2.7,0.6-5.4,1.5-8C400.1,371,399.6,373.7,398.8,376.3z"/>
	<path class="st5" d="M403.9,374.8c0.1-2.9,0.6-5.8,1.5-8.5C405.2,369.2,404.7,372,403.9,374.8z"/>
	<path class="st5" d="M408.7,373.3c0.1-2.9,0.6-5.8,1.5-8.5C410,367.7,409.5,370.5,408.7,373.3z"/>
	<path class="st5" d="M413.9,371.4c0-1.3,0.2-2.6,0.5-3.9c0.2-1.3,0.5-2.6,1-3.8c0,1.3-0.1,2.6-0.5,3.9
		C414.8,368.9,414.4,370.2,413.9,371.4z"/>
	<path class="st5" d="M419.2,369.4c0.1-2.2,0.6-4.4,1.5-6.5c0,1.1-0.2,2.2-0.5,3.3C420,367.3,419.7,368.4,419.2,369.4z"/>
	<path class="st5" d="M340.4,363.5c0.2,0.4-3.1,2.5-7.3,4.9s-7.8,3.9-8,3.5s3.1-2.5,7.3-4.9S340.2,363.2,340.4,363.5z"/>
	<path class="st3" d="M386.9,145.2L386.9,145.2c4.7-2,9.3-4.2,13.7-6.6c6-3.6,5.7-4.2,5.2-4.8c-1.5-1.7-10.9,6-9.8,3.1
		s12.6-8,11-9.7c-2.1-2.2-11.8,6-12.6,6.6s-1.8-0.6-1-1.1c1.2-0.8,13.3-9.1,11.3-11.3c-1.1-1.2-3.1,1-3.1,1s-10.8,8.6-11.7,7.5
		s5.2-6.4,7.4-8s2.3-3.3,0.8-3.7c-1-0.3-7.9,4.6-10,6.2s-7.9,6.3-7,1.7s0-8.5-1-9.4s-2.6,0.2-2.3,1.6c0.2,1.6,0.2,3.2-0.1,4.8
		c-0.1,1.3-0.5,2.5-1.1,3.7c-0.7,1.3-1.3,2.4-1.8,3.4c-0.9,1.5-1.2,3.2-0.8,4.9c0.8,2.5,9.7,11.2,9.7,11.2L386.9,145.2z"/>
	<g class="st10">
		<path class="st7" d="M386.9,145.2L386.9,145.2c4.7-2,9.3-4.2,13.7-6.6c6-3.6,5.7-4.2,5.2-4.8c-1.5-1.7-10.9,6-9.8,3.1
			s12.6-8,11-9.7c-2.1-2.2-11.8,6-12.6,6.6s-1.8-0.6-1-1.1c1.2-0.8,13.3-9.1,11.3-11.3c-1.1-1.2-3.1,1-3.1,1s-10.8,8.6-11.7,7.5
			s5.2-6.4,7.4-8s2.3-3.3,0.8-3.7c-1-0.3-7.9,4.6-10,6.2s-7.9,6.3-7,1.7s0-8.5-1-9.4s-2.6,0.2-2.3,1.6c0.2,1.6,0.2,3.2-0.1,4.8
			c-0.1,1.3-0.5,2.5-1.1,3.7c-0.7,1.3-1.3,2.4-1.8,3.4c-0.9,1.5-1.2,3.2-0.8,4.9c0.8,2.5,9.7,11.2,9.7,11.2L386.9,145.2z"/>
	</g>
	<path class="st3" d="M270,152.2c2.1,1.6,60.2,3.5,60.2,3.5l37.9-21.4l15.2,14.5c0,0-44.3,29.8-49.2,30.8s-40.9,0-40.9,0L270,152.2z
		"/>
	<path class="st3" d="M368.8,135.2l13.1,13.9c0.8,0.9,2.2,1.1,3.2,0.4l0.1-0.1c1.1-0.8,1.4-2.3,0.7-3.5c-0.1-0.1-0.2-0.2-0.3-0.3
		l-13.2-13.8c-0.8-0.8-2.1-1-3-0.4l0,0c-1.2,0.7-1.6,2.2-0.9,3.4C368.6,134.9,368.7,135,368.8,135.2z"/>
	<path class="st13" d="M368.8,135.2l13.1,13.9c0.8,0.9,2.2,1.1,3.2,0.4l0.1-0.1c1.1-0.8,1.4-2.3,0.7-3.5c-0.1-0.1-0.2-0.2-0.3-0.3
		l-13.2-13.8c-0.8-0.8-2.1-1-3-0.4l0,0c-1.2,0.7-1.6,2.2-0.9,3.4C368.6,134.9,368.7,135,368.8,135.2z"/>
	<path class="st5" d="M334.3,179.6c-0.3-0.1-0.6-0.3-0.9-0.5c-0.7-0.6-1.4-1.2-2.1-1.9c-4.3-4.7-5.5-11.5-3.2-17.5
		c0.3-0.9,0.8-1.7,1.2-2.5c0.2-0.3,0.4-0.6,0.6-0.8c0.1,0-0.8,1.3-1.5,3.5c-2.1,5.8-0.9,12.4,3.1,17.1
		C333.1,178.7,334.3,179.6,334.3,179.6z"/>
	<path class="st5" d="M378.3,144.5c-0.1,0.1-0.3,0.3-0.5,0.4l-1.3,1c-1.2,0.9-2.9,2.1-5,3.6c-4.2,3-10.2,7.1-16.9,11.4
		s-12.8,8.1-17.3,10.8c-2.2,1.3-4.1,2.4-5.3,3.1l-1.5,0.8c-0.2,0.1-0.3,0.2-0.5,0.3c0.1-0.1,0.3-0.3,0.5-0.4l1.4-0.9l5.2-3.2
		c4.4-2.7,10.5-6.6,17.2-10.9s12.7-8.4,17-11.3l5.1-3.5l1.4-0.9C378,144.7,378.2,144.6,378.3,144.5z"/>
	<path class="st5" d="M330,175.2c0,0.1-7.7,0-17.1-0.4s-17.1-0.8-17.1-0.9s7.7,0,17.1,0.4S330.1,175.1,330,175.2z"/>
	<g class="st12">
		<path d="M303.7,179.9c-2.3-6.5-5.6-12.5-9.8-18c-3.9-5.2-13.5-9.3-20-9c9.2,4.2,21.4,16.7,25.9,27.1L303.7,179.9z"/>
	</g>
	<path class="st3" d="M221.2,166.2c-0.4-1.8-36.4,27.4-51.5,39.7c-4.2,3.4-6.6,8.5-6.6,13.9l0,0c0,9.9,8,17.9,17.9,17.9l0,0h43.9
		v-22.3h-28.6l36.7-24.2L221.2,166.2z"/>
	<path class="st3" d="M230.5,235.3L230.5,235.3c5,0.7,10.1,1.2,15.1,1.4c7,0,7-0.6,6.9-1.4c-0.4-2.2-12.4-0.5-10-2.4
		s14.9-0.4,14.4-2.7c-0.6-3-13.2-1-14.2-0.9s-1.2-1.5-0.3-1.5c1.4,0,16.1-0.9,15.5-3.8c-0.3-1.6-3.2-0.8-3.2-0.8s-13.7,1.8-13.9,0.4
		s7.8-2.8,10.5-3s3.7-1.6,2.6-2.7c-0.8-0.8-9.1-0.2-11.8,0.2s-10.1,1.3-6.8-2.1s4.4-7.3,4-8.6c-0.3-0.7-1.2-1.1-1.9-0.8
		c-0.4,0.2-0.7,0.6-0.9,1c-0.7,1.4-1.5,2.8-2.5,4c-0.8,1-1.7,1.9-2.8,2.6c-1.3,0.8-2.4,1.4-3.3,2c-1.5,0.8-2.7,2.2-3.2,3.8
		c-0.6,2.5,2.5,14.6,2.5,14.6L230.5,235.3z"/>
	<g class="st10">
		<path class="st7" d="M230.5,235.3L230.5,235.3c5,0.7,10.1,1.2,15.1,1.4c7,0,7-0.6,6.9-1.4c-0.4-2.2-12.4-0.5-10-2.4
			s14.9-0.4,14.4-2.7c-0.6-3-13.2-1-14.2-0.9s-1.2-1.5-0.3-1.5c1.4,0,16.1-0.9,15.5-3.8c-0.3-1.6-3.2-0.8-3.2-0.8
			s-13.7,1.8-13.9,0.4s7.8-2.8,10.5-3s3.7-1.6,2.6-2.7c-0.8-0.8-9.1-0.2-11.8,0.2s-10.1,1.3-6.8-2.1s4.4-7.3,4-8.6
			c-0.3-0.7-1.2-1.1-1.9-0.8c-0.4,0.2-0.7,0.6-0.9,1c-0.7,1.4-1.5,2.8-2.5,4c-0.8,1-1.7,1.9-2.8,2.6c-1.3,0.8-2.4,1.4-3.3,2
			c-1.5,0.8-2.7,2.2-3.2,3.8c-0.6,2.5,2.5,14.6,2.5,14.6L230.5,235.3z"/>
	</g>
	<path class="st5" d="M164.5,212.3c0.3-0.4,0.6-0.7,1-1c1-0.9,2-1.6,3.2-2.3c3.8-2.2,8.1-3.2,12.5-2.7c4.3,0.5,8.4,2.4,11.6,5.3
		c1,0.9,1.9,1.8,2.6,2.9c0.3,0.4,0.6,0.8,0.8,1.2c-1.1-1.4-2.3-2.6-3.6-3.8c-3.2-2.8-7.2-4.5-11.5-5c-4.2-0.4-8.5,0.5-12.3,2.5
		C167.4,210.2,165.9,211.2,164.5,212.3z"/>
	<path class="st5" d="M227.9,184.9c0.1,0.1-8,6-18.1,13.3s-18.3,13-18.4,12.8s8-6,18.1-13.3S227.8,184.8,227.9,184.9z"/>
	<path class="st5" d="M221.4,227.3c-0.2,0.1-0.4,0.1-0.6,0.1l-1.6,0.2c-1.4,0.1-3.5,0.3-6,0.5c-5.1,0.4-12.1,0.8-19.8,1
		s-14.8,0.2-19.9,0.1c-2.5,0-4.6-0.1-6-0.2l-1.6-0.1c-0.2,0-0.4,0-0.6-0.1c0.2,0,0.4,0,0.6,0h7.6c5.1,0,12.1,0,19.8-0.3
		s14.8-0.6,19.8-0.9l6-0.4l1.6-0.1C221,227.3,221.2,227.3,221.4,227.3z"/>
	<g class="st12">
		<path d="M200.2,213c-0.1-3.6-3-6.6-6.3-7.8s-7.8-0.1-11.1,1.2c5.3,1.5,10.6,4.5,13.6,9.1L200.2,213z"/>
	</g>
	<path class="st3" d="M221.6,216.2l0.5,19c0,1.2,0.9,2.2,2.2,2.4h0.1c1.4,0.2,2.6-0.8,2.8-2.2c0-0.1,0-0.3,0-0.4l-0.6-19.1
		c0-1.2-0.9-2.1-2-2.4l0,0c-1.4-0.3-2.7,0.6-3,1.9C221.6,215.8,221.6,216,221.6,216.2z"/>
	<path class="st13" d="M221.6,216.2l0.5,19c0,1.2,0.9,2.2,2.2,2.4h0.1c1.4,0.2,2.6-0.8,2.8-2.2c0-0.1,0-0.3,0-0.4l-0.6-19.1
		c0-1.2-0.9-2.1-2-2.4l0,0c-1.4-0.3-2.7,0.6-3,1.9C221.6,215.8,221.6,216,221.6,216.2z"/>
	<path class="st5" d="M230.1,193.9c1.8-1.3,3.4-2.9,4.8-4.6c1.4-2,2.4-4.2,3-6.5c0.3-1.4,0.6-2.8,0.6-4.2c0.1-1.5-0.1-3-0.3-4.5
		c-0.6-3.1-2-5.9-4.3-7.3c-2.1-1.2-4.5-1.8-6.9-1.6c-1.6,0.1-3.2,0.4-4.8,0.7c-0.6,0.1-1.2,0.2-1.8,0.3c0,0,0.1-0.1,0.4-0.2
		s0.7-0.2,1.3-0.4c1.6-0.5,3.2-0.8,4.9-0.9c2.5-0.3,5,0.3,7.1,1.6c1.2,0.8,2.3,1.9,3,3.2c0.8,1.4,1.3,2.9,1.6,4.4s0.4,3.1,0.3,4.7
		c-0.1,1.5-0.3,2.9-0.7,4.3c-0.6,2.4-1.7,4.6-3.2,6.6c-1,1.3-2.2,2.5-3.5,3.5c-0.4,0.3-0.7,0.5-1.1,0.7
		C230.4,193.8,230.2,193.8,230.1,193.9z"/>
	<path class="st3" d="M396.1,228.7l-34.8,38.5l-19.4-13.7l32-38.2l-84.5,44.6c-8.1,4.2-18.1,1.5-23-6.3l0,0
		c-5.2-8.2-2.7-19.1,5.6-24.3c0.6-0.3,1.1-0.7,1.7-1l91.3-43.7c13.3-6.4,29.2-2.5,38,9.3l0,0C411.7,205.4,407.1,217.5,396.1,228.7z"
		/>
	<path class="st5" d="M382.4,204.7c0,0,0-0.1-0.1-0.2L382,204c-0.3-0.7-0.7-1.3-1.1-1.9c-0.7-1-1.6-1.8-2.7-2.3
		c-1.5-0.6-3.2-0.7-4.7-0.2l0,0l-47.4,24.8l-40.9,21.2l-12.4,6.4l-3.4,1.7l-0.9,0.4l-0.3,0.1c0,0,0.1-0.1,0.3-0.2l0.9-0.5l3.3-1.8
		l12.4-6.5l40.8-21.4l47.5-24.6l0,0c1.6-0.5,3.4-0.4,4.9,0.3c1.1,0.5,2.1,1.4,2.8,2.4c0.4,0.6,0.8,1.3,1.1,2l0.2,0.5
		C382.4,204.6,382.4,204.7,382.4,204.7z"/>
	<path class="st5" d="M386.6,199.5c0.1,0.1-2.9,4-6.7,8.6s-7,8.4-7.1,8.3s2.9-4,6.7-8.6C381.8,205,384.1,202.2,386.6,199.5z"/>
	<path class="st3" d="M378.9,247.7L360.4,269c0,0,10.6,12.5,8.8,14s-31.1-24.7-31.1-24.7l19.2-24.5L378.9,247.7z"/>
	<path class="st4" d="M378.9,247.7L360.4,269c0,0,10.6,12.5,8.8,14s-31.1-24.7-31.1-24.7l19.2-24.5L378.9,247.7z"/>
	<path class="st5" d="M374.3,253.5c-0.1,0.1-5.3-2.6-11.6-6.1s-11.4-6.5-11.4-6.6s5.3,2.6,11.6,6.1S374.3,253.4,374.3,253.5z"/>
	<path class="st5" d="M349.8,254c0,0-0.1,0.2-0.2,0.5c-0.2,0.4-0.2,0.9-0.1,1.4c0.1,0.7,0.5,1.3,1.1,1.6c1.1,0.4,2.4-0.1,2.8-1.2
		c0.2-0.5,0.2-0.9,0.1-1.4c-0.3-0.6-0.9-1.1-1.5-1.3c-0.5-0.1-0.9-0.1-1.4,0c-0.3,0.1-0.5,0.2-0.5,0.2s0.1-0.2,0.4-0.4
		c0.5-0.2,1-0.3,1.6-0.2c0.8,0.2,1.5,0.7,1.9,1.4c0.5,1.4-0.2,2.9-1.6,3.3c-0.6,0.2-1.3,0.2-1.9-0.1c-0.7-0.4-1.2-1.2-1.3-2
		c-0.1-0.5,0-1.1,0.3-1.6C349.6,254.1,349.8,254,349.8,254z"/>
	<polyline class="st11" points="349.3,228.4 373.3,215.7 385.7,200.6 349.3,228.4 	"/>
</g>
<g id="freepik--Planet--inject-38">
	
		<ellipse transform="matrix(0.9997 -2.338583e-02 2.338583e-02 0.9997 -1.5562 9.0601)" class="st9" cx="386.6" cy="71.1" rx="25.2" ry="25.2"/>
	<path class="st5" d="M394.8,61.5c0.1-2.3,1.9-4.1,4.2-4s4.1,1.9,4,4.2s-1.9,4.1-4.2,4l0,0C396.6,65.6,394.8,63.7,394.8,61.5z"/>
	<path class="st5" d="M403.1,71.1c0-1.3,1.1-2.4,2.5-2.3c1.3,0,2.4,1.1,2.3,2.5c0,1.3-1.1,2.4-2.5,2.3l0,0
		C404.1,73.5,403,72.4,403.1,71.1L403.1,71.1z"/>
	<path class="st5" d="M399.9,78.4c0.5,0.1,0.8,0.5,0.8,1c0,0.4-0.4,0.7-0.8,0.8c-0.5-0.1-0.8-0.5-0.8-1
		C399.1,78.8,399.4,78.5,399.9,78.4z"/>
</g>
<g id="freepik--Stars--inject-38">
	<path class="st9" d="M494.5,124.4l0.5,1c0.6,1.1,1.5,2.1,2.7,2.7l1,0.6l-1,0.6c-1.1,0.6-2.1,1.5-2.7,2.7l-0.5,1l-0.5-1
		c-0.6-1.1-1.5-2.1-2.7-2.7l-1-0.6l1-0.6c1.1-0.6,2.1-1.5,2.7-2.7L494.5,124.4z"/>
	<path class="st9" d="M58.2,274l0.6,1c0.6,1.1,1.5,2.1,2.7,2.7l1,0.5l-1,0.6c-1.1,0.6-2.1,1.5-2.7,2.7l-0.6,1l-0.6-1
		c-0.6-1.1-1.5-2.1-2.7-2.7l-1-0.6l1-0.5c1.1-0.6,2.1-1.5,2.7-2.7L58.2,274z"/>
	<path class="st9" d="M177.8,271.6l0.3,0.5c0.3,0.6,0.8,1,1.3,1.3l0.5,0.3l-0.5,0.3c-0.6,0.3-1,0.8-1.3,1.4l-0.3,0.5l-0.3-0.5
		c-0.3-0.6-0.8-1-1.3-1.4l-0.5-0.3l0.5-0.3c0.6-0.3,1-0.8,1.3-1.3L177.8,271.6z"/>
	<path class="st9" d="M453.1,269.7l0.3,0.5c0.3,0.6,0.8,1,1.3,1.3l0.5,0.3l-0.5,0.3c-0.6,0.3-1,0.8-1.3,1.3l-0.3,0.5l-0.3-0.5
		c-0.3-0.6-0.8-1-1.3-1.3l-0.5-0.3l0.5-0.3c0.6-0.3,1-0.8,1.3-1.3L453.1,269.7z"/>
	<path class="st9" d="M325,119.2l0.3,0.5c0.3,0.6,0.8,1,1.3,1.3l0.5,0.3l-0.5,0.3c-0.6,0.3-1,0.8-1.3,1.3l-0.3,0.5l-0.3-0.5
		c-0.3-0.6-0.8-1-1.4-1.3l-0.5-0.3l0.5-0.2c0.6-0.3,1-0.8,1.3-1.3L325,119.2z"/>
	<path class="st9" d="M176.2,100l0.3,0.5c0.3,0.6,0.8,1,1.3,1.4l0.5,0.3l-0.5,0.3c-0.6,0.3-1,0.8-1.3,1.3l-0.3,0.5l-0.3-0.5
		c-0.3-0.6-0.8-1-1.3-1.3l-0.5-0.3l0.5-0.3c0.6-0.3,1-0.8,1.3-1.4L176.2,100z"/>
	<path class="st9" d="M277.9,33l1,1.7c1.1,2,2.7,3.6,4.6,4.6l1.7,1l-1.7,1c-2,1.1-3.6,2.7-4.6,4.6l-1,1.7l-1-1.7
		c-1-2-2.6-3.6-4.5-4.7l-1.7-1l1.7-1c2-1.1,3.6-2.7,4.6-4.6L277.9,33z"/>
	<path class="st9" d="M174.6,344.5l0.9,1.7c1.1,2,2.7,3.6,4.6,4.6l1.7,1l-1.7,1c-2,1.1-3.6,2.7-4.6,4.6l-0.9,1.7l-1-1.7
		c-1.1-2-2.7-3.6-4.6-4.6l-1.7-1l1.7-1c2-1.1,3.6-2.7,4.6-4.6L174.6,344.5z"/>
</g>
</svg>
