<svg xmlns="http://www.w3.org/2000/svg" viewBox="0 0 500 500"><g id="freepik--background-complete--inject-26"><circle cx="119.24" cy="140.32" r="19.23" transform="translate(-43.07 53.34) rotate(-21.46)" style="fill:#ebebeb"></circle><path d="M137.64,145.92a22.4,22.4,0,0,0-6-3.75c-3.81-1.68-14.18-3.51-19-5.94-6.75-3.4-7.59-7.07-7.55-9a19.38,19.38,0,0,1,5.93-4.35c.48,2,2.29,8,13.5,12,5.79,2,11.33.68,13.21.22A19.13,19.13,0,0,1,137.64,145.92Z" style="fill:#dbdbdb"></path><path d="M129.79,156.41A19.27,19.27,0,0,1,105.68,154a15.8,15.8,0,0,1,3.45-1.36c5.17-1.26,10.86,1.21,12.94,2.38A11.36,11.36,0,0,0,129.79,156.41Z" style="fill:#dbdbdb"></path><path d="M136.5,148.8l-.24.47-.22.42c-.18.32-.36.62-.55.92s-.35.54-.53.8l-.21.29-.24.32-.24.32-.31.36-.3.36-.27.3c-.2.22-.41.43-.62.64h0c-1.2.37-2.8.21-5.15-.72-3.49-1.37-7.26-4.67-14-7.09a24,24,0,0,0-12.93-.83h0a19.17,19.17,0,0,1,.5-11.63c1.23,0,5.18.52,13.61,7.48a49.9,49.9,0,0,0,8.49,5.81c7.2,3.77,11.36,2.65,13.1,1.78h.13Z" style="fill:#dbdbdb"></path><path d="M118.22,156c.34-.78,1.54-1,2.68-.52s1.79,1.54,1.44,2.32-1.54,1-2.68.52S117.88,156.83,118.22,156Z" style="fill:#c7c7c7"></path><path d="M123.66,154.67c.2-.44.91-.55,1.59-.26s1.08.9.89,1.34-.9.56-1.59.26S123.47,155.11,123.66,154.67Z" style="fill:#c7c7c7"></path><path d="M108.75,131.05c.29-.67,1.33-.86,2.33-.42s1.57,1.33,1.28,2-1.34.86-2.34.42S108.45,131.72,108.75,131.05Z" style="fill:#c7c7c7"></path><path d="M112.29,130.39a.84.84,0,0,1,1.13-.28.85.85,0,0,1,.57,1,1,1,0,0,1-1.7-.74Z" style="fill:#c7c7c7"></path><path d="M112.86,132.17a.53.53,0,0,1,.71-.15c.3.13.47.41.37.62s-.41.28-.71.15S112.77,132.39,112.86,132.17Z" style="fill:#c7c7c7"></path><path d="M124.86,132.22a1.64,1.64,0,1,1,1,1.71A1.42,1.42,0,0,1,124.86,132.22Z" style="fill:#c7c7c7"></path><path d="M124.4,134.84a.76.76,0,1,1,.42.92A.73.73,0,0,1,124.4,134.84Z" style="fill:#c7c7c7"></path><circle cx="415.48" cy="343.36" r="12.93" style="fill:#ebebeb"></circle><path d="M420.19,335.69a2.92,2.92,0,0,1-.48,1.75,3.45,3.45,0,0,1-1.41,1.24,2.56,2.56,0,0,1-1.9.17,2.7,2.7,0,0,1-1.44-1.12,3.71,3.71,0,0,0,1.55.69,2.33,2.33,0,0,0,.79,0,2.68,2.68,0,0,0,.76-.24l.36-.2c.11-.08.23-.15.33-.23a3.24,3.24,0,0,0,.6-.57A4.54,4.54,0,0,0,420.19,335.69Z" style="fill:#c7c7c7"></path><path d="M415.54,336.43a1.84,1.84,0,0,1,.27-1.24,2.23,2.23,0,0,1,1-.88,1.76,1.76,0,0,1,1.35-.1,1.7,1.7,0,0,1,1,.83,2.8,2.8,0,0,0-1.08-.4,1.69,1.69,0,0,0-1,.18A3.06,3.06,0,0,0,415.54,336.43Z" style="fill:#c7c7c7"></path><path d="M415.48,349.44a1.79,1.79,0,0,1,0,1.23,2.13,2.13,0,0,1-.75,1.05,1.71,1.71,0,0,1-2.35-.25,3.35,3.35,0,0,0,1.1.15,1.62,1.62,0,0,0,.91-.35,2.67,2.67,0,0,0,.69-.77A3.41,3.41,0,0,0,415.48,349.44Z" style="fill:#c7c7c7"></path><path d="M412.8,350.91a1.14,1.14,0,0,1-.09-.87,1.49,1.49,0,0,1,.52-.76,1.2,1.2,0,0,1,.93-.23,1.1,1.1,0,0,1,.73.48,2.46,2.46,0,0,0-.75,0,1.18,1.18,0,0,0-.56.24A2.18,2.18,0,0,0,412.8,350.91Z" style="fill:#c7c7c7"></path><path d="M410.82,337.8a1.15,1.15,0,0,1,.37.83,1.3,1.3,0,0,1-.37.92,1.15,1.15,0,0,1-.95.32,1.35,1.35,0,0,1-.81-.39,3.94,3.94,0,0,0,.8-.05,1.06,1.06,0,0,0,.56-.28,1.37,1.37,0,0,0,.33-.56A2.45,2.45,0,0,0,410.82,337.8Z" style="fill:#c7c7c7"></path><path d="M409.22,339.06a.74.74,0,0,1-.33-.57.91.91,0,0,1,.26-.68.82.82,0,0,1,.71-.23.81.81,0,0,1,.55.34,4.08,4.08,0,0,0-.54.1.76.76,0,0,0-.32.19,1.13,1.13,0,0,0-.22.32A2.13,2.13,0,0,0,409.22,339.06Z" style="fill:#c7c7c7"></path><path d="M419.81,351.44a1.14,1.14,0,0,1-.72.56,1.26,1.26,0,0,1-1-.14,1.14,1.14,0,0,1-.54-.83,1.36,1.36,0,0,1,.18-.89,3.66,3.66,0,0,0,.25.77,1,1,0,0,0,.4.47,1.32,1.32,0,0,0,.63.18A2.6,2.6,0,0,0,419.81,351.44Z" style="fill:#c7c7c7"></path><path d="M418.2,350.19a.75.75,0,0,1,.47-.45.87.87,0,0,1,.72.08.82.82,0,0,1,.4.63.9.9,0,0,1-.19.62,4.78,4.78,0,0,0-.24-.5.63.63,0,0,0-.25-.26.91.91,0,0,0-.37-.13A1.65,1.65,0,0,0,418.2,350.19Z" style="fill:#c7c7c7"></path><path d="M424.24,342.34a1.16,1.16,0,0,1-.28.86,1.27,1.27,0,0,1-.88.44,1.13,1.13,0,0,1-.92-.39,1.29,1.29,0,0,1-.35-.83,3.82,3.82,0,0,0,.63.5,1.09,1.09,0,0,0,.6.16,1.31,1.31,0,0,0,.62-.21A2.35,2.35,0,0,0,424.24,342.34Z" style="fill:#c7c7c7"></path><path d="M422.2,342.21a.75.75,0,0,1,.14-.64.93.93,0,0,1,.65-.34.8.8,0,0,1,.68.3.88.88,0,0,1,.19.62,3.83,3.83,0,0,0-.48-.28.74.74,0,0,0-.36-.08,1.13,1.13,0,0,0-.38.1A2.38,2.38,0,0,0,422.2,342.21Z" style="fill:#c7c7c7"></path><path d="M407.1,345.26a1.13,1.13,0,0,1-.27.87,1.27,1.27,0,0,1-.88.44,1.16,1.16,0,0,1-.93-.39,1.4,1.4,0,0,1-.35-.83,4.33,4.33,0,0,0,.64.5,1.07,1.07,0,0,0,.6.16,1.35,1.35,0,0,0,.62-.21A2,2,0,0,0,407.1,345.26Z" style="fill:#c7c7c7"></path><path d="M405.07,345.14a.75.75,0,0,1,.14-.64.89.89,0,0,1,.64-.34.79.79,0,0,1,.68.3.85.85,0,0,1,.2.62,3.83,3.83,0,0,0-.48-.28.66.66,0,0,0-.36-.08,1.13,1.13,0,0,0-.38.1A2.38,2.38,0,0,0,405.07,345.14Z" style="fill:#c7c7c7"></path></g><g id="freepik--Moon--inject-26"><path d="M370.11,60.15l3.44-3.43a2.52,2.52,0,0,0,0-3.56h0a2.5,2.5,0,0,0-3.56,0l-3.44,3.43a2.52,2.52,0,0,0,0,3.56h0A2.52,2.52,0,0,0,370.11,60.15Z" style="fill:#ebebeb"></path><path d="M417,94.19l2.18-4.34a2.5,2.5,0,0,0-1.12-3.38h0a2.51,2.51,0,0,0-3.38,1.12l-2.18,4.34a2.53,2.53,0,0,0,1.12,3.38h0A2.52,2.52,0,0,0,417,94.19Z" style="fill:#ebebeb"></path><path d="M387,50.45l2.58-.36a2.52,2.52,0,0,0,2.14-2.85h0a2.52,2.52,0,0,0-2.85-2.14l-2.58.37a2.52,2.52,0,0,0-2.14,2.85h0A2.51,2.51,0,0,0,387,50.45Z" style="fill:#ebebeb"></path><path d="M366.46,84.53l-.37-2.59a2.52,2.52,0,0,0-2.85-2.13h0a2.52,2.52,0,0,0-2.14,2.85l.37,2.58a2.53,2.53,0,0,0,2.85,2.14h0A2.52,2.52,0,0,0,366.46,84.53Z" style="fill:#ebebeb"></path><rect x="415.49" y="75.26" width="7.64" height="5.03" rx="2.16" transform="translate(497.09 -341.53) rotate(90)" style="fill:#ebebeb"></rect><path d="M382.28,106.41l2.52.68a2.52,2.52,0,0,0,3.08-1.78h0a2.52,2.52,0,0,0-1.78-3.09l-2.52-.67a2.51,2.51,0,0,0-3.08,1.78h0A2.51,2.51,0,0,0,382.28,106.41Z" style="fill:#ebebeb"></path><circle cx="391" cy="76.69" r="29.05" style="fill:#ebebeb"></circle><path d="M401.57,59.46a6.51,6.51,0,0,1-1.08,3.94,7.8,7.8,0,0,1-3.15,2.79,5.76,5.76,0,0,1-4.27.36,6,6,0,0,1-3.25-2.49,8.71,8.71,0,0,0,3.49,1.53,5.07,5.07,0,0,0,1.78,0,5.38,5.38,0,0,0,1.69-.54,9.1,9.1,0,0,0,.81-.44c.26-.17.52-.33.76-.52a8.54,8.54,0,0,0,1.35-1.27A9.92,9.92,0,0,0,401.57,59.46Z" style="fill:#c7c7c7"></path><path d="M391.13,61.13a4.13,4.13,0,0,1,.6-2.78,5.18,5.18,0,0,1,2.19-2,3.9,3.9,0,0,1,3-.22A3.84,3.84,0,0,1,399.12,58a6.52,6.52,0,0,0-2.41-.89,3.94,3.94,0,0,0-2.24.4A6.81,6.81,0,0,0,391.13,61.13Z" style="fill:#c7c7c7"></path><path d="M381.29,81.08a3.94,3.94,0,0,1,.07,2.77,4.82,4.82,0,0,1-1.68,2.35,3.78,3.78,0,0,1-2.86.77,3.84,3.84,0,0,1-2.43-1.34,7,7,0,0,0,2.48.35,3.69,3.69,0,0,0,2-.79,6,6,0,0,0,1.55-1.73A7.44,7.44,0,0,0,381.29,81.08Z" style="fill:#c7c7c7"></path><path d="M375.27,84.38a2.57,2.57,0,0,1-.19-1.95,3.19,3.19,0,0,1,1.16-1.7,2.65,2.65,0,0,1,2.08-.52A2.44,2.44,0,0,1,380,81.28a5.58,5.58,0,0,0-1.7-.08,2.69,2.69,0,0,0-1.26.54A4.94,4.94,0,0,0,375.27,84.38Z" style="fill:#c7c7c7"></path><path d="M370.87,74.62a2.57,2.57,0,0,1,.83,1.86,2.85,2.85,0,0,1-.82,2,2.52,2.52,0,0,1-2.13.73,3.06,3.06,0,0,1-1.83-.87,10,10,0,0,0,1.81-.12,2.33,2.33,0,0,0,1.25-.63,2.88,2.88,0,0,0,.73-1.26A5.13,5.13,0,0,0,370.87,74.62Z" style="fill:#c7c7c7"></path><path d="M367.27,77.44a1.68,1.68,0,0,1-.72-1.29,2,2,0,0,1,.58-1.52,1.77,1.77,0,0,1,1.58-.51,1.88,1.88,0,0,1,1.25.75,10.76,10.76,0,0,0-1.23.24,1.6,1.6,0,0,0-.7.41,2.28,2.28,0,0,0-.49.73A4.57,4.57,0,0,0,367.27,77.44Z" style="fill:#c7c7c7"></path><path d="M410.67,66a2.6,2.6,0,0,1-.62,1.94,2.84,2.84,0,0,1-2,1,2.57,2.57,0,0,1-2.07-.87,3,3,0,0,1-.78-1.87,9,9,0,0,0,1.43,1.11,2.23,2.23,0,0,0,1.34.36,3,3,0,0,0,1.39-.45A5.56,5.56,0,0,0,410.67,66Z" style="fill:#c7c7c7"></path><path d="M406.11,65.73a1.66,1.66,0,0,1,.31-1.44,2,2,0,0,1,1.44-.76,1.82,1.82,0,0,1,1.53.68,1.88,1.88,0,0,1,.43,1.39,9.72,9.72,0,0,0-1.08-.63,1.49,1.49,0,0,0-.8-.17,2.38,2.38,0,0,0-.85.22A4.64,4.64,0,0,0,406.11,65.73Z" style="fill:#c7c7c7"></path><ellipse cx="397.01" cy="79.87" rx="6.44" ry="6.4" transform="translate(162.37 409.93) rotate(-65.97)" style="fill:#dbdbdb"></ellipse><path d="M400,76.84a5.81,5.81,0,0,1,3.31,4.1,6.41,6.41,0,1,0-11.2,3.11,5.78,5.78,0,0,1,.2-4.24A5.84,5.84,0,0,1,400,76.84Z" style="fill:#c7c7c7"></path><path d="M405.88,81a8.26,8.26,0,0,1-1.41,4.8,9.87,9.87,0,0,1-3.87,3.38,7.16,7.16,0,0,1-5.18.47,7.62,7.62,0,0,1-4-3,10.25,10.25,0,0,0,4.28,2,10.54,10.54,0,0,0,1.13.11,5.87,5.87,0,0,0,1.11-.09A7.1,7.1,0,0,0,400,88c.34-.17.69-.36,1-.55s.65-.42.94-.67a10.52,10.52,0,0,0,1.67-1.6A11.59,11.59,0,0,0,405.88,81Z" style="fill:#c7c7c7"></path><path d="M412.91,83.39a2.4,2.4,0,1,0-1.78-2.87A2.39,2.39,0,0,0,412.91,83.39Z" style="fill:#dbdbdb"></path><path d="M414.34,79.73A2.18,2.18,0,0,1,415.85,81,2.43,2.43,0,0,0,414,78.71a2.4,2.4,0,0,0-2.87,1.81,2.37,2.37,0,0,0,.84,2.41,2.12,2.12,0,0,1-.23-1.57A2.17,2.17,0,0,1,414.34,79.73Z" style="fill:#c7c7c7"></path><path d="M416.78,80.82a2.9,2.9,0,0,1-.12,1.88,3.54,3.54,0,0,1-1.18,1.55,2.64,2.64,0,0,1-1.91.54,2.74,2.74,0,0,1-1.69-.86,4.09,4.09,0,0,0,1.71.37,2.65,2.65,0,0,0,1.51-.55A4.36,4.36,0,0,0,416.78,80.82Z" style="fill:#c7c7c7"></path><path d="M396.44,98.94a3.41,3.41,0,1,0-3.21-3.59A3.41,3.41,0,0,0,396.44,98.94Z" style="fill:#dbdbdb"></path><path d="M397.54,93.46a3.07,3.07,0,0,1,2.41,1.4A3.4,3.4,0,1,0,395,98.53a3.1,3.1,0,0,1,2.54-5.07Z" style="fill:#c7c7c7"></path><path d="M401.22,94.38a4.48,4.48,0,0,1,.19,2.64,5.13,5.13,0,0,1-1.27,2.4,3.72,3.72,0,0,1-2.46,1.21,4.06,4.06,0,0,1-2.56-.69,5.23,5.23,0,0,0,2.5.2A3.76,3.76,0,0,0,399.68,99a5.84,5.84,0,0,0,1.26-2.1A6.18,6.18,0,0,0,401.22,94.38Z" style="fill:#c7c7c7"></path><path d="M381.24,66c-1.53,2.35-4.93,2.85-7.58,1.11s-3.57-5.05-2-7.4,4.93-2.84,7.59-1.11S382.78,63.69,381.24,66Z" style="fill:#dbdbdb"></path><path d="M372.8,62a4.43,4.43,0,0,0-.25,4.28,5.25,5.25,0,0,1-.92-6.49c1.53-2.35,4.93-2.85,7.59-1.11A5.83,5.83,0,0,1,382,63.9a5.53,5.53,0,0,0-2.29-3C377.28,59.37,374.19,59.82,372.8,62Z" style="fill:#c7c7c7"></path><path d="M383.12,62.16a5.49,5.49,0,0,1,.75,4.14,5.12,5.12,0,0,1-.95,2,6.39,6.39,0,0,1-1.66,1.53,6.23,6.23,0,0,1-2.15.73,7.29,7.29,0,0,1-2.19-.06,9.09,9.09,0,0,1-3.84-1.67,17.88,17.88,0,0,0,3.95.68,6.51,6.51,0,0,0,3.58-.77A5.47,5.47,0,0,0,382,67.59a5,5,0,0,0,.94-1.57A7.25,7.25,0,0,0,383.12,62.16Z" style="fill:#c7c7c7"></path></g><g id="freepik--Planet--inject-26"><circle cx="375.87" cy="413.34" r="43.02" transform="matrix(0.26, -0.97, 0.97, 0.26, -120.23, 670.28)" style="fill:#455a64"></circle><path d="M416.74,399.89a50.6,50.6,0,0,0-15.8.88c-9.14,1.83-30.47,11.81-42.37,13.55-16.73,2.46-23-3.17-25.36-6.69a43,43,0,0,1,5.28-15.58c3.38,2.95,14.49,11.72,40.09,4.53,13.2-3.72,21.59-13.34,24.44-16.6A42.76,42.76,0,0,1,416.74,399.89Z" style="fill:#37474f"></path><path d="M415.87,429.18a43.05,43.05,0,0,1-47.24,26.58,34.45,34.45,0,0,1,4.55-6.94c7.84-9,21.44-11.76,26.75-12.3A25.27,25.27,0,0,0,415.87,429.18Z" style="fill:#37474f"></path><path d="M418.36,406.64c.07.39.12.77.17,1.16s.09.71.13,1.06c.08.8.15,1.6.18,2.39s.06,1.44.06,2.14c0,.27,0,.53,0,.8s0,.6,0,.89,0,.6,0,.9-.05.7-.08,1.06-.06.7-.1,1-.08.6-.11.9c-.09.66-.19,1.3-.31,1.95h0c-1.72,2.21-4.86,4-10.34,5.31-8.16,2-19.29.8-34.76,5.06a53.84,53.84,0,0,0-24.73,15.11h0a42.85,42.85,0,0,1-14.05-21.9c2.19-1.67,10.15-5.73,34.51-3.84a112.29,112.29,0,0,0,23-.3c18-2.36,24.21-9.77,26.27-13.61h0A1.82,1.82,0,0,1,418.36,406.64Z" style="fill:#37474f"></path><path d="M358.4,395.52c.37,1.88-1.55,3.83-4.28,4.35s-5.23-.56-5.6-2.44,1.56-3.82,4.28-4.35S358,393.65,358.4,395.52Z" style="fill:#263238"></path><path d="M350.11,404.94c.2,1.06-1,2.17-2.6,2.49s-3.13-.28-3.33-1.34.95-2.17,2.59-2.49S349.9,403.89,350.11,404.94Z" style="fill:#263238"></path><path d="M407.54,429.57c.31,1.6-1.38,3.27-3.76,3.74s-4.58-.47-4.89-2.07,1.37-3.28,3.76-3.74S407.23,428,407.54,429.57Z" style="fill:#263238"></path><path d="M401.85,435.28c.17.85-.61,1.72-1.74,1.94a1.87,1.87,0,0,1-2.33-1.15c-.17-.85.61-1.72,1.74-1.94A1.87,1.87,0,0,1,401.85,435.28Z" style="fill:#263238"></path><path d="M398.54,432.72c.1.51-.4,1-1.12,1.18s-1.38-.17-1.48-.68.4-1,1.12-1.18S398.44,432.21,398.54,432.72Z" style="fill:#263238"></path><path d="M376.35,447.84c.28,1.44-1,2.9-3,3.27s-3.68-.5-4-1.93,1-2.89,2.95-3.26S376.08,446.41,376.35,447.84Z" style="fill:#263238"></path><path d="M373.89,442.43a1.71,1.71,0,1,1-1.95-1.16A1.6,1.6,0,0,1,373.89,442.43Z" style="fill:#263238"></path><path d="M418.84,411.25a346.49,346.49,0,0,1-36.64,16.83,342.87,342.87,0,0,1-39.21,13c-20.61,5.36-35.3,6.29-37.19,1.5s9.19-14.09,27.36-24.08c.12,1,.28,2,.47,3l.24,1.14c-9.22,5.86-14.34,10.93-13.19,13.85s8.58,3.14,19.59,1c10.78-2.08,25-6.36,40.23-12.37s28.57-12.64,37.86-18.51c9.46-5.95,14.73-11.13,13.56-14.09s-8.33-3.11-19-1.11a39.26,39.26,0,0,0-2.42-3.66c20.51-5.31,35.53-6.12,37.42-1.34S438.08,400.88,418.84,411.25Z" style="fill:#263238"></path><path d="M418.86,415.07a383.2,383.2,0,0,1-35.81,16.44h0A380.06,380.06,0,0,1,346,444.31c-28.14,8-49.06,9.59-51.78,2.82s13.19-19.8,38.63-33.31c0,.66,0,1.33.08,2-21.11,11.64-34,22.68-31.68,28.49s19.63,4.87,43.31-1.47A359.42,359.42,0,0,0,418.89,413c21.4-11.74,34.49-22.91,32.14-28.76s-19.17-4.89-42.38,1.23c-.43-.51-.88-1-1.34-1.5,27.63-7.77,48.08-9.23,50.76-2.54S444.64,401.45,418.86,415.07Z" style="fill:#37474f"></path></g><g id="freepik--Character--inject-26"><path d="M194.2,208.66a44.5,44.5,0,0,1-12.75-4c-19.36-9.4-21.44-32.18-23.64-56.3-2-22.22-4.13-45.19-19.67-59.06-32.35-28.84-83.35-7.81-83.86-7.59l-4.19-9.88a124.34,124.34,0,0,1,33.06-8c25-2.52,46.52,3.5,62.12,17.42,18.71,16.68,21.11,42.93,23.22,66.09,2,21.93,3.73,40.87,17.64,47.62,29.16,14.15,48.44-21.19,49.24-22.7l9.48,5a77.22,77.22,0,0,1-16.57,20.32C217.57,206.71,206,210.43,194.2,208.66Z" style="fill:#A365DB"></path><path d="M194.2,208.66a44.5,44.5,0,0,1-12.75-4c-19.36-9.4-21.44-32.18-23.64-56.3-2-22.22-4.13-45.19-19.67-59.06-32.35-28.84-83.35-7.81-83.86-7.59l-4.19-9.88a124.34,124.34,0,0,1,33.06-8c25-2.52,46.52,3.5,62.12,17.42,18.71,16.68,21.11,42.93,23.22,66.09,2,21.93,3.73,40.87,17.64,47.62,29.16,14.15,48.44-21.19,49.24-22.7l9.48,5a77.22,77.22,0,0,1-16.57,20.32C217.57,206.71,206,210.43,194.2,208.66Z" style="opacity:0.1"></path><path d="M244.85,177.29a77.09,77.09,0,0,1-16.57,20.31c-6.44,5.48-13.2,9-20.13,10.56L196.08,198c23.52,3.15,38.58-24.45,39.3-25.77Z" style="opacity:0.1"></path><path d="M278.67,229.5c-.95.56-57.57-18.31-60-20.06a1.59,1.59,0,0,1-.31-.29c-2.77-2.73-13.24-22-14-23.51-1.84-3.85,55.21-51.93,65.82-56.39,2.66-1.12,37.51,11.34,42.73,16.4,2.24,2.17,6.45,10.95,6.22,12.15h0C318.76,159.52,279.63,228.94,278.67,229.5Z" style="fill:#A365DB"></path><path d="M278.67,229.5c-.95.56-57.57-18.31-60-20.06a1.59,1.59,0,0,1-.31-.29c-2.77-2.73-13.24-22-14-23.51-1.84-3.85,55.21-51.93,65.82-56.39,2.66-1.12,37.51,11.34,42.73,16.4,2.24,2.17,6.45,10.95,6.22,12.15h0C318.76,159.52,279.63,228.94,278.67,229.5Z" style="opacity:0.1"></path><path d="M278.67,229.5c-.95.56-57.57-18.31-60-20.06a1.59,1.59,0,0,1-.31-.29c10.24-11.85,58.36-67.42,59.22-67.56s33.84,12.65,41.56,16.22C318.76,159.52,279.63,228.94,278.67,229.5Z" style="opacity:0.1"></path><path d="M196.48,344.63l-45.12,22.73c-8.64,4.29-16.14,8.22-19.83,10.61a.09.09,0,0,0-.06,0c-1.4.9-2.24,1.57-2.36,2l0,.08c-.46,3.44,31.87,73.53,33.82,75.59s8-3.33,8.91-7.05.53-36.1.53-36.1l44.85-23.13Z" style="fill:#455a64"></path><path d="M122.25,383l1.61,3.65a3.8,3.8,0,0,1,1.31-.23,3.9,3.9,0,0,1,1.83,7.34l1.45,3.32a3.82,3.82,0,0,1,1.36-.25,3.89,3.89,0,0,1,1.78,7.35l1.46,3.33a3.55,3.55,0,0,1,1.39-.27,3.89,3.89,0,0,1,3.89,3.89,3.85,3.85,0,0,1-2.15,3.48l1.46,3.31a4.06,4.06,0,0,1,1.45-.27,3.89,3.89,0,0,1,1.69,7.4l1.46,3.31a3.84,3.84,0,0,1,1.48-.3,3.89,3.89,0,0,1,1.65,7.42l1.46,3.31a3.58,3.58,0,0,1,1.52-.32,3.9,3.9,0,0,1,1.62,7.44l1.46,3.32a3.64,3.64,0,0,1,1.57-.35,3.9,3.9,0,0,1,1.57,7.46l1.37,3.12,7-3.79L129.11,380Z" style="fill:#37474f"></path><path d="M144.47,373.18a16.37,16.37,0,0,1,1.62,13.09c-1.18,3.56-3.52,7.36-7.28,9.3-.11.06-.22-.14-.12-.21,6.4-4.92,9-14.69,5.56-22.06A.13.13,0,0,1,144.47,373.18Z" style="fill:#37474f"></path><path d="M153.72,369.74c2.88,4.77,5.37,9.78,7.8,14.79s4.78,9.94,7.13,14.93c1.34,2.86,2.68,5.73,3.86,8.66a.16.16,0,0,1-.29.14c-2.81-4.81-5.27-9.84-7.79-14.8s-5-9.85-7.34-14.83c-1.37-2.86-2.65-5.74-3.8-8.69A.24.24,0,0,1,153.72,369.74Z" style="fill:#37474f"></path><path d="M157.88,368.33c2.89,4.77,5.37,9.78,7.8,14.8s4.78,9.94,7.13,14.93c1.34,2.86,2.68,5.73,3.86,8.65a.16.16,0,0,1-.29.14c-2.81-4.81-5.27-9.84-7.79-14.8s-5-9.85-7.34-14.83c-1.36-2.86-2.65-5.74-3.8-8.69A.24.24,0,0,1,157.88,368.33Z" style="fill:#37474f"></path><path d="M164.81,360.58l23.33,43.76s7,1.51,15.68-2.51c19.21-8.87,51.37-29.51,67.45-45.36C287.89,340.08,304.2,225.2,304.2,225.2L265,202.58s-20.36,108.33-27.84,116.15c-6.75,7.06-45.89,22.51-64.34,32.17A16.53,16.53,0,0,0,164.81,360.58Z" style="fill:#A365DB"></path><path d="M173.21,360.06c3.07,4.66,5.75,9.56,8.38,14.48s5.16,9.74,7.7,14.64c1.46,2.8,2.91,5.62,4.21,8.49a.17.17,0,0,1-.29.16c-3-4.7-5.65-9.63-8.37-14.49s-5.35-9.65-7.92-14.53c-1.47-2.8-2.87-5.63-4.13-8.53A.24.24,0,0,1,173.21,360.06Z" style="fill:#263238"></path><path d="M251.64,268.16l52.56-43L265,202.58S258.6,236.8,251.64,268.16Z" style="opacity:0.1"></path><path d="M260.8,339.2a9.27,9.27,0,0,1-4.14-.38,19.56,19.56,0,0,1-3.85-1.64,31.21,31.21,0,0,1-6.57-5c-1-1-1.88-2-2.77-3s-1.7-2.13-2.45-3.26-1.46-2.29-2.11-3.47-1.23-2.43-1.72-3.71a39.39,39.39,0,0,1,3,2.76c.94.95,1.92,1.86,2.81,2.82s1.86,1.86,2.75,2.82l1.39,1.38c.46.46.89.95,1.37,1.38,1.85,1.82,3.74,3.56,5.72,5.19A23.49,23.49,0,0,0,260.8,339.2Z" style="opacity:0.1"></path><ellipse cx="268.93" cy="344.82" rx="18.38" ry="13.04" transform="translate(-157.89 439.92) rotate(-64.61)" style="fill:#A365DB"></ellipse><ellipse cx="268.93" cy="344.82" rx="18.38" ry="13.04" transform="translate(-157.89 439.92) rotate(-64.61)" style="opacity:0.1"></ellipse><path d="M187.77,245.91l-11.92-49.09c-2.23-9.39-4.35-17.59-5.84-21.72,0,0,0,0,0-.07a6.82,6.82,0,0,0-1.38-2.74s0,0-.07,0c-3.24-1.23-78.83,14.38-81.28,15.82s1.43,8.53,4.85,10.27,35,8.69,35,8.69L139.51,256Z" style="fill:#455a64"></path><path d="M167.23,164.93l-3.92.74a3.75,3.75,0,0,1-.06,1.33,3.9,3.9,0,0,1-7.57.11l-3.56.67a3.79,3.79,0,0,1-.07,1.38,3.89,3.89,0,0,1-7.56.07l-3.57.66a3.79,3.79,0,0,1,0,1.42,3.9,3.9,0,0,1-4.68,2.91,3.83,3.83,0,0,1-2.89-2.88l-3.56.67a4.08,4.08,0,0,1-.07,1.47,3.89,3.89,0,0,1-7.58,0l-3.56.67a3.89,3.89,0,0,1-4.72,4.42,3.91,3.91,0,0,1-2.93-3l-3.55.68a3.69,3.69,0,0,1,0,1.55,3.9,3.9,0,0,1-7.62-.11l-3.56.67a3.65,3.65,0,0,1,0,1.61,3.89,3.89,0,0,1-7.62-.16l-3.35.63,2.11,7.63,81.36-15.77Z" style="fill:#37474f"></path><path d="M171.74,188.79a16.37,16.37,0,0,1-13.12-1.39c-3.2-2-6.37-5.09-7.41-9.2,0-.11.19-.18.24-.06,3.34,7.34,12.27,12.06,20.22,10.41A.13.13,0,0,1,171.74,188.79Z" style="fill:#37474f"></path><path d="M173,198.58c-5.3,1.73-10.74,3-16.18,4.24s-10.76,2.41-16.16,3.56c-3.08.66-6.18,1.32-9.3,1.81a.16.16,0,0,1-.07-.32c5.32-1.65,10.77-2.9,16.18-4.24s10.72-2.61,16.11-3.79c3.09-.68,6.18-1.28,9.32-1.72A.24.24,0,0,1,173,198.58Z" style="fill:#37474f"></path><path d="M173.43,203c-5.31,1.73-10.75,3-16.18,4.24s-10.77,2.41-16.16,3.56c-3.09.66-6.19,1.32-9.31,1.81a.16.16,0,0,1-.06-.32c5.32-1.65,10.77-2.9,16.17-4.23s10.73-2.61,16.11-3.8c3.1-.67,6.19-1.27,9.33-1.72A.24.24,0,0,1,173.43,203Z" style="fill:#37474f"></path><path d="M304.26,225.23s-10.86,11.9-20.08,21.25c-6.73,6.84-12.95,12.66-14.6,12.69-1.87,0-10.38-.9-13.2-1.27,0,0-41.94,46.14-63.47,57.3-7.37,3.82-30.52-.1-37.22-11.42-10.87-18.37-21.9-46.13-25.93-63.59-1.8-7.79.05-16.21.05-16.21l49.59-13.7s5.36,8.93,7,14.54c2.42,8.47,4.59,34.41,4.59,34.41,13.41-9.58,26.47-27.28,26.47-27.28s3.86-20.56,28-40.75Z" style="fill:#A365DB"></path><path d="M269.53,258.92a109.54,109.54,0,0,0-19-1.46.2.2,0,0,0,0,.39c6.29.67,12.63,1.5,18.94,1.83A.38.38,0,0,0,269.53,258.92Z" style="fill:#263238"></path><path d="M290.7,225.07c.08-.19-.21-.4-.31-.21A193.26,193.26,0,0,1,280,241.31c-1.7,2.48-11.92,15.71-15.85,12.12-.66-.61-.62-1.57-.1-2.78.63-1.45,2.09-2.84,3.09-4.08,2.2-2.74,4.31-5.54,6.28-8.44A94.74,94.74,0,0,0,282.85,221a.17.17,0,0,0-.3-.15,178.74,178.74,0,0,1-14.62,22.77c-2.68,3.43-7.75,8-4.15,10.8s11.57-5.17,13.52-7.48A99.25,99.25,0,0,0,290.7,225.07Z" style="fill:#263238"></path><path d="M264.07,253.88a28.1,28.1,0,0,0-2.7,2.42,7.85,7.85,0,0,0-1.8,2.22c-.07.17.13.3.28.24a9.87,9.87,0,0,0,2.39-1.8c.87-.73,1.75-1.44,2.59-2.2A.58.58,0,0,0,264.07,253.88Z" style="fill:#263238"></path><path d="M136.76,230.07c5.18-1.79,10.51-3.14,15.84-4.44s10.54-2.54,15.83-3.76c3-.7,6.06-1.4,9.12-1.93a.17.17,0,0,1,.08.32c-5.21,1.72-10.55,3-15.84,4.44s-10.5,2.74-15.79,4c-3,.72-6.06,1.36-9.14,1.84A.24.24,0,0,1,136.76,230.07Z" style="fill:#263238"></path><path d="M183.14,297.2a10.49,10.49,0,0,1-1.5-4.83c-.1-.84-.1-1.68-.15-2.53s0-1.68.08-2.52a52.55,52.55,0,0,1,1.68-9.85,71.11,71.11,0,0,1,3.2-9.39,59.85,59.85,0,0,1,4.5-8.85c-.51,3.3-1.32,6.48-2.11,9.64s-1.64,6.29-2.48,9.41-1.64,6.24-2.31,9.38c-.31,1.56-.64,3.14-.83,4.72A14.43,14.43,0,0,0,183.14,297.2Z" style="opacity:0.1"></path><ellipse cx="181.55" cy="306.94" rx="18.38" ry="13.04" style="fill:#A365DB"></ellipse><ellipse cx="181.55" cy="306.94" rx="18.38" ry="13.04" style="opacity:0.1"></ellipse><path d="M302.93,165.7c29.4,11.7,52.93,16.43,62.23,13.72,8.14-2.38,31.36-12.37,42.66-23.2,3.41-3.26-12-25.52-16.72-23.75s-28.38,15.07-34.56,17.26c-3.51,1.24-41.77,2.67-50.47,2.82C291.55,152.81,289.88,160.51,302.93,165.7Z" style="fill:#f7a9a0"></path><path d="M423.09,141.39c-1.07,1.64-.22,2.22,3.08,1.09s15.37-8.36,17.54-3.93-15,14.39-20.65,15.84-15.24,1.83-15.24,1.83C410.78,153.61,417.35,146.59,423.09,141.39Z" style="fill:#455a64"></path><path d="M391.1,132.47c8.6-7,18.87-16.35,31.27-18.29a6.21,6.21,0,0,1,4,.62c5.54-1,7.66,1.36,7.66,1.36,5.44.68,7.28,3.36,7.28,3.36s6.51-1.06,7.81,2.77c1.47,4.3-8,4.95-12.95,8.48-11.39,8.09-25.31,22.79-28.37,25.45Z" style="fill:#455a64"></path><path d="M418.3,130.86a90.32,90.32,0,0,1,10.37-6.52,89.67,89.67,0,0,1,12.58-4.68.11.11,0,0,0-.05-.21,47.55,47.55,0,0,0-23,11.26C418,130.84,418.12,131,418.3,130.86Z" style="fill:#263238"></path><path d="M412.41,124.7c3.43-2.07,9.49-5.67,21.67-8.41,0,0,0-.07,0-.07a42.55,42.55,0,0,0-21.76,8.32C412.11,124.68,412.18,124.84,412.41,124.7Z" style="fill:#263238"></path><path d="M409.31,121.33c6-3.3,10.15-4.62,17.06-6.49,0,0,0-.08,0-.08-8.08,1.3-10.86,2.69-17.19,6.38C409,121.26,409.08,121.46,409.31,121.33Z" style="fill:#263238"></path><path d="M391.1,132.47l16.72,23.75a17.14,17.14,0,0,1-4.76,8.35c-3.92,3.79-34.48,16.45-43.94,16.59S312.7,172,299.46,165.3s-6.15-12.5,3.55-13.16,50.29-3,52.62-3.57,21.58-12.72,25.66-14.84S391.1,132.47,391.1,132.47Z" style="fill:#A365DB"></path><path d="M299.46,165.3c9.59,4.85,31.61,11.06,46.62,14.08l-44.17-27.15C292.8,153.25,286.73,158.86,299.46,165.3Z" style="opacity:0.1"></path><path d="M384.8,135.23c2.52,3.23,4.87,6.59,7.2,10s4.59,6.68,6.87,10c1.3,1.91,2.61,3.84,3.84,5.8.09.13,0,.2-.12.08-2.49-3.24-4.83-6.62-7.2-10s-4.67-6.63-7-10c-1.31-1.92-2.59-3.85-3.81-5.83C384.5,135.16,384.67,135.06,384.8,135.23Z" style="opacity:0.1"></path><path d="M304.2,225.2l-58.8-34a13.5,13.5,0,0,1,1.95-10c7.47-12.21,25.36-32.31,41.34-39.71,11.52-5.32,20.58-.81,24,7.68.87,2.15,9.33,30.09,8.28,40.05-1.11,10.54-6.23,23.6-10.83,30.76A16.13,16.13,0,0,1,304.2,225.2Z" style="fill:#A365DB"></path><path d="M303.73,228.78c.87.13,3.47-4.67,3.23-5.37s-61.33-35.68-61.78-35.76-3.42,5.82-2.88,6.25S302.57,228.6,303.73,228.78Z" style="fill:#A365DB"></path><path d="M303.73,228.78c.87.13,3.47-4.67,3.23-5.37s-61.33-35.68-61.78-35.76-3.42,5.82-2.88,6.25S302.57,228.6,303.73,228.78Z" style="opacity:0.1"></path><polygon points="291.84 189.35 321.45 195.58 322.11 169.34 292.5 163.11 291.84 189.35" style="fill:#A365DB"></polygon><polygon points="291.84 189.35 321.45 195.58 322.11 169.34 292.5 163.11 291.84 189.35" style="opacity:0.2"></polygon><polygon points="291.84 189.35 295.59 190.14 296.25 163.9 292.5 163.11 291.84 189.35" style="opacity:0.1"></polygon><path d="M316.88,174.4a2,2,0,0,0,1.47,2,1.31,1.31,0,0,0,1.56-1.37,2,2,0,0,0-1.48-2A1.3,1.3,0,0,0,316.88,174.4Z" style="opacity:0.1"></path><path d="M316.74,180a2,2,0,0,0,1.47,2,1.3,1.3,0,0,0,1.56-1.37,2,2,0,0,0-1.47-2A1.3,1.3,0,0,0,316.74,180Z" style="opacity:0.1"></path><path d="M316.6,185.5a2,2,0,0,0,1.47,2,1.31,1.31,0,0,0,1.56-1.38,2,2,0,0,0-1.47-2A1.3,1.3,0,0,0,316.6,185.5Z" style="opacity:0.1"></path><path d="M312.16,173.41a2,2,0,0,0,1.47,2,1.3,1.3,0,0,0,1.56-1.37,2,2,0,0,0-1.47-2A1.31,1.31,0,0,0,312.16,173.41Z" style="opacity:0.1"></path><path d="M312,179a2,2,0,0,0,1.47,2,1.3,1.3,0,0,0,1.56-1.37,2,2,0,0,0-1.47-2A1.3,1.3,0,0,0,312,179Z" style="opacity:0.1"></path><path d="M311.88,184.51a2,2,0,0,0,1.48,2,1.29,1.29,0,0,0,1.55-1.37,2,2,0,0,0-1.47-2A1.31,1.31,0,0,0,311.88,184.51Z" style="opacity:0.1"></path><path d="M307.44,172.42a2,2,0,0,0,1.48,2,1.32,1.32,0,0,0,1.56-1.38,2,2,0,0,0-1.48-2A1.32,1.32,0,0,0,307.44,172.42Z" style="opacity:0.1"></path><path d="M307.31,178a2,2,0,0,0,1.47,2,1.31,1.31,0,0,0,1.56-1.37,2,2,0,0,0-1.48-2A1.3,1.3,0,0,0,307.31,178Z" style="opacity:0.1"></path><path d="M307.17,183.52a2,2,0,0,0,1.47,2,1.31,1.31,0,0,0,1.56-1.37,2,2,0,0,0-1.48-2A1.29,1.29,0,0,0,307.17,183.52Z" style="opacity:0.1"></path><path d="M317.33,95.94c1.12.33,6.21.56,8.81,5.64,2.47,4.8,1.47,18,1.69,21s3.88,4,4.23,7.43c.3,3-1.94,3.68-2.49,5.73-.42,1.59.81,4.28-1.05,6.44-1.69,2-4,1.12-5.51,1.57s-3,3.61-5.74,4.08-4.73-2.32-6.14-2.53-3.75,3.82-8.26,2.71-5.21-5.19-7-6.26-6.71-.51-8.5-3.22-1.65-5.91-2.43-7.23-2.86-1.46-3.64-4.33,2-4.18,2.72-6.45c.5-1.59-.7-3.31.71-5.62,1.94-3.18,6-1.78,8.14-5,1.69-2.54,6.18-14,13.86-15.83C312.05,92.83,317.33,95.94,317.33,95.94Z" style="fill:#263238"></path><path d="M327.8,121.88a4.25,4.25,0,0,0,1,1.73l1.29,1.52a12.65,12.65,0,0,1,2.18,3.21,4,4,0,0,1-.12,3.54,5.79,5.79,0,0,1-1.21,1.43,7.35,7.35,0,0,0-1.41,1.55,3.46,3.46,0,0,0-.16,2.18c.11.67.25,1.31.33,2a4.75,4.75,0,0,1-.69,3.57,2.68,2.68,0,0,1-1.45,1,5,5,0,0,1-1.89.11c-.65-.06-1.3-.19-2-.28a3.3,3.3,0,0,0-2,.12,3.62,3.62,0,0,1,1.93.07c.65.15,1.29.34,1.95.45a5.29,5.29,0,0,0,2.06,0,3.27,3.27,0,0,0,1.79-1.14,5.1,5.1,0,0,0,.92-4c-.07-.68-.21-1.33-.3-2a2.76,2.76,0,0,1,.11-1.71c.56-1,1.89-1.72,2.55-3a4.43,4.43,0,0,0,0-4.11,12.78,12.78,0,0,0-2.44-3.22l-1.41-1.4A4.68,4.68,0,0,1,327.8,121.88Z" style="fill:#263238"></path><path d="M299,99.71a59.86,59.86,0,0,0-4,5.88c-.66,1-1.29,2-2,2.9a8.54,8.54,0,0,1-1.16,1.23,1.13,1.13,0,0,1-.31.21,1.27,1.27,0,0,1-.35.16c-.27.09-.55.16-.83.23a33.37,33.37,0,0,0-3.46,1,6.14,6.14,0,0,0-3,2.16,3.82,3.82,0,0,0-.66,1.78,5,5,0,0,0,.26,1.83,7.77,7.77,0,0,1,.57,3.46,7.36,7.36,0,0,0-.21-3.55,4.65,4.65,0,0,1-.14-1.69,3.28,3.28,0,0,1,.66-1.49A5.91,5.91,0,0,1,287.1,112c1.09-.39,2.24-.6,3.41-.89.29-.08.59-.17.88-.27a2.56,2.56,0,0,0,.87-.51,8.42,8.42,0,0,0,1.25-1.37,30.48,30.48,0,0,0,2-3l1.74-3.11A32.41,32.41,0,0,1,299,99.71Z" style="fill:#263238"></path><path d="M284,130.34a6.21,6.21,0,0,1,.37,2.47c.05.85.09,1.7.18,2.56a12.71,12.71,0,0,0,.49,2.56,5.59,5.59,0,0,0,1.34,2.34,7.07,7.07,0,0,0,5,1.43c.86,0,1.7-.08,2.54-.09a5.31,5.31,0,0,1,2.46.41,4.89,4.89,0,0,0-2.44-.78c-.86-.07-1.71-.07-2.55-.12-1.65-.09-3.39-.34-4.53-1.4a5,5,0,0,1-1.18-2,15.73,15.73,0,0,1-.6-2.41c-.15-.83-.26-1.67-.38-2.51-.07-.43-.14-.85-.24-1.27A2.5,2.5,0,0,0,284,130.34Z" style="fill:#263238"></path><path d="M298.06,144.6c.08,1.28,4.58,10.28,10.25,11,1.84.23,3.53-9.8,3.53-9.8l.29-.71,4.11-10-10.83-9.91-1.58-1.34s-.95,2.8-2.09,6.3l-.16.5c-.07.19-.14.38-.19.56-.18.52-.36,1.06-.52,1.59s-.26.8-.38,1.23l-.38,1.28A70.19,70.19,0,0,0,298.06,144.6Z" style="fill:#f7a9a0"></path><path d="M316.24,135.1l-3.94,9.58a23.08,23.08,0,0,1-10.88-13.54l.32-1c1.15-3.49,2.09-6.29,2.09-6.29l1.58,1.32Z" style="fill:#263238"></path><path d="M332.31,120.86c-1.17,18.88-12.61,20.31-16.68,20-3.69-.23-16.25-1.49-17-20.39S307,96.2,315.43,96.28,333.48,102,332.31,120.86Z" style="fill:#f7a9a0"></path><path d="M299.32,120c3,.66,4.62-5.67,4.62-5.67s6.23.87,9.52-7.8a13.9,13.9,0,0,1-3.78,7s11.15.35,17-8.21c0,0-2.49,4.43-4.45,5.86,0,0,4.78-.65,7.54-4.08,0,0,1.2,5.57,2.48,7.24,0,0,2.19-19.29-15.9-19.69,0,0-11.25-.8-16.47,7.48S299.32,120,299.32,120Z" style="fill:#263238"></path><path d="M301.51,122.15s-3.21-6.44-6.08-5.38-1.06,10,1.87,11.6a3.21,3.21,0,0,0,4.5-1.07Z" style="fill:#f7a9a0"></path><path d="M296,119.31a0,0,0,0,0,0,.08c2,1.21,2.9,3.4,3.39,5.62a1.77,1.77,0,0,0-2.54-.87.07.07,0,0,0,0,.13,2,2,0,0,1,2,1,9.61,9.61,0,0,1,.76,1.88c.08.21.44.16.4-.07V127C300.53,124.25,299,120,296,119.31Z" style="fill:#263238"></path><path d="M299.58,127.84a.94.94,0,0,1-1.06.79.93.93,0,0,1-.79-1,.93.93,0,1,1,1.85.26Z" style="fill:#fff"></path><path d="M329.09,116.55a10.28,10.28,0,0,1-1.22-.41,2.06,2.06,0,0,1-1.17-.64.67.67,0,0,1,.09-.81,1.65,1.65,0,0,1,1.65-.2,2.36,2.36,0,0,1,1.41,1A.71.71,0,0,1,329.09,116.55Z" style="fill:#263238"></path><path d="M316.82,116.2c.43-.09.81-.25,1.23-.38a2.09,2.09,0,0,0,1.18-.62.66.66,0,0,0-.08-.81,1.66,1.66,0,0,0-1.64-.24,2.4,2.4,0,0,0-1.44,1A.71.71,0,0,0,316.82,116.2Z" style="fill:#263238"></path><path d="M319,120.22s-.11,0-.11.1c-.07,1.27-.36,2.7-1.54,3,0,0,0,.08,0,.08C318.78,123.34,319.15,121.43,319,120.22Z" style="fill:#263238"></path><path d="M318,118.8c-2-.33-2.54,3.73-.67,4S319.7,119.08,318,118.8Z" style="fill:#263238"></path><path d="M317.18,118.91c-.38.19-.78.55-1.21.54s-.82-.49-1.09-.94c0-.05-.07,0-.08,0a1.49,1.49,0,0,0,.91,1.83c.74.2,1.38-.41,1.67-1.17C317.44,119.07,317.34,118.84,317.18,118.91Z" style="fill:#263238"></path><path d="M326.22,120.63s.09.07.08.12c-.21,1.25-.24,2.72.84,3.29,0,0,0,.08,0,.07C325.76,123.73,325.82,121.78,326.22,120.63Z" style="fill:#263238"></path><path d="M327.51,119.47c2.05.12,1.66,4.19-.23,4.08S325.8,119.37,327.51,119.47Z" style="fill:#263238"></path><path d="M328.34,119.81c.3.25.58.67,1,.74s.82-.34,1.14-.74c0,0,.06,0,.06,0-.05.78-.39,1.57-1.15,1.65s-1.13-.65-1.24-1.44C328.09,119.92,328.22,119.72,328.34,119.81Z" style="fill:#263238"></path><path d="M317.88,130.49c.25.35.48.8.93.92a3.43,3.43,0,0,0,1.39-.08c.05,0,.08,0,.05.07a1.73,1.73,0,0,1-1.71.4,1.35,1.35,0,0,1-.79-1.27A.07.07,0,0,1,317.88,130.49Z" style="fill:#263238"></path><path d="M323.83,126.3s.05,1.91-.05,2.8c0,.08-.23.1-.54.08h0a4.26,4.26,0,0,1-3.92-2.05c-.05-.09.08-.17.15-.11a6.34,6.34,0,0,0,3.72,1.55c.09-.24-.18-3.27,0-3.26a7.33,7.33,0,0,1,2,.69c0-4-.58-7.94-.5-11.91a.12.12,0,0,1,.24,0,64.29,64.29,0,0,1,1.09,12.8C325.92,127.37,324.17,126.5,323.83,126.3Z" style="fill:#263238"></path><path d="M322.88,129a4.92,4.92,0,0,1-2.13,1.31,2.35,2.35,0,0,1-1.36-.06c-.94-.36-.87-1.26-.61-2a5.87,5.87,0,0,1,.56-1.12A6.45,6.45,0,0,0,322.88,129Z" style="fill:#263238"></path><path d="M320.75,130.31a2.35,2.35,0,0,1-1.36-.06c-.94-.36-.87-1.26-.61-2A2.31,2.31,0,0,1,320.75,130.31Z" style="fill:#ff98b9"></path><path d="M290,143.53a9.37,9.37,0,0,0,1.39,4.79c2.83,4.67,10.43,8.46,18,7.54,4.81-.59,7.78-2.53,9.28-5A35.3,35.3,0,0,1,290,143.53Z" style="fill:#455a64"></path><path d="M283.49,137.28c8.58,14.65,33.54,21.13,49.26,7.91,11.1-9.36,16-28.65,7.64-44.7C328.25,77.28,303.71,79.67,290,91,275.59,102.94,277,126.16,283.49,137.28Zm16.74-37.09c11.07-8.15,30.94-8.64,40.6,7.87A24.72,24.72,0,0,1,334.44,140c-12.74,9.55-32.81,5.06-39.66-5.37C289.59,126.72,288.52,108.81,300.23,100.19Z" style="fill:#A365DB"></path><path d="M294.78,134.62c6.85,10.43,26.92,14.92,39.66,5.37a24.72,24.72,0,0,0,6.39-31.93c-9.66-16.51-29.53-16-40.6-7.87C288.52,108.81,289.59,126.72,294.78,134.62Z" style="fill:#455a64;opacity:0.1"></path><path d="M294.78,134.62c6.85,10.43,26.92,14.92,39.66,5.37a24.72,24.72,0,0,0,6.39-31.93c-9.66-16.51-29.53-16-40.6-7.87C288.52,108.81,289.59,126.72,294.78,134.62Z" style="fill:#455a64;opacity:0.1"></path><g style="opacity:0.2"><path d="M318.59,94.69a183.52,183.52,0,0,1,24.83,31.48,24,24,0,0,0,.31-10.28A187.38,187.38,0,0,0,328.68,97,27.12,27.12,0,0,0,318.59,94.69Z" style="fill:#fff"></path><path d="M291.4,125a24.41,24.41,0,0,0,3.38,9.64,22.26,22.26,0,0,0,9,7.49A147.41,147.41,0,0,0,291.4,125Z" style="fill:#fff"></path><path d="M313.07,95a178.61,178.61,0,0,1,28.47,36.34c.19-.37.36-.74.52-1.12a180.64,180.64,0,0,0-27.77-35.38Z" style="fill:#fff"></path><path d="M291.93,113.05a156.61,156.61,0,0,1,23.9,32.13c.38,0,.76,0,1.15,0A157.71,157.71,0,0,0,292.2,112C292.1,112.36,292,112.7,291.93,113.05Z" style="fill:#fff"></path><path d="M291.06,120.09c0,.48,0,.94,0,1.41a152.6,152.6,0,0,1,16,21.95c.45.16.9.31,1.36.44A152.12,152.12,0,0,0,291.06,120.09Z" style="fill:#fff"></path><path d="M295.7,104.75a163.83,163.83,0,0,1,30,39.46,25.62,25.62,0,0,0,3.39-1.17,166.67,166.67,0,0,0-31.22-40.81A22.3,22.3,0,0,0,295.7,104.75Z" style="fill:#fff"></path></g><path d="M274.59,124.59c-1.64-4-1.67-12.28,2.51-16.22,4-3.72,10.79-4.09,13.81,4.35,2.08,5.83.43,12.54-2.79,15.63C283.56,132.72,276.75,129.94,274.59,124.59Z" style="fill:#A365DB"></path><path d="M274.59,124.59c-1.64-4-1.67-12.28,2.51-16.22,4-3.72,10.79-4.09,13.81,4.35,2.08,5.83.43,12.54-2.79,15.63C283.56,132.72,276.75,129.94,274.59,124.59Z" style="opacity:0.1"></path><path d="M273.33,123.12c-1.26-3.12-1.28-9.44,1.93-12.47,3-2.86,8.29-3.14,10.61,3.34,1.6,4.48.33,9.64-2.15,12C280.23,129.36,275,127.22,273.33,123.12Z" style="fill:#A365DB"></path><path d="M281.36,157.88c4.18,24.86,24,57,30.6,64.24,10.05,11.07,56.18-.8,65.58-2.6,4-.76-8.35-35.75-12.65-35-3.75.64-39,11-40.05,9.76-.85-1-17.89-24-30.11-39.15C284.19,142.06,280.26,151.3,281.36,157.88Z" style="fill:#f7a9a0"></path><path d="M356.59,186.63l6.45-1.71a21.93,21.93,0,0,0,5.85-2.7c7.23-4.17,27.51-9.69,45.82,5,7,5.61,6.14,13-2.18,8.45-5.87-3.2-9.66-5.92-11.86-6.43,0,0,4,9.42.86,14.46a109.86,109.86,0,0,1-9.09,12.59,24.14,24.14,0,0,1-2.51-1.49,12.45,12.45,0,0,1-12.39,4.75l-10.39,2.22Z" style="fill:#455a64"></path><path d="M376.42,179.35c4.29.84,13.36,2.79,20.22,7,7.62,4.63,21.06,15.62,17.58,21.21-2.55,4.1-8.05.35-8.05.35s4.59,5.71,1.48,8.91c-2.84,2.92-6.92-.23-6.92-.23s2.19,3.94-1.08,6.22c-3.94,2.75-7.89-6-14.28-6.64C383.93,216,376.42,179.35,376.42,179.35Z" style="fill:#455a64"></path><path d="M390.4,193.55c3.91,1.46,11.93,7,15.78,14.15.08.16,0,.31-.1.18a88.05,88.05,0,0,0-15.72-14.26S390.36,193.54,390.4,193.55Z" style="fill:#263238"></path><path d="M386,201.38c3.24,1.61,11.25,7.74,14.9,15.06.08.17,0,.32-.11.18a93.59,93.59,0,0,0-14.84-15.17S385.9,201.36,386,201.38Z" style="fill:#263238"></path><path d="M356.59,186.63l10.56,35.11s-2.11,4-11.56,5.82-37,2.31-43.35-3.51-23.92-36-30.05-58.33,6.73-20.24,13.47-10.57,29.21,37.72,29.88,38,16.43-5.74,22.14-6.9S356.59,186.63,356.59,186.63Z" style="fill:#A365DB"></path><path d="M321.63,188.56c-1.58-1.61-3.06-3.29-4.53-5s-2.89-3.43-4.3-5.17-2.78-3.51-4.11-5.33l-2-2.72c-.64-.93-1.3-1.84-1.9-2.79.79.8,1.53,1.64,2.3,2.46l2.22,2.53c1.48,1.69,2.89,3.43,4.3,5.17s2.79,3.52,4.11,5.34S320.4,186.68,321.63,188.56Z" style="fill:#263238"></path><path d="M309,172.73a12.24,12.24,0,0,1-1.09-2.13,23.27,23.27,0,0,1-.77-2.27,4.68,4.68,0,0,1,.74,1,9,9,0,0,1,.53,1.08A8.13,8.13,0,0,1,309,172.73Z" style="fill:#263238"></path><path d="M309.47,220.9c-1.36-1.62-2.61-3.34-3.87-5.05s-2.41-3.5-3.57-5.28c-2.31-3.56-4.43-7.24-6.46-11s-3.86-7.57-5.52-11.49a120.25,120.25,0,0,1-4.41-11.94c.88,1.94,1.62,3.92,2.53,5.83s1.71,3.88,2.64,5.77l2.76,5.71c1,1.88,1.91,3.77,2.94,5.61,1.94,3.76,4.07,7.41,6.22,11S307.13,217.37,309.47,220.9Z" style="fill:#263238"></path><path d="M288.35,183.18a11.13,11.13,0,0,1-1.82-1.74,10.6,10.6,0,0,1-1.4-2.09,10.67,10.67,0,0,1,1.81,1.74A10.08,10.08,0,0,1,288.35,183.18Z" style="fill:#263238"></path><path d="M351.45,190.5c1.42,3.83,2.64,7.75,3.83,11.67s2.36,7.76,3.51,11.64c.66,2.23,1.32,4.46,1.9,6.7,0,.15-.09.18-.14,0-1.39-3.85-2.59-7.78-3.84-11.67s-2.44-7.74-3.61-11.62c-.67-2.23-1.3-4.45-1.86-6.71C351.18,190.34,351.37,190.29,351.45,190.5Z" style="opacity:0.1"></path></g><g id="freepik--Stars--inject-26"><polygon points="381.88 337.25 387.39 338.27 388.62 344.08 389.85 338.27 395.36 337.25 389.87 335.91 388.62 330.43 387.36 335.91 381.88 337.25" style="fill:#c7c7c7"></polygon><polygon points="114.28 321.65 119.78 322.67 121.02 328.47 122.25 322.67 127.75 321.64 122.27 320.3 121.02 314.82 119.76 320.3 114.28 321.65" style="fill:#c7c7c7"></polygon><polygon points="325.61 243.82 331.12 244.84 332.35 250.65 333.58 244.84 339.09 243.82 333.61 242.48 332.35 237 331.1 242.48 325.61 243.82" style="fill:#c7c7c7"></polygon><polygon points="434.24 303.07 437.32 303.64 438.01 306.88 438.7 303.64 441.77 303.07 438.71 302.32 438.01 299.25 437.31 302.32 434.24 303.07" style="fill:#c7c7c7"></polygon><polygon points="200.6 426.57 203.68 427.14 204.36 430.38 205.05 427.14 208.13 426.57 205.06 425.82 204.36 422.75 203.66 425.82 200.6 426.57" style="fill:#c7c7c7"></polygon><polygon points="426.71 156.97 429.79 157.54 430.48 160.79 431.16 157.54 434.24 156.97 431.18 156.22 430.48 153.16 429.77 156.22 426.71 156.97" style="fill:#c7c7c7"></polygon><polygon points="63.52 226.78 66.6 227.35 67.29 230.6 67.98 227.35 71.06 226.78 67.99 226.03 67.29 222.97 66.59 226.03 63.52 226.78" style="fill:#c7c7c7"></polygon><polygon points="80.04 391.98 83.12 392.55 83.81 395.79 84.5 392.55 87.57 391.98 84.51 391.23 83.81 388.16 83.11 391.23 80.04 391.98" style="fill:#c7c7c7"></polygon><polygon points="414.83 239.19 417.91 239.75 418.6 243 419.28 239.75 422.36 239.18 419.3 238.44 418.6 235.37 417.89 238.44 414.83 239.19" style="fill:#c7c7c7"></polygon><polygon points="172.92 83.46 176 84.03 176.69 87.27 177.38 84.03 180.46 83.45 177.39 82.7 176.69 79.64 175.99 82.7 172.92 83.46" style="fill:#c7c7c7"></polygon><polygon points="293.45 332.29 296.53 332.86 297.22 336.1 297.91 332.86 300.99 332.29 297.92 331.54 297.22 328.47 296.52 331.54 293.45 332.29" style="fill:#c7c7c7"></polygon><path d="M193.31,433.59a.89.89,0,0,1,0,1.78A.89.89,0,0,1,193.31,433.59Z" style="fill:#c7c7c7"></path><path d="M352.52,266.2a.9.9,0,0,1,0,1.79A.9.9,0,0,1,352.52,266.2Z" style="fill:#c7c7c7"></path><path d="M144,426.89a.9.9,0,0,1,0,1.79A.9.9,0,0,1,144,426.89Z" style="fill:#c7c7c7"></path><path d="M395,277.89a.9.9,0,0,1,0,1.79A.9.9,0,0,1,395,277.89Z" style="fill:#c7c7c7"></path><path d="M215.67,417.54a.63.63,0,0,1,0,1.26A.63.63,0,0,1,215.67,417.54Z" style="fill:#c7c7c7"></path><path d="M89.59,89.71a.63.63,0,0,1,0,1.26A.63.63,0,0,1,89.59,89.71Z" style="fill:#c7c7c7"></path><path d="M333.09,292.64a.63.63,0,0,1,0,1.26A.63.63,0,0,1,333.09,292.64Z" style="fill:#c7c7c7"></path><path d="M311.69,281.16a1.72,1.72,0,0,1,0,3.43A1.72,1.72,0,0,1,311.69,281.16Z" style="fill:#c7c7c7"></path><polygon points="186.4 147.26 191.91 148.28 193.14 154.08 194.37 148.28 199.88 147.25 194.39 145.91 193.14 140.43 191.88 145.91 186.4 147.26" style="fill:#c7c7c7"></polygon><polygon points="245.11 58.08 248.19 58.65 248.88 61.9 249.57 58.65 252.65 58.08 249.58 57.33 248.88 54.27 248.18 57.33 245.11 58.08" style="fill:#c7c7c7"></polygon><path d="M58.47,141.39a.9.9,0,0,1,0,1.79A.9.9,0,0,1,58.47,141.39Z" style="fill:#c7c7c7"></path><path d="M72.49,378.09a.89.89,0,0,1,0,1.78A.89.89,0,0,1,72.49,378.09Z" style="fill:#c7c7c7"></path><path d="M94,216.21A.89.89,0,0,1,94,218,.89.89,0,0,1,94,216.21Z" style="fill:#c7c7c7"></path><path d="M129.34,335.54a.63.63,0,0,1,0,1.26A.63.63,0,0,1,129.34,335.54Z" style="fill:#c7c7c7"></path><path d="M262.52,416.47a.63.63,0,0,1,0,1.26A.63.63,0,0,1,262.52,416.47Z" style="fill:#c7c7c7"></path><path d="M356.29,127.62a.63.63,0,0,1,0,1.26A.63.63,0,0,1,356.29,127.62Z" style="fill:#c7c7c7"></path><path d="M242.23,89a.63.63,0,0,1,0,1.26A.63.63,0,0,1,242.23,89Z" style="fill:#c7c7c7"></path><path d="M204.37,313.11a1.71,1.71,0,0,1,0,3.42A1.71,1.71,0,0,1,204.37,313.11Z" style="fill:#c7c7c7"></path><path d="M429.72,183.84a1.71,1.71,0,0,1,0,3.42A1.71,1.71,0,0,1,429.72,183.84Z" style="fill:#c7c7c7"></path><path d="M79.6,333.83a1.71,1.71,0,0,1,0,3.42A1.71,1.71,0,0,1,79.6,333.83Z" style="fill:#c7c7c7"></path><polygon points="184 174.82 187.08 175.39 187.77 178.64 188.45 175.39 191.53 174.82 188.47 174.07 187.77 171.01 187.06 174.07 184 174.82" style="fill:#c7c7c7"></polygon><polygon points="288.73 423.25 291.81 423.82 292.5 427.07 293.18 423.82 296.26 423.25 293.2 422.5 292.5 419.44 291.8 422.5 288.73 423.25" style="fill:#c7c7c7"></polygon><path d="M302.37,383.27a.89.89,0,0,1,0,1.78A.89.89,0,0,1,302.37,383.27Z" style="fill:#c7c7c7"></path><path d="M337.15,359.53a.89.89,0,0,1,0,1.78A.89.89,0,0,1,337.15,359.53Z" style="fill:#c7c7c7"></path><polygon points="227.09 400.52 230.17 401.09 230.86 404.33 231.55 401.09 234.63 400.51 231.56 399.77 230.86 396.7 230.16 399.77 227.09 400.52" style="fill:#c7c7c7"></polygon><path d="M353.83,113.07a.9.9,0,0,1,0,1.79A.9.9,0,0,1,353.83,113.07Z" style="fill:#c7c7c7"></path><path d="M375.3,362.34a.64.64,0,0,1,0,1.27A.64.64,0,0,1,375.3,362.34Z" style="fill:#c7c7c7"></path><polygon points="106.65 255 109.73 255.57 110.42 258.82 111.1 255.57 114.18 255 111.12 254.25 110.42 251.19 109.72 254.25 106.65 255" style="fill:#c7c7c7"></polygon><path d="M71.06,304.12a.89.89,0,0,1,0,1.78A.89.89,0,0,1,71.06,304.12Z" style="fill:#c7c7c7"></path><path d="M194.18,238.39a.89.89,0,0,1,0,1.78A.89.89,0,0,1,194.18,238.39Z" style="fill:#c7c7c7"></path><path d="M89.59,148.22a.63.63,0,0,1,0,1.26A.63.63,0,0,1,89.59,148.22Z" style="fill:#c7c7c7"></path><path d="M81.51,142.41a1.72,1.72,0,0,1,0,3.43A1.72,1.72,0,0,1,81.51,142.41Z" style="fill:#c7c7c7"></path><path d="M372.9,222a1.71,1.71,0,0,1,0,3.42A1.71,1.71,0,0,1,372.9,222Z" style="fill:#c7c7c7"></path></g></svg>