<svg xmlns="http://www.w3.org/2000/svg" viewBox="0 0 750 500"><g id="freepik--Orbits--inject-24"><path d="M336.89,274.6c-25.8,0-44.55-6.51-47.42-18.38-2.16-9,4.86-19.55,19.79-29.8s35.63-18.81,58.66-24.37c47.7-11.53,90.11-6,94.54,12.36,2.17,9-4.86,19.55-19.79,29.8S407,263,384,268.58A204.21,204.21,0,0,1,336.89,274.6ZM415.37,197a204.4,204.4,0,0,0-47.21,6c-22.92,5.54-43.63,14.14-58.33,24.23s-21.45,20.2-19.38,28.74c4.3,17.81,46.17,23,93.33,11.62,22.91-5.54,43.62-14.14,58.32-24.23s21.45-20.2,19.39-28.74C458.73,203.22,440.51,197,415.37,197Z" style="fill:#e0e0e0"></path><path d="M332.65,288.6a188.38,188.38,0,0,1-36.5-3.28c-24.67-4.92-39.58-14.82-42-27.88s8-27.64,29.26-41.05,50.57-23.95,82.84-29.91c66.77-12.34,125.11-.57,130.06,26.22h0c4.95,26.79-45.34,58.62-112.1,71A286.61,286.61,0,0,1,332.65,288.6Zm85.17-106a285.72,285.72,0,0,0-51.38,4.91C334.29,193.41,305,204,284,217.24s-31.15,27.39-28.81,40,17,22.25,41.21,27.08,55.53,4.27,87.68-1.67c66.22-12.23,116.14-43.54,111.3-69.79h0C491.8,193.79,460.24,182.55,417.82,182.55Z" style="fill:#e0e0e0"></path><path d="M312.75,306.7c-51,0-88.63-13.47-93.81-37.21-3.67-16.81,9.21-36.14,36.25-54.42s64.7-33.21,106.38-42.31c86.18-18.8,162.42-6,170,28.54S475.07,279.23,388.89,298A361.5,361.5,0,0,1,312.75,306.7ZM438,165.06a362.11,362.11,0,0,0-76.22,8.68c-41.56,9.07-79.21,24-106,42.16s-39.41,37-35.84,53.38c7.42,34,83.13,46.45,168.77,27.77S538,235.51,530.55,201.51h0C525.47,178.24,488.37,165.06,438,165.06Z" style="fill:#e0e0e0"></path><path d="M296.7,322.16c-61.55,0-106.65-15.73-112.75-43.68-4.37-20.05,11.64-43.24,45.07-65.31s80-40.25,131.36-51.47,101.44-14,140.87-7.91c39.59,6.13,63.8,20.55,68.17,40.6s-11.63,43.24-45.07,65.3S444.4,300,393,311.16C358.8,318.62,325.89,322.16,296.7,322.16ZM457,151.66c-29.19,0-62.13,3.55-96.39,11C254.86,185.75,176.06,237.6,184.93,278.27s102.11,55,207.85,31.92S577.31,235.27,568.44,194.6C562.44,167.11,517.89,151.66,457,151.66Z" style="fill:#e0e0e0"></path><path d="M275.55,341.2a363.74,363.74,0,0,1-52.1-3.49c-48.72-7.1-78.44-24.24-83.68-48.28s14.63-52,56-78.75,98.83-49,162.28-62.79,125.14-17.57,173.69-10.5c48.73,7.1,78.44,24.24,83.69,48.28s-14.64,52-56,78.74-98.84,49-162.29,62.8C354.69,336.47,313,341.2,275.55,341.2ZM479.71,134.93c-36.62,0-78.18,4.49-121.47,13.93-63.34,13.82-120.86,36.07-162,62.66s-60.69,54.1-55.54,77.7c10.67,48.9,125.6,65.5,256.19,37s228.16-91.45,217.49-140.35C607.29,153.19,553.56,134.93,479.71,134.93Z" style="fill:#e0e0e0"></path><path d="M257.5,358.6a429,429,0,0,1-62.78-4.3c-57.71-8.59-92.95-29.13-99.21-57.83s17.22-62.05,66.11-93.89,117-58.28,192.15-74.68S502,107.2,559.57,115.76s92.95,29.13,99.21,57.83-17.22,62-66.11,93.9-117,58.27-192.16,74.67C350.62,353,301.63,358.6,257.5,358.6ZM496.79,112.46c-44.06,0-93,5.55-142.8,16.42C199.23,162.64,83.72,237.73,96.49,296.26c6.16,28.26,41.1,48.53,98.38,57.05,57.43,8.55,130.39,4.24,205.43-12.13s143.16-42.84,191.82-74.53S664,202.07,657.8,173.81s-41.1-48.53-98.38-57.06A428.33,428.33,0,0,0,496.79,112.46Z" style="fill:#e0e0e0"></path><path d="M245.43,376.22a479.92,479.92,0,0,1-72.06-5.06c-65-9.91-104.73-33.35-111.85-66s19.23-70.49,74.2-106.57,131.64-66,216.25-84.46S518.89,91,583.74,100.86s104.73,33.35,111.85,66-19.24,70.49-74.21,106.58-131.63,66-216.24,84.45C349.47,370,294.79,376.22,245.43,376.22ZM511.67,96.8c-49.29,0-103.88,6.19-159.49,18.32C267.69,133.55,191,163.5,136.27,199.43S55.47,272.76,62.5,305s46.45,55.37,111,65.22c64.73,9.87,146.91,5.15,231.41-13.28s161.17-48.37,215.9-84.31,80.81-73.32,73.78-105.53-46.46-55.36-111-65.21A479.37,479.37,0,0,0,511.67,96.8Z" style="fill:#e0e0e0"></path><path d="M239.18,393.29A520,520,0,0,1,156,387.06C84.79,375.42,41.13,348.74,33.1,311.94s20.56-79.23,80.49-119.49S257.29,119,349.83,98.85,532.48,73.94,603.58,85.56s114.91,38.31,122.94,75.11S706,239.91,646,280.16s-143.69,73.41-236.23,93.6C350.48,386.7,292.14,393.29,239.18,393.29Zm281.26-313c-52.89,0-111.14,6.58-170.4,19.51-190.64,41.59-332.38,136.65-316,211.9s184.87,102.64,375.51,61c92.41-20.16,176.19-53.35,235.89-93.45s88-82.08,80.07-118.45S674.24,98.11,603.42,86.54A518,518,0,0,0,520.44,80.32Z" style="fill:#e0e0e0"></path></g><g id="freepik--Satelite--inject-24"><path d="M330.19,352.62l-13.43-2.27a.54.54,0,0,0-.17,1.06L330,353.69a.54.54,0,0,0,.17-1.07Z" style="fill:#455a64"></path><path d="M330.68,349.73l-13.43-2.28a.54.54,0,0,0-.17,1.06l13.43,2.28a.54.54,0,0,0,.17-1.06Z" style="fill:#455a64"></path><polygon points="348.27 361.77 350.72 347.34 329.23 343.7 326.85 357.77 326.81 358.14 348.27 361.77" style="fill:#455a64"></polygon><rect x="332.5" y="342.92" width="12.54" height="19.65" transform="translate(-65.74 627.62) rotate(-80.35)" style="fill:#fff"></rect><rect x="341.98" y="346.49" width="0.92" height="13.68" transform="matrix(-0.99, -0.16, 0.16, -0.99, 624.59, 756.45)" style="fill:#455a64"></rect><rect x="338.31" y="342.45" width="0.92" height="20.56" transform="translate(740.75 74.16) rotate(99.12)" style="fill:#455a64"></rect><rect x="335.12" y="345.39" width="0.92" height="13.68" transform="matrix(-0.99, -0.16, 0.16, -0.99, 611.12, 753.17)" style="fill:#455a64"></rect><path d="M299.55,345.78,313,348.06a.54.54,0,0,0,.17-1.06l-13.42-2.28a.54.54,0,0,0-.17,1.06Z" style="fill:#455a64"></path><path d="M299.05,348.68,312.48,351a.54.54,0,0,0,.17-1.06l-13.43-2.27a.54.54,0,0,0-.17,1.06Z" style="fill:#455a64"></path><polygon points="306.57 323.65 312.46 333.69 324.46 335.95 333.1 328.27 306.57 323.65" style="fill:#455a64"></polygon><rect x="314.99" y="324.58" width="9.7" height="1" transform="translate(-48.07 594.54) rotate(-81.68)" style="fill:#455a64"></rect><circle cx="320.68" cy="319.67" r="2.2" style="fill:#455a64"></circle><polygon points="312.46 333.69 312.15 335.51 308.96 337.78 305.58 357.69 307.44 360.3 307.2 361.74 320.18 363.93 320.46 362.28 323 360.47 326.2 340.51 324.13 337.55 324.43 335.94 312.46 333.69" style="fill:#455a64"></polygon><polygon points="281.46 336.63 279.01 351.06 300.5 354.7 302.88 340.64 302.92 340.27 281.46 336.63" style="fill:#455a64"></polygon><rect x="284.69" y="335.84" width="12.54" height="19.65" transform="translate(-98.57 574.6) rotate(-80.35)" style="fill:#fff"></rect><rect x="286.83" y="338.23" width="0.92" height="13.68" transform="matrix(0.99, 0.16, -0.16, 0.99, 58.34, -41.18)" style="fill:#455a64"></rect><rect x="290.5" y="335.39" width="0.92" height="20.56" transform="translate(-96.44 578.19) rotate(-80.88)" style="fill:#455a64"></rect><rect x="293.69" y="339.34" width="0.92" height="13.68" transform="translate(58.56 -42.23) rotate(9.12)" style="fill:#455a64"></rect><path d="M326.14,340.74a80.7,80.7,0,0,1-8.67-1.16,80.23,80.23,0,0,1-8.59-1.61,86.17,86.17,0,0,1,8.66,1.17A85.68,85.68,0,0,1,326.14,340.74Z" style="fill:#263238"></path><path d="M309,337.78a10.4,10.4,0,0,1-.15,1.47c-.15,1-.34,2.36-.58,4-.51,3.36-1.24,8-2.08,13.12-.07.44-.14.88-.21,1.29l-.18-.26c4.83.78,9.14,1.5,12.24,2l3.66.65a9.09,9.09,0,0,1,1.33.3,8.37,8.37,0,0,1-1.36-.13l-3.68-.52c-3.11-.46-7.43-1.13-12.26-1.9l-.22,0,0-.22c.07-.41.14-.85.21-1.29.84-5.12,1.62-9.76,2.21-13.1.29-1.62.53-3,.72-4A8.3,8.3,0,0,1,309,337.78Z" style="fill:#263238"></path><path d="M320.43,362.42a46.15,46.15,0,0,1-6.53-.82,50.41,50.41,0,0,1-6.47-1.26,46.2,46.2,0,0,1,6.54.82A48.06,48.06,0,0,1,320.43,362.42Z" style="fill:#263238"></path><path d="M324.13,337.55a43.58,43.58,0,0,1-6.09-.75,41,41,0,0,1-6-1.2,43.8,43.8,0,0,1,6.1.75A42.61,42.61,0,0,1,324.13,337.55Z" style="fill:#263238"></path><path d="M324.57,335.85a84.24,84.24,0,0,1-12.09-1.94,41.79,41.79,0,0,1,6.08.75A43.17,43.17,0,0,1,324.57,335.85Z" style="fill:#263238"></path><path d="M336.35,355.82a34.5,34.5,0,0,1,4.35-3.37,33.1,33.1,0,0,1,4.61-3,34.5,34.5,0,0,1-4.35,3.37A33.55,33.55,0,0,1,336.35,355.82Z" style="fill:#263238"></path><path d="M333.15,354.9a20.51,20.51,0,0,1,4.88-3.66,11.11,11.11,0,0,1-2.31,2A11,11,0,0,1,333.15,354.9Z" style="fill:#263238"></path><path d="M286.16,349.49a107.64,107.64,0,0,1,12.15-6.55,53,53,0,0,1-6,3.47A52.62,52.62,0,0,1,286.16,349.49Z" style="fill:#263238"></path><path d="M283.73,348.79a111.15,111.15,0,0,1,6.2-3.66,10.71,10.71,0,0,1-2.9,2.17A11.09,11.09,0,0,1,283.73,348.79Z" style="fill:#263238"></path></g><g id="freepik--Uranus--inject-24"><path d="M704.25,212.27a22.09,22.09,0,0,1-44.07-3.22,20.64,20.64,0,0,1,.31-2.38,22.09,22.09,0,0,1,43.76,5.6Z" style="fill:#455a64;fill-rule:evenodd"></path><g style="opacity:0.2"><path d="M660.44,214.39a25.75,25.75,0,0,0,2.54,7.19,7.93,7.93,0,0,1,4.35,2.72c.38.5.74,1.09,1.33,1.29a1.66,1.66,0,0,0,2-.94,2.92,2.92,0,0,0-.07-2.3c-.33-.8-.88-1.73-.39-2.45a1.5,1.5,0,0,1,1.44-.53c.54,0,1,.26,1.58.36,1.28.24,2.74-.13,3.82.6a3.59,3.59,0,0,1,1.29,2.61,14.57,14.57,0,0,0,.43,3,2.43,2.43,0,0,0,2.18,1.76A2.87,2.87,0,0,0,683,226a7,7,0,0,1,1.57-2.33,14.33,14.33,0,0,0,1.44-.95,2.78,2.78,0,0,0,.3-3,19.11,19.11,0,0,1-.94-1.93,1.88,1.88,0,0,1,.36-2,1.93,1.93,0,0,1,1.84-.21c1.54.49,2.58,1.88,3.75,3s2.87,2.06,4.34,1.4c1.28-.57,1.79-2.07,2.14-3.42.41-1.55.68-3.41-.44-4.54a4.88,4.88,0,0,0-1.43-.88,7.16,7.16,0,0,1-2.9-2,3.63,3.63,0,0,1,.3-4.52c.4-.41.89-.72,1.24-1.16a5.08,5.08,0,0,0,.84-2.26c.36-1.74.58-3.87-.81-5a4.37,4.37,0,0,0-3.5-.5,5.72,5.72,0,0,0-2.31.82,2.42,2.42,0,0,0-1.14,2.06c.05.92.74,1.91.21,2.65s-2,.29-3,.64a4.92,4.92,0,0,0-1.54,1.31,4.75,4.75,0,0,1-4.9,1.05,10,10,0,0,1-1.75-1l-1.49-1c-.66-.16-.85-1-.91-1.66-.13-1.35-.07-3,1.15-3.61a2.44,2.44,0,0,1,2.7-2.34,3.16,3.16,0,0,0,1.25.13c.41-.11.69-.72.34-.95a8.75,8.75,0,0,0-4.19.54,5,5,0,0,0-2.86,3,29.2,29.2,0,0,1-.63,3.12,6.36,6.36,0,0,1-2.39,2.44L667,204.78a17.22,17.22,0,0,1-6.75,2.88A23.49,23.49,0,0,0,660.44,214.39Z" style="fill-rule:evenodd"></path></g><path d="M661.23,217.55c-.09-.24-.15-.5-.24-.74-9.24,4.84-13.1,7.92-13.66,9.46a.38.38,0,0,0,0,.28l0,0c0,.08.17.14.23.17,1.09.45,6.86,1,35.12-11.35,17-7.41,28.78-14.84,32.06-18a.6.6,0,0,0-.46-1c-2.28.21-6.28,1.07-12.88,3.25.08.17.17.34.25.52,5.44-1.76,8.45-2.3,8.79-1.51.69,1.57-11.74,8.51-27.76,15.5s-29.57,11.38-30.26,9.8C652,223.07,655.29,220.76,661.23,217.55Z" style="fill:#263238"></path><g style="opacity:0.2"><path d="M695.65,228.21a2.46,2.46,0,0,0-1.51-1.53,5.06,5.06,0,0,0-2-.21,7.77,7.77,0,0,0-1.36.16,5.77,5.77,0,0,0-4.41,5.7,21.59,21.59,0,0,0,9.33-4.12Z"></path></g></g><g id="freepik--Jupiter--inject-24"><circle cx="623.63" cy="122.14" r="38.97" transform="translate(276.01 654.11) rotate(-67.92)" style="fill:#A365DB"></circle><g style="opacity:0.13"><path d="M660.23,108.74c-.09-.26-.19-.51-.29-.77l0-.11-.33-.79c-.11-.27-.23-.55-.35-.81s-.3-.68-.47-1c-.38-.82-.8-1.61-1.25-2.38a100.87,100.87,0,0,0-18,7.38c-11.37,6.22-15.16,15.36-28.64,21.25s-20.14-.74-17.53-5,19.19-12.71,36.92-19.17c12.08-4.4,20.65-7,24.87-8.19-.71-1-1.46-1.92-2.26-2.82-.2-.22-.39-.44-.6-.66l-.39-.42-.11-.11c-.29-.31-.6-.62-.91-.92l-.41-.39-.43-.41a187.37,187.37,0,0,1-35.49,16.92c-14.11,5-24,8.07-29.84,9.76,0,.87-.07,1.77,0,2.65,0,.48,0,1,0,1.44,0,.17,0,.34,0,.51s0,.22,0,.33h0c.05.62.11,1.24.19,1.87,0,.23,0,.47.09.7h0c0,.4.12.8.19,1.2,0,.15.05.29.08.44.06.37.14.73.22,1.1h0c.08.38.16.75.26,1.11s.13.54.2.81q.26.94.57,1.89l.09.32.22.64c.14.37.27.75.41,1.11.08.19.15.39.24.57a3.66,3.66,0,0,0,.18.46c.21.49.42,1,.64,1.45s.4.84.61,1.24a38.66,38.66,0,0,0,4.87,7.36c8.93-4.54,32.14-16.27,43.27-21.22,8.25-3.68,18.63-6.42,25.38-8a35,35,0,0,0-.52-3.49,3.24,3.24,0,0,0-.09-.4c0-.13,0-.26-.08-.39s-.11-.5-.17-.75-.11-.45-.17-.68l-.12-.45c-.09-.34-.19-.66-.29-1s-.16-.54-.25-.81-.21-.64-.32-1Zm-70.35,11.53a1.89,1.89,0,0,1,2.4,1.15,1.88,1.88,0,1,1-3.54,1.25A1.89,1.89,0,0,1,589.88,120.27Zm6.75,20.94a2.46,2.46,0,1,1,1.5-3.14A2.46,2.46,0,0,1,596.63,141.21ZM637,119.45a1.88,1.88,0,0,1-1.24-3.55,1.88,1.88,0,0,1,1.24,3.55Zm5.23,3a.94.94,0,0,1-1.2-.57.94.94,0,1,1,1.2.57Z" style="fill:#fff"></path></g><g style="opacity:0.25"><path d="M630.91,140.62A259.13,259.13,0,0,1,596.24,150c.06.07.13.13.19.19a2.16,2.16,0,0,0,.27.25l.08.08.3.28.7.63c.78.7,1.59,1.35,2.42,2l.14.1c.77.58,1.57,1.12,2.38,1.63.14.1.29.19.44.28a40.81,40.81,0,0,0,4.63,2.43,39,39,0,0,0,5.08,1.85h0l.79.23.07,0c.56.14,1.12.28,1.68.39l.44.09h0l.16,0,.33.06,1.2.21c.75.12,1.51.22,2.27.29,7.71-3.28,14.61-6,16.72-6.24,2.44-.27-1.86,2.66-7.45,6a39.86,39.86,0,0,0,7.43-1.82,39.1,39.1,0,0,0,9.5-4.88l.74-.53q.45-.33.9-.69c.35-.26.69-.54,1-.83a38.24,38.24,0,0,0,4.94-5h0a40.71,40.71,0,0,0,3.23-4.51l.48-.83c-1.86.88-4.53,2.13-8.38,3.88-11.58,5.28-31.83,10.88-31.85,9.25s10.93-8.09,25.81-12.84c7-2.21,12.69-3.95,16.81-5.17.26-.63.5-1.28.73-1.92a40.3,40.3,0,0,0,1.28-4.61c.08-.37.15-.75.23-1.14s.17-1,.24-1.52c.13-.85.22-1.72.28-2.59v-.12A140,140,0,0,1,630.91,140.62Zm-18.71,12c-3.44,1.21-6.51,1.39-6.86.42s2.17-2.76,5.61-4,6.52-1.4,6.86-.42S615.64,151.46,612.2,152.67Z" style="fill:#fff"></path></g><g style="opacity:0.13"><path d="M641.12,87.31a93.18,93.18,0,0,1-25.22,12.94c-11.37,3.81-22.09,6.55-28.8,8.13a38.5,38.5,0,0,1,2.38-5.13,120.74,120.74,0,0,0,20.41-3.79c13-4,25-12.11,22.16-12.81s-11.75,4.82-24.12,8.48a148.43,148.43,0,0,1-15.54,3.62A38.45,38.45,0,0,1,597,93.58s0,0,.06,0l.1-.09a120.14,120.14,0,0,0,19.45-5.76c4.72-1.8,8.35-3.21,11.14-4.32.43,0,.86.09,1.28.15h0c.7.11,1.4.22,2.1.37h.06a35,35,0,0,1,3.66.92h0l.55.17h0l.31.11,1.13.39.6.23.43.17c.94.37,1.87.78,2.78,1.22h0l.35.17Z" style="fill:#fff"></path></g><g style="opacity:0.4"><path d="M660.21,108.68c-.09-.25-.19-.51-.29-.76a.42.42,0,0,0,0-.12l0-.07c-.1-.27-.21-.53-.32-.79s-.21-.5-.32-.74l-.5-1.08c-.43-.9-.89-1.77-1.39-2.62-.06-.11-.14-.23-.2-.35l-.2-.33c-.18-.3-.36-.61-.55-.9a39.17,39.17,0,0,0-3.59-4.75c-.31-.35-.63-.69-.95-1s-.93-1-1.41-1.41-.77-.72-1.17-1.07-.93-.79-1.42-1.17c-.18-.16-.37-.3-.56-.45h0c-.14-.11-.28-.22-.43-.32l-.21-.15-.86-.62-.3-.21-.22-.14-.41-.27c-.57-.37-1.15-.73-1.74-1.07l-.08-.05q-.75-.42-1.5-.81l-.46-.24L640.7,87h0c-.91-.44-1.83-.85-2.77-1.22l-.43-.17-.61-.23c-.37-.14-.75-.26-1.13-.39l-.31-.11h0l-.56-.18h0a39,39,0,0,0-4.57-1.09l.88.23.06,0,.93.26a0,0,0,0,1,0,0l.55.17h0l.31.1,1.13.4.61.22.42.17c.95.37,1.87.78,2.78,1.23h0a2.7,2.7,0,0,1,.34.17c.67.33,1.32.67,2,1l.08,0,.22.13c.65.38,1.3.79,1.93,1.2l.22.15c.1.07.2.13.3.21l.6.42.47.34.43.32h0l.86.68,1.09.91c.48.42.94.84,1.4,1.28s.8.8,1.19,1.21.65.69,1,1c.16.18.32.36.47.55a37.6,37.6,0,0,1,3.68,5.1c.06.11.13.22.2.33l.16.29c.33.55.64,1.12.93,1.7.18.32.34.65.49,1,.29.6.57,1.2.83,1.82.11.26.21.51.31.77v0c.12.32.24.64.35,1a3.25,3.25,0,0,1,.15.4l.12.34.21.62c.25.77.47,1.54.66,2.3.11.44.22.88.32,1.32a2.56,2.56,0,0,1,0,.27q.24,1.11.42,2.22l.09.66a38.46,38.46,0,0,1,0,10.61.17.17,0,0,1,0,.07c-.07.51-.15,1-.24,1.52a37.85,37.85,0,0,1-1,4.08,38.77,38.77,0,0,1-1.41,4c-.33.78-.68,1.56-1.06,2.33h0a38.58,38.58,0,0,1-2.7,4.61h0a39.11,39.11,0,0,1-5.24,6.2h0c-.61.59-1.24,1.15-1.89,1.7-.34.28-.68.56-1,.83-.53.42-1.08.83-1.64,1.22a40.16,40.16,0,0,1-9.49,4.87,38.83,38.83,0,0,1-12.22,2.21c-.87,0-1.74,0-2.61,0-.7,0-1.4-.08-2.09-.15s-1.38-.17-2.06-.28l-.9-.15c.49.12,1,.23,1.46.33l.62.13.12,0,.21,0c.39.08.79.15,1.19.21a38.39,38.39,0,0,0,4.15.43c.87,0,1.74.06,2.61,0A39.21,39.21,0,0,0,646,154q.27-.18.54-.39c.37-.26.74-.54,1.09-.82s.69-.55,1-.84a37.66,37.66,0,0,0,4.84-4.86,36.64,36.64,0,0,0,3.28-4.57,38.38,38.38,0,0,0,2.77-5.37c.3-.74.59-1.49.86-2.24a40.76,40.76,0,0,0,1.29-4.6c.09-.42.18-.83.25-1.25s.17-1,.25-1.51c.11-.83.21-1.66.27-2.5h0a38.44,38.44,0,0,0-.62-10.45c0-.13-.05-.27-.08-.41s-.07-.31-.1-.47l-.15-.68-.18-.67c0-.16-.07-.31-.11-.46-.09-.33-.19-.66-.29-1s-.16-.55-.25-.82-.21-.64-.32-1Z" style="fill:#fff"></path></g><path d="M607.18,87.58h0a5.78,5.78,0,0,1-.66.38c-.44.23-1.07.59-1.88,1.06a39.9,39.9,0,0,0-6.4,4.75A38.26,38.26,0,0,0,586.07,117l-.12-.25h0l.14.09,0,.18c-.1.91-.2,1.84-.31,2.79s0,1.93-.08,2.91a34.84,34.84,0,0,0,1.22,8.63l.26,1,.34,1c.22.66.45,1.31.67,2l.81,1.85c.13.3.26.6.4.9l.46.87a40.53,40.53,0,0,0,8.3,10.94,43.29,43.29,0,0,0,7.48,5.54c1,.55,1.73.91,2.24,1.19a6.18,6.18,0,0,1,.77.44,4.88,4.88,0,0,1-.82-.34c-.52-.26-1.32-.59-2.29-1.12a39.67,39.67,0,0,1-16.11-16.43c-.15-.29-.31-.58-.47-.87l-.41-.92-.82-1.87c-.23-.65-.46-1.3-.69-2l-.35-1-.27-1a35.27,35.27,0,0,1-1.24-8.75c0-1,0-2,.08-3s.22-1.91.32-2.84l.12.27h0l-.14-.09,0-.16A38.15,38.15,0,0,1,598,93.52a37.72,37.72,0,0,1,6.53-4.65c.83-.45,1.48-.79,1.94-1a5.14,5.14,0,0,1,.7-.3h0Z" style="fill:#fff"></path></g><g id="freepik--Earth--inject-24"><circle cx="548.21" cy="237.09" r="25.21" transform="translate(-47.87 199.28) rotate(-19.76)" style="fill:#455a64"></circle><g style="opacity:0.30000000000000004"><path d="M559.16,249.9a8.39,8.39,0,0,0-1,3.33,5.07,5.07,0,0,1-1.38,3.12c-.88.75-2.48.69-3-.37a9.67,9.67,0,0,1-.24-1.88,17.3,17.3,0,0,0-1.09-2.2,6.12,6.12,0,0,1-.25-2.09c-.07-3.85-.94-7.87-3.48-10.72a2.52,2.52,0,0,0-1.12-.82,1.43,1.43,0,0,0-1.48.5,5.83,5.83,0,0,1-.57.86,1.29,1.29,0,0,1-1.87-.53,3.91,3.91,0,0,1-.23-2.23c.08-.93.17-1.87.26-2.81a2.35,2.35,0,0,1,.42-1.38c.46-.52,1.26-.54,1.82-1,.72-.54.83-1.59,1.29-2.37s1.89-1.11,2.09-.21c1.54-3.26,4.81,1.64,6.79,1.3a5.34,5.34,0,0,1,1.71-.29c1,.16,1.53,1.31,1.87,2.3.55,1.65,1.11,3.29,1.67,4.94a2.37,2.37,0,0,0,1.09,1.57c.46.19,1,.05,1.47.23,1.24.48.81,2.46-.2,3.33s-2.41,1.4-2.9,2.65c-.37.94-.1,2-.49,3A11.22,11.22,0,0,1,559.16,249.9Z"></path></g><g style="opacity:0.30000000000000004"><path d="M532.56,256.82h0c.25.21.51.41.77.61s.42.31.63.45.42.3.64.44l.45.29c0-.05,0-.09,0-.13-.55-1.25-.56-3,.65-3.65a2.58,2.58,0,0,0,.68-.35c.53-.51.11-1.57.65-2.08.3-.28.77-.25,1.14-.42a2,2,0,0,0,.86-1.93,12,12,0,0,1-.19-2.23c.14-1.13,1-2.26.54-3.29s-2.17-1-3.3-1.5c-1.58-.73-2-2.75-3.08-4.18-.91-1.28-3.07-2.7-4.73-2.34a2.05,2.05,0,0,0-1.76,1.88l-.15,0c-.44-.06-1-.09-1.2-.47s0-1.08-.28-1.51a2.18,2.18,0,0,0-.63-.49c-.21-.16-.39-.45-.26-.69s.39-.23.53-.41a.41.41,0,0,0,0-.51c-.45-.56-1,.56-1.22.82-.08.07-.14.14-.21.19h0s0,.1,0,.15,0,.31,0,.46,0,.31,0,.47,0,.25,0,.37v.56a26.54,26.54,0,0,0,1.46,8.26,25,25,0,0,0,1.47,3.35c.24.47.51.93.79,1.39s.78,1.18,1.17,1.71.74,1,1.15,1.44a24,24,0,0,0,1.77,1.87,22.41,22.41,0,0,0,1.74,1.49"></path></g><g style="opacity:0.30000000000000004"><path d="M571.9,228.45a6.34,6.34,0,0,1-.26-.81c-.95-2.79-3.39-4.08-4.91-6.27-.5-.71-.88-1.29-1.77-1.44-1.32-.22-2,.53-2.92-.75-.25-.35-.68-.67-1.06-.47.1.27.19.55.29.83a.34.34,0,0,1,0,.18c0,.19-.31.24-.46.13a1.65,1.65,0,0,1-.35-.47,1.28,1.28,0,0,0-1.9-.18.73.73,0,0,0-.41-.6.88.88,0,0,1-1.1.7c-.07-.25.37-.29.52-.5s0-.48-.2-.65a2.79,2.79,0,0,0-1.73-.71,2.37,2.37,0,0,1-1.19-.15c-.2-.13-.35-.33-.55-.45a1.49,1.49,0,0,0-1.45.21A2.83,2.83,0,0,0,551,218.5c-.23.67.25,1.59.94,1.51a1.42,1.42,0,0,1,.54,0c.24.07.35.37.37.63a1.78,1.78,0,0,0,.11.76c.11.23.48.35.62.13a1.43,1.43,0,0,0,.22-1.3,1.78,1.78,0,0,1,.1-1.33c.28-.37,1-.24,1,.22,0,.27-.34.46-.33.73s.34.43.61.42a2.77,2.77,0,0,1,.81,0c.27.07.48.42.28.62-.33.38-1.19-.29-1.37.19,0,.12,0,.26,0,.39,0,.4-.53.54-.93.58a2.08,2.08,0,0,1-1.16-.1.75.75,0,0,1-.38-1,.44.44,0,0,0-.62.22,1.32,1.32,0,0,0,0,.74c-.41-.1-.79.26-1,.61s-.48.77-.88.89-1-.06-1.19.32.52,1.11.23,1.59c-.16.27-.55.26-.85.34a1.35,1.35,0,0,0-.56,2.07,1.55,1.55,0,0,0,2.22,0,7.21,7.21,0,0,0,.88-1.5c.3-.5.85-.95,1.4-.78a1.65,1.65,0,0,1,.57.37l.8.7a.73.73,0,0,1,.33.56c0,.19-.16.33-.22.5-.17.49.52,1,1,.7a1,1,0,0,0,.2-1.38c-.41-.59-1.35-.89-1.31-1.62.48-.39,1.23,0,1.51.61s.27,1.23.5,1.81.88,1.12,1.44.84c-.14-.51-.28-1-.41-1.51.35-.27.75.52,1.17.39.25-.08.29-.45.18-.7a4.52,4.52,0,0,1-.35-.74.83.83,0,0,1,1-.85,1.23,1.23,0,0,1,.92,1.06,2.85,2.85,0,0,0,.12.58c.18.4.66.52,1,.69s.8.57.63,1c-.08.17-.26.34-.2.52s.29.23.29.4-.13.19-.23.24c-.27.1-.55.14-.81.26a.76.76,0,0,0-.48.65c0,.41.5.61.72.95a4.64,4.64,0,0,1,.31,1.12,4.15,4.15,0,0,0,.6.9,10.34,10.34,0,0,1,1.1,3.21c.14.5.4,1,.89,1.15a1.49,1.49,0,0,0,.8-.15,4.79,4.79,0,0,0,2-1.17,1.7,1.7,0,0,0,.18-2.14.41.41,0,0,0-.24-.16.67.67,0,0,0-.38.13,1,1,0,0,1-1.11-.26,3.2,3.2,0,0,1-.66-1l-.57-1.22a.69.69,0,0,1,.85.09,4.74,4.74,0,0,1,.58.74,3.67,3.67,0,0,0,2.5,1.23,2.44,2.44,0,0,1,.71.16c.71.34.9,1.41,1.65,1.64a4.85,4.85,0,0,1,.63.16,1.18,1.18,0,0,1,.52.81,13.53,13.53,0,0,0,.45,1.8,1.65,1.65,0,0,0,1.34,1.12,1.17,1.17,0,0,0,.93-.38l0-.07c0-.56.11-1,.12-1.6,0-.12,0-.27,0-.39,0-.37,0-.72,0-1.09s-.06-.81-.09-1.18-.07-.52-.1-.81-.1-.62-.15-.92c-.14-.91-.53-2.55-.76-3.43"></path></g><g style="opacity:0.30000000000000004"><path d="M563.85,251c-.4.06-.88-.15-1.19.12a1.26,1.26,0,0,0-.3.65,1.42,1.42,0,0,1-.59.8.85.85,0,0,1-.94,0,.65.65,0,0,1-.12-.9c.1-.12.24-.18.35-.29.55-.51.19-1.48.61-2.1.25-.36.63-.72.9-1.09s.29-.51.67-.58C564.89,247.29,565.59,250.79,563.85,251Z"></path></g><g style="opacity:0.30000000000000004"><path d="M542.45,218c-.5.3-.77.87-1.17,1.31s-1.08.75-1.53.37a1.06,1.06,0,0,1-.34-.76,1.92,1.92,0,0,1,.29-1.17c.22-.36.55-.64.74-1s.16-.94-.22-1.12c-.2-.1-.46-.06-.64-.2s-.08-.82.3-1a2.86,2.86,0,0,1,1.2,0c1.47.11,2.56-.85,3.67-1.65.86-.62,2.69-1.35,3.68-.69a.8.8,0,0,1,.16,1.21c-.17.13-.4.16-.56.3s-.21.45-.32.68c-.29.61-1.09.82-1.35,1.43-.16.36-.1.82-.34,1.14a1.37,1.37,0,0,1-.83.41l-1.91.44A2.63,2.63,0,0,0,542.45,218Z"></path></g><g style="opacity:0.30000000000000004"><path d="M524.68,229.32a1.16,1.16,0,0,1,1.65.07,1.86,1.86,0,0,1,.12,1.32l-.3,1.81a1,1,0,0,0,0,.54c.17.38.79.32,1,0a1.68,1.68,0,0,0,.16-1.23,2.4,2.4,0,0,1,0-1.25c.41-1,1.83-.8,2.66-1.42a4.56,4.56,0,0,0,1.06-1.61c.31-.57.83-1.14,1.47-1.1.21,0,.42.09.64.08a.88.88,0,0,0,.57-1.41c-.09-.1-.22-.17-.28-.29a.53.53,0,0,1,.21-.64,1.43,1.43,0,0,1,.67-.21l1.62-.25c.6-.08,1.37-.39,1.29-1s-.76-.77-.86-1.29a2.32,2.32,0,0,0-.06-.38c-.16-.34-.66-.21-1,0a.78.78,0,0,0-1.19-.4,2.07,2.07,0,0,0-.48,1.13,5.53,5.53,0,0,1-1.79,2.39,1.39,1.39,0,0,1-.85.48c-.33,0-.68-.35-.52-.65s.39-.32.37-.54-.53-.28-.62-.55c.2-.8,1.11-1.13,1.81-1.55A4.37,4.37,0,0,0,534,219a.56.56,0,0,0,0-.47c-.1-.2-.37-.24-.59-.24-.54,0-1.21,0-1.41.56a6.12,6.12,0,0,0-.1.86c-.2.85-1.34.93-2,1.43a7.57,7.57,0,0,1-.79.61A3.19,3.19,0,0,1,528,222l-.19,0c-.22.31-.44.62-.65.94s-.41.65-.6,1a25.79,25.79,0,0,0-2.25,5c-.2.61-.38,1.22-.54,1.85s-.29,1.26-.4,1.91a7.46,7.46,0,0,0,.47-1.62A3,3,0,0,1,524.68,229.32Z"></path></g><path d="M546.39,212.44h0s-.67.12-1.88.37a26.77,26.77,0,0,0-5,1.55,25.21,25.21,0,0,0-6.59,4.13A24.89,24.89,0,0,0,527,226.1l0-.28h0l.1.13-.07.16c-.27.54-.53,1.11-.81,1.68s-.45,1.2-.68,1.8a23.88,23.88,0,0,0-.9,10.91,27.07,27.07,0,0,0,2.76,8.57,29.1,29.1,0,0,0,3.41,5.07c.47.55.87.94,1.11,1.23s.39.45.37.46a3.08,3.08,0,0,1-.44-.38c-.27-.27-.7-.64-1.19-1.18a26.09,26.09,0,0,1-6.49-13.7,23.91,23.91,0,0,1,.88-11.14c.23-.62.44-1.25.7-1.85l.82-1.72,0,.29h0l-.11-.13.08-.15a24.79,24.79,0,0,1,12.84-11.81,24,24,0,0,1,5.08-1.43c.61-.09,1.09-.15,1.41-.17a1.89,1.89,0,0,1,.5,0h0Z" style="fill:#fff"></path><g style="opacity:0.4"><path d="M573.45,237.2v-.53a.25.25,0,0,0,0-.08v0a4.93,4.93,0,0,0,0-.55c0-.17,0-.35,0-.52s0-.51-.07-.76c-.07-.64-.17-1.26-.29-1.88a2.38,2.38,0,0,0,0-.26l0-.24c0-.22-.1-.45-.15-.66a25,25,0,0,0-1.16-3.65c-.12-.28-.23-.55-.36-.82s-.36-.78-.55-1.16l-.48-.9c-.2-.34-.4-.68-.61-1l-.25-.39h0c-.07-.09-.13-.19-.19-.28l-.1-.14-.39-.56-.14-.19a1.47,1.47,0,0,1-.1-.13l-.2-.25c-.26-.35-.54-.69-.82-1l0,0c-.24-.28-.49-.55-.74-.81l-.23-.24-.17-.18h0c-.46-.46-.93-.91-1.42-1.33l-.22-.19-.32-.27c-.2-.17-.4-.32-.6-.48l-.17-.13h0l-.3-.22h0a23.86,23.86,0,0,0-2.54-1.63c.17.1.33.21.49.32s0,0,0,0q.26.17.51.36h0l.3.22h0l.17.13.6.48.32.27.22.19c.5.43,1,.87,1.43,1.34h0l.18.17c.33.35.65.69,1,1.06l0,.05.11.12c.31.37.62.76.91,1.15a1.47,1.47,0,0,1,.1.13,1.33,1.33,0,0,1,.14.19l.28.39.21.3.19.29h0c.13.2.26.4.38.6s.32.52.47.79.39.7.57,1.07.32.65.47,1,.25.55.36.83.11.29.17.43a24.37,24.37,0,0,1,1.14,3.88l.05.25c0,.06,0,.13,0,.2.08.41.15.82.2,1.23,0,.23.07.47.09.7.05.43.08.85.11,1.28l0,.53v0c0,.22,0,.44,0,.65v.93c0,.52,0,1-.09,1.54l-.09.87a1,1,0,0,1,0,.17c-.06.48-.13,1-.22,1.44,0,.13-.06.28-.08.41a24.84,24.84,0,0,1-2.28,6.43s0,0,0,0c-.15.3-.31.59-.47.87a26.23,26.23,0,0,1-3.16,4.37c-.37.41-.75.8-1.14,1.19h0a25.08,25.08,0,0,1-2.61,2.22h0a25.27,25.27,0,0,1-4.5,2.64h0c-.49.23-1,.43-1.51.63-.27.1-.53.2-.8.28s-.83.28-1.25.39a22.63,22.63,0,0,1-2.74.6,24.72,24.72,0,0,1-4.06.34,25.07,25.07,0,0,1-7.88-1.27c-.53-.17-1-.37-1.57-.58s-.83-.35-1.23-.54-.8-.39-1.2-.6l-.51-.29c.27.18.54.35.82.51.11.08.23.14.34.21l.07,0,.12.07.68.38a21.36,21.36,0,0,0,2.42,1.14c.52.22,1.05.41,1.58.59a25.26,25.26,0,0,0,14.67.33l.42-.12.84-.27.8-.29a25,25,0,0,0,4-1.91,24.5,24.5,0,0,0,3-2.07,25.44,25.44,0,0,0,2.82-2.67c.35-.39.68-.78,1-1.18a25.78,25.78,0,0,0,1.77-2.51l.41-.7c.17-.29.32-.58.48-.87.24-.48.48-1,.69-1.46h0a24.86,24.86,0,0,0,1.85-6.47l0-.26a2.91,2.91,0,0,0,0-.31l.06-.44,0-.44,0-.31c0-.22,0-.44,0-.66s0-.36,0-.55,0-.43,0-.65A2.62,2.62,0,0,0,573.45,237.2Z"></path></g></g><g id="freepik--Mercury--inject-24"><circle cx="483.11" cy="194.87" r="17.63" transform="translate(181.69 619.74) rotate(-76.61)" style="fill:#f5f5f5"></circle><path d="M488.78,178.16a17.62,17.62,0,0,1-14.94,31.66,17.63,17.63,0,1,0,14.94-31.66Z" style="fill:#e0e0e0"></path><path d="M486.25,201a3.84,3.84,0,1,1-3.84-3.84A3.84,3.84,0,0,1,486.25,201Z" style="fill:#e0e0e0"></path><g style="opacity:0.30000000000000004"><path d="M486.25,201a3.84,3.84,0,1,1-3.84-3.84A3.84,3.84,0,0,1,486.25,201Z"></path></g><path d="M486.63,201a3.72,3.72,0,0,1-3.69,3.83,3.85,3.85,0,0,1-3.7-4,3.59,3.59,0,0,1,3.7-3.67A3.7,3.7,0,0,1,486.63,201Z" style="fill:#e0e0e0"></path><path d="M494.81,198.91c.2-1,1.84-1.93,1.84-1.93l.5,1.93-1.44,2.93A4.25,4.25,0,0,1,494.81,198.91Z" style="fill:#e0e0e0"></path><path d="M496.73,189.65a2.17,2.17,0,0,0-.77,1.54c0,.91,1.19,1.18,1.19,1.18l1.27-1.36Z" style="fill:#e0e0e0"></path><path d="M489.69,207.5a2.76,2.76,0,0,0-2.17-.3c-1.08.39-.92,1.91-.92,1.91l2.14,1Z" style="fill:#e0e0e0"></path><path d="M496.22,193.33a.42.42,0,1,1-.42-.43A.42.42,0,0,1,496.22,193.33Z" style="fill:#e0e0e0"></path><path d="M475.61,202.05a6,6,0,0,0-.8-2.31c-.26-.47-.63-1-1.16-1l-.46,0a1.7,1.7,0,0,0-1.89.22,2.12,2.12,0,0,0-.63,1.71,4.15,4.15,0,0,0,.63,1.76,7.89,7.89,0,0,0,1.33,1.65,2,2,0,0,0,1,.59,1.49,1.49,0,0,0,1.19-.43A2.71,2.71,0,0,0,475.61,202.05Z" style="fill:#e0e0e0"></path><g style="opacity:0.30000000000000004"><path d="M475.61,202.05a6,6,0,0,0-.8-2.31c-.26-.47-.63-1-1.16-1l-.46,0a1.7,1.7,0,0,0-1.89.22,2.12,2.12,0,0,0-.63,1.71,4.15,4.15,0,0,0,.63,1.76,7.89,7.89,0,0,0,1.33,1.65,2,2,0,0,0,1,.59,1.49,1.49,0,0,0,1.19-.43A2.71,2.71,0,0,0,475.61,202.05Z"></path></g><path d="M476,202.05a6,6,0,0,0-.8-2.31,2,2,0,0,0-1.16-1l-.68-.2a2,2,0,0,0-1.68.44,2.15,2.15,0,0,0-.62,1.71,4.15,4.15,0,0,0,.63,1.76,7.89,7.89,0,0,0,1.33,1.65,1.74,1.74,0,0,0,1,.51,1.28,1.28,0,0,0,1.07-.49A2.57,2.57,0,0,0,476,202.05Z" style="fill:#e0e0e0"></path><path d="M480.16,208.88a5.51,5.51,0,0,0,1.9,0c.4-.06.85-.19.94-.52l.07-.3a1,1,0,0,0,.18-1.25,1.85,1.85,0,0,0-1.19-.77,3.54,3.54,0,0,0-1.45,0,6.06,6.06,0,0,0-1.49.49,1.25,1.25,0,0,0-.63.51.9.9,0,0,0,.1.85A2.44,2.44,0,0,0,480.16,208.88Z" style="fill:#e0e0e0"></path><g style="opacity:0.30000000000000004"><path d="M480.16,208.88a5.51,5.51,0,0,0,1.9,0c.4-.06.85-.19.94-.52l.07-.3a1,1,0,0,0,.18-1.25,1.85,1.85,0,0,0-1.19-.77,3.54,3.54,0,0,0-1.45,0,6.06,6.06,0,0,0-1.49.49,1.25,1.25,0,0,0-.63.51.9.9,0,0,0,.1.85A2.44,2.44,0,0,0,480.16,208.88Z"></path></g><path d="M480.49,209a5.27,5.27,0,0,0,1.9,0,1.36,1.36,0,0,0,.94-.53l.27-.38a1.17,1.17,0,0,0,0-1.17,1.85,1.85,0,0,0-1.19-.77,3.54,3.54,0,0,0-1.45,0,6,6,0,0,0-1.49.48,1.13,1.13,0,0,0-.57.5c-.12.26,0,.52.18.79A2.2,2.2,0,0,0,480.49,209Z" style="fill:#e0e0e0"></path><path d="M492.41,185.13a5.8,5.8,0,0,0-1.82-1.63,1.5,1.5,0,0,0-1.48-.29l-.39.24a1.71,1.71,0,0,0-1.55,1.12,2.08,2.08,0,0,0,.29,1.8,4.15,4.15,0,0,0,1.4,1.23,7.9,7.9,0,0,0,2,.79,2,2,0,0,0,1.17,0,1.48,1.48,0,0,0,.84-.94A2.73,2.73,0,0,0,492.41,185.13Z" style="fill:#e0e0e0"></path><g style="opacity:0.30000000000000004"><path d="M492.41,185.13a5.8,5.8,0,0,0-1.82-1.63,1.5,1.5,0,0,0-1.48-.29l-.39.24a1.71,1.71,0,0,0-1.55,1.12,2.08,2.08,0,0,0,.29,1.8,4.15,4.15,0,0,0,1.4,1.23,7.9,7.9,0,0,0,2,.79,2,2,0,0,0,1.17,0,1.48,1.48,0,0,0,.84-.94A2.73,2.73,0,0,0,492.41,185.13Z"></path></g><path d="M493,185.36a5.82,5.82,0,0,0-1.82-1.63,2,2,0,0,0-1.48-.28l-.69.16a2,2,0,0,0-1.25,1.19,2.07,2.07,0,0,0,.29,1.8,4,4,0,0,0,1.41,1.24,7.6,7.6,0,0,0,2,.79,1.66,1.66,0,0,0,1.08,0c.41-.15.56-.53.7-1A2.59,2.59,0,0,0,493,185.36Z" style="fill:#e0e0e0"></path><path d="M474.28,195.8a.88.88,0,0,0-.27-.51,1.12,1.12,0,0,0-.78-.19.8.8,0,0,0-.61.37,1.22,1.22,0,0,0-.31.89,1,1,0,0,0,.5.78A1,1,0,0,0,474,197,1.27,1.27,0,0,0,474.28,195.8Z" style="fill:#e0e0e0"></path><g style="opacity:0.30000000000000004"><path d="M474.28,195.8a.88.88,0,0,0-.27-.51,1.12,1.12,0,0,0-.78-.19.8.8,0,0,0-.61.37,1.22,1.22,0,0,0-.31.89,1,1,0,0,0,.5.78A1,1,0,0,0,474,197,1.27,1.27,0,0,0,474.28,195.8Z"></path></g><path d="M474.46,195.83a.9.9,0,0,0-.25-.47,1.13,1.13,0,0,0-.72-.18.8.8,0,0,0-.56.35,1.06,1.06,0,0,0-.28.81.89.89,0,0,0,.45.72.93.93,0,0,0,1.06-.18A1.18,1.18,0,0,0,474.46,195.83Z" style="fill:#e0e0e0"></path><path d="M483.82,180.46a.85.85,0,0,0-.27-.51,1.16,1.16,0,0,0-.78-.19.87.87,0,0,0-.61.37,1.21,1.21,0,0,0-.3.89,1,1,0,0,0,.49.78,1,1,0,0,0,1.15-.19A1.29,1.29,0,0,0,483.82,180.46Z" style="fill:#e0e0e0"></path><g style="opacity:0.30000000000000004"><path d="M483.82,180.46a.85.85,0,0,0-.27-.51,1.16,1.16,0,0,0-.78-.19.87.87,0,0,0-.61.37,1.21,1.21,0,0,0-.3.89,1,1,0,0,0,.49.78,1,1,0,0,0,1.15-.19A1.29,1.29,0,0,0,483.82,180.46Z"></path></g><path d="M484,180.49a.78.78,0,0,0-.25-.47,1,1,0,0,0-.72-.17.73.73,0,0,0-.55.34,1.11,1.11,0,0,0-.29.81.92.92,0,0,0,.46.72.93.93,0,0,0,1.05-.17A1.2,1.2,0,0,0,484,180.49Z" style="fill:#e0e0e0"></path><path d="M479.49,182.05a.56.56,0,0,0-.17-.33.74.74,0,0,0-.5-.12.53.53,0,0,0-.4.24.78.78,0,0,0-.19.57.63.63,0,0,0,.32.5.65.65,0,0,0,.73-.13A.81.81,0,0,0,479.49,182.05Z" style="fill:#e0e0e0"></path><g style="opacity:0.30000000000000004"><path d="M479.49,182.05a.56.56,0,0,0-.17-.33.74.74,0,0,0-.5-.12.53.53,0,0,0-.4.24.78.78,0,0,0-.19.57.63.63,0,0,0,.32.5.65.65,0,0,0,.73-.13A.81.81,0,0,0,479.49,182.05Z"></path></g><path d="M479.61,182.07a.59.59,0,0,0-.17-.31.7.7,0,0,0-.46-.11.55.55,0,0,0-.36.22.78.78,0,0,0-.18.53.59.59,0,0,0,.3.46.6.6,0,0,0,.67-.12A.75.75,0,0,0,479.61,182.07Z" style="fill:#e0e0e0"></path><path d="M472.89,184.43a.6.6,0,0,0-.18-.33.78.78,0,0,0-.5-.12.53.53,0,0,0-.39.24.74.74,0,0,0-.2.57.64.64,0,0,0,.32.5.66.66,0,0,0,.74-.12A.84.84,0,0,0,472.89,184.43Z" style="fill:#e0e0e0"></path><g style="opacity:0.30000000000000004"><path d="M472.89,184.43a.6.6,0,0,0-.18-.33.78.78,0,0,0-.5-.12.53.53,0,0,0-.39.24.74.74,0,0,0-.2.57.64.64,0,0,0,.32.5.66.66,0,0,0,.74-.12A.84.84,0,0,0,472.89,184.43Z"></path></g><path d="M473,184.45a.49.49,0,0,0-.16-.3.68.68,0,0,0-.46-.12.49.49,0,0,0-.36.23.67.67,0,0,0-.18.52.56.56,0,0,0,.29.46.6.6,0,0,0,.68-.11A.76.76,0,0,0,473,184.45Z" style="fill:#e0e0e0"></path><path d="M469.52,185.38c.08.05-.53.9-1.14,2.43a15.94,15.94,0,0,0-1.11,6.29,26.55,26.55,0,0,0,.83,6.39c.44,1.6.9,2.53.82,2.57a7.47,7.47,0,0,1-1.17-2.46,22.29,22.29,0,0,1-1-6.49,14.69,14.69,0,0,1,1.29-6.45,10.38,10.38,0,0,1,1-1.73C469.32,185.55,469.5,185.36,469.52,185.38Z" style="fill:#fff"></path><path d="M477.71,179.07c.08.17-1.78.91-3.83,2.14a11.77,11.77,0,0,0-2.37,1.92c-.53.57-.81,1-.88.94s.11-.52.6-1.18a8.7,8.7,0,0,1,2.37-2.12A11.66,11.66,0,0,1,477.71,179.07Z" style="fill:#fff"></path><path d="M486.14,197.22s.49.28.94,1a5,5,0,0,1-1.1,6.25c-.68.56-1.21.71-1.24.65s.42-.33,1-.92a5.17,5.17,0,0,0,1-5.82C486.42,197.68,486.08,197.27,486.14,197.22Z" style="fill:#e0e0e0"></path><path d="M484.09,208.3c-.11-.1,0-.45,0-.89s-.25-.76-.16-.87.61.16.68.82S484.18,208.41,484.09,208.3Z" style="fill:#e0e0e0"></path><path d="M484.64,207.43c-.14,0-.27,0-.29-.1s.07-.2.21-.23.28,0,.3.11S484.78,207.4,484.64,207.43Z" style="fill:#e0e0e0"></path><path d="M475.71,199.27c.07,0,.26.22.5.67a4.52,4.52,0,0,1,.57,2,2.92,2.92,0,0,1-.7,2c-.36.41-.68.53-.72.48s.18-.29.42-.7a3.05,3.05,0,0,0,.47-1.72,6.4,6.4,0,0,0-.38-1.84C475.72,199.61,475.65,199.3,475.71,199.27Z" style="fill:#e0e0e0"></path><path d="M476.86,201.48c.11-.09.41.13.48.55s-.17.72-.31.67-.16-.31-.21-.59S476.74,201.57,476.86,201.48Z" style="fill:#e0e0e0"></path><path d="M474.5,195c.09-.11.62.29.64,1s-.46,1.19-.56,1.08.08-.52,0-1.06S474.39,195.14,474.5,195Z" style="fill:#e0e0e0"></path><path d="M494.12,187.31c.06,0,.21.16.24.52a1.57,1.57,0,0,1-1.84,1.67c-.36-.07-.52-.23-.49-.29s.84.08,1.47-.48S494,187.34,494.12,187.31Z" style="fill:#e0e0e0"></path><path d="M478,190.71s.24-.33.78-.1a.78.78,0,0,1,.39.89,1.19,1.19,0,0,1-.88.74,1.06,1.06,0,0,1-1.13-.28.78.78,0,0,1,.09-1c.39-.36.68-.35.71-.31s-.22.24-.41.54a.39.39,0,0,0,0,.45.64.64,0,0,0,.62.07.79.79,0,0,0,.55-.38.38.38,0,0,0-.13-.43C478.28,190.71,478,190.78,478,190.71Z" style="fill:#e0e0e0"></path><path d="M484.14,180.27c.05-.05.25,0,.36.37a1.25,1.25,0,0,1-.31,1.19,1.62,1.62,0,0,1-1.07.5c-.3,0-.47,0-.48-.11s.69-.25,1.17-.75a1.21,1.21,0,0,0,.33-.77C484.15,180.47,484.08,180.32,484.14,180.27Z" style="fill:#e0e0e0"></path><path d="M484.61,181.73c.12.09.09.32-.11.46s-.43.1-.47,0a.38.38,0,0,1,.16-.39A.38.38,0,0,1,484.61,181.73Z" style="fill:#e0e0e0"></path><path d="M479.85,183c-.11-.09-.07-.34-.1-.6s-.1-.5,0-.62.48.09.53.57S480,183.07,479.85,183Z" style="fill:#e0e0e0"></path><path d="M500.73,194.87a27.5,27.5,0,0,0-.65-4.28,16.77,16.77,0,0,0-2-4.64,17.44,17.44,0,0,0-20.94-7.41,16.43,16.43,0,0,0-4.39,2.37,19.64,19.64,0,0,0-2,1.68,18.35,18.35,0,0,0-1.7,2,17.28,17.28,0,0,0,0,20.53,19.32,19.32,0,0,0,1.7,2,18.31,18.31,0,0,0,2,1.67,15.88,15.88,0,0,0,4.39,2.37,17.48,17.48,0,0,0,20.94-7.4,16.7,16.7,0,0,0,2-4.65,27.32,27.32,0,0,0,.65-4.28.94.94,0,0,1,0,.29c0,.22,0,.5,0,.84a8,8,0,0,1-.11,1.36,14.07,14.07,0,0,1-.34,1.84,16.63,16.63,0,0,1-1.91,4.75,17.82,17.82,0,0,1-12,8.45,17.81,17.81,0,0,1-9.38-.75,16.54,16.54,0,0,1-4.53-2.42,20.53,20.53,0,0,1-2-1.72,19.6,19.6,0,0,1-1.76-2.07,17.77,17.77,0,0,1,0-21.14,21.74,21.74,0,0,1,1.75-2.07,20.53,20.53,0,0,1,2-1.72,17.1,17.1,0,0,1,4.53-2.42,17.9,17.9,0,0,1,9.38-.74,17.82,17.82,0,0,1,12,8.45,16.58,16.58,0,0,1,1.91,4.74,14.37,14.37,0,0,1,.34,1.84,8.21,8.21,0,0,1,.11,1.37c0,.34,0,.62,0,.84A.74.74,0,0,1,500.73,194.87Z" style="fill:#263238"></path></g><g id="freepik--Sun--inject-24"><path d="M445.68,185.82a26.4,26.4,0,0,0-6.28-6.06c-8.51-6.35-13.53-16-22.74-21.26-3.35-1.92-9.72-2.49-14.48-2.62a48.77,48.77,0,0,1-11.32-1.73,97.7,97.7,0,0,0-15.07-2.6c-12.32-.05-21.15,11.24-31.49,17.93-5.66,3.66-12.22,6.14-16.88,11-9.12,9.53-8,25-3.16,37.3,1.32,3.34,2.87,6.66,3.3,10.23s-.3,7.16-.16,10.74c.36,9.68,6.79,18,13.31,25.13,4,4.38,8.59,8.88,14.47,9.62,3.85.49,7.72-.73,11.6-.62,8.93.25,16.74,7.46,25.67,7,10.28-.57,17.15-10.8,26.59-14.92,5.55-2.42,12-2.74,16.95-6.27,5.47-3.94,7.73-11,8.24-17.75s-.37-13.51.43-20.2c.7-5.95,2.71-11.67,3.67-17.58S449.05,190.77,445.68,185.82Z" style="fill:#A365DB"></path><g style="opacity:0.7000000000000001"><path d="M445.68,185.82a26.4,26.4,0,0,0-6.28-6.06c-8.51-6.35-13.53-16-22.74-21.26-3.35-1.92-9.72-2.49-14.48-2.62a48.77,48.77,0,0,1-11.32-1.73,97.7,97.7,0,0,0-15.07-2.6c-12.32-.05-21.15,11.24-31.49,17.93-5.66,3.66-12.22,6.14-16.88,11-9.12,9.53-8,25-3.16,37.3,1.32,3.34,2.87,6.66,3.3,10.23s-.3,7.16-.16,10.74c.36,9.68,6.79,18,13.31,25.13,4,4.38,8.59,8.88,14.47,9.62,3.85.49,7.72-.73,11.6-.62,8.93.25,16.74,7.46,25.67,7,10.28-.57,17.15-10.8,26.59-14.92,5.55-2.42,12-2.74,16.95-6.27,5.47-3.94,7.73-11,8.24-17.75s-.37-13.51.43-20.2c.7-5.95,2.71-11.67,3.67-17.58S449.05,190.77,445.68,185.82Z" style="fill:#fff"></path></g><path d="M430.43,175.14a23.58,23.58,0,0,0-6.79-3.79c-8.78-3.52-15.3-10.67-24.43-13.11-3.33-.88-8.94.09-13.08,1.06A43.22,43.22,0,0,1,376,160.39a87.44,87.44,0,0,0-13.57,1.21c-10.61,2.77-15.64,14.51-23,22.63-4,4.45-9.13,8.08-12,13.35-5.66,10.29-1.14,23.37,5.82,32.84,1.89,2.58,4,5.08,5.17,8.05s1.38,6.24,2.31,9.29c2.53,8.25,10,13.92,17.21,18.59,4.43,2.86,9.43,5.68,14.65,5,3.43-.46,6.48-2.39,9.85-3.18,7.75-1.83,16.12,2.59,23.7.13,8.72-2.84,12.3-13.22,19.49-18.92,4.22-3.35,9.74-5.11,13.16-9.27,3.81-4.64,4.13-11.27,3-17.17s-3.41-11.55-4.25-17.49c-.76-5.28-.33-10.67-.86-16S434.47,178.63,430.43,175.14Z" style="fill:#A365DB"></path><g style="opacity:0.4"><path d="M430.43,175.14a23.58,23.58,0,0,0-6.79-3.79c-8.78-3.52-15.3-10.67-24.43-13.11-3.33-.88-8.94.09-13.08,1.06A43.22,43.22,0,0,1,376,160.39a87.44,87.44,0,0,0-13.57,1.21c-10.61,2.77-15.64,14.51-23,22.63-4,4.45-9.13,8.08-12,13.35-5.66,10.29-1.14,23.37,5.82,32.84,1.89,2.58,4,5.08,5.17,8.05s1.38,6.24,2.31,9.29c2.53,8.25,10,13.92,17.21,18.59,4.43,2.86,9.43,5.68,14.65,5,3.43-.46,6.48-2.39,9.85-3.18,7.75-1.83,16.12,2.59,23.7.13,8.72-2.84,12.3-13.22,19.49-18.92,4.22-3.35,9.74-5.11,13.16-9.27,3.81-4.64,4.13-11.27,3-17.17s-3.41-11.55-4.25-17.49c-.76-5.28-.33-10.67-.86-16S434.47,178.63,430.43,175.14Z" style="fill:#fff"></path></g><circle cx="385.73" cy="214.97" r="49.28" style="fill:#A365DB"></circle><g style="opacity:0.1"><path d="M388.55,181.54c-2.75-4.86-9.37-6.1-14.85-5l-6.22,1.72c-7.37,2.48-13,8.55-17.46,14.89-2.74,3.86-5.26,8-6.37,12.61s-.63,9.79,2.19,13.6,8.28,5.78,12.58,3.8c4.84-2.23,6.61-8.05,9.82-12.3,2.59-3.44,6.24-5.9,9.77-8.37s7.1-5.08,9.44-8.7S390.66,185.29,388.55,181.54Z" style="fill:#fff"></path></g><g style="opacity:0.30000000000000004"><g style="opacity:0.43"><path d="M407,186.57c.64,3.47,8.33-.3,9.67-2A2.79,2.79,0,0,0,415.5,180c-2.9-1.16-5.41,1.09-7.25,3.15a4.62,4.62,0,0,0-1.25,2.18A3.66,3.66,0,0,0,407,186.57Z"></path></g><g style="opacity:0.43"><path d="M410.51,191.68a1.68,1.68,0,0,0-1.48-.84,3.78,3.78,0,0,0-.74.11,1.87,1.87,0,0,0-1.35,1.78v.1a2.33,2.33,0,0,0,.11.55c0,.06,0,.1,0,.16a1.38,1.38,0,0,0,1.72,1.31,2.39,2.39,0,0,0,1.49-1,1.43,1.43,0,0,0,.14-.2,1,1,0,0,0,.08-.18l.05-.07s0-.09,0-.13.09-.18.13-.28A1.76,1.76,0,0,0,410.51,191.68Z"></path></g><path d="M428.06,202.24a1.1,1.1,0,0,0,0-2.19A1.1,1.1,0,0,0,428.06,202.24Z"></path><path d="M405.89,180a1.7,1.7,0,0,0,2.06-1.16.77.77,0,0,1,0-.15,10.79,10.79,0,0,0,1-1.36,1.45,1.45,0,0,0-1.62-2.12,3.69,3.69,0,0,0-2.63,2.74A1.72,1.72,0,0,0,405.89,180Z"></path><g style="opacity:0.43"><path d="M401.57,175.18a.82.82,0,0,0,0-1.63A.82.82,0,0,0,401.57,175.18Z"></path></g><path d="M414.28,192.53a1.1,1.1,0,0,0,0-2.19A1.1,1.1,0,0,0,414.28,192.53Z"></path><path d="M424.66,206.74A2.34,2.34,0,1,0,427,204.4,2.38,2.38,0,0,0,424.66,206.74Z"></path><g style="opacity:0.43"><path d="M397.31,231.93a4.42,4.42,0,0,0-2.76-.63c-2,.23-5.23,3-3.06,5,1.91,1.74,4.93.14,6.25-1.56A1.76,1.76,0,0,0,397.31,231.93Z"></path></g><path d="M419.4,239.86a1.53,1.53,0,0,0,0,3.06A1.53,1.53,0,0,0,419.4,239.86Z"></path><path d="M422.16,235a.67.67,0,0,0,0,1.34A.67.67,0,0,0,422.16,235Z"></path><path d="M390.5,227.94a1.24,1.24,0,0,0,0,2.48A1.24,1.24,0,0,0,390.5,227.94Z"></path></g><g style="opacity:0.30000000000000004"><path d="M347,225a2.2,2.2,0,1,0,2.19,2.2A2.23,2.23,0,0,0,347,225Z"></path><g style="opacity:0.63"><path d="M388.06,234.88a4.73,4.73,0,0,0-2.36-3,5,5,0,0,0-3.91-.36,4.08,4.08,0,0,0-2.34,1.79,4.2,4.2,0,0,0-.39,3,2.94,2.94,0,0,0,.33.84,3.42,3.42,0,0,0,1.05,1.81l-.14-.11a5.66,5.66,0,0,0,.86.67,3.51,3.51,0,0,0,1.24.42l-.22,0a5.91,5.91,0,0,0,3,0A4.22,4.22,0,0,0,388.06,234.88Z"></path></g><path d="M354.65,229.18a1,1,0,0,0,0-2A1,1,0,0,0,354.65,229.18Z"></path><path d="M342,222.09a1.58,1.58,0,0,0,0-3.15A1.58,1.58,0,0,0,342,222.09Z"></path></g><g style="opacity:0.2"><path d="M434.72,220.42c0-.34.08-.68.11-1a.92.92,0,0,0,0-.16v-.1c0-.36.06-.71.08-1.07s0-.68.05-1c0-.51,0-1,0-1.51,0-1.26,0-2.5-.1-3.74,0-.17,0-.35,0-.52s0-.32,0-.48c0-.45-.07-.89-.12-1.33a49.29,49.29,0,0,0-1.39-7.4c-.16-.57-.32-1.14-.49-1.7q-.37-1.22-.81-2.4c-.23-.63-.47-1.24-.72-1.86s-.61-1.43-.95-2.13c-.12-.28-.25-.55-.38-.82h0l-.3-.61c-.05-.09-.1-.19-.16-.28-.2-.4-.41-.8-.63-1.19l-.22-.4c-.06-.1-.12-.19-.17-.29a5.74,5.74,0,0,0-.32-.53c-.42-.75-.89-1.48-1.36-2.19l-.07-.11c-.4-.6-.81-1.19-1.24-1.76l-.39-.53-.29-.39,0,0c-.78-1-1.59-2-2.45-2.95l-.39-.43-.56-.6c-.35-.37-.7-.73-1.06-1.08l-.29-.3h0l-.53-.5a0,0,0,0,0,0,0,47.67,47.67,0,0,0-4.56-3.81c.29.24.58.49.86.75a.19.19,0,0,1,.07.06l.9.82h0c.18.17.36.33.53.51h0l.29.29c.36.36.72.72,1.06,1.09.2.2.38.4.56.6s.26.29.39.43c.86,1,1.68,1.93,2.46,3v0l.3.39c.56.75,1.11,1.5,1.63,2.29l.06.1a3.16,3.16,0,0,1,.18.27c.52.81,1,1.63,1.51,2.46l.16.28.22.41.45.82.34.65c.1.2.21.4.3.6h0c.2.42.4.84.59,1.26s.5,1.1.72,1.65c.31.74.6,1.48.87,2.23s.46,1.36.67,2,.35,1.14.5,1.72c.08.29.15.58.23.88a48.88,48.88,0,0,1,1.29,7.85l0,.49c0,.14,0,.28,0,.41.06.82.09,1.63.1,2.46,0,.46,0,.92,0,1.39,0,.84,0,1.67-.1,2.52,0,.35,0,.7-.07,1.05v0c0,.43-.08.85-.14,1.28a5,5,0,0,1-.06.54c0,.15,0,.3-.06.45s-.07.55-.11.82c-.15,1-.33,2-.55,3-.11.56-.24,1.13-.38,1.68a3,3,0,0,1-.09.32q-.35,1.41-.78,2.76l-.27.79a48.73,48.73,0,0,1-6,12l-.05.07c-.37.54-.75,1.06-1.13,1.59a51.7,51.7,0,0,1-7.23,7.76c-.82.7-1.66,1.39-2.51,2h0a50.56,50.56,0,0,1-5.66,3.71h0a49.63,49.63,0,0,1-9.43,4.07h0c-1,.32-2,.6-3.09.86-.55.13-1.09.25-1.64.36-.84.18-1.69.33-2.54.46a47.45,47.45,0,0,1-5.49.51,49.27,49.27,0,0,1-23.09-4.71c-1-.47-2-1-2.94-1.52-.77-.43-1.53-.88-2.27-1.35s-1.47-1-2.18-1.47l-.94-.69c.49.42,1,.82,1.47,1.2.21.18.42.34.63.5l.12.09a1.18,1.18,0,0,0,.22.17q.6.47,1.23.9A45.88,45.88,0,0,0,361.6,258c1,.55,1.94,1,2.94,1.52a49.51,49.51,0,0,0,28.58,4.2l.83-.13c.58-.09,1.14-.2,1.71-.32s1.09-.24,1.63-.37a49.23,49.23,0,0,0,14.51-6.1,48.87,48.87,0,0,0,6.16-4.54c.76-.66,1.51-1.35,2.23-2a47.84,47.84,0,0,0,4.06-4.48c.33-.42.67-.84,1-1.27s.77-1,1.14-1.58c.6-.87,1.17-1.76,1.71-2.68h0A49.28,49.28,0,0,0,433.27,228c0-.17.09-.34.13-.51s.11-.39.16-.59l.21-.85.18-.86.12-.59c.09-.43.17-.85.24-1.28l.18-1.07c.06-.42.12-.84.17-1.27Z" style="fill:#fff"></path></g><path d="M427,188.18a1.57,1.57,0,0,1-.26-.31l-.7-.94-1.13-1.53a16,16,0,0,0-1.61-2l-2.16-2.43a12.51,12.51,0,0,0-1.32-1.3l-1.47-1.36a18.69,18.69,0,0,0-1.62-1.42l-1.82-1.38c-.64-.46-1.25-1-2-1.43l-2.18-1.33A51.4,51.4,0,0,0,400.41,168l-3-.81c-.52-.13-1-.29-1.55-.4l-1.61-.26c-1.07-.17-2.16-.41-3.27-.52l-3.4-.24-.87-.06-.87,0-1.76.05-1.77,0c-.6,0-1.19.13-1.79.18-1.19.17-2.41.26-3.62.48l-3.63.81a48.74,48.74,0,0,0-25.69,16.45l-2.25,3c-.71,1-1.3,2.07-1.95,3.09-.3.52-.66,1-.92,1.54l-.78,1.6c-.26.53-.52,1-.77,1.58l-.39.78-.3.81L339,199.32c-.36,1.06-.6,2.15-.9,3.19-.15.53-.29,1.05-.43,1.57s-.19,1-.29,1.57c-.18,1-.35,2.07-.53,3.08a51.7,51.7,0,0,0-.07,11.38l.3,2.53c.1.82.33,1.6.48,2.37s.33,1.52.49,2.24a20.64,20.64,0,0,0,.61,2.06c.21.66.42,1.29.62,1.91a13.65,13.65,0,0,0,.63,1.74c.47,1.09.91,2.08,1.3,3a18.29,18.29,0,0,0,1.17,2.31l.92,1.67c.24.43.43.77.56,1a1.55,1.55,0,0,1,.18.36,2.9,2.9,0,0,1-.22-.33c-.15-.25-.35-.59-.61-1l-1-1.64A19.18,19.18,0,0,1,341,236c-.4-.9-.85-1.89-1.34-3a13.68,13.68,0,0,1-.66-1.74c-.2-.62-.42-1.26-.64-1.92a19.88,19.88,0,0,1-.64-2.06l-.5-2.25c-.16-.77-.4-1.56-.5-2.38s-.21-1.68-.32-2.55a51.1,51.1,0,0,1,0-11.47c.17-1,.34-2.06.52-3.11.09-.52.16-1.06.28-1.59l.42-1.58c.3-1.06.54-2.16.91-3.23s.8-2.13,1.2-3.22l.31-.82.38-.79.78-1.6c.26-.53.53-1.07.79-1.61s.62-1,.92-1.57c.65-1,1.26-2.1,2-3.12l2.28-3a49,49,0,0,1,25.95-16.61l3.67-.82c1.22-.21,2.45-.31,3.66-.47.6-.06,1.2-.18,1.8-.18l1.8,0,1.77,0,.88,0,.88.06,3.43.26c1.12.11,2.22.36,3.31.53l1.61.27c.53.11,1.05.28,1.56.41l3.05.83A50.62,50.62,0,0,1,411,172.41l2.19,1.35c.7.44,1.32,1,2,1.45l1.83,1.41a18.89,18.89,0,0,1,1.61,1.44l1.47,1.38a13.63,13.63,0,0,1,1.31,1.33c.78.9,1.5,1.72,2.14,2.47a17.59,17.59,0,0,1,1.58,2.07l1.09,1.56.66,1Z" style="fill:#fff"></path><g style="opacity:0.6000000000000001"><path d="M445.23,196.37a3.09,3.09,0,0,0-3.7-2.16h0a3.21,3.21,0,0,0-1.19,2.52,8,8,0,0,1-.17,2.39,2.63,2.63,0,0,0,.55,2.48c1.14,1.15,2.59.27,3.41-.76A5,5,0,0,0,445.23,196.37Z" style="fill:#fff"></path></g><path d="M328,254.43a2.91,2.91,0,0,0-2.73.23,4.05,4.05,0,0,0-1.94,3.41,3.5,3.5,0,0,0,3.59,3.34,2,2,0,0,0,1.16-.45,2.31,2.31,0,0,0,.57-.77C329.52,258.52,330.29,255.42,328,254.43Z" style="fill:#A365DB"></path><g style="opacity:0.6000000000000001"><path d="M328,254.43a2.91,2.91,0,0,0-2.73.23,4.05,4.05,0,0,0-1.94,3.41,3.5,3.5,0,0,0,3.59,3.34,2,2,0,0,0,1.16-.45,2.31,2.31,0,0,0,.57-.77C329.52,258.52,330.29,255.42,328,254.43Z" style="fill:#fff"></path></g><g style="opacity:0.1"><path d="M421.56,182.46c.33-.13.83.12,1.35.87a8.5,8.5,0,0,1,1.25,3.63,25.77,25.77,0,0,1,0,5.71,35.55,35.55,0,0,1-1.5,7.35,37.67,37.67,0,0,1-3.81,8.45,35.39,35.39,0,0,1-7,8.37,28.72,28.72,0,0,1-2.36,1.85,23.52,23.52,0,0,1-2.64,1.71,19.17,19.17,0,0,1-6.85,2.41,16.94,16.94,0,0,1-4,.05c-1.2-.11-2.25-.3-3.16-.45a23.11,23.11,0,0,0-2.34-.3,15.86,15.86,0,0,0-2.18,0,17.1,17.1,0,0,0-8.12,2.75,16.82,16.82,0,0,0-3.17,2.72c-1,1.08-2,2.35-3.05,3.68-2.08,2.64-4.37,5.63-7.59,7.86a16.18,16.18,0,0,1-10.3,3,20.36,20.36,0,0,1-7.84-2,24.62,24.62,0,0,1-4.81-3c-2.36-1.91-3.35-3.31-3-3.93s2.08-.4,4.83.31,6.59,1.85,10.6,1.26a10.19,10.19,0,0,0,2.82-.81,9.66,9.66,0,0,0,2.47-1.68,34.43,34.43,0,0,0,5.05-6.61,54.91,54.91,0,0,1,3.32-4.58,25.44,25.44,0,0,1,4.86-4.59,26,26,0,0,1,13.22-4.75,24.84,24.84,0,0,1,3.66,0,32.64,32.64,0,0,1,3.37.47,15.54,15.54,0,0,0,4.09.48,9.92,9.92,0,0,0,3.4-1.05,17.35,17.35,0,0,0,1.85-1c.63-.36,1.22-.79,1.8-1.2a35.56,35.56,0,0,0,10.06-12.13,51.41,51.41,0,0,0,2.64-5.87c.68-1.8,1.25-3.4,1.62-4.63C420.88,184.3,420.88,182.76,421.56,182.46Z" style="fill:#fff"></path></g><g style="opacity:0.1"><path d="M430.59,214.26c.33.67-.49,1.74-1.74,3.45a61.61,61.61,0,0,0-4.75,7.35c-1.84,3.23-3.7,7.49-6.81,12.33A41.48,41.48,0,0,1,414.6,241a34.93,34.93,0,0,1-3.37,3.53,46.73,46.73,0,0,1-8,5.76,67.71,67.71,0,0,1-16.88,7,55.67,55.67,0,0,1-14.82,1.94,25.24,25.24,0,0,1-10.11-2.05c-2.25-1.08-3.21-2.2-3-2.86s1.59-.91,3.73-1.12a71.51,71.51,0,0,0,8.72-1.31,97.59,97.59,0,0,0,12.6-3.76A93.41,93.41,0,0,0,398,241.33a48.36,48.36,0,0,0,6.53-4.45,34,34,0,0,0,5-5.12c3-3.75,5.71-7.89,8.65-11.06a24.2,24.2,0,0,1,8.28-6.25C428.79,213.49,430.3,213.64,430.59,214.26Z" style="fill:#fff"></path></g><g style="opacity:0.1"><path d="M401.57,182.46a2.81,2.81,0,0,0-3.89-1.55,3,3,0,0,0-1.3,3.34,2.6,2.6,0,0,0,3.05,1.69A3.16,3.16,0,0,0,401.57,182.46Z" style="fill:#fff"></path></g></g><g id="freepik--Venus--inject-24"><circle cx="272.68" cy="223.92" r="21.94" transform="translate(-72.31 149.94) rotate(-27.29)" style="fill:#455a64"></circle><g style="opacity:0.30000000000000004"><path d="M270.8,202c.1.42.18.81.25,1.08a4.42,4.42,0,0,0-3,1.34c-.67.9-.55,2.14-.83,3.23a1.15,1.15,0,0,1-.52.81,1.28,1.28,0,0,1-.82,0c-1.59-.35-3.42-.87-4.71.13-.74.58-1.22,1.63-2.15,1.75s-1.7-.89-2-1.86A21.88,21.88,0,0,1,270.8,202Z"></path></g><g style="opacity:0.30000000000000004"><path d="M261.93,213a.27.27,0,0,1-.15,0c-2-1,.8-4.41,2.44-4.12A1.29,1.29,0,0,1,265,211c-.66,1-2.06,1.11-2.85,2A.32.32,0,0,1,261.93,213Z"></path></g><g style="opacity:0.30000000000000004"><path d="M256.47,216.07c-.28.09-.56-.13-.74-.36a2.52,2.52,0,0,1-.08-2.84c1-1.45,3.69-1.6,4,.43a1.61,1.61,0,0,1-1,1.79c-.39.13-.82.09-1.19.24a3,3,0,0,0-.81.57A.73.73,0,0,1,256.47,216.07Z"></path></g><g style="opacity:0.30000000000000004"><path d="M256.47,222.4c-.3,0-.59-.26-.87-.15s-.33.45-.58.48-.38-.23-.44-.46a3,3,0,0,1,.27-2.16,1,1,0,0,1,.25-.31,2,2,0,0,1,.9-.23,1.11,1.11,0,0,1,.92.69,2.47,2.47,0,0,1,.15,1.18C257.05,221.86,256.88,222.37,256.47,222.4Z"></path></g><g style="opacity:0.30000000000000004"><path d="M259.1,219.19c1.17-.93,3,.12,3.7,1.12.57.79,1,3.14-.72,2.93a2,2,0,0,1-1.41-.9,4.34,4.34,0,0,0-.64-1l-.07-.06c-.34-.23-.8-.3-1.08-.6A1.07,1.07,0,0,1,259.1,219.19Z"></path></g><g style="opacity:0.30000000000000004"><path d="M259.36,222.87a.68.68,0,0,1-.19.53.57.57,0,0,1-.44.1.82.82,0,0,1,.2-1.62A1.47,1.47,0,0,1,259.36,222.87Z"></path></g><g style="opacity:0.30000000000000004"><path d="M259.16,221.93a.86.86,0,0,0-.23-.05l-.08-.08Z"></path></g><g style="opacity:0.30000000000000004"><path d="M253.09,216.72a2.08,2.08,0,0,1,.19,1.48,9,9,0,0,1-.64,1.08c-.61,1.22.21,2.94-.7,4a2.26,2.26,0,0,1-1.17.62,21.83,21.83,0,0,1,1.58-8.18A3.15,3.15,0,0,1,253.09,216.72Z"></path></g><g style="opacity:0.30000000000000004"><path d="M252.31,231.89a22.18,22.18,0,0,1-1.43-5.84c1.13-1,2.14-1.86,3.87-1.58a2.32,2.32,0,0,1,2,1.75,3.28,3.28,0,0,1-.19,1.38c-.13.49-.27,1-.4,1.46a1.33,1.33,0,0,1-.26.55c-.43.45-1.18,0-1.8.12a1.6,1.6,0,0,0-1.11.77,7.23,7.23,0,0,0-.59,1.26Z"></path></g><g style="opacity:0.30000000000000004"><path d="M259.1,230a3.4,3.4,0,0,1-.09-.9,6,6,0,0,0-.39-1.22,1.27,1.27,0,0,1,.15-1.21.51.51,0,0,1,.34-.17.66.66,0,0,1,.37.19,6.86,6.86,0,0,1,1.44,2.08l-.21-.25a1.57,1.57,0,0,1,.28.86,1.2,1.2,0,0,1-.72,1.09A.93.93,0,0,1,259.1,230Z"></path></g><g style="opacity:0.30000000000000004"><path d="M282,209.38a1,1,0,0,0-.39-.22c-.43-.1-.75.4-1.17.54a1.05,1.05,0,0,1-1.16-.5c-1.18-1.92,1.64-3.24,3.18-2.47S284.42,211.2,282,209.38Z"></path></g><g style="opacity:0.30000000000000004"><path d="M279.38,220.11a9.35,9.35,0,0,1-.41-2.17,3,3,0,0,1,.28-1.73,3.16,3.16,0,0,1,2.64-1.2,4.28,4.28,0,0,1,2.53.43,8.93,8.93,0,0,1,1.26,1.12c.69.64,1.52,1.11,2.22,1.74a3.83,3.83,0,0,1,1.11,1.59,7.78,7.78,0,0,1,1.2,5,2.93,2.93,0,0,1-.89,2c-1.09.88-2.82.24-4,.95s-1.48,2.13-2.65,2.49-2.25-.59-3-1.51c-1.07-1.29-2.05-3-1.44-4.56.39-1.05,1.45-1.86,1.45-3A4.09,4.09,0,0,0,279.38,220.11Z"></path></g><g style="opacity:0.30000000000000004"><path d="M290,217.41l-1.58-1a1.16,1.16,0,0,1-.4-.36.74.74,0,0,1,.43-1,1.19,1.19,0,0,1,1.16.28,3.49,3.49,0,0,1,.72,1l-.38-.46A1.45,1.45,0,0,1,290,217.41Z"></path></g><g style="opacity:0.30000000000000004"><path d="M292,221.36c-.08.33-.47.59-.76.42a.88.88,0,0,1-.31-.46c-.16-.45-.33-.9-.5-1.34a.71.71,0,0,1-.06-.45.44.44,0,0,1,.5-.24.8.8,0,0,1,.48.33,3.68,3.68,0,0,1,.62,1.59l-.11-.83A1.61,1.61,0,0,1,292,221.36Z"></path></g><g style="opacity:0.30000000000000004"><path d="M262.21,216.88a.59.59,0,0,1,.61-1A.59.59,0,0,1,262.21,216.88Z"></path></g><g style="opacity:0.30000000000000004"><path d="M264.2,213.39a.77.77,0,0,1-.79,1.31A.77.77,0,0,1,264.2,213.39Z"></path></g><g style="opacity:0.30000000000000004"><path d="M264.69,219.74a3.42,3.42,0,0,1,.34-4.22c.7-.7,1.82-1.05,2.48-.13a2.78,2.78,0,0,1-.2,2.93c-.39.75-.2,1.09,0,1.85a2.65,2.65,0,0,1,0,1.37,1.25,1.25,0,0,1-1.95.72C264.74,221.74,264.71,220.64,264.69,219.74Z"></path></g><g style="opacity:0.30000000000000004"><path d="M259.85,224.19a3.76,3.76,0,0,1,1.71.61l.18.12a1.31,1.31,0,0,1,.6,1.63,1.07,1.07,0,0,1-1.5.36,2.15,2.15,0,0,1-.58-.62,3.7,3.7,0,0,0-.79-.74C258.92,225.19,259.08,224.09,259.85,224.19Z"></path></g><g style="opacity:0.30000000000000004"><path d="M263.15,225a.72.72,0,0,1-.21-.38.52.52,0,0,1,.76-.56.6.6,0,0,1,.29.73A.51.51,0,0,1,263.15,225Z"></path></g><g style="opacity:0.30000000000000004"><path d="M275.82,222.87c-1.05-.34-1.13-1.49-1.25-2.41s-.36-2,.46-2.64a1.71,1.71,0,0,1,2.43.55,3.56,3.56,0,0,1,.43,2.76,1.48,1.48,0,0,1-.2.44,2.5,2.5,0,0,1-.07.26A1.48,1.48,0,0,1,275.82,222.87Z"></path></g><g style="opacity:0.30000000000000004"><path d="M275.51,225.31a.53.53,0,0,1,0-.25V225a.82.82,0,0,1,.22-.82.68.68,0,0,1,1,0,1,1,0,0,1,0,1.43A.72.72,0,0,1,275.51,225.31Z"></path></g><g style="opacity:0.30000000000000004"><path d="M273.41,225.48c-.76-.09-1-.78-1.26-1.41a11,11,0,0,1-.75-2,1.47,1.47,0,0,1,.51-1.56,1,1,0,0,1,1.4.33,5.12,5.12,0,0,1,.48,1.9,1.34,1.34,0,0,0,.07.27l0,0C274.63,223.68,274.92,225.65,273.41,225.48Z"></path></g><g style="opacity:0.30000000000000004"><path d="M294.43,220.67a4.35,4.35,0,0,1-2.39-2,5.23,5.23,0,0,1-.25-4.37,2.16,2.16,0,0,1,.17-1A21.93,21.93,0,0,1,294.43,220.67Z"></path></g><g style="opacity:0.30000000000000004"><path d="M285.9,233.92l-.13,0a2.51,2.51,0,0,1-2,.92.59.59,0,0,1-.89,0,1.39,1.39,0,0,1-.35-.95,1.59,1.59,0,0,1,.09-1.13c.31-.67.88-.89,1.45-1.28l.05,0a7.11,7.11,0,0,0,.69-.85,3.25,3.25,0,0,1,.37-.52,1.32,1.32,0,0,1,1.78.2,1.63,1.63,0,0,1,.17.2c.3.08.38.46.39.79a8.22,8.22,0,0,1,.21.82l-.22-.55a3.63,3.63,0,0,1-.27,1.54A1.4,1.4,0,0,1,285.9,233.92Z"></path></g><g style="opacity:0.30000000000000004"><path d="M279.05,212.76a.87.87,0,0,1,.66,1.38,1.89,1.89,0,0,1-.66.53l-.19.12-.06.13a1.72,1.72,0,0,1-.43.64c-.46.38-1.36.14-1.29-.57a1.76,1.76,0,0,1,.5-1.11l.05-.07A1.5,1.5,0,0,1,279.05,212.76Z"></path></g><g style="opacity:0.30000000000000004"><path d="M281,238.93c.24-1.1,1.52-1.13,2.33-1.58s1-1.8,2.12-1.87a1.17,1.17,0,0,1,1.15,1.45,3.9,3.9,0,0,1-1.27,2.16,3.09,3.09,0,0,1-3.15,1.55A1.53,1.53,0,0,1,281,238.93Z"></path></g><g style="opacity:0.30000000000000004"><path d="M288.12,233.44a.62.62,0,0,1,1.12.17,3.07,3.07,0,0,1-.05,1.38c-.14.41-.48.93-1,.92h-.11a1.11,1.11,0,0,1-.7-2.09C287.67,233.69,288,233.69,288.12,233.44Z"></path></g><g style="opacity:0.30000000000000004"><path d="M288.39,231.29a.5.5,0,0,1,.27-.47.41.41,0,0,1,.49.07.52.52,0,0,1,.13.53.44.44,0,0,1-.5.32A.46.46,0,0,1,288.39,231.29Z"></path></g><g style="opacity:0.30000000000000004"><path d="M290.54,236c.79-1.53.55-2.7.25-4.31a4.29,4.29,0,0,1,.15-2.58c.63-1.38,2.09-1.92,3.52-2.2a21.82,21.82,0,0,1-2.94,8.27c-.32.54-.66,1.05-1,1.55A.93.93,0,0,1,290.54,236Z"></path></g><g style="opacity:0.30000000000000004"><path d="M292.66,226.1a.89.89,0,0,1-1.17-.34s0,0,0,0a1.06,1.06,0,0,1-.17-.26.85.85,0,0,1,.36-1,1.8,1.8,0,0,1,.57-.25,5.48,5.48,0,0,1,2.43-.62c0,.72,0,1.43-.07,2.15A4.92,4.92,0,0,0,292.66,226.1Z"></path></g><g style="opacity:0.30000000000000004"><path d="M292.84,221.53a.49.49,0,0,1,.86,0c0,.07.05.13.08.19l0,.05a.62.62,0,0,1,0,.48,1,1,0,0,1-.16.4.49.49,0,0,1-.13.12.27.27,0,0,1-.07.08.43.43,0,0,1-.6,0,1,1,0,0,1-.31-.84A.74.74,0,0,1,292.84,221.53Z"></path></g><g style="opacity:0.30000000000000004"><path d="M290.43,228.31a.84.84,0,0,1-.52.31c-.36.68-1.2,1.27-1.79.63a.79.79,0,0,1,.2-1.16,6,6,0,0,1,1.48-.65A.54.54,0,0,1,290.43,228.31Z"></path></g><g style="opacity:0.30000000000000004"><path d="M256.09,217a1.21,1.21,0,0,1,1.24-.5,2.72,2.72,0,0,0,1.41-.21.62.62,0,0,1,.82.85,2,2,0,0,1-1.43,1,1.73,1.73,0,0,1-1.49-.22,1.51,1.51,0,0,1-.36-.18A.56.56,0,0,1,256.09,217Z"></path></g><g style="opacity:0.30000000000000004"><path d="M255.11,212.11a2.75,2.75,0,0,1-1.41.82c.07-.13.14-.26.22-.39a21.58,21.58,0,0,1,2.19-3l0,.07A2.91,2.91,0,0,1,255.11,212.11Z"></path></g><g style="opacity:0.30000000000000004"><path d="M261.13,235.77c-.14-.79.69-1.34,1.35-1.52,1-.27,1.85,0,2.73-.6a3.78,3.78,0,0,1,2.29-1,1.44,1.44,0,0,1,1.32,1.11,1.75,1.75,0,0,1-.52,1.53,2.84,2.84,0,0,1-1,1.41,3.5,3.5,0,0,1-3.54.4C262.67,237.27,261.33,236.91,261.13,235.77Z"></path></g><g style="opacity:0.30000000000000004"><path d="M264.06,233.13a.84.84,0,0,1-.07-1,1,1,0,0,1,1.11-.45.63.63,0,0,1,.5.2c.51.54-.05,1.32-.65,1.44A1,1,0,0,1,264.06,233.13Z"></path></g><g style="opacity:0.30000000000000004"><path d="M269,237a.56.56,0,0,1-.4-.41,1.4,1.4,0,0,1,.39-1.21.58.58,0,0,1,.95.28.74.74,0,0,1,.14.87A.93.93,0,0,1,269,237Z"></path></g><g style="opacity:0.2;mix-blend-mode:multiply"><path d="M266.36,202.94a21.95,21.95,0,0,0,18.44,39.33,21.95,21.95,0,1,1-18.44-39.33Z"></path></g><path d="M286.93,240.24h0s.4-.47,1.09-1.32a23.64,23.64,0,0,0,2.55-3.87,22.4,22.4,0,0,0,2.25-6.55,22.14,22.14,0,0,0-.15-8.56l.2.2h0l-.16,0,0-.17c-.13-.52-.25-1.05-.38-1.59s-.35-1.06-.52-1.6a21.13,21.13,0,0,0-5.43-8.07,23.64,23.64,0,0,0-6.66-4.39,25.33,25.33,0,0,0-5.18-1.61,17.47,17.47,0,0,1-2-.36,3,3,0,0,1,.52,0c.34,0,.85.05,1.49.15a22.84,22.84,0,0,1,5.28,1.47,23.35,23.35,0,0,1,6.85,4.38,21.21,21.21,0,0,1,5.58,8.23c.18.56.39,1.1.54,1.65s.26,1.1.38,1.64l-.2-.21h0l.17,0,0,.17a22.34,22.34,0,0,1,.1,8.76,22.11,22.11,0,0,1-2.39,6.62,21.08,21.08,0,0,1-2.72,3.83c-.37.41-.67.72-.88.91s-.33.3-.35.29Z" style="fill:#fff"></path><path d="M300.15,217.5a2.23,2.23,0,1,1-.14.06" style="fill:#455a64"></path><path d="M295.74,212.34a1.32,1.32,0,1,1-.08,0" style="fill:#455a64"></path></g><g id="freepik--Mars--inject-24"><circle cx="201.11" cy="293.49" r="25.05" transform="translate(-134.23 174.64) rotate(-36.06)" style="fill:#A365DB"></circle><path d="M195.63,301.59a5.45,5.45,0,1,0,6.07-4.75A5.46,5.46,0,0,0,195.63,301.59Z" style="fill:#A365DB"></path><g style="opacity:0.30000000000000004"><path d="M195.63,301.59a5.45,5.45,0,1,0,6.07-4.75A5.46,5.46,0,0,0,195.63,301.59Z"></path></g><path d="M195,301.57a5.27,5.27,0,0,0,4.55,6,5.46,5.46,0,0,0,5.9-5,5.1,5.1,0,0,0-4.59-5.81A5.26,5.26,0,0,0,195,301.57Z" style="fill:#A365DB"></path><g style="opacity:0.30000000000000004"><path d="M196,268.94a25.06,25.06,0,0,0-13.19,14.83,3.09,3.09,0,0,1,.83,2.31c-.15,1.05-1.32,1.36-1.74,1.43-.06.36-.12.72-.17,1.09a25.07,25.07,0,0,0-.05,5.54c.07.05,2.14,1.6,2.25,3a4.73,4.73,0,0,1-.92,2.89c.15.43.31.85.49,1.26a25.08,25.08,0,0,0,6.23,8.82,3.85,3.85,0,0,1,3.06,0c1.45.74,1,2.86,1,2.86l-.18.06a25,25,0,0,0,18.06,3.14A25,25,0,1,1,196,268.94Z"></path></g><g style="opacity:0.30000000000000004"><path d="M182.87,289.05a.6.6,0,0,0,1.2.14.6.6,0,0,0-.52-.67A.62.62,0,0,0,182.87,289.05Z"></path></g><path d="M210.46,304.89a8.5,8.5,0,0,1,1.53-3.12c.43-.61,1-1.26,1.8-1.16l.64.1a2.42,2.42,0,0,1,2.63.64,3,3,0,0,1,.58,2.52,5.75,5.75,0,0,1-1.19,2.38,10.7,10.7,0,0,1-2.16,2.09,2.85,2.85,0,0,1-1.52.66,2.17,2.17,0,0,1-1.61-.81A3.87,3.87,0,0,1,210.46,304.89Z" style="fill:#A365DB"></path><g style="opacity:0.30000000000000004"><path d="M210.37,304.88a8.32,8.32,0,0,1,1.52-3.12c.44-.61,1.06-1.26,1.81-1.16l.63.1a2.42,2.42,0,0,1,2.64.64,3,3,0,0,1,.58,2.52,5.75,5.75,0,0,1-1.19,2.38,11,11,0,0,1-2.16,2.09,2.85,2.85,0,0,1-1.52.66,2.15,2.15,0,0,1-1.61-.81A3.87,3.87,0,0,1,210.37,304.88Z"></path></g><path d="M209.87,304.82a8.32,8.32,0,0,1,1.52-3.12,2.78,2.78,0,0,1,1.81-1.16l1-.16a2.73,2.73,0,0,1,2.29.9,3,3,0,0,1,.58,2.52,5.75,5.75,0,0,1-1.19,2.38,11,11,0,0,1-2.16,2.09,2.45,2.45,0,0,1-1.43.56,1.88,1.88,0,0,1-1.43-.87A3.69,3.69,0,0,1,209.87,304.82Z" style="fill:#A365DB"></path><path d="M202.87,313.75a7.55,7.55,0,0,1-2.68-.34c-.55-.15-1.17-.41-1.25-.9l0-.43a1.39,1.39,0,0,1,0-1.8,2.62,2.62,0,0,1,1.81-.88,5,5,0,0,1,2,.27,8.75,8.75,0,0,1,2,.94,1.88,1.88,0,0,1,.8.83,1.33,1.33,0,0,1-.29,1.19A3.51,3.51,0,0,1,202.87,313.75Z" style="fill:#A365DB"></path><g style="opacity:0.30000000000000004"><path d="M203,313.76a7.8,7.8,0,0,1-2.68-.33c-.55-.16-1.17-.42-1.24-.91l-.05-.43a1.4,1.4,0,0,1,0-1.8,2.66,2.66,0,0,1,1.81-.88,5.25,5.25,0,0,1,2,.27,8.68,8.68,0,0,1,2,.94,1.8,1.8,0,0,1,.8.84,1.26,1.26,0,0,1-.29,1.18A3.44,3.44,0,0,1,203,313.76Z"></path></g><path d="M202.34,313.87a7.54,7.54,0,0,1-2.68-.33,2,2,0,0,1-1.24-.91l-.32-.59a1.63,1.63,0,0,1,.23-1.63,2.67,2.67,0,0,1,1.81-.89,5.07,5.07,0,0,1,2.05.28,8.68,8.68,0,0,1,2,.94,1.59,1.59,0,0,1,.71.79c.13.39-.1.74-.38,1.09A3.17,3.17,0,0,1,202.34,313.87Z" style="fill:#A365DB"></path><path d="M189.66,278.14a8.48,8.48,0,0,1,2.85-2,2.15,2.15,0,0,1,2.14-.14l.51.4a2.44,2.44,0,0,1,2,1.84,3,3,0,0,1-.72,2.49,5.66,5.66,0,0,1-2.2,1.49,10.75,10.75,0,0,1-2.9.79,2.8,2.8,0,0,1-1.65-.17,2.16,2.16,0,0,1-1-1.48A3.9,3.9,0,0,1,189.66,278.14Z" style="fill:#A365DB"></path><g style="opacity:0.30000000000000004"><path d="M189.66,278.14a8.48,8.48,0,0,1,2.85-2,2.15,2.15,0,0,1,2.14-.14l.51.4a2.44,2.44,0,0,1,2,1.84,3,3,0,0,1-.72,2.49,5.66,5.66,0,0,1-2.2,1.49,10.75,10.75,0,0,1-2.9.79,2.8,2.8,0,0,1-1.65-.17,2.16,2.16,0,0,1-1-1.48A3.9,3.9,0,0,1,189.66,278.14Z"></path></g><path d="M188.73,278.4a8.4,8.4,0,0,1,2.85-2,2.82,2.82,0,0,1,2.14-.15l.94.34a2.79,2.79,0,0,1,1.56,1.9,3,3,0,0,1-.72,2.49,5.65,5.65,0,0,1-2.19,1.5,10.9,10.9,0,0,1-2.91.78,2.41,2.41,0,0,1-1.52-.21,1.85,1.85,0,0,1-.83-1.46A3.67,3.67,0,0,1,188.73,278.4Z" style="fill:#A365DB"></path><path d="M213.41,296.31a1.21,1.21,0,0,1,.47-.68,1.68,1.68,0,0,1,1.13-.13,1.17,1.17,0,0,1,.79.63,1.73,1.73,0,0,1,.29,1.3,1.35,1.35,0,0,1-2.42.55A1.78,1.78,0,0,1,213.41,296.31Z" style="fill:#A365DB"></path><g style="opacity:0.30000000000000004"><path d="M213.33,296.3a1.21,1.21,0,0,1,.47-.68,1.68,1.68,0,0,1,1.13-.13,1.17,1.17,0,0,1,.79.63,1.69,1.69,0,0,1,.28,1.3,1.39,1.39,0,0,1-.83,1,1.44,1.44,0,0,1-1.58-.47A1.78,1.78,0,0,1,213.33,296.3Z"></path></g><path d="M213.15,296.32a1.15,1.15,0,0,1,.44-.62,1.48,1.48,0,0,1,1-.12,1.11,1.11,0,0,1,.73.57,1.6,1.6,0,0,1,.25,1.2,1.28,1.28,0,0,1-.76.94,1.34,1.34,0,0,1-1.46-.43A1.68,1.68,0,0,1,213.15,296.32Z" style="fill:#A365DB"></path><g style="opacity:0.2"><path d="M213.15,296.32a1.15,1.15,0,0,1,.44-.62,1.48,1.48,0,0,1,1-.12,1.11,1.11,0,0,1,.73.57,1.6,1.6,0,0,1,.25,1.2,1.28,1.28,0,0,1-.76.94,1.34,1.34,0,0,1-1.46-.43A1.68,1.68,0,0,1,213.15,296.32Z"></path></g><path d="M215.71,281.28a1,1,0,0,1,.38-.55,1.35,1.35,0,0,1,.91-.11,1,1,0,0,1,.64.51,1.39,1.39,0,0,1,.22,1.05,1.14,1.14,0,0,1-.67.82,1.16,1.16,0,0,1-1.27-.38A1.46,1.46,0,0,1,215.71,281.28Z" style="fill:#A365DB"></path><g style="opacity:0.30000000000000004"><path d="M215.64,281.27a1,1,0,0,1,.38-.54,1.3,1.3,0,0,1,.91-.11,1,1,0,0,1,.64.5,1.41,1.41,0,0,1,.23,1.05,1.08,1.08,0,0,1-1.94.44A1.46,1.46,0,0,1,215.64,281.27Z"></path></g><path d="M215.5,281.29a1,1,0,0,1,.35-.5,1.21,1.21,0,0,1,.84-.1.9.9,0,0,1,.59.46,1.28,1.28,0,0,1,.2,1,1.06,1.06,0,0,1-.61.75,1.07,1.07,0,0,1-1.17-.35A1.35,1.35,0,0,1,215.5,281.29Z" style="fill:#A365DB"></path><g style="opacity:0.2"><path d="M215.5,281.29a1,1,0,0,1,.35-.5,1.21,1.21,0,0,1,.84-.1.9.9,0,0,1,.59.46,1.28,1.28,0,0,1,.2,1,1.06,1.06,0,0,1-.61.75,1.07,1.07,0,0,1-1.17-.35A1.35,1.35,0,0,1,215.5,281.29Z"></path></g><path d="M202.38,273.73a1.41,1.41,0,0,1,.5-.72,1.81,1.81,0,0,1,1.2-.14,1.3,1.3,0,0,1,.83.67,1.85,1.85,0,0,1,.3,1.37,1.47,1.47,0,0,1-.88,1.07,1.53,1.53,0,0,1-1.67-.49A1.93,1.93,0,0,1,202.38,273.73Z" style="fill:#A365DB"></path><g style="opacity:0.30000000000000004"><path d="M202.3,273.72a1.36,1.36,0,0,1,.5-.72,1.78,1.78,0,0,1,1.19-.14,1.29,1.29,0,0,1,.84.67,1.8,1.8,0,0,1,.29,1.37,1.47,1.47,0,0,1-.88,1.07,1.51,1.51,0,0,1-1.66-.49A1.91,1.91,0,0,1,202.3,273.72Z"></path></g><path d="M202.12,273.74a1.18,1.18,0,0,1,.45-.66,1.66,1.66,0,0,1,1.1-.13,1.19,1.19,0,0,1,.77.61,1.68,1.68,0,0,1,.27,1.27,1.37,1.37,0,0,1-.81,1,1.39,1.39,0,0,1-1.53-.45A1.77,1.77,0,0,1,202.12,273.74Z" style="fill:#A365DB"></path><g style="opacity:0.2"><path d="M202.12,273.74a1.18,1.18,0,0,1,.45-.66,1.66,1.66,0,0,1,1.1-.13,1.19,1.19,0,0,1,.77.61,1.68,1.68,0,0,1,.27,1.27,1.37,1.37,0,0,1-.81,1,1.39,1.39,0,0,1-1.53-.45A1.77,1.77,0,0,1,202.12,273.74Z"></path></g><path d="M207.29,274.6a.59.59,0,0,1,.25-.35.85.85,0,0,1,.59-.08.64.64,0,0,1,.42.34.87.87,0,0,1,.15.68.7.7,0,0,1-1.27.29A.92.92,0,0,1,207.29,274.6Z" style="fill:#A365DB"></path><g style="opacity:0.30000000000000004"><path d="M207.24,274.6a.72.72,0,0,1,.25-.36.88.88,0,0,1,.6-.07.65.65,0,0,1,.42.33,1,1,0,0,1,.15.69.74.74,0,0,1-.44.53.77.77,0,0,1-.84-.24A1,1,0,0,1,207.24,274.6Z"></path></g><path d="M207.15,274.61a.6.6,0,0,1,.23-.33.86.86,0,0,1,.55-.07.59.59,0,0,1,.38.31.79.79,0,0,1,.14.63.65.65,0,0,1-1.17.27A.87.87,0,0,1,207.15,274.61Z" style="fill:#A365DB"></path><g style="opacity:0.2"><path d="M207.15,274.61a.6.6,0,0,1,.23-.33.86.86,0,0,1,.55-.07.59.59,0,0,1,.38.31.79.79,0,0,1,.14.63.65.65,0,0,1-1.17.27A.87.87,0,0,1,207.15,274.61Z"></path></g><g style="opacity:0.2"><path d="M195,301.57a5.27,5.27,0,0,0,4.55,6,5.46,5.46,0,0,0,5.9-5,5.1,5.1,0,0,0-4.59-5.81A5.26,5.26,0,0,0,195,301.57Z"></path></g><g style="opacity:0.2"><path d="M209.87,304.82a8.32,8.32,0,0,1,1.52-3.12,2.78,2.78,0,0,1,1.81-1.16l1-.16a2.73,2.73,0,0,1,2.29.9,3,3,0,0,1,.58,2.52,5.75,5.75,0,0,1-1.19,2.38,11,11,0,0,1-2.16,2.09,2.45,2.45,0,0,1-1.43.56,1.88,1.88,0,0,1-1.43-.87A3.69,3.69,0,0,1,209.87,304.82Z"></path></g><g style="opacity:0.2"><path d="M202.34,313.87a7.54,7.54,0,0,1-2.68-.33,2,2,0,0,1-1.24-.91l-.32-.59a1.63,1.63,0,0,1,.23-1.63,2.67,2.67,0,0,1,1.81-.89,5.07,5.07,0,0,1,2.05.28,8.68,8.68,0,0,1,2,.94,1.59,1.59,0,0,1,.71.79c.13.39-.1.74-.38,1.09A3.17,3.17,0,0,1,202.34,313.87Z"></path></g><g style="opacity:0.2"><path d="M188.73,278.4a8.4,8.4,0,0,1,2.85-2,2.82,2.82,0,0,1,2.14-.15l.94.34a2.79,2.79,0,0,1,1.56,1.9,3,3,0,0,1-.72,2.49,5.65,5.65,0,0,1-2.19,1.5,10.9,10.9,0,0,1-2.91.78,2.41,2.41,0,0,1-1.52-.21,1.85,1.85,0,0,1-.83-1.46A3.67,3.67,0,0,1,188.73,278.4Z"></path></g><path d="M222,306.24h0s.3-.63.81-1.78a27.08,27.08,0,0,0,1.61-5A25,25,0,0,0,222,282.33l.24.13h0l-.16,0-.09-.16c-.32-.56-.64-1.17-1-1.76a24.16,24.16,0,0,0-3.39-4.19,26.23,26.23,0,0,0-4-3.12,27.33,27.33,0,0,0-7.83-3.34,29.06,29.06,0,0,0-5.72-.85c-1.36-.05-2.12,0-2.12-.08a2.11,2.11,0,0,1,.55-.07c.36,0,.89-.07,1.58-.06a26.92,26.92,0,0,1,13.79,4A26.67,26.67,0,0,1,218,276a24.9,24.9,0,0,1,3.48,4.28c.37.61.69,1.24,1,1.81l-.25-.14h0l.17,0,.08.15a25,25,0,0,1,2.86,9.44,24.69,24.69,0,0,1-.53,8,24.05,24.05,0,0,1-1.79,5,13.88,13.88,0,0,1-.69,1.28,2.33,2.33,0,0,1-.28.42h0Z" style="fill:#fff"></path><path d="M232.55,302.16a1.9,1.9,0,1,1-.12.06" style="fill:#A365DB"></path></g><g id="freepik--Saturn--inject-24"><ellipse cx="108.28" cy="244.47" rx="36.07" ry="34.26" style="fill:#A365DB"></ellipse><g style="opacity:0.2"><path d="M97.45,214.78a23.38,23.38,0,0,0,7.23,6.05c.66.39,1.26-.51.91-1-1.54-2.28-2.94-4.5-4.69-6.65-.48-.59-1-1.24-1.43-1.89a36.09,36.09,0,0,0-3.77,1.11C96.23,213.22,96.89,214,97.45,214.78Z"></path><path d="M95.13,220.78a53.16,53.16,0,0,0,17.07,14.11,61.69,61.69,0,0,0,21.86,6.77,52.58,52.58,0,0,0,10.19.29,32.5,32.5,0,0,0-.47-3.53,38.61,38.61,0,0,1-8.53.05,60.19,60.19,0,0,1-18.46-4.91,54.78,54.78,0,0,1-15.33-9.94c-2.83-2.65-6.55-6.33-8.22-10.28-.73.32-1.44.65-2.15,1A31.57,31.57,0,0,0,95.13,220.78Z" style="fill:#fff"></path><path d="M121.7,219.41c3.12,1.92,9.73,4.34,14,2.8a32.93,32.93,0,0,0-2.57-2.58,6.31,6.31,0,0,1-.76.09,16.64,16.64,0,0,1-7.72-1.75c-2.77-1.25-7.09-3.89-9.18-7.06-.74-.15-1.49-.27-2.25-.37C114.51,214.25,118.66,217.55,121.7,219.41Z" style="fill:#fff"></path><path d="M89.07,232c6,6.63,13.72,11.36,21.9,15.25a63.83,63.83,0,0,0,23.84,6.56,50.28,50.28,0,0,0,8.22-.12,33.18,33.18,0,0,0,1.29-7.9,52.19,52.19,0,0,1-11-.32,66.3,66.3,0,0,1-19.8-6.36c-6.53-3.17-12.87-7-18-12.05a51.61,51.61,0,0,1-6.65-8.21c-.5-.76-1-1.54-1.41-2.32a36.2,36.2,0,0,0-5.73,4.79A45.37,45.37,0,0,0,89.07,232Z"></path><path d="M84.22,256a116.93,116.93,0,0,1-12-9.59c0,.91.14,1.82.28,2.72,8.24,8.19,18.91,14.63,29.21,19.51a117.2,117.2,0,0,0,20.35,7.48c.68-.27,1.35-.55,2-.86a115.09,115.09,0,0,1-21.07-8A134.5,134.5,0,0,1,84.22,256Z"></path><path d="M119.39,224.38A32.43,32.43,0,0,0,134,229.25a27.32,27.32,0,0,0,6.37-.36c-.51-.94-1.06-1.87-1.67-2.77a19.68,19.68,0,0,1-5.31.32A30,30,0,0,1,121,222.49c-5.42-3-10.81-7.12-14.14-12.24-.85,0-1.69.08-2.53.17C107.6,216.31,114.31,221.35,119.39,224.38Z" style="fill:#fff"></path><path d="M131.78,270.46a85.35,85.35,0,0,1-9.6-1.29,78.23,78.23,0,0,1-35.55-16.5c-4.91-3.88-10.44-8.18-14-13.4-.13.8-.24,1.61-.31,2.42,2.82,3.93,7.21,7.25,10.68,10.22a91.13,91.13,0,0,0,18.35,12.46,87,87,0,0,0,27.39,8.3l.28-.17C130,271.85,130.9,271.17,131.78,270.46Z" style="fill:#fff"></path><path d="M104.27,260.4A89.58,89.58,0,0,0,131,268.21c1,.12,2,.21,3,.29a34,34,0,0,0,7.57-10.81,56.32,56.32,0,0,1-10.38-.53,80.62,80.62,0,0,1-22.69-7,70.23,70.23,0,0,1-20.17-13.75,56.59,56.59,0,0,1-8-10.21c-.4-.63-.77-1.3-1.14-2a33.53,33.53,0,0,0-5.77,11.55,56.16,56.16,0,0,0,6,7.45A81.63,81.63,0,0,0,104.27,260.4Z" style="fill:#fff"></path><path d="M130,231.3c-2.85-.9-5.75-1-8.54-2.31s-5.41-3.43-8.49-4.19c-1.53-.38-2.16,1.58-1.19,2.45,2.49,2.22,6.46,3.73,9.58,5.08,2.53,1.09,6,1.91,8.56.69C130.56,232.71,130.88,231.59,130,231.3Z"></path><path d="M92.44,269.29a9.45,9.45,0,0,0-2-.48c-.72-.09-1.13.93-.39,1.2a6.86,6.86,0,0,1,1.51.75,6.49,6.49,0,0,0,1.61.66.55.55,0,0,0,.69-.79A2.83,2.83,0,0,0,92.44,269.29Z" style="fill:#fff"></path><path d="M112.23,274.91c-3.74-1.38-7.42-3.83-11.39-4.48-.89-.15-1.75.92-1.1,1.65,2.79,3.16,7.66,4.69,11.61,6.1l1,.34a38.25,38.25,0,0,0,6.81-1.38C116.82,276.47,114.49,275.74,112.23,274.91Z"></path><path d="M86,265.26c1.17.28,1.54-1.15.88-1.81-2.28-2.27-5.59-3.67-8.2-5.65-1.72-1.31-3.42-2.64-5.07-4a32,32,0,0,0,1.84,4.78C78.49,261.61,82.1,264.32,86,265.26Z" style="fill:#fff"></path></g><path d="M92.3,272.8a3.91,3.91,0,0,1-1-.41,23.83,23.83,0,0,1-2.72-1.46,31.59,31.59,0,0,1-7.67-6.65,33.41,33.41,0,0,1-3.19-4.62,29.82,29.82,0,0,1-1.91-4.16c-.24-.6-.4-1.17-.55-1.67a10.58,10.58,0,0,1-.33-1.28,4.75,4.75,0,0,1-.19-1.12c.1,0,.45,1.55,1.41,3.94a33.88,33.88,0,0,0,2,4.05A36.06,36.06,0,0,0,81.26,264a34.61,34.61,0,0,0,7.47,6.67C90.88,272,92.34,272.72,92.3,272.8Z" style="fill:#fff"></path><path d="M142.38,249.63c0,.18-.93.37-2.66.54l-1.44.14c-.52,0-1.1,0-1.71,0a37,37,0,0,1-4.19-.16l-2.44-.23c-.84-.1-1.71-.28-2.61-.43a56.08,56.08,0,0,1-5.71-1.3,61,61,0,0,1-23.43-12.71,56.66,56.66,0,0,1-4.2-4.08c-.62-.68-1.25-1.3-1.78-2l-1.53-1.92a37.69,37.69,0,0,1-2.42-3.42c-.33-.52-.65-1-.92-1.45l-.67-1.28c-.8-1.54-1.15-2.43-1-2.52s.81.62,1.85,2l.85,1.13c.32.41.69.83,1.07,1.3.78.91,1.6,2,2.66,3.09l1.6,1.75c.55.6,1.2,1.17,1.83,1.79,1.23,1.27,2.7,2.47,4.2,3.76a68.41,68.41,0,0,0,22.58,12.26c1.91.55,3.71,1.13,5.45,1.47.86.19,1.69.42,2.5.56l2.34.39c1.48.3,2.84.38,4,.54.6.06,1.16.15,1.67.2l1.41.09C141.42,249.3,142.37,249.45,142.38,249.63Z" style="fill:#A365DB"></path><path d="M122.42,275.83a1,1,0,0,1,.23-.15l.68-.37L126,273.9h.06s-.11,0-.1.08l0-.08c.13-.07.27-.16.42-.26h.07l-.06,0A35.12,35.12,0,0,0,135.1,266l.16-.07s-.21.08-.19.16l0-.1A33.87,33.87,0,0,0,141,234.49l.22.18h0l-.17,0,0-.17a31.28,31.28,0,0,0-1.76-4.55,33,33,0,0,0-14.66-14.75A37.52,37.52,0,0,0,107.92,211a35.6,35.6,0,0,0-11.52,1.72c-1.31.44-2.32.82-3,1.12l-.77.31-.27.1a25.07,25.07,0,0,1,4-1.72,34.52,34.52,0,0,1,11.58-1.89,37.35,37.35,0,0,1,16.87,4.12,35,35,0,0,1,8.4,6,31.29,31.29,0,0,1,6.51,9,30.82,30.82,0,0,1,1.79,4.63l-.22-.19h0l.17,0,.05.16a34,34,0,0,1-6.1,31.92l0-.1c0,.08-.15.2-.2.17l.16-.07a34,34,0,0,1-8.83,7.56l0,0h0l.06,0-.44.26,0-.08s-.08.11-.11.09h.06l-2.73,1.33-.71.33Z" style="fill:#fff"></path><path d="M77,227.28c.2-.36.43-.7.65-1.05-16.06-6.5-24.62-8.33-27.21-7.48a.74.74,0,0,0-.4.23l-.05.09a.66.66,0,0,0,0,.44c.57,1.8,6,9.4,51.88,31.76,27.61,13.46,49.71,20.45,57.3,21.28a1,1,0,0,0,.83-1.6c-2.67-2.59-8.81-7.12-18.62-13.05-.13.28-.25.56-.4.83,8.05,4.92,12.69,8.56,12,9.77-1.31,2.43-23.46-5.87-49.48-18.53s-46-24.9-44.74-27.33C59.58,221.31,66.57,223.21,77,227.28Z" style="fill:#A365DB"></path><path d="M142.9,254.52c-.09.24-.19.48-.29.72,12.55,7.51,20.85,13.76,21.82,16.8a2.24,2.24,0,0,1-.73,2.58c-.8.64-3.25,2.59-22.28-3.8a353.88,353.88,0,0,1-40.86-17c-5.93-2.9-12.2-6-18.26-9.22-17.5-9.21-33.38-18.83-35.11-24.23a3.18,3.18,0,0,1,.19-2.6,3.41,3.41,0,0,1,2.11-1.67c4.63-1.51,17,2.52,29.79,7.74.11-.14.2-.28.3-.42-21.73-8.62-37.16-12.17-39.6-8.88C34.72,221.6,62.89,239.43,99,257s68.93,26.26,71.7,21.13C172.52,274.73,161.24,265.48,142.9,254.52Z" style="fill:#A365DB"></path><path d="M145.32,263.79c.2.2-2.19,0-2.25,0a24.55,24.55,0,0,1-2.63-.75c-2.32-.72-4.62-1.55-6.88-2.45-3.19-1.27-6.27-2.95-9.62-3.79a.31.31,0,0,0-.24.56c5.36,3.69,13.26,6.5,19.73,7.77.92.18,2.34.58,2.92-.43.39-.66.14-1.18-.52-1.53a.42.42,0,0,0-.51.65Z" style="fill:#A365DB"></path><g style="opacity:0.30000000000000004"><path d="M77,227.28c.2-.36.43-.7.65-1.05-16.06-6.5-24.62-8.33-27.21-7.48a.74.74,0,0,0-.4.23l-.05.09a.66.66,0,0,0,0,.44c.57,1.8,6,9.4,51.88,31.76,27.61,13.46,49.71,20.45,57.3,21.28a1,1,0,0,0,.83-1.6c-2.67-2.59-8.81-7.12-18.62-13.05-.13.28-.25.56-.4.83,8.05,4.92,12.69,8.56,12,9.77-1.31,2.43-23.46-5.87-49.48-18.53s-46-24.9-44.74-27.33C59.58,221.31,66.57,223.21,77,227.28Z"></path><path d="M145.32,263.79c.2.2-2.19,0-2.25,0a24.55,24.55,0,0,1-2.63-.75c-2.32-.72-4.62-1.55-6.88-2.45-3.19-1.27-6.27-2.95-9.62-3.79a.31.31,0,0,0-.24.56c5.36,3.69,13.26,6.5,19.73,7.77.92.18,2.34.58,2.92-.43.39-.66.14-1.18-.52-1.53a.42.42,0,0,0-.51.65Z"></path></g><g style="opacity:0.30000000000000004"><path d="M142.9,254.52c-.09.24-.19.48-.29.72,12.55,7.51,20.85,13.76,21.82,16.8a2.24,2.24,0,0,1-.73,2.58c-.8.64-3.25,2.59-22.28-3.8a353.88,353.88,0,0,1-40.86-17c-5.93-2.9-12.2-6-18.26-9.22-17.5-9.21-33.38-18.83-35.11-24.23a3.18,3.18,0,0,1,.19-2.6,3.41,3.41,0,0,1,2.11-1.67c4.63-1.51,17,2.52,29.79,7.74.11-.14.2-.28.3-.42-21.73-8.62-37.16-12.17-39.6-8.88C34.72,221.6,62.89,239.43,99,257s68.93,26.26,71.7,21.13C172.52,274.73,161.24,265.48,142.9,254.52Z"></path></g></g><g id="freepik--Neptune--inject-24"><circle cx="63.21" cy="348.34" r="29.74" style="fill:#455a64"></circle><g style="opacity:0.30000000000000004"><path d="M50.2,366.09a65.45,65.45,0,0,0,16.74,4.41c4.27.61,8.35,1.28,12.09,3.06a27.81,27.81,0,0,1-2.44,1.38c-4.27-.91-8.74-1.18-13-1.72a56.11,56.11,0,0,1-17-4.74,49.94,49.94,0,0,1-9.54-5.85,29.61,29.61,0,0,1-3-7.91c.53.6,1.07,1.19,1.65,1.75A46.93,46.93,0,0,0,50.2,366.09Z"></path></g><g style="opacity:0.1"><path d="M43.89,369.44c.62-.19,1.58.44,1.32,1.14a.57.57,0,0,1-.54.41.53.53,0,0,1-.17,0l-.07,0a1,1,0,0,1-1-1A.61.61,0,0,1,43.89,369.44Z"></path></g><g style="opacity:0.2"><path d="M71.35,367.67c3.61.79,6.88,2.61,10.26,4.08a30.33,30.33,0,0,0,3.78-3.56,30,30,0,0,0,3.3-4.45,14,14,0,0,1-3.27-1.3,15.93,15.93,0,0,1-4.84-4.93c-2.92-4-6.21-7.33-11.08-8.84-2.5-.77-5.29-.52-7.64-1.76a14.51,14.51,0,0,1-3.32-2.64c.65.28,1.31.55,2,.79a21.84,21.84,0,0,0,9.26,1,13.57,13.57,0,0,1,7.59,1.2c4.57,2.35,8.24,7.07,13.6,7.68a8.85,8.85,0,0,0,1.26.05,30.55,30.55,0,0,0,.7-5.1l-.71-.07c-2.7-.45-4.95-2.47-7-4.09a28.54,28.54,0,0,0-8.33-4.92c-3.16-1.06-6.33-.64-9.57-.62s-5.61-1.23-8.41-2.44a43.13,43.13,0,0,0-7.48-2.13c-4.74-1.13-6.87-5.55-7.21-10a29.69,29.69,0,0,0-5.24,5.67,16.22,16.22,0,0,0,6.31,8.49,11.21,11.21,0,0,0,2.51,1.23c.66.39,1.34.76,2,1.16a24.33,24.33,0,0,1,5.85,5A16.17,16.17,0,0,0,62,352c2.65,1,5.48,1.08,8,2.5,4.41,2.5,6.15,7.47,9.79,10.77.44.4-.48-.34,0,0-1.88-1.57-3-1.6-5.68-2.32-3.92-1-8.69-.78-12.64-1.65-11.78-2.59-21.1-10.33-27-20.39a29.66,29.66,0,0,0-.94,6.56,41.84,41.84,0,0,0,2.75,3.86c4,5,8,10.07,13.89,12.72a48.6,48.6,0,0,0,9.63,3.27C63.24,368,67.9,366.91,71.35,367.67ZM50,360.75c-1.37.17-2.82-1.17-3.81-2a31.17,31.17,0,0,1-3.35-3.82.48.48,0,0,1,.58-.76,17.31,17.31,0,0,1,3.5,2.9c1.05.91,2.9,1.63,3.54,2.88A.54.54,0,0,1,50,360.75Zm-.29-22.63a.28.28,0,0,1-.26.15l-.11,0c-.34-.17-.66-.37-1-.57s-.81-.53-1.2-.82a12.43,12.43,0,0,1-2.09-2,12.14,12.14,0,0,1-.85-1.18,13,13,0,0,1-.8-1.48l-.15-.34c-.09-.24-.17-.47-.24-.71a4.59,4.59,0,0,1-.2-1.06,2.08,2.08,0,0,1,.46-1.5.18.18,0,0,1,.09,0,.13.13,0,0,1,.09,0c.5.53.45.95.62,1.67a8.12,8.12,0,0,0,.22.81,9.86,9.86,0,0,0,.65,1.54c.13.25.27.49.41.73a21.67,21.67,0,0,0,4.3,4.52A.23.23,0,0,1,49.7,338.12Zm17.56,14h-.13a20.29,20.29,0,0,1-8.06-3.65c-2.48-2-4.12-4.87-6.94-6.43A.22.22,0,0,1,52,342a.31.31,0,0,1,.2-.47l.1,0c.32.13.63.27.92.42A10.47,10.47,0,0,1,54.85,343a16.71,16.71,0,0,1,1.4,1.27l.67.69c.45.47.89.95,1.36,1.43a13.85,13.85,0,0,0,3.16,2.39A50.87,50.87,0,0,0,66.16,351q.61.25,1.23.54C67.7,351.67,67.54,352.08,67.26,352.13Zm7,14.74a57.48,57.48,0,0,0-7.84-1c-4.55-.36-9.94-.55-13.58-3.65-.49-.41,0-1.22.61-1.05a56.71,56.71,0,0,0,7.72,2.08c2.8.44,5.64.54,8.46.82,3.94.39,9.88.92,12.39,4.44.3.42-.2,1-.65.84C78.91,368.75,76.73,367.42,74.23,366.87Z"></path></g><g style="opacity:0.30000000000000004"><path d="M87.34,342.51a31.57,31.57,0,0,0,2.32,2.84s1.29.7,1.25,1.06v.08a.52.52,0,0,1-.65.49c-1.62-.29-3-1.7-4.23-2.75a13.21,13.21,0,0,0-2.75-1.93,14.55,14.55,0,0,1-3.15-1.59c-.72-.61-.09-1.69.72-1.74C83.24,338.83,85.86,340.76,87.34,342.51Z"></path></g><g style="opacity:0.30000000000000004"><path d="M51.54,351.5a1.08,1.08,0,0,1-1,1.79c-5-1.14-8.55-4.34-11.56-8.44a49.34,49.34,0,0,1-3.85-6.12,46.62,46.62,0,0,1,2.41-5.33c1.5,2.47,1.71,5.83,3.21,8.11C43.37,345.56,48.42,347.8,51.54,351.5Z"></path></g><g style="opacity:0.30000000000000004"><path d="M48.49,371.77a120.75,120.75,0,0,0,11.92,2.83c3.07.6,6.3.9,8.82,2.67-1.67.57-3.34.3-5.13.56,0,0-.09-.1-.14-.11-2.06-.34-4.19.15-6.23-.29-3.58-.78-7.15-2.11-9.75-4.8A.52.52,0,0,1,48.49,371.77Z"></path></g><g style="opacity:0.30000000000000004"><path d="M79.68,352.86c-.34-1,.79-1.54,1.55-1.2,2.24,1,3.72,3.43,5.72,4.85a16,16,0,0,0,4.19,2.11c-.3.82-.63,1.62-1,2.4a12.36,12.36,0,0,1-3.75-1.49C83.9,358.08,80.65,355.66,79.68,352.86Z"></path></g><g style="opacity:0.1"><path d="M84.1,330.3c-2.68.29-4.86-.54-7.38-1.31s-5.17-.78-7.46-2-6-4.87-4.38-7.46c0,0,.63-.78.64-.82a26.91,26.91,0,0,1,11,3A29,29,0,0,1,86.6,330a6.87,6.87,0,0,1-1.36,0A3.86,3.86,0,0,1,84.1,330.3Z"></path></g><g style="opacity:0.1"><path d="M91.41,341.93a6.19,6.19,0,0,0,.84.05,28.75,28.75,0,0,0-1.49-4.8,32.38,32.38,0,0,1-3.12-1.83c-1.16-.68-2.32-1.36-3.53-1.94a17.56,17.56,0,0,0-6.87-1.87,20.13,20.13,0,0,0-3.79.38l-.34-.08a16.16,16.16,0,0,1-7.13-4.3,20.64,20.64,0,0,1-4.47-6.93,16.7,16.7,0,0,1-.53-1.87c-.53,0-1,.09-1.56.16a1.16,1.16,0,0,1,.53.74c.36,1.66,1.34,3.29,1.09,5a.9.9,0,0,1-.88.67c-2.66-.33-3.24-3.48-2.89-5.68a1.11,1.11,0,0,1,.16-.42c-.63.12-1.26.27-1.88.43a14.44,14.44,0,0,0,4,9.48,32,32,0,0,1-4.51-2.68c-2.15-1.57-2.54-3.13-1.74-5.55a6.32,6.32,0,0,0,.18-.62,27.86,27.86,0,0,0-2.71,1.09c.4.94.58,2,.9,3a6.19,6.19,0,0,0,.38,1,16.87,16.87,0,0,0,3.3,4.39.57.57,0,0,1-.37,1h-.2a6.53,6.53,0,0,1-1.74-.6,6.75,6.75,0,0,1-.82-.48,9,9,0,0,1-2.1-1.94,7.67,7.67,0,0,1-.54-.77,7,7,0,0,1-.45-.79,2.61,2.61,0,0,1-.12-.28,2.67,2.67,0,0,1-.14-.34,11.25,11.25,0,0,1-.72-2.79c-.68.4-1.34.83-2,1.28a9.6,9.6,0,0,0,.59,1.93,14.21,14.21,0,0,0,6.36,6.53c5.39,3,12.9,5.74,19.13,4.7a28.93,28.93,0,0,1,5-.86,13,13,0,0,1,5.2,1.42C85.31,339.06,88.22,341.52,91.41,341.93Zm-28-14.23a.78.78,0,0,1,0,.21.55.55,0,0,1-.29.27.46.46,0,0,1-.21.05,1.25,1.25,0,0,1-.67-.18,1.56,1.56,0,0,1-.66-.56,1.68,1.68,0,0,1-.36-.62c0-.22-.07-.45-.1-.68a.46.46,0,0,1,.27-.46.59.59,0,0,1,.41-.06.31.31,0,0,1,.13.06l.24.14.24.14a.69.69,0,0,1,.13.11l.35.35A1.9,1.9,0,0,1,63.42,327.7ZM67.21,331a.5.5,0,0,1-.35.5,1.17,1.17,0,0,1-.47.06,1.93,1.93,0,0,1-.52-.11A2.7,2.7,0,0,1,65,331a2.81,2.81,0,0,1-.35-.34,7.87,7.87,0,0,1-1-1.11.47.47,0,0,1,0-.57.71.71,0,0,1,.53-.27.61.61,0,0,1,.4.14,7.76,7.76,0,0,0,1.39.88,4.51,4.51,0,0,1,.59.47l.18.13.17.12a.87.87,0,0,1,.26.33A.53.53,0,0,1,67.21,331Zm23.28,8.22a.36.36,0,0,1-.14.16,2.55,2.55,0,0,1-1,.34,2.43,2.43,0,0,1-.66,0,8.62,8.62,0,0,1-3.34-1.83l-1-.66a22.78,22.78,0,0,0-2-1.21c-.35-.19-.7-.36-1-.52a11.56,11.56,0,0,0-3.06-.94,9.59,9.59,0,0,0-1.09-.1h-.8c-1.88,0-3.75.29-5.63.41l-1.16.05c-.39,0-.78,0-1.17,0a25.1,25.1,0,0,1-2.88-.31,15.63,15.63,0,0,1-2.78-.75,12.12,12.12,0,0,1-1.76-.81.37.37,0,0,1-.13-.12.55.55,0,0,1-.12-.33.66.66,0,0,1,.08-.34.45.45,0,0,1,.26-.21.58.58,0,0,1,.19,0c.84.1,1.68.24,2.51.37l1.36.21a31,31,0,0,0,4.08.42c2,.05,4-.28,6-.39l1,0,1,0,.7.08.7.08a13.63,13.63,0,0,1,3.4,1.09c.36.17.72.35,1.07.55A17.16,17.16,0,0,1,85.1,336a12.73,12.73,0,0,0,4.13,2.66,3.82,3.82,0,0,0,1,.13.28.28,0,0,1,.2.08A.37.37,0,0,1,90.49,339.24Z"></path></g><path d="M49.76,346.07h0Z"></path><g style="opacity:0.1"><path d="M57.28,356.15a3.62,3.62,0,0,1,1-1.88,2.31,2.31,0,0,1,1.28-.67h0a1.13,1.13,0,0,1,.63.09,5.26,5.26,0,0,1,3.27,1.53A2.41,2.41,0,0,1,64,357.8a3.12,3.12,0,0,1-2.46,1.11c-1.29.15-2.81.22-3.68-.74A2.38,2.38,0,0,1,57.28,356.15Z"></path></g><g style="opacity:0.4"><path d="M35.24,337.61h0a30.15,30.15,0,0,1,5.25-8.67h0c.1-.12.19-.23.29-.33h0a31.65,31.65,0,0,1,2.54-2.51c-.34.35-.68.7-1,1.07h0c-.1.1-.19.21-.29.33h0a30.15,30.15,0,0,0-5.25,8.67h0c-5.24,12.8,0,28.66,11.76,35.85h0A30,30,0,0,0,52.11,374h0a29.78,29.78,0,0,0,31.94-4.78c-12.16,13.06-35.27,11.28-45.29-3.5h0a29.77,29.77,0,0,1-3.51-28.07Z"></path></g><path d="M75,375.44l.2-.13.6-.33,2.34-1.24h.06s-.11,0-.1.08l0-.07.37-.23,0,0h0a30.9,30.9,0,0,0,7.57-6.68l.16-.06s-.22.08-.2.15l0-.09a29.67,29.67,0,0,0,5.15-27.6l.22.18h0l-.16,0-.07-.17-.66-1.83a11.91,11.91,0,0,0-.76-1.86l-1.11-2.17c-.42-.68-.89-1.33-1.32-2A13.84,13.84,0,0,0,86,329.5a18.45,18.45,0,0,0-1.56-1.73l-1.67-1.57c-.56-.5-1.19-.92-1.77-1.37l-.88-.67c-.3-.21-.62-.38-.93-.58l-1.84-1.11a31.71,31.71,0,0,0-14.44-3.71,29,29,0,0,0-10,1.71c-1.13.4-2,.87-2.54,1.1l-.66.29a.77.77,0,0,1-.24.08l.21-.13.64-.33c.58-.27,1.39-.76,2.52-1.2a28.06,28.06,0,0,1,10-1.89,31.68,31.68,0,0,1,14.67,3.66l1.87,1.12c.31.19.64.37.94.58l.9.68c.6.46,1.23.88,1.81,1.39l1.7,1.59a19.12,19.12,0,0,1,1.59,1.76,14.34,14.34,0,0,1,1.48,1.89c.45.68.92,1.35,1.35,2s.75,1.47,1.13,2.21a12.45,12.45,0,0,1,.78,1.9l.67,1.87-.22-.19h0l.17,0,0,.16a29.83,29.83,0,0,1-5.35,28l0-.09c0,.08-.16.2-.21.16l.16-.06a29.83,29.83,0,0,1-7.75,6.62l0,0h0l-.39.22,0-.07s-.08.1-.11.09l.06,0-2.4,1.17-.62.28C75.09,375.42,75,375.45,75,375.44Z" style="fill:#fff"></path></g><g id="freepik--Stars--inject-24"><polygon points="678.9 68.46 675.73 63.53 681.09 65.99 682.92 60.14 684.26 65.78 690.19 63.6 686.66 68.46 691.88 71.63 685.88 71.63 686.52 77.7 682.71 73.11 678.84 77.7 679.68 71.78 673.76 71.49 678.9 68.46" style="fill:#A365DB"></polygon><polygon points="644.6 279.7 642.48 276.41 646.05 278.05 647.28 274.15 648.17 277.91 652.12 276.45 649.77 279.7 653.25 281.81 649.25 281.81 649.67 285.85 647.13 282.8 644.55 285.85 645.11 281.91 641.16 281.72 644.6 279.7" style="fill:#A365DB"></polygon><polygon points="107.38 422.48 104.2 417.54 109.56 420.01 111.39 414.16 112.73 419.8 118.66 417.61 115.13 422.48 120.35 425.65 114.36 425.65 114.99 431.71 111.18 427.13 107.3 431.71 108.15 425.79 102.23 425.51 107.38 422.48" style="fill:#A365DB"></polygon><polygon points="318.37 56.76 315.2 51.82 320.56 54.29 322.39 48.44 323.73 54.08 329.65 51.89 326.13 56.76 331.35 59.93 325.35 59.93 325.99 65.99 322.18 61.41 318.3 65.99 319.15 60.07 313.23 59.79 318.37 56.76" style="fill:#A365DB"></polygon><polygon points="599.67 408 597.55 404.71 601.13 406.36 602.35 402.45 603.24 406.21 607.19 404.76 604.84 408 608.32 410.12 604.32 410.12 604.75 414.16 602.21 411.1 599.62 414.16 600.19 410.21 596.24 410.02 599.67 408" style="fill:#A365DB"></polygon><polygon points="570.64 437.19 567.08 431.65 573.09 434.42 575.15 427.85 576.65 434.18 583.3 431.73 579.34 437.19 585.2 440.75 578.47 440.75 579.18 447.55 574.91 442.41 570.56 447.55 571.51 440.9 564.86 440.59 570.64 437.19" style="fill:#A365DB"></polygon><polygon points="420.19 317.17 418.08 313.88 421.65 315.53 422.87 311.63 423.77 315.38 427.71 313.93 425.36 317.17 428.84 319.29 424.85 319.29 425.27 323.33 422.73 320.27 420.15 323.33 420.71 319.38 416.76 319.19 420.19 317.17" style="fill:#A365DB"></polygon><polygon points="213.83 201 212.39 198.77 214.81 199.89 215.64 197.24 216.25 199.79 218.93 198.8 217.34 201 219.69 202.44 216.98 202.44 217.27 205.18 215.55 203.11 213.79 205.18 214.18 202.5 211.5 202.38 213.83 201" style="fill:#A365DB"></polygon><polygon points="364.65 453.2 363.22 450.96 365.64 452.08 366.47 449.43 367.08 451.99 369.76 451 368.16 453.2 370.52 454.63 367.81 454.63 368.1 457.38 366.38 455.3 364.62 457.38 365 454.7 362.32 454.57 364.65 453.2" style="fill:#A365DB"></polygon><polygon points="286.62 48.23 285.19 46 287.61 47.12 288.44 44.47 289.05 47.02 291.73 46.03 290.13 48.23 292.49 49.67 289.78 49.67 290.07 52.41 288.35 50.34 286.59 52.41 286.97 49.73 284.29 49.6 286.62 48.23" style="fill:#A365DB"></polygon><polygon points="61.93 132.24 60.49 130.01 62.92 131.13 63.75 128.48 64.36 131.03 67.03 130.04 65.44 132.24 67.8 133.68 65.09 133.68 65.38 136.42 63.65 134.35 61.9 136.42 62.28 133.74 59.6 133.61 61.93 132.24" style="fill:#A365DB"></polygon><polygon points="578.78 176.18 577.34 173.94 579.77 175.06 580.6 172.41 581.2 174.96 583.88 173.97 582.29 176.18 584.65 177.61 581.94 177.61 582.22 180.35 580.5 178.28 578.75 180.35 579.13 177.67 576.45 177.55 578.78 176.18" style="fill:#A365DB"></polygon><polygon points="181.94 185.92 178.37 180.38 184.39 183.16 186.44 176.59 187.95 182.92 194.59 180.46 190.64 185.92 196.5 189.49 189.77 189.49 190.48 196.29 186.21 191.15 181.85 196.29 182.81 189.64 176.16 189.33 181.94 185.92" style="fill:#A365DB"></polygon></g></svg>