<?xml version="1.0" encoding="utf-8"?>
<!-- Generator: Adobe Illustrator 27.3.0, SVG Export Plug-In . SVG Version: 6.00 Build 0)  -->
<svg version="1.1" id="Layer_1" xmlns="http://www.w3.org/2000/svg" xmlns:xlink="http://www.w3.org/1999/xlink" x="0px" y="0px"
	 viewBox="0 0 1763.5 1763.5" style="enable-background:new 0 0 1763.5 1763.5;" xml:space="preserve">
<style type="text/css">
	.st0{fill:url(#SVGID_1_);}
</style>
<linearGradient id="SVGID_1_" gradientUnits="userSpaceOnUse" x1="77.5448" y1="645.1022" x2="1742.8217" y2="1119.2615" gradientTransform="matrix(1 0 0 -1 0 1761.9454)">
	<stop  offset="9.701765e-04" style="stop-color:#3638AE"/>
	<stop  offset="0.3168" style="stop-color:#5846BC"/>
	<stop  offset="1" style="stop-color:#AB68DE"/>
</linearGradient>
<path class="st0" d="M903.9,1381.5c-46.4,0-93.1-6.5-139.1-19.8c-81.7-23.5-156.2-67.8-216-128.4c-103,16.5-194.1,24.9-270.9,24.9
	c-152.1,0-239-33.1-258.2-98.4C-19.8,1026,270,877.4,408.2,815c1.5-11.2,3.4-22.4,5.6-33.3c27.6-134.3,106.6-248.7,222.6-322
	c116.1-73.3,253.2-95.7,386.1-63c105.4,26,199.7,85.9,268.2,170c44.9-5.6,88.8-9.6,130.2-11.8c192.3-10.1,300.9,22.5,322.8,96.7l0,0
	c34,115.4-169,238.9-349.6,323.8c-1.6,8.3-3.6,16.5-5.8,25.7c-32.7,132.9-116.2,244-235,312.8
	C1076,1358.7,990.5,1381.5,903.9,1381.5z M649.2,1215.3c41.2,31.6,87.3,54.9,137.8,69.4c110.7,31.8,226.5,17.6,326.2-40.2
	c89.1-51.6,154.5-131.4,187-227.4c-108,45.5-227.8,88-349.1,123.7C851,1170.4,747.5,1195.9,649.2,1215.3z M404.4,907.8
	c-45.6,21.5-88.7,43.8-126.1,65.3c-161.4,92.7-185.9,149.9-181.7,164.1c4.2,14.2,55.8,49,241.7,39.3l0,0c46.7-2.4,97.5-7.5,151.6-15
	C438.9,1086,409.3,998,404.4,907.8z M58,1147.9c0.1,0.2,0.1,0.4,0.2,0.6c0.1,0.3,0.2,0.6,0.2,0.8c-0.1-0.3-0.2-0.6-0.2-0.8
	C58.1,1148.3,58,1148.1,58,1147.9z M58,1147.8C58,1147.9,58,1147.9,58,1147.8C58,1147.9,58,1147.9,58,1147.8z M902.5,462.3
	c-78.2,0-155.1,22.1-223.3,65.2C581.9,589,515.5,685,492.4,797.8c-25.5,124.1,6.1,250.9,86.7,349.5
	c111.3-19.8,228.7-47.7,349.3-83.3c217.1-64,414.8-144.1,556.7-225.6c161.4-92.7,185.9-149.9,181.7-164.1
	c-3.4-11.4-42.5-41-181.3-41c-18.9,0-39.2,0.6-60.4,1.7c-26.5,1.4-54.6,3.6-83.9,6.7c7,12.8,13.4,25.8,19.3,39
	c4.6,10.3,4.5,22.2-0.2,32.5c-4.7,10.4-13.6,18.3-24.5,21.8c-19.5,6.2-40.7-3.7-49.3-23.1c-52.3-117.8-158.2-206.5-283.2-237.3
	C969.9,466.3,936.1,462.3,902.5,462.3z"/>
</svg>
